<?xml version="1.0" encoding="utf-8"?>
<!-- Generator: Adobe Illustrator 23.0.2, SVG Export Plug-In . SVG Version: 6.00 Build 0)  -->
<svg version="1.1" id="Group" xmlns="http://www.w3.org/2000/svg" xmlns:xlink="http://www.w3.org/1999/xlink" x="0px" y="0px"
	 viewBox="0 0 84 112.5" style="enable-background:new 0 0 84 112.5;" xml:space="preserve">
<style type="text/css">
	.st0{fill-rule:evenodd;clip-rule:evenodd;fill:#E2001A;}
	.st1{fill:#E2001A;}
</style>
<g id="Vector">
	<path class="st0" d="M82.8,50.9c-0.7-1.8-1.3-3.7-2-5.5c-0.3-0.6-0.4-1.4-0.2-2.1c0-1.1,0.2-2.3,0.2-3.4s0.2-2.5,0.2-3.7
		c0.1-1.2-0.3-2.4-1.1-3.2l-1.1-1.1c-0.4-0.4-0.9-0.9-1.6-1.6c-0.6-0.4-1-1.1-0.9-1.8v-9.4c0.1-0.7-0.2-1.5-0.7-2.1l-0.2-0.2
		c-0.7-0.7-1.6-1.4-2.2-2.1c-0.5-0.5-1.3-0.5-1.8,0c-0.4,0.4-0.4,1.1,0,1.6c0,0,0,0,0,0c0.7,0.7,1.1,1.1,1.6,1.6
		c0.6,0.5,1,1.3,0.9,2.1v9.4c0,0.9,0.3,1.7,0.9,2.3c0.7,0.7,1.3,1.4,2,2.1c0.3,0.4,0.7,0.8,1.1,1.1l0.7,0.7H28.9
		c-0.6,0-1.1,0.5-1.1,1.1s0.5,1.1,1.1,1.1h46.9c0.9,0,1.8-0.2,2.2,0.5c0.4,0.8,0.5,1.7,0.2,2.5c0,0.3-0.1,0.5-0.2,0.7
		c-0.3,1.9,0,3.9,0.7,5.7c0.4,1.1,0.9,2.3,1.3,3.4c0.2,0.7,0.4,1.4,0.7,2.1c0.2,0.3,0.2,0.8,0,1.1c-0.2,0.2-0.6,0.4-0.9,0.5h-2.7
		c-1.8-0.2-3.6,0.7-4.5,2.3c-1.5,2.5-3.4,4.8-5.6,6.6c-0.6,0.5-1.3,0.8-2,0.9c-0.7,0-1.3,0.2-2.2,0.2c-0.9,0.2-1.8,0.2-2.5,0.5
		c-1.1,0.2-2,0.9-2.5,1.8c-0.5,1-0.4,2.2,0.2,3.2l0.2,0.2c0.3,0.2,0.4,0.6,0.4,0.9v0.2h-6.1c-0.4,0-0.8,0.2-1.1,0.4
		c-0.3,0.2-0.4,0.6-0.5,0.9c0.1,0.7,0.7,1.2,1.4,1.2c0.1,0,0.1,0,0.2,0h7c1.6,0,2.2,0.5,2.2,2.1c0.1,1.9,1.1,3.7,2.7,4.8
		c1.8,1.6,3.6,3.4,5.4,5c0.6,0.5,1.1,1,1.6,1.6c0.6,0.4,0.9,1.1,0.5,1.8c-0.1,0.2-0.3,0.4-0.5,0.5c-1.1,0.9-2.2,2.1-3.4,3
		c-0.9,0.9-2,1.8-2.9,2.8c-0.8,0.7-1.2,1.9-0.9,3c0.4,1.6,0.7,3.2,1.1,4.6v0.2c0.3,0.5,0.2,1-0.2,1.4c-0.5,0.3-1,0.4-1.6,0.2h-0.2
		c-0.7-0.2-1.4-0.4-2-0.7c-2-0.7-2-0.7-4.3,0.2c-0.6,0.3-1.2,0.5-1.8,0.7h-0.2c-2.7,1.8-6,2.1-9,0.9c-0.2,0-0.4,0-0.4-0.2h-0.2
		c-1-0.3-2,0.2-2.5,1.1c-0.2,0.5-0.4,0.9-0.7,1.4c-0.1,0.4-0.4,0.7-0.7,0.9c-0.4,0.2-0.8,0.1-1.1-0.2c-1.1-0.7-2.4-1.3-3.6-1.8
		c-1.6-0.9-3.4-1.8-5.2-2.7c-1.5-0.7-3.2-1.1-4.9-0.9h-0.2c-0.6,0-1.1,0.4-1.1,1c0,0,0,0.1,0,0.1c0,0.6,0.4,1.1,1,1.1
		c0.1,0,0.1,0,0.2,0h2.2c0.6,0,1.1,0.2,1.6,0.5c2.9,1.6,5.6,3,8.5,4.6l2.5,1.1h1.4c0.2-0.2,0.2-0.2,0.5-0.4c0.4-0.2,0.7-0.5,0.9-0.9
		c0.2-0.2,0.3-0.4,0.2-0.7c0.1-0.8,0.6-1.4,1.3-1.6c0.7-0.1,1.4-0.1,2,0.2c0.3,0.1,0.6,0.2,0.9,0.2c0.2,0,0.5,0.1,0.7,0.2
		c1.3,0.4,2.7,0.3,3.8-0.5c0.9-0.5,1.8-0.9,2.7-1.1c0.9-0.3,1.7-0.7,2.5-1.1c0.9-0.5,2-0.5,2.9,0c0.7,0.2,1.6,0.7,2.5,0.9
		c1.2,0.4,2.4,0.1,3.4-0.7c1-0.9,1.3-2.2,0.9-3.4c0-0.2-0.2-0.7-0.2-0.9c-0.2-1.1-0.4-2.3-0.7-3.2c-0.4-0.8-0.1-1.8,0.7-2.3
		c1.8-1.6,3.8-3.4,5.8-5.3c0.8-0.7,1.3-1.7,1.3-2.8c-0.1-1-0.5-2-1.1-2.7l-1.1-1.1c-1.3-1.4-2.7-2.7-4-3.9c-2.9-2.3-4.3-4.8-4.5-7.8
		c-0.1-1.2-0.8-2.3-1.8-3c-0.6-0.3-1-0.8-1.3-1.4c-0.3-0.3-0.5-0.7-0.4-1.1c0.1-0.4,0.5-0.7,0.9-0.7c0.4-0.1,0.8-0.1,1.1-0.2
		c0.4,0,0.9-0.2,1.3-0.2h0.4c1.8-0.1,3.6-0.8,4.9-2.1c2.1-2.1,4.1-4.4,5.8-6.9c0.5-0.9,1.5-1.4,2.5-1.1h3.8c0.8-0.1,1.4-0.5,1.8-1.1
		c0.8-1,0.8-2.4,0.2-3.4L82.8,50.9z"/>
</g>
<g id="Vector-2">
	<path class="st1" d="M42.8,111.8l-1.4,0l-2.5-1.1c-1.5-0.8-2.9-1.6-4.3-2.3c-1.4-0.7-2.8-1.5-4.3-2.3c-0.5-0.3-1-0.4-1.5-0.4h-2.2
		c-0.1,0-0.1,0-0.2,0c-0.3,0-0.6-0.2-0.8-0.4c-0.2-0.2-0.3-0.5-0.3-0.8c0,0,0-0.1,0-0.1c0-0.3,0.2-0.6,0.4-0.8
		c0.2-0.2,0.5-0.3,0.8-0.3h0.2c1.7-0.1,3.4,0.2,5,0.9c1.8,0.9,3.6,1.8,5.2,2.7c1.2,0.5,2.4,1.1,3.6,1.8l0,0c0.3,0.3,0.7,0.4,1,0.2
		c0.3-0.2,0.5-0.5,0.6-0.9c0.2-0.4,0.4-0.8,0.6-1.1l0.1-0.2c0.5-1,1.5-1.5,2.6-1.2h0.3v0.1c0,0.1,0.1,0.1,0.4,0.1l0,0
		c2.9,1.2,6.3,0.8,8.9-0.9l0,0h0.2c0.6-0.2,1.2-0.4,1.8-0.7c2.3-0.9,2.3-0.9,4.3-0.2c0.6,0.3,1.3,0.5,2,0.7l0.2,0l0,0
		c0.5,0.1,1.1,0.1,1.5-0.2c0.3-0.3,0.4-0.8,0.2-1.3l0,0v-0.2c-0.2-0.8-0.4-1.6-0.6-2.4c-0.2-0.7-0.3-1.4-0.5-2.1
		c-0.3-1.1,0.1-2.3,0.9-3.1c0.4-0.5,1-0.9,1.5-1.4c0.5-0.4,1-0.9,1.5-1.4c0.6-0.5,1.1-1,1.7-1.5c0.6-0.5,1.1-1,1.7-1.5
		c0.2-0.1,0.4-0.3,0.5-0.5c0.3-0.6,0.1-1.3-0.5-1.7l0,0c-0.5-0.6-1-1.1-1.6-1.6c-0.9-0.8-1.8-1.7-2.7-2.5c-0.9-0.8-1.8-1.7-2.7-2.5
		c-1.6-1.1-2.7-2.9-2.7-4.9c0-1.5-0.5-2-2.2-2h-7c-0.1,0-0.1,0-0.2,0c-0.4,0-0.7-0.1-1-0.3S51,73,51,72.6c0-0.4,0.2-0.8,0.5-1
		c0.3-0.3,0.7-0.5,1.2-0.5h6V71c0-0.3-0.2-0.6-0.4-0.8L58,69.9c-0.7-1-0.8-2.3-0.2-3.3c0.5-1,1.4-1.7,2.5-1.9
		c0.4-0.1,0.8-0.2,1.2-0.2c0.4-0.1,0.8-0.1,1.2-0.2c0.5,0,0.9-0.1,1.3-0.1c0.3-0.1,0.7-0.1,1-0.1c0.7-0.1,1.4-0.4,2-0.9
		c2.3-1.8,4.1-4.1,5.6-6.6c0.9-1.6,2.7-2.6,4.6-2.3l2.7,0c0.3-0.1,0.6-0.2,0.8-0.4c0.2-0.3,0.2-0.7,0-1l0,0c-0.1-0.3-0.2-0.7-0.3-1
		c-0.1-0.3-0.2-0.7-0.3-1l-0.6-1.4c-0.3-0.7-0.5-1.3-0.8-2c-0.7-1.8-0.9-3.8-0.7-5.8l0,0l0,0c0.2-0.2,0.2-0.4,0.2-0.6l0,0l0,0
		c0.3-0.8,0.2-1.7-0.2-2.4c-0.3-0.5-0.9-0.5-1.6-0.4c-0.2,0-0.4,0-0.6,0H28.9c-0.7,0-1.2-0.6-1.2-1.2s0.6-1.2,1.2-1.2h49.4l-0.5-0.5
		c-0.4-0.3-0.8-0.7-1.1-1.2c-0.6-0.6-1.2-1.2-1.8-1.9l-0.2-0.2c-0.6-0.6-1-1.5-0.9-2.4V20c0.1-0.8-0.2-1.5-0.9-2l-0.1-0.1
		c-0.4-0.4-0.9-0.9-1.5-1.5l0,0c-0.2-0.2-0.4-0.5-0.3-0.9c0-0.3,0.1-0.6,0.4-0.9c0.6-0.5,1.4-0.5,1.9,0c0.3,0.3,0.7,0.7,1.1,1
		c0.4,0.3,0.8,0.7,1.2,1.1l0.2,0.2c0.5,0.6,0.8,1.4,0.7,2.1l0,9.4c-0.1,0.7,0.2,1.4,0.9,1.7l0,0c0.7,0.7,1.1,1.1,1.6,1.6l1.1,1.2
		c0.8,0.9,1.3,2.1,1.1,3.3c0,0.6-0.1,1.2-0.1,1.8c-0.1,0.6-0.1,1.3-0.1,1.8c0,0.6-0.1,1.2-0.1,1.7c-0.1,0.6-0.1,1.1-0.1,1.7
		c-0.1,0.7-0.1,1.4,0.2,2l2,5.5l0.7,0.7c0.6,1.1,0.6,2.5-0.2,3.5c-0.4,0.7-1.1,1.1-1.9,1.2l-3.8,0c-1-0.2-1.9,0.2-2.4,1.1
		c-1.8,2.4-3.7,4.8-5.9,6.9c-1.4,1.2-3.2,2-5,2.1h-0.5c-0.2,0-0.4,0.1-0.6,0.1c-0.2,0.1-0.5,0.1-0.7,0.1c-0.4,0.1-0.7,0.2-1.1,0.2
		c-0.4,0-0.7,0.3-0.8,0.6c0,0.4,0.1,0.8,0.4,1.1l0,0c0.3,0.6,0.8,1,1.3,1.3c1.1,0.7,1.7,1.8,1.8,3.1c0.2,3.1,1.6,5.5,4.5,7.7
		c1.3,1.1,2.7,2.5,4,3.9l0,0l1.1,1.2c0.7,0.8,1.1,1.8,1.2,2.8c-0.1,1.1-0.6,2.1-1.4,2.8l-0.3,0.3c-1.9,1.7-3.8,3.5-5.5,5
		c-0.8,0.4-1.1,1.4-0.7,2.2c0.2,0.9,0.4,2,0.7,3.1l0,0.1c0,0.1,0.1,0.3,0.1,0.5c0.1,0.2,0.1,0.3,0.1,0.5c0.4,1.3,0.1,2.6-0.9,3.5
		c-1,0.8-2.3,1.1-3.5,0.7c-0.6-0.1-1.1-0.4-1.7-0.6c-0.3-0.1-0.6-0.2-0.8-0.3c-0.9-0.5-2-0.4-2.8,0c-0.8,0.5-1.6,0.9-2.5,1.1
		c-0.9,0.3-1.8,0.7-2.7,1.1c-1.2,0.7-2.6,0.9-3.9,0.5l0,0c-0.2-0.2-0.4-0.2-0.6-0.2l0,0l0,0c-0.3,0-0.6-0.1-0.9-0.2
		c-0.6-0.3-1.3-0.4-2-0.2c-0.7,0.2-1.2,0.8-1.3,1.5c0,0.2-0.1,0.5-0.2,0.7c-0.2,0.4-0.5,0.8-0.9,0.9
		C43.1,111.5,43.1,111.6,42.8,111.8L42.8,111.8z M41.5,111.6h1.3c0.2-0.2,0.2-0.2,0.4-0.4l0,0c0.4-0.2,0.7-0.5,0.9-0.9l0,0
		c0.2-0.2,0.2-0.4,0.2-0.6c0.1-0.8,0.7-1.5,1.4-1.7c0.7-0.2,1.4-0.1,2.1,0.2c0.3,0.1,0.6,0.2,0.9,0.2c0.3,0,0.5,0.1,0.7,0.2
		c1.2,0.4,2.6,0.3,3.7-0.5c0.9-0.5,1.8-0.9,2.7-1.2c0.8-0.3,1.7-0.7,2.4-1.1c0.9-0.5,2.1-0.5,3,0c0.2,0.1,0.5,0.2,0.8,0.3
		c0.5,0.2,1.1,0.4,1.6,0.6c1.1,0.4,2.4,0.1,3.3-0.7c0.9-0.8,1.3-2.1,0.9-3.3l0,0c0-0.1-0.1-0.3-0.1-0.4c-0.1-0.2-0.1-0.4-0.1-0.5
		l0-0.1c-0.2-1.1-0.4-2.2-0.6-3.1c-0.4-0.8-0.1-1.9,0.7-2.4c1.7-1.5,3.6-3.3,5.5-5l0.3-0.3c0.8-0.7,1.3-1.6,1.3-2.7
		c-0.1-1-0.5-1.9-1.1-2.7l-1.1-1.2c-1.3-1.3-2.7-2.7-4-3.9c-2.9-2.2-4.3-4.7-4.5-7.8c-0.1-1.2-0.8-2.3-1.8-2.9
		c-0.6-0.3-1-0.8-1.4-1.4c-0.3-0.3-0.5-0.8-0.5-1.2l0,0c0.1-0.4,0.5-0.7,1-0.8c0.4-0.1,0.7-0.1,1.1-0.2l0,0c0.2,0,0.4-0.1,0.7-0.1
		c0.2-0.1,0.5-0.1,0.7-0.1h0.4c1.8-0.1,3.5-0.8,4.9-2c2.1-2.1,4.1-4.4,5.8-6.9c0.5-0.9,1.5-1.4,2.6-1.2l3.8,0
		c0.7-0.1,1.4-0.5,1.7-1.1c0.7-1,0.8-2.3,0.2-3.3l-0.7-0.7l-2-5.5c-0.3-0.7-0.4-1.4-0.2-2.1c0-0.6,0.1-1.1,0.1-1.7
		c0.1-0.6,0.1-1.1,0.1-1.7c0-0.6,0.1-1.2,0.1-1.8c0.1-0.6,0.1-1.3,0.1-1.8c0.1-1.2-0.3-2.3-1.1-3.1l-1.1-1.2
		c-0.4-0.4-0.9-0.9-1.6-1.6c-0.7-0.4-1-1.1-0.9-1.9l0-9.4c0.1-0.7-0.2-1.4-0.7-2l-0.2-0.2c-0.3-0.4-0.8-0.7-1.1-1.1
		c-0.4-0.3-0.8-0.7-1.1-1c-0.5-0.4-1.2-0.4-1.7,0c-0.2,0.2-0.3,0.4-0.3,0.7s0.1,0.5,0.3,0.7l0,0c0.6,0.6,1.1,1.1,1.5,1.5l0.1,0.1
		c0.7,0.5,1,1.3,0.9,2.1l0,9.4c0,0.8,0.3,1.6,0.9,2.2l0.2,0.2c0.6,0.6,1.2,1.3,1.9,1.9c0.3,0.4,0.7,0.8,1.1,1.1l0.8,0.8H28.9
		c-0.6,0-1.1,0.5-1.1,1.1s0.5,1.1,1.1,1.1h46.9c0.2,0,0.4,0,0.5,0c0.7,0,1.4-0.1,1.8,0.5c0.4,0.8,0.5,1.7,0.2,2.6
		c0,0.3-0.1,0.5-0.2,0.7c-0.3,1.9,0,3.9,0.7,5.6c0.3,0.7,0.5,1.3,0.8,2l0.6,1.4c0.1,0.4,0.2,0.7,0.3,1c0.1,0.3,0.2,0.7,0.3,1
		c0.2,0.4,0.2,0.9,0,1.2c-0.3,0.3-0.6,0.4-1,0.5l-2.7,0c-1.8-0.2-3.5,0.7-4.4,2.2c-1.5,2.6-3.4,4.8-5.6,6.7
		c-0.6,0.5-1.3,0.8-2.1,0.9c-0.3,0-0.6,0-1,0.1c-0.4,0.1-0.8,0.1-1.3,0.1c-0.4,0.1-0.8,0.2-1.2,0.2c-0.4,0.1-0.9,0.1-1.2,0.2
		c-1.1,0.2-1.9,0.8-2.4,1.8c-0.5,1-0.4,2.2,0.2,3.1l0.2,0.2c0.3,0.2,0.5,0.6,0.5,1v0.3h-6.2c-0.4,0-0.8,0.2-1.1,0.4
		c-0.3,0.2-0.4,0.5-0.4,0.9c0,0.3,0.2,0.6,0.4,0.8c0.2,0.2,0.5,0.3,0.9,0.3c0.1,0,0.1,0,0.2,0l7,0c1.7,0,2.3,0.6,2.3,2.2
		c0.1,1.9,1.1,3.7,2.7,4.7c0.9,0.8,1.8,1.7,2.7,2.5c0.9,0.8,1.8,1.7,2.7,2.5c0.6,0.5,1.1,1,1.6,1.6c0.7,0.4,0.9,1.2,0.5,1.9
		c-0.1,0.2-0.3,0.4-0.5,0.5c-0.5,0.4-1.1,1-1.7,1.5c-0.6,0.5-1.1,1-1.7,1.5c-0.4,0.5-1,0.9-1.5,1.4c-0.5,0.4-1,0.9-1.5,1.4
		c-0.8,0.7-1.1,1.8-0.9,2.9c0.2,0.7,0.4,1.4,0.5,2.1c0.2,0.9,0.4,1.7,0.6,2.4l0,0v0.2c0.3,0.5,0.2,1.1-0.3,1.5
		c-0.5,0.3-1.1,0.4-1.6,0.2h-0.2c-0.7-0.2-1.4-0.4-2.1-0.7c-2-0.7-2-0.7-4.2,0.2c-0.6,0.3-1.2,0.5-1.8,0.7l0,0h-0.2
		c-2.7,1.8-6,2.1-9,0.9c-0.2,0-0.5,0-0.5-0.2l-0.2,0c-0.9-0.3-1.9,0.2-2.4,1.1L43,107c-0.2,0.4-0.4,0.8-0.6,1.1
		c-0.1,0.4-0.4,0.7-0.7,1l0,0c-0.4,0.2-0.9,0.1-1.2-0.2c-1.1-0.7-2.3-1.3-3.6-1.8c-1.6-0.9-3.4-1.8-5.2-2.7c-1.5-0.7-3.2-1-4.9-0.9
		l-0.2,0c-0.3,0-0.5,0.1-0.7,0.3c-0.2,0.2-0.3,0.4-0.3,0.7c0,0,0,0.1,0,0.1c0,0.3,0.1,0.5,0.2,0.7c0.2,0.2,0.4,0.3,0.7,0.3
		c0,0,0.1,0,0.1,0l2.3,0c0.6,0,1.1,0.2,1.6,0.5c1.5,0.8,2.9,1.6,4.3,2.3c1.4,0.7,2.8,1.5,4.3,2.3L41.5,111.6z"/>
</g>
<g id="Vector-3">
	<path class="st0" d="M83,55.7c-0.4,0.7-1,1.1-1.8,1.1h-3.8c-1,0-1.9,0.4-2.5,1.1c-1.7,2.5-3.7,4.8-5.8,6.9
		c-1.6,1.4-3.1,1.6-4.9,2.1h-0.4c-0.4,0-0.9,0.2-1.3,0.2c-0.4,0.1-0.8,0.1-1.1,0.2c-0.4-0.1-0.8,0.2-0.9,0.7c0,0.4,0.1,0.8,0.4,1.1
		c0.4,0.5,0.9,0.9,1.3,1.4c1,0.7,1.7,1.8,1.8,3c0,3.2,1.6,5.5,4.5,7.8c1.3,1.1,2.7,2.5,4,3.9c0.5,0.5,0.9,0.9,1.1,1.1
		c0.8,0.7,1.3,1.7,1.1,2.8c-0.1,1.1-0.6,2-1.3,2.7c-2,1.8-3.8,3.7-5.8,5.3c-0.7,0.7-1.1,1.1-0.7,2.3c0.2,1.1,0.5,2.1,0.7,3.2
		c0,0.2,0.2,0.7,0.2,0.9c0.3,1.2,0,2.5-0.9,3.4c-0.9,0.9-2.2,1.2-3.4,0.7c-0.9-0.2-1.7-0.5-2.5-0.9c-0.9-0.5-2-0.5-2.9,0
		c-0.9,0.5-1.6,0.7-2.5,1.1s-1.8,0.7-2.7,1.1c-1.2,0.6-2.5,0.8-3.8,0.5c-0.2,0-0.4-0.2-0.7-0.2c-0.3-0.1-0.6-0.2-0.9-0.2
		c-0.6-0.3-1.3-0.4-2-0.2c-0.7,0.2-1.2,0.9-1.3,1.6c0,0.2-0.2,0.5-0.2,0.7c-0.2,0.4-0.5,0.7-0.9,0.9c-0.2,0.1-0.4,0.3-0.4,0.5h-1.3
		l-2.5-1.1c-2.9-1.6-5.6-3-8.5-4.6c-0.5-0.3-1-0.4-1.6-0.4h-2.2c-0.6,0-1.1-0.4-1.1-1c0-0.1,0-0.1,0-0.2c0-0.6,0.4-1.1,1-1.1
		c0,0,0.1,0,0.1,0h0.2c1.7-0.2,3.4,0.2,4.9,0.9c1.6,0.9,3.4,1.8,5.2,2.8c1.1,0.7,2.5,1.1,3.6,1.8c0.3,0.3,0.7,0.4,1.1,0.2
		c0.4-0.1,0.7-0.5,0.7-0.9c0.2-0.5,0.4-0.9,0.7-1.4c0.4-0.9,1.5-1.4,2.5-1.1h0.2c0.2,0,0.4,0,0.4,0.2c3,1.2,6.3,0.9,9-0.9h0.2
		c0.6-0.3,1.2-0.5,1.8-0.7c2.2-0.9,2.2-0.9,4.3-0.2c0.6,0.3,1.3,0.5,2,0.7h0.2c0.5,0.4,1.2,0.3,1.5-0.2c0,0,0,0,0,0
		c0.3-0.4,0.4-0.9,0.2-1.4v-0.2c-0.3-1.5-0.7-3.1-1.1-4.6c-0.3-1.1,0.1-2.2,0.9-3c0.9-0.9,2-1.8,2.9-2.7c1.1-0.9,2.2-2.1,3.4-3
		c0.4-0.3,0.6-0.7,0.7-1.1c-0.1-0.4-0.3-0.9-0.7-1.1c-0.6-0.5-1.1-1-1.6-1.6c-1.8-1.6-3.6-3.4-5.4-5c-1.6-1.1-2.5-2.9-2.7-4.8
		c0-1.4-0.7-2.1-2.2-2.1h-7c-0.4,0-1.6-0.2-1.6-1.1c0-0.4,0.2-0.7,0.4-0.9c0.4-0.2,0.7-0.3,1.1-0.5h6.1v-0.2
		c0.1-0.4-0.1-0.7-0.4-0.9l-0.2-0.2c-0.6-1-0.7-2.2-0.2-3.2c0.3-1.1,1.3-1.8,2.5-1.8c0.9-0.2,1.8-0.2,2.5-0.5c0.7,0,1.3-0.2,2.2-0.2
		c0.7-0.1,1.4-0.4,2-0.9c2.2-1.9,4.1-4.1,5.6-6.6c0.9-1.6,2.7-2.5,4.5-2.3h2.7c0.4,0,0.7-0.1,0.9-0.5c0.1-0.4,0.1-0.8,0-1.1
		c-0.2-0.7-0.4-1.4-0.7-2.1c-0.4-1.1-0.9-2.3-1.3-3.4c-0.7-1.8-0.9-3.8-0.7-5.7c0-0.3,0.1-0.5,0.2-0.7c0.3-0.8,0.2-1.7-0.2-2.5
		c-0.4-0.7-1.3-0.4-2.2-0.4H28.7c-0.6,0-1.1-0.5-1.1-1.1c0-0.6,0.4-1.1,1-1.1c0,0,0.1,0,0.1,0h49.6l-0.7-0.7
		c-0.4-0.4-0.7-0.7-1.1-1.1c-0.7-0.7-1.3-1.4-2-2.1c-0.6-0.6-0.9-1.4-0.9-2.3v-9.4c0-0.8-0.3-1.5-0.9-2.1L71.1,17
		c-0.4-0.4-0.4-1.1,0-1.6c0,0,0,0,0,0c0.5-0.5,1.3-0.5,1.8,0c0.7,0.7,1.6,1.4,2.2,2.1l0.2,0.2c0.7-0.2,0.9,0.5,0.9,1.4v9.4
		c-0.1,0.8,0.3,1.6,0.9,2.1c0.4,0.5,0.9,0.9,1.6,1.6l1.1,1.1c0.9,0.8,1.3,2,1.1,3.2c0,1.1-0.2,2.5-0.2,3.7s-0.2,2.3-0.2,3.4
		c0,0.7,0,1.4,0.2,2.1c0.7,1.8,1.3,3.7,2,5.5l0.4,1.4C83.8,53.5,83.7,54.7,83,55.7z"/>
</g>
<g id="Vector-4">
	<path class="st1" d="M42.6,112.5l-1.5,0l-2.5-1.1c-1.5-0.8-2.9-1.6-4.3-2.3c-1.4-0.7-2.8-1.5-4.2-2.3c-0.5-0.3-1-0.4-1.5-0.4
		l-2.2,0c-0.3,0-0.6-0.1-0.8-0.3c-0.2-0.2-0.4-0.5-0.4-0.8c0-0.1,0-0.1,0-0.2c0-0.3,0.1-0.6,0.3-0.8c0.2-0.2,0.5-0.4,0.8-0.4
		c0,0,0.1,0,0.1,0h0.2c1.7-0.2,3.4,0.2,5,0.9c1.5,0.9,3.2,1.7,4.8,2.6l0.4,0.2c0.6,0.3,1.2,0.6,1.8,0.9c0.6,0.3,1.3,0.6,1.8,0.9
		c0.3,0.3,0.7,0.4,1,0.2c0.4-0.1,0.6-0.4,0.6-0.8l0,0c0.1-0.2,0.2-0.4,0.3-0.6c0.1-0.2,0.2-0.5,0.4-0.7c0.5-1,1.5-1.5,2.6-1.2h0.2
		c0.2,0,0.5,0,0.5,0.2c2.9,1.2,6.2,0.8,8.8-0.9l0,0h0.2c0.6-0.3,1.2-0.5,1.8-0.7c2.2-0.9,2.3-0.9,4.3-0.2c0.7,0.3,1.3,0.5,2,0.7
		l0.2,0l0,0c0.4,0.3,1.1,0.3,1.4-0.2l0.1,0L65,105c0.3-0.4,0.3-0.8,0.2-1.3l0,0v-0.2c-0.3-1.5-0.7-3-1.1-4.5
		c-0.3-1.1,0.1-2.3,0.9-3.1c0.4-0.5,1-0.9,1.5-1.4c0.5-0.5,1-0.9,1.5-1.4c0.6-0.5,1.1-1,1.7-1.5c0.6-0.5,1.1-1,1.7-1.5
		c0.3-0.3,0.6-0.6,0.6-1.1c-0.1-0.4-0.3-0.8-0.6-1.1c-0.6-0.5-1.1-1-1.6-1.6c-0.9-0.8-1.8-1.7-2.7-2.5c-0.9-0.8-1.8-1.7-2.7-2.5
		c-1.6-1.1-2.6-2.9-2.7-4.9c0-1.4-0.7-2-2.2-2h-7c-0.4,0-1.7-0.2-1.7-1.2c0-0.4,0.2-0.8,0.5-1c0.4-0.2,0.8-0.4,1.2-0.5l0,0h6v-0.1
		c0-0.3-0.1-0.7-0.4-0.8l0,0l-0.2-0.2c-0.7-1-0.7-2.3-0.2-3.3c0.4-1.1,1.4-1.9,2.6-1.9c0.4-0.1,0.8-0.2,1.2-0.2
		c0.4-0.1,0.9-0.1,1.2-0.2l0,0c0.3,0,0.6,0,0.9-0.1c0.4-0.1,0.8-0.1,1.3-0.1c0.7-0.1,1.4-0.4,2-0.9c2.2-1.9,4.1-4.1,5.6-6.6
		c0.9-1.6,2.7-2.5,4.6-2.3l2.7,0c0.3,0,0.7-0.1,0.8-0.4c0.1-0.3,0.1-0.7,0-1.1c-0.1-0.3-0.2-0.7-0.3-1c-0.1-0.3-0.2-0.7-0.3-1
		c-0.3-0.7-0.5-1.4-0.8-2.1l-0.5-1.3c-0.7-1.8-0.9-3.8-0.7-5.8c0-0.3,0.1-0.5,0.2-0.7c0.3-0.8,0.2-1.7-0.2-2.4
		c-0.3-0.5-0.9-0.5-1.6-0.4c-0.2,0-0.4,0-0.6,0H28.7c-0.7-0.1-1.2-0.6-1.2-1.2c0-0.6,0.4-1.2,1.1-1.2c0,0,0.1,0,0.1,0l49.4,0
		l-0.5-0.5c-0.4-0.4-0.7-0.7-1.1-1.1l-0.1-0.1c-0.4-0.4-0.7-0.7-1.1-1.1c-0.3-0.3-0.6-0.6-0.9-1c-0.6-0.6-1-1.5-0.9-2.4v-9.4
		c0-0.8-0.3-1.5-0.9-2L71,17.1c-0.5-0.5-0.5-1.2,0-1.7l0,0c0.6-0.5,1.4-0.5,1.9,0c0.3,0.4,0.8,0.7,1.2,1.1c0.4,0.3,0.8,0.7,1.1,1
		l0.2,0.2c0.2-0.1,0.4,0,0.5,0.1c0.3,0.2,0.4,0.7,0.4,1.4v9.4c-0.1,0.8,0.2,1.5,0.9,2c0.5,0.5,0.9,0.9,1.6,1.6l1.1,1.2
		c0.9,0.8,1.3,2.1,1.1,3.3c0,0.6-0.1,1.2-0.1,1.8c-0.1,0.6-0.1,1.3-0.1,1.8c0,0.6-0.1,1.2-0.1,1.7c-0.1,0.6-0.1,1.1-0.1,1.7
		c0,0.7,0,1.4,0.2,2l2,5.5l0.5,1.4c0.6,1,0.5,2.3-0.2,3.3c-0.4,0.7-1.1,1.1-1.9,1.2l-3.8,0c0,0,0,0,0,0c-0.9,0-1.8,0.4-2.4,1.1
		c-1.7,2.5-3.7,4.8-5.8,6.9c-1.4,1.2-2.8,1.5-4.3,1.9c-0.2,0.1-0.5,0.1-0.7,0.2l-0.5,0c-0.2,0-0.4,0.1-0.7,0.1
		c-0.2,0.1-0.5,0.1-0.7,0.1c-0.4,0.1-0.7,0.1-1.1,0.2l0,0l0,0c-0.4-0.1-0.7,0.2-0.8,0.6c0,0.4,0.1,0.8,0.4,1.1
		c0.2,0.2,0.4,0.4,0.6,0.7c0.2,0.2,0.5,0.5,0.7,0.7c1,0.7,1.7,1.8,1.8,3c0,3,1.3,5.3,4.5,7.7c1.4,1.2,2.7,2.5,4.1,3.9
		c0.4,0.4,0.9,0.9,1.1,1.1c0.8,0.7,1.3,1.8,1.2,2.8c-0.1,1.1-0.6,2.1-1.4,2.8c-0.7,0.6-1.3,1.2-1.9,1.8c-1.3,1.2-2.5,2.4-3.9,3.5
		c-0.7,0.7-1.1,1.1-0.6,2.2c0.1,0.6,0.2,1.1,0.3,1.6c0.1,0.5,0.2,1,0.3,1.6c0,0.1,0.1,0.3,0.1,0.4c0.1,0.2,0.1,0.4,0.1,0.5
		c0.3,1.2,0,2.6-0.9,3.5c-0.9,0.9-2.3,1.2-3.5,0.7c-0.9-0.2-1.7-0.5-2.5-0.9c-0.9-0.4-1.9-0.4-2.8,0c-0.5,0.2-0.8,0.4-1.2,0.6
		c-0.4,0.2-0.8,0.3-1.2,0.6c-0.5,0.2-0.9,0.4-1.4,0.6c-0.4,0.2-0.9,0.3-1.3,0.6c-1.2,0.6-2.6,0.8-3.9,0.5c0,0,0,0,0,0
		c-0.1,0-0.2-0.1-0.4-0.1c-0.1-0.1-0.2-0.1-0.3-0.1l0,0c-0.3-0.1-0.6-0.2-0.9-0.2l0,0c-0.6-0.3-1.3-0.4-2-0.2
		c-0.7,0.2-1.2,0.8-1.3,1.5c0,0.1-0.1,0.3-0.1,0.4c-0.1,0.1-0.1,0.2-0.1,0.3l0,0c-0.2,0.4-0.5,0.8-0.9,1
		C42.9,112.1,42.7,112.2,42.6,112.5L42.6,112.5z M41.2,112.3h1.3c0.1-0.2,0.3-0.4,0.5-0.5c0.4-0.2,0.7-0.5,0.8-0.8
		c0-0.1,0.1-0.3,0.1-0.4c0.1-0.1,0.1-0.2,0.1-0.3c0.1-0.8,0.7-1.5,1.4-1.7c0.7-0.2,1.4-0.1,2.1,0.2c0.3,0,0.6,0.1,0.9,0.2
		c0.1,0,0.2,0.1,0.4,0.1c0.1,0.1,0.2,0.1,0.3,0.1c1.3,0.3,2.6,0.1,3.8-0.5c0.5-0.2,0.9-0.4,1.4-0.6c0.4-0.2,0.9-0.3,1.3-0.6
		c0.5-0.2,0.9-0.4,1.2-0.6c0.4-0.2,0.8-0.3,1.2-0.6c0.9-0.5,2.1-0.5,3,0c0.8,0.4,1.6,0.7,2.4,0.9c1.1,0.5,2.4,0.2,3.3-0.7
		c0.8-0.9,1.2-2.1,0.9-3.3c0-0.1-0.1-0.3-0.1-0.5c-0.1-0.2-0.1-0.4-0.1-0.5c-0.1-0.6-0.2-1.1-0.3-1.6c-0.1-0.5-0.2-1-0.3-1.6
		c-0.5-1.2,0-1.7,0.7-2.4c1.4-1.1,2.6-2.2,3.9-3.5c0.6-0.6,1.3-1.2,1.9-1.8c0.8-0.7,1.3-1.7,1.3-2.7c0.1-1-0.3-2-1.1-2.7
		c-0.2-0.2-0.7-0.7-1.1-1.1c-1.3-1.3-2.7-2.7-4-3.9c-3.2-2.5-4.5-4.8-4.5-7.9c-0.1-1.2-0.8-2.3-1.8-2.9c-0.3-0.3-0.5-0.5-0.7-0.7
		c-0.2-0.2-0.4-0.4-0.6-0.7c-0.3-0.3-0.5-0.8-0.5-1.2c0.1-0.5,0.5-0.8,1-0.8c0.4-0.1,0.7-0.2,1.1-0.2c0.2,0,0.4-0.1,0.7-0.1
		c0.2-0.1,0.5-0.1,0.7-0.1h0.4c0.2-0.1,0.5-0.1,0.7-0.2c1.5-0.4,2.9-0.7,4.2-1.9c2.2-2.1,4.1-4.4,5.8-6.8c0.6-0.8,1.6-1.2,2.5-1.2
		h3.8c0.7-0.1,1.4-0.5,1.7-1.1l0,0c0.7-0.9,0.8-2.1,0.2-3.1l-0.5-1.4l-2-5.5c-0.2-0.7-0.3-1.4-0.2-2.1c0-0.6,0.1-1.1,0.1-1.7
		c0.1-0.6,0.1-1.1,0.1-1.7c0-0.6,0.1-1.2,0.1-1.8c0.1-0.6,0.1-1.2,0.1-1.8c0.2-1.2-0.2-2.3-1.1-3.1l-1.1-1.2
		c-0.7-0.7-1.1-1.1-1.6-1.6c-0.7-0.5-1-1.3-0.9-2.1l0-9.4c0-0.7-0.1-1.1-0.3-1.3c-0.1-0.1-0.3-0.1-0.4,0l-0.1,0l-0.3-0.3
		c-0.3-0.3-0.7-0.7-1.1-1c-0.4-0.3-0.8-0.7-1.2-1.1c-0.5-0.4-1.2-0.4-1.7,0l0,0c-0.4,0.4-0.4,1.1,0,1.4l1.6,1.6
		c0.6,0.5,1,1.3,0.9,2.1V30c0,0.8,0.3,1.6,0.9,2.2c0.3,0.3,0.6,0.6,0.9,1c0.4,0.4,0.7,0.7,1.1,1.1l0.1,0.1c0.4,0.4,0.6,0.7,1.1,1.1
		l0.8,0.9H28.7c0,0-0.1,0-0.1,0c-0.3,0-0.5,0.1-0.7,0.3c-0.2,0.2-0.3,0.4-0.2,0.7c0,0.6,0.5,1,1,1.1l46.9,0c0.2,0,0.4,0,0.5,0
		c0.7,0,1.4-0.1,1.8,0.5c0.4,0.8,0.5,1.7,0.2,2.6l0,0c-0.2,0.2-0.2,0.4-0.2,0.6l0,0l0,0c-0.3,1.9,0,3.9,0.7,5.7l0.5,1.3
		c0.3,0.7,0.5,1.4,0.8,2.1c0.1,0.3,0.2,0.7,0.3,1c0.1,0.3,0.2,0.7,0.3,1c0.1,0.4,0.1,0.8,0,1.2c-0.2,0.4-0.6,0.6-1,0.5l-2.7,0
		c-1.8-0.2-3.5,0.7-4.4,2.2c-1.5,2.5-3.4,4.8-5.6,6.7c-0.6,0.5-1.3,0.8-2.1,0.9c-0.5,0-0.9,0.1-1.3,0.1c-0.3,0.1-0.6,0.1-1,0.1
		c-0.4,0.1-0.8,0.2-1.2,0.2c-0.4,0.1-0.8,0.1-1.2,0.2c-1.1,0-2.1,0.7-2.4,1.8c-0.5,1-0.4,2.2,0.2,3.1l0.2,0.2c0.3,0.2,0.5,0.6,0.5,1
		l0,0.3h-6.1c-0.4,0.1-0.7,0.3-1.1,0.4C51.1,72.6,51,73,51,73.3c0,0.9,1.1,1,1.5,1h7c1.6,0,2.3,0.7,2.3,2.2c0.2,1.9,1.1,3.6,2.7,4.7
		c0.9,0.8,1.8,1.7,2.7,2.5c0.9,0.8,1.8,1.7,2.7,2.5c0.5,0.6,1,1.1,1.6,1.6c0.4,0.3,0.6,0.7,0.7,1.2l0,0l0,0
		c-0.1,0.5-0.3,0.9-0.7,1.2c-0.6,0.5-1.1,1-1.7,1.5c-0.6,0.5-1.1,1-1.7,1.5c-0.4,0.5-1,0.9-1.5,1.4c-0.5,0.4-1,0.9-1.4,1.4
		c-0.8,0.7-1.1,1.8-0.9,2.9c0.5,1.5,0.8,3,1.1,4.6l0,0.2c0.1,0.5,0.1,1-0.2,1.4l-0.1,0l0.1,0.1c-0.4,0.5-1.1,0.6-1.7,0.2h-0.2
		c-0.7-0.2-1.4-0.4-2.1-0.7c-2-0.7-2-0.7-4.2,0.2c-0.6,0.2-1.2,0.4-1.8,0.7l0,0H55c-2.7,1.8-6.1,2.1-9,0.9l-0.1,0v-0.1
		c0-0.1-0.1-0.1-0.4-0.1l-0.3,0c-0.9-0.3-1.9,0.2-2.4,1.1c-0.1,0.2-0.2,0.5-0.4,0.7c-0.1,0.2-0.2,0.4-0.3,0.6c0,0.5-0.3,0.9-0.7,1
		c-0.4,0.2-0.9,0.1-1.2-0.3c-0.5-0.3-1.2-0.6-1.8-0.9c-0.6-0.3-1.2-0.6-1.8-0.9l-0.4-0.2c-1.6-0.8-3.3-1.7-4.8-2.6
		c-1.5-0.7-3.2-1.1-4.9-0.9l-0.2,0c0,0-0.1,0-0.1,0c-0.5,0-0.9,0.5-0.9,1c0,0.1,0,0.1,0,0.2c0,0.3,0.1,0.5,0.3,0.7
		c0.2,0.2,0.4,0.3,0.7,0.2h2.2c0.6,0,1.1,0.2,1.6,0.5c1.5,0.8,2.9,1.6,4.2,2.3c1.4,0.7,2.8,1.5,4.3,2.3L41.2,112.3z"/>
</g>
<g id="Vector-5">
	<path class="st0" d="M18.1,83.8c-1.1-0.5-2.5-0.7-3.6-1.1c-1.3-0.4-2.7-0.7-4-1.1h-0.2c-0.5,0-0.9-0.3-1.1-0.7
		C8,79,7.1,77.2,6,75.3c-0.1-0.3-0.2-0.6-0.2-0.9c0.2-0.3,0.5-0.5,0.9-0.5h38.6c0.6,0,1.1-0.5,1.1-1.1c0-0.6-0.4-1.1-1-1.1
		c0,0-0.1,0-0.1,0H5.5c-0.8,0.1-1.5-0.4-1.8-1.1c-0.3-0.5-0.2-1.2,0.2-1.6l0.2-0.2c0.2-0.4,0.5-0.8,0.9-1.1l0.4-0.5
		c2.2-3,2.2-3,0.2-6.2c-1.3-2.1-1.6-3.7-0.7-5.7c1.1-3,2-6.2,0.2-9.4c-0.2-0.4-0.3-0.8-0.2-1.1c0.2-0.5,0.6-0.7,1.1-0.7
		c0.8-0.3,1.6-0.4,2.5-0.5l0.7-0.2c3.1-0.7,3.1-0.9,3.6-4.1c-0.1-0.4,0-0.8,0.2-1.1c0.3-0.4,0.8-0.6,1.3-0.5h7.2
		c0.7,0.1,1.4-0.3,1.6-1c0,0,0-0.1,0-0.1c0.1-0.3,0-0.7-0.2-0.9c-0.4-0.3-0.9-0.5-1.3-0.4H15c-0.5,0.1-1-0.1-1.3-0.5
		c-0.2-0.4-0.3-0.9-0.2-1.4c0.4-4.4,0.9-8.7,1.3-12.8c-0.1-0.8,0.5-1.5,1.3-1.6c0,0,0,0,0,0c0.7,0,1.1-0.2,1.8-0.2s1.3-0.2,2.2-0.2
		c2.3,0.4,4.7-0.3,6.5-1.8c0.9-0.7,1.8-1.1,2.5-1.6l0.4-0.2c1-0.5,1.7-1.6,1.6-2.8c-0.2-2.5-0.2-5-0.2-7.6V3.7
		c-0.1-0.5,0.1-1,0.4-1.4c0.5-0.1,1.1-0.1,1.6,0.2l1.3,0.7c0.9,0.5,1.6,0.7,2.5,1.1c0.8,0.3,1.4,1,1.6,1.8c0.2,2.5,0.9,3,3.6,2.5
		c0.9,0,2-0.2,2.9-0.2c0.4,0,1.1-0.2,1.6-0.2h0.9L46.8,9c-0.2,0.3-0.4,0.6-0.4,0.9c-0.4,0.7-0.7,1.1-1.1,1.8c-0.4,0.7-0.4,1.6,0,2.3
		c0.3,0.6,0.9,1,1.6,0.9c2.1,0.3,4.3,0.1,6.3-0.7c1.8-0.9,3.6-1.8,5.4-3c0.7-0.5,1.6-0.7,2.2-1.1c2.5-1.4,2.7-1.4,4.7,0.7
		c0.5,0.5,1.3,0.5,1.8,0c0.5-0.5,0.4-1.3-0.1-1.7c0,0-0.1-0.1-0.1-0.1c-0.4-0.5-0.9-0.9-1.3-1.4l-0.4-0.5c-1.3-1.4-2-1.4-3.8-0.5
		c-0.9,0.5-1.6,0.9-2.5,1.4c-2,1.1-4.3,2.3-6.3,3.4c-1.4,0.8-3.1,1.1-4.7,0.9h-0.7l1.3-1.4c0.3-0.5,0.6-1,0.9-1.6
		c0.5-0.8,0.5-1.7,0-2.5c-0.4-0.8-1.3-1.3-2.2-1.1c-0.4,0-1.1,0.2-1.6,0.2c-1.1,0.2-2.5,0.2-3.6,0.5c-0.5,0.2-1,0.1-1.3-0.2
		c-0.3-0.3-0.5-0.7-0.4-1.1c0-1.3-1-2.5-2.2-2.8c-0.9-0.5-1.9-0.9-2.9-1.1C34.7,1,34,0.8,33.6,0.5c-0.5-0.2-1-0.4-1.6-0.4
		c-0.6,0-1.2,0.2-1.8,0.4c-1,0.7-1.5,2-1.3,3.2c0,2.7,0.2,5.3,0.2,7.6c0,0.7-0.3,1.3-0.9,1.6c-1.1,0.7-2.2,1.4-3.4,2.1
		c-0.4,0.2-0.8,0.4-1.1,0.7c-0.3,0.3-0.7,0.5-1.1,0.5c-1.1,0.2-2.2,0.4-3.4,0.5c-1.3,0.3-2.7,0.4-4,0.4c-2.5,0.5-3.6,1.4-3.8,4.1
		c-0.2,3.2-0.7,6.4-0.9,9.6c-0.2,3-0.7,5.7-0.9,8.7C9.6,40.2,9,40.9,8.2,41c-0.9,0.2-2,0.5-2.9,0.7H4.8c-1.1,0.2-2,0.9-2.5,1.8
		c-0.5,0.9-0.6,2-0.2,3C2.3,47.4,2.6,48.2,3,49c0.2,0.6,0.2,1.2,0,1.8c-0.4,1.3-0.8,2.6-1.1,3.9c-0.2,0.9-0.4,1.8-0.7,2.5
		C1,58.1,1.1,59,1.5,59.8c0.2,0.5,0.7,0.9,0.9,1.4c0.5,0.7,0.7,1.4,1.1,2.1c0.4,0.4,0.5,1.1,0,1.6c0,0,0,0,0,0
		c-0.6,0.5-1,1.1-1.3,1.8c-0.4,0.5-0.9,1.1-1.3,1.6c-0.8,0.9-0.9,2.2-0.2,3.2c2,3.4,4,7.1,6.3,10.8c0.4,0.8,1.1,1.4,2,1.6
		c2.2,0.7,4.5,1.1,6.5,1.8l1.8,0.5c0.7,0.4,1.3,0.4,1.3,0.9c0.2,0.6,0,1.2-0.5,1.6L17.4,90c-1.1,2.3-2.5,4.8-3.8,7.3
		c-0.2,0.7-0.3,1.5-0.2,2.3c0,0.7,0.2,1.4,0.2,2.1c0,0.9,0.2,1.6,0.2,2.5c0.1,1.2,1.1,2.1,2.2,2.1H19c0.6,0,1.1-0.4,1.1-1
		c0,0,0-0.1,0-0.1c0-0.7-0.5-1.2-1.1-1.4h-2c-0.7,0-0.9-0.2-0.9-0.7c0-0.5,0-0.9-0.2-1.4c-0.4-1.2-0.3-2.5,0.2-3.7
		c0.9-1.8,2-3.9,2.9-5.7c0.4-0.9,0.9-1.7,1.3-2.5c0.7-1.1,0.8-2.4,0.5-3.7C20.3,84.9,19.3,84.1,18.1,83.8z"/>
</g>
<g id="Vector-6">
	<path class="st1" d="M19,106.3C19,106.3,19,106.3,19,106.3l-3,0c0,0,0,0,0,0c-1.2,0-2.2-0.9-2.3-2.1c0-0.5-0.1-0.9-0.1-1.3
		c-0.1-0.4-0.1-0.8-0.1-1.3c0-0.3-0.1-0.7-0.1-1c-0.1-0.3-0.1-0.7-0.1-1c0-0.8,0-1.6,0.2-2.3c1.4-2.7,2.7-5.1,3.8-7.3l0.7-1.4
		c0.4-0.4,0.6-1,0.4-1.5l0,0c0-0.2-0.2-0.3-0.6-0.5c-0.2-0.1-0.5-0.2-0.7-0.4l-1.8-0.5c-1.1-0.4-2.3-0.7-3.6-1
		c-0.9-0.2-1.9-0.5-2.9-0.8c-0.9-0.2-1.7-0.8-2.1-1.7c-1.4-2.3-2.7-4.6-4-6.9C2,74,1.2,72.8,0.5,71.5c-0.7-1-0.6-2.4,0.2-3.3
		C1,68,1.2,67.7,1.4,67.4c0.2-0.3,0.4-0.6,0.7-0.8c0.3-0.7,0.8-1.4,1.4-1.8l0,0c0.2-0.2,0.3-0.5,0.3-0.7c0-0.3-0.1-0.5-0.3-0.7
		c-0.2-0.4-0.4-0.7-0.6-1.1c-0.2-0.3-0.3-0.7-0.6-1C2.2,61,2,60.7,1.8,60.5c-0.2-0.2-0.3-0.5-0.5-0.7C1,59,0.9,58.1,1.2,57.2
		c0.2-0.7,0.4-1.6,0.7-2.5l0-0.1c0.3-1.3,0.7-2.6,1.1-3.9c0.2-0.6,0.2-1.2,0-1.8c-0.4-0.8-0.7-1.6-0.9-2.5c-0.4-1-0.3-2.1,0.2-3
		c0.5-1,1.4-1.7,2.5-1.9l0.5,0c0.4-0.1,0.9-0.2,1.4-0.3c0.5-0.1,1-0.2,1.5-0.3c0.8-0.1,1.3-0.7,1.3-1.5c0.1-1.5,0.3-2.9,0.4-4.3
		c0.2-1.4,0.3-2.9,0.5-4.4c0.1-1.6,0.3-3.2,0.4-4.8c0.2-1.6,0.3-3.2,0.5-4.8c0.2-2.6,1.2-3.7,3.9-4.2c1.4,0,2.7-0.2,4-0.4
		c1.1-0.1,2.3-0.2,3.4-0.5c0.4,0,0.8-0.2,1.1-0.4c0.4-0.3,0.7-0.5,1.2-0.7l0.3-0.2c1-0.6,2.1-1.3,3.1-1.9c0.6-0.3,0.9-0.9,0.9-1.5
		c0-1.1-0.1-2.2-0.1-3.4c-0.1-1.3-0.1-2.7-0.1-4.1c-0.2-1.3,0.3-2.5,1.4-3.3C30.8,0.2,31.4,0,32,0c0.6,0.1,1.1,0.2,1.6,0.5
		c0.2,0.1,0.5,0.2,0.8,0.3C34.7,0.9,35,1,35.2,1.1c1,0.3,2,0.7,2.9,1.1c1.3,0.3,2.3,1.5,2.3,2.8c-0.1,0.4,0.1,0.8,0.4,1.1
		c0.4,0.3,0.8,0.4,1.3,0.2c0.6-0.1,1.2-0.2,1.8-0.2c0.6-0.1,1.2-0.1,1.8-0.2c0.2,0,0.5-0.1,0.8-0.1c0.3-0.1,0.6-0.1,0.8-0.1
		c0.9-0.1,1.9,0.4,2.3,1.2c0.5,0.8,0.5,1.8,0,2.6c-0.3,0.5-0.6,1.1-0.9,1.6l-1.2,1.2H48c1.6,0.2,3.3-0.1,4.7-0.9c1-0.5,2-1.1,3-1.6
		c1.1-0.6,2.2-1.2,3.3-1.8c0.5-0.2,0.9-0.5,1.3-0.7c0.4-0.2,0.8-0.4,1.2-0.7c1.8-0.9,2.5-1,3.9,0.5l0.4,0.5c0.4,0.4,0.9,0.9,1.3,1.4
		c0,0,0.1,0.1,0.1,0.1c0.5,0.5,0.6,1.3,0.1,1.9c-0.6,0.5-1.4,0.5-1.9,0c-2-2-2.2-2-4.8-0.7c-0.3,0.2-0.7,0.4-1.1,0.6
		c-0.4,0.2-0.8,0.3-1.1,0.6c-1.8,1.1-3.5,2-5.2,2.9L53,14.3c-2,0.8-4.2,1-6.3,0.7c-0.6,0-1.2-0.4-1.4-1c-0.5-0.7-0.5-1.6,0-2.4
		c0.2-0.3,0.4-0.6,0.6-0.9c0.2-0.3,0.3-0.6,0.5-0.9c0.1-0.4,0.2-0.7,0.5-0.9l0.3-0.5h-0.7c-0.2,0-0.5,0.1-0.8,0.1
		c-0.3,0.1-0.6,0.1-0.8,0.1c-0.4,0-1,0.1-1.4,0.1c-0.5,0.1-1,0.1-1.5,0.1c-1.5,0.3-2.3,0.2-2.8-0.2c-0.5-0.4-0.7-1.1-0.9-2.4
		c-0.2-0.8-0.7-1.5-1.5-1.7c-0.4-0.2-0.8-0.4-1.2-0.5c-0.4-0.2-0.8-0.4-1.3-0.6l-1.3-0.7c-0.5-0.3-1-0.3-1.5-0.2
		c-0.3,0.3-0.5,0.8-0.4,1.3l0,0.7c0,2.5,0,5,0.2,7.5c0.1,1.2-0.6,2.3-1.6,2.8L29.1,15c-0.2,0.2-0.5,0.3-0.8,0.5
		c-0.5,0.3-1.1,0.7-1.7,1.1c-1.8,1.6-4.2,2.3-6.6,1.8c-0.5,0-0.9,0.1-1.3,0.1c-0.3,0.1-0.7,0.1-1,0.1c-0.3,0-0.6,0.1-0.9,0.1
		c-0.3,0.1-0.6,0.1-0.9,0.1l0,0c-0.4,0-0.7,0.2-0.9,0.5c-0.2,0.3-0.3,0.6-0.3,1c-0.4,4.1-0.9,8.4-1.3,12.8c-0.1,0.4,0,0.9,0.2,1.3
		c0.3,0.3,0.8,0.5,1.3,0.4l6.7,0c0.5,0,1,0.1,1.4,0.5c0.2,0.3,0.3,0.7,0.3,1c0,0,0,0.1,0,0.1c-0.1,0.4-0.3,0.7-0.6,0.9
		c-0.3,0.2-0.7,0.3-1.1,0.2l-7.2,0c-0.5-0.1-1,0.1-1.3,0.4C13,38.4,13,38.8,13,39.2l0,0l0,0.1c-0.4,3.1-0.5,3.4-3.7,4.1l-0.7,0.2
		c-0.8,0-1.7,0.2-2.4,0.5l0,0l0,0c-0.4-0.1-0.9,0.2-1,0.6c0,0.4,0,0.8,0.2,1.1c1.8,3.3,0.9,6.6-0.2,9.5c-0.9,2-0.7,3.6,0.7,5.6
		c2,3.2,2,3.3-0.2,6.3l-0.5,0.5c-0.4,0.3-0.7,0.7-0.9,1.1l0,0L4,69c-0.4,0.4-0.5,1-0.2,1.5c0.3,0.7,1,1.1,1.7,1.1l39.8,0
		c0,0,0.1,0,0.1,0c0.6,0,1.1,0.6,1.1,1.3c0,0.6-0.6,1.2-1.2,1.2l-38.6,0c-0.3,0-0.6,0.1-0.8,0.4c0,0.3,0.1,0.6,0.2,0.9
		c0.6,0.9,1.1,1.8,1.6,2.7c0.5,0.9,1,1.8,1.6,2.7c0.2,0.4,0.6,0.6,1.1,0.6l0.2,0l0,0c0.7,0.2,1.4,0.4,2.1,0.6c0.6,0.2,1.3,0.3,2,0.6
		c0.6,0.2,1.2,0.4,1.8,0.6c0.6,0.2,1.2,0.3,1.8,0.6c1.2,0.3,2.3,1.2,2.8,2.3c0.4,1.3,0.2,2.6-0.5,3.7c-0.5,0.8-0.9,1.6-1.3,2.5
		c-0.5,0.9-1,1.9-1.5,2.9c-0.5,1-1,1.9-1.5,2.8c-0.5,1.1-0.6,2.4-0.2,3.6c0.2,0.4,0.3,0.9,0.2,1.4c0,0.4,0.1,0.6,0.8,0.6h2
		c0.7,0.2,1.2,0.8,1.2,1.5c0,0,0,0.1,0,0.1C20.2,105.8,19.7,106.3,19,106.3z M16.1,106.1H19c0,0,0,0,0,0c0.5,0,1-0.4,1-0.9
		c0,0,0-0.1,0-0.1c0-0.6-0.4-1.1-1-1.3l-2,0c-0.7,0-1-0.2-1-0.8c0-0.5,0-0.9-0.2-1.3c-0.4-1.2-0.3-2.6,0.2-3.7
		c0.4-0.9,1-1.9,1.5-2.9c0.5-1,1-2,1.5-2.9c0.4-0.9,0.9-1.7,1.4-2.5c0.7-1.1,0.8-2.4,0.4-3.6c-0.5-1.1-1.5-1.9-2.6-2.2l0,0
		c-0.6-0.2-1.2-0.4-1.8-0.6c-0.6-0.2-1.2-0.3-1.8-0.6c-0.6-0.2-1.3-0.4-2-0.5c-0.7-0.2-1.4-0.3-2.1-0.6h-0.2
		c-0.5-0.1-0.9-0.3-1.2-0.7C8.5,80,8,79,7.5,78.1c-0.5-0.9-1-1.8-1.6-2.7c-0.1-0.3-0.2-0.6-0.2-0.9l0,0l0,0c0.2-0.4,0.6-0.6,1-0.5
		l38.6,0c0.5,0,1-0.5,1-1.1c0-0.5-0.4-1-0.9-1c0,0-0.1,0-0.1,0H5.5c-0.8,0.1-1.6-0.4-1.9-1.2c-0.3-0.5-0.2-1.3,0.2-1.7l0.2-0.2
		c0.2-0.4,0.5-0.8,0.9-1.2L5.5,67c2.2-2.9,2.2-2.9,0.2-6.1c-1.4-2.1-1.6-3.7-0.7-5.8c1.1-2.8,2-6.1,0.2-9.3C5,45.5,4.9,45.1,5,44.7
		l0,0c0.2-0.5,0.7-0.8,1.2-0.7c0.8-0.3,1.6-0.4,2.5-0.5l0.7-0.2c3.1-0.7,3.1-0.9,3.5-3.9l0-0.1c-0.1-0.4,0-0.8,0.2-1.2
		c0.4-0.4,0.9-0.6,1.4-0.5l7.2,0c0.3,0.1,0.7,0,0.9-0.2c0.3-0.2,0.5-0.5,0.5-0.8c0,0,0-0.1,0-0.1c0.1-0.3,0-0.6-0.2-0.9
		c-0.3-0.3-0.8-0.4-1.3-0.4l-6.7,0c-0.5,0.1-1-0.1-1.4-0.5l0,0c-0.2-0.4-0.3-0.9-0.2-1.4c0.5-4.4,0.9-8.8,1.3-12.8
		c0-0.4,0.1-0.8,0.3-1.1c0.3-0.3,0.6-0.5,1.1-0.6l0,0c0.3,0,0.6-0.1,0.9-0.1c0.3-0.1,0.6-0.1,0.9-0.1c0.3,0,0.6,0,0.9-0.1
		c0.4-0.1,0.8-0.1,1.3-0.1c2.3,0.4,4.7-0.3,6.5-1.8c0.6-0.4,1.2-0.8,1.7-1.1c0.3-0.2,0.6-0.3,0.8-0.5l0.5-0.2c1-0.5,1.6-1.6,1.5-2.7
		c-0.2-2.5-0.2-5.1-0.2-7.6V3.7c-0.1-0.5,0.1-1.1,0.5-1.4l0,0l0,0c0.6-0.1,1.1-0.1,1.6,0.2l1.3,0.7c0.5,0.2,0.9,0.4,1.3,0.6
		C36,4,36.3,4.1,36.8,4.3c0.8,0.3,1.4,1,1.6,1.9c0.1,1.3,0.3,1.9,0.8,2.3c0.5,0.4,1.2,0.4,2.7,0.2c0.5,0,1-0.1,1.5-0.1
		c0.5-0.1,1-0.1,1.5-0.1c0.2,0,0.5-0.1,0.8-0.1c0.3-0.1,0.6-0.1,0.8-0.1h1.1l-0.5,0.8c-0.2,0.3-0.4,0.5-0.4,0.9l0,0
		c-0.2,0.3-0.4,0.6-0.5,0.9c-0.2,0.3-0.3,0.6-0.6,0.9c-0.4,0.7-0.4,1.5,0,2.2c0.2,0.5,0.7,0.9,1.2,0.9c0,0,0,0,0,0
		c2.1,0.3,4.3,0.1,6.3-0.7l0.1-0.1c1.7-0.9,3.5-1.8,5.2-2.9c0.3-0.2,0.7-0.4,1.1-0.6c0.4-0.2,0.8-0.3,1.1-0.6c2.8-1.4,3-1.4,5.1,0.7
		c0.5,0.4,1.2,0.4,1.7,0c0.4-0.5,0.4-1.2-0.1-1.6c0,0-0.1-0.1-0.1-0.1c-0.5-0.5-0.9-0.9-1.4-1.4l-0.4-0.5c-1.3-1.4-2-1.3-3.7-0.4
		c-0.4,0.2-0.8,0.4-1.2,0.7c-0.4,0.2-0.8,0.5-1.3,0.7c-1,0.6-2.2,1.2-3.3,1.8c-1,0.5-2,1.1-3,1.6c-1.4,0.8-3.1,1.1-4.8,0.9l-0.9,0
		l1.5-1.5c0.3-0.5,0.6-1,0.9-1.6c0.4-0.8,0.4-1.7,0-2.4c-0.4-0.8-1.3-1.2-2.2-1.1c-0.2,0-0.5,0.1-0.8,0.1c-0.3,0.1-0.6,0.1-0.8,0.1
		c-0.5,0.1-1.2,0.2-1.8,0.2c-0.6,0.1-1.2,0.1-1.8,0.2c-0.5,0.2-1,0.1-1.4-0.2c-0.4-0.3-0.5-0.8-0.5-1.2c0-1.3-0.9-2.4-2.2-2.6
		c-0.9-0.5-1.9-0.9-2.9-1.1c-0.2-0.1-0.5-0.2-0.8-0.3c-0.3-0.1-0.6-0.2-0.8-0.3c-0.5-0.2-1-0.4-1.5-0.4c-0.6,0-1.2,0.2-1.7,0.4
		c-1,0.7-1.5,1.9-1.3,3.1c0,1.4,0.1,2.8,0.1,4.1c0.1,1.2,0.1,2.3,0.1,3.4c0,0.7-0.3,1.3-0.9,1.7c-1,0.6-2.1,1.3-3.1,1.9L24.9,15
		c-0.4,0.2-0.8,0.4-1.1,0.7c-0.3,0.3-0.7,0.5-1.2,0.5c-1.1,0.2-2.2,0.4-3.4,0.5c-1.3,0.3-2.7,0.4-4,0.4c-2.6,0.5-3.5,1.5-3.7,4
		c-0.1,1.6-0.3,3.3-0.5,4.8c-0.2,1.6-0.3,3.2-0.4,4.8c-0.1,1.5-0.3,3-0.5,4.4c-0.2,1.4-0.3,2.8-0.4,4.3c0.1,0.9-0.6,1.6-1.4,1.7
		c-0.4,0.1-0.9,0.2-1.4,0.3c-0.5,0.1-1,0.2-1.5,0.3l-0.5,0c-1,0.2-1.9,0.9-2.4,1.8c-0.5,0.9-0.6,2-0.2,2.9c0.2,0.9,0.5,1.7,0.9,2.5
		c0.2,0.6,0.2,1.3,0,1.9c-0.4,1.3-0.8,2.6-1.1,3.9l0,0.1c-0.2,0.9-0.4,1.8-0.7,2.5c-0.3,0.8-0.2,1.7,0.2,2.4C1.7,60,1.8,60.2,2,60.4
		c0.2,0.2,0.3,0.5,0.5,0.7c0.2,0.3,0.4,0.7,0.6,1c0.2,0.3,0.3,0.7,0.6,1c0.2,0.2,0.3,0.5,0.4,0.8c0,0.3-0.1,0.6-0.3,0.9l0,0
		c-0.6,0.5-1,1.1-1.3,1.8l0,0c-0.2,0.2-0.4,0.5-0.7,0.8c-0.2,0.3-0.5,0.6-0.7,0.8c-0.8,0.8-0.9,2.1-0.2,3.1c0.8,1.3,1.5,2.5,2.3,3.9
		c1.3,2.2,2.6,4.6,4,6.9c0.4,0.8,1.1,1.4,2,1.6c1,0.3,2,0.6,2.9,0.8c1.3,0.3,2.5,0.6,3.6,1l1.8,0.5c0.2,0.2,0.5,0.3,0.7,0.4
		c0.4,0.1,0.7,0.3,0.7,0.6c0.2,0.6,0,1.2-0.5,1.7L17.5,90c-1.1,2.2-2.4,4.6-3.8,7.3c-0.2,0.7-0.3,1.5-0.2,2.2c0,0.3,0.1,0.7,0.1,1
		c0.1,0.3,0.1,0.7,0.1,1c0,0.5,0.1,0.9,0.1,1.2c0.1,0.4,0.1,0.8,0.1,1.3C14,105.3,15,106.1,16.1,106.1
		C16.1,106.1,16.1,106.1,16.1,106.1z"/>
</g>
</svg>
