<?xml version="1.0" encoding="utf-8"?>
<!-- Generator: Adobe Illustrator 23.0.2, SVG Export Plug-In . SVG Version: 6.00 Build 0)  -->
<svg version="1.1" id="Group" xmlns="http://www.w3.org/2000/svg" xmlns:xlink="http://www.w3.org/1999/xlink" x="0px" y="0px"
	 viewBox="0 0 104.2 101.2" style="enable-background:new 0 0 104.2 101.2;" xml:space="preserve">
<style type="text/css">
	.st0{fill-rule:evenodd;clip-rule:evenodd;}
</style>
<path id="Vector" class="st0" d="M67.9,0c-0.8,0-1.5,0.4-2.1,0.9c-1.9,1.8-4.1,3.3-6.4,4.4c-0.8,0.4-1.5,0.6-2.3,0.9
	S55.4,7,54.5,7.4c-4,1.7-7.7,4-11,6.9c-3,2.6-5.3,6-6.6,9.7c-1.2,3.4-1.5,7.1-0.9,10.6c0.5,3.1,1.5,6,3,8.8c0.3,0.5,0.8,1,1.3,1.3
	c-0.7,2.1-1.3,4.3-1.7,6.5l-0.2,1.5l1.3,0.6h0.2L41,54l1.3-0.8c0.6-0.3,1.2-0.6,1.9-0.8c1.2-0.3,2.2-1.4,2.3-2.7
	c0.2-1.4,0.6-2.7,1.1-4h2.5c1.3,0,2.5,0,3.8-0.2c5.1-0.6,9.8-2.9,13.4-6.5c5.1-4.8,8-11.5,8.1-18.4c0-2.2-0.2-4.3-0.6-6.5
	C74.1,9.6,72.4,5.2,70,1.1C70.2,1.1,69.4,0,67.9,0z M67.9,2.5c0.2,0.1,0.3,0.2,0.4,0.4c2.3,3.7,3.8,7.9,4.5,12.2
	c0.4,2,0.5,4,0.4,6.1c-0.1,6.4-2.7,12.4-7.4,16.7c-3.3,3.2-7.5,5.2-12.1,5.7c-1.1,0.2-2.3,0.2-3.4,0.2c-1.1,0-2.2,0-3.2-0.2h-0.2
	c-0.2,0.1-0.4,0.2-0.6,0.4c-1,1.8-1.7,3.7-2.1,5.7c0,0.4-0.3,0.7-0.8,0.8c-0.8,0.2-1.7,0.6-2.5,1l-0.2-0.2c0.5-3.6,1.7-7.1,3.6-10.3
	c0.6-1,1.4-1.9,2.4-2.5c5.2-3.8,9.6-8.8,12.7-14.4c1.3-2.4,2.5-5,3.4-7.6c-0.2,0.2-0.2,0.6-0.4,0.8c-2.1,4.6-4.9,8.8-8.3,12.6
	C51.8,32.5,49,35,46,37.3c-1.7,1.3-3.1,2.9-4.2,4.8c0,0.2-0.2,0.4-0.4,0.4S41,42.2,41,42c-1.3-2.4-2.2-5.1-2.6-7.8
	c-0.5-3.2-0.2-6.5,0.9-9.5c1.2-3.4,3.3-6.4,6.1-8.8c4.4-3.8,9.6-6.6,15.1-8.4c2.6-1.2,5-2.8,7-4.8C67.6,2.7,67.7,2.5,67.9,2.5z"/>
<path id="Vector-2" class="st0" d="M103.6,22.3c-0.8-1.7-2.2-3-4-3.6c-1.8-0.6-3.8-0.2-5.3,0.9c-1.6,1.2-2.5,3.1-2.5,5.1v18.4
	c-0.1,2.5-0.6,4.9-1.5,7.2c-0.1,0.6-0.6,1-1.1,1.1c-0.6,0-1.2-0.3-1.5-0.8c-1.2-1.7-3.2-2.8-5.3-2.9h-0.6c-1.9,0-3.7,0.8-5.1,2.1
	c-3.2,3.1-6.1,5.9-8.9,8.9c-4.1,4.3-6.5,10-6.6,16c-0.2,2.2-0.2,4.3,0,6.5v3.4c0.1,1-0.6,2-1.6,2.1c-0.1,0-0.3,0-0.4,0
	c-1.3,0-1.5,0.2-1.5,1.5v10.6c0,1.3,0.2,1.5,1.7,1.5h33.8c1.3,0,1.5-0.2,1.5-1.5V88.6c0-1.7-0.2-1.9-1.9-1.9
	c-0.6,0.1-1.2-0.2-1.5-0.8c-0.2-0.6-0.2-1.2,0.2-1.7c0.9-1.5,1.9-3.2,2.8-4.9c1.3-2.1,2.4-4.4,3.8-6.5c2.8-4.6,5.3-8.9,6.1-14.3
	V22.8C104,22.7,103.8,22.5,103.6,22.3z M91.7,89.8c0.4,0.5,0.6,1.1,0.6,1.7v4.9c0.1,0.6-0.1,1.1-0.6,1.5c-0.4,0.4-0.9,0.6-1.5,0.6
	H61.8c-0.6,0.1-1.1-0.1-1.5-0.6c-0.3-0.4-0.5-1-0.6-1.5v-4.9c0-0.6,0.2-1.2,0.6-1.7c0.5-0.4,1.1-0.6,1.7-0.6h27.8
	C90.5,89.2,91.2,89.4,91.7,89.8z M101.7,31.8v22.8c0.1,4.7-1.2,9.4-3.6,13.5c-3,5.1-6.1,10.3-8.9,15.4l-0.9,1.7
	c-0.5,1.1-1.6,1.7-2.8,1.7H66c-0.6,0.1-1.3-0.1-1.7-0.6c-0.4-0.5-0.6-1.1-0.6-1.7v-4.4c0-2.1,0-4.4,0.2-6.5c0.4-5,2.5-9.6,5.9-13.3
	c2.3-2.5,4.7-4.8,7.2-7c0.6-0.6,1.1-1.1,1.7-1.7c1.7-1.8,4.6-1.9,6.4-0.2c0.1,0.1,0.1,0.1,0.2,0.2c1.9,1.8,2.1,4.7,0.4,6.6
	c-1.7,2.1-3.6,4.4-5.3,6.5c-0.8,0.9-1.7,1.9-2.4,2.9l-0.4,0.2c-0.2,0.2-0.4,0.6-0.6,0.8c-0.4,0.5-0.4,1.3,0.2,1.7s1.3,0.4,1.7-0.2
	c0,0,0,0,0,0c1.1-1.3,2.3-2.7,3.4-4l1.9-2.3c1.3-1.7,2.8-3.2,4.2-4.9c3.9-4.6,6-10.5,6.1-16.5V24.9c-0.1-1.2,0.4-2.3,1.3-3.1
	c0.8-0.7,2-1,3-0.8c1.9,0.2,3.2,1.7,3.2,4.2C101.7,27.2,101.7,29.5,101.7,31.8z"/>
<path id="Vector-3" class="st0" d="M46.3,87.3c-0.3-0.2-0.6-0.2-0.9-0.2c-0.6,0.1-1.2-0.1-1.7-0.6c-0.5-0.5-0.7-1.2-0.6-1.9v-3
	c0-2.3,0-4.6-0.2-6.9c-0.3-5.1-2.1-10-5.3-14.1c-2.2-2.8-4.7-5.3-7.4-7.6c-0.9-0.9-1.8-1.8-2.8-2.7c-1.5-1.6-3.5-2.4-5.7-2.3
	c-2.2,0.2-4.2,1.3-5.5,3.1c-0.3,0.5-0.9,0.8-1.5,0.8c-0.6-0.2-1-0.7-1.1-1.3c-0.9-2.4-1.4-4.9-1.5-7.4V24.7c0.1-3.3-2.6-6-5.9-6.1
	c-0.1,0-0.1,0-0.2,0c-3.2-0.2-5.9,2.3-6.1,5.5c0,0.2,0,0.4,0,0.6v31.6c-0.1,4.1,1,8.2,3,11.8c2.1,3.8,4.3,7.6,6.6,11.4
	c0.9,1.7,1.9,3.4,2.8,5.1c0.4,0.8,0.8,1.3,0.4,1.9s-0.9,0.6-1.9,0.6c-1.3,0-1.7,0.2-1.7,1.7v10.6c0,1.5,0.2,1.7,1.7,1.7h33.8
	c1.1,0,1.5-0.4,1.5-1.3V88.6C46.5,88.2,46.5,87.7,46.3,87.3z M5.5,67.5c-2.1-3.7-3.2-7.9-3.2-12.2V25.5c0-0.7,0-1.4,0.2-2.1
	c0.5-1.8,2.3-3,4.2-2.7c1.7,0.2,3,1.7,3,3.4v13.1c0,2.3,0,4.8,0.2,7c0.4,5.2,2.4,10.1,5.7,14.1c2.1,2.7,4.3,5.3,6.6,8
	c0.9,1.1,1.9,2.3,2.8,3.2c0.4,0.4,1.1,1.1,1.9,0.6c0.5-0.6,0.5-1.6-0.2-2.1c0,0,0,0,0,0c-1.5-1.7-3-3.6-4.5-5.3
	c-1.3-1.5-2.4-3.1-3.8-4.6c-1.3-1.7-1.5-4-0.6-5.9c1.1-1.7,3.1-2.6,5.1-2.1c1.2,0.3,2.3,1,3,1.9c0.2,0.2,0.2,0.2,0.4,0.4
	c2.1,2.1,4.5,4.4,7,7c4.5,4.4,6.9,10.5,6.8,16.7v8.4c0.1,0.6-0.1,1.1-0.6,1.5c-0.4,0.4-0.9,0.6-1.5,0.6H18c-1,0.1-1.9-0.5-2.3-1.3
	C13.1,80.3,9.3,74,5.5,67.5z M44.3,91.5v5.1c0.1,0.6-0.1,1.1-0.6,1.5c-0.4,0.4-0.9,0.6-1.5,0.6H13.6c-0.5,0-1-0.2-1.3-0.6
	c-0.4-0.4-0.6-1-0.6-1.5v-5.3c0-0.6,0.2-1.1,0.6-1.5c0.4-0.4,0.9-0.6,1.5-0.6H42c1.1-0.2,2.1,0.6,2.3,1.7
	C44.3,91.1,44.3,91.3,44.3,91.5z"/>
</svg>
