<?xml version="1.0" encoding="utf-8"?>
<!-- Generator: Adobe Illustrator 23.0.2, SVG Export Plug-In . SVG Version: 6.00 Build 0)  -->
<svg version="1.1" id="Group" xmlns="http://www.w3.org/2000/svg" xmlns:xlink="http://www.w3.org/1999/xlink" x="0px" y="0px"
	 viewBox="0 0 98 113.3" style="enable-background:new 0 0 98 113.3;" xml:space="preserve">
<style type="text/css">
	.st0{fill-rule:evenodd;clip-rule:evenodd;fill:#DF0022;}
</style>
<path id="Vector" class="st0" d="M98,11.7H77.6c-3.1,0-6.2-0.5-9.2-1.6c-6.2-2.3-12-5.5-17.2-9.6c-1.5-0.7-3.1-0.7-4.6,0
	c-2.8,2.2-5.8,4.2-9,5.9c-7.1,4.1-14,5.9-21.1,5.5c-3.8-0.2-7.7-0.2-11.5,0H0v44.1c-0.1,11.3,3.6,22.2,10.6,31.1
	c5.7,7.6,13.3,13.7,23.2,19.4c4.6,2.5,9.4,4.7,14.2,6.6h1.6c5-2,9.8-4.3,14.5-6.9c11.2-6.4,19.7-13.9,25.7-22.9
	c5.1-7.2,7.9-15.8,8-24.7c0.2-9.8,0-20.1,0-29.7C98,23.1,98,17.4,98,11.7z M94.3,34.3v22.2c0,11.2-4.1,21.7-12.4,30.9
	c-7.6,8.5-17.4,15.1-30.1,20.6c-1.7,0.9-3.8,0.9-5.5,0c-9.4-3.9-18.1-9.4-25.7-16.2c-9-8.2-14.2-17.2-16.1-27.4
	c-0.5-2.4-0.7-4.9-0.7-7.3V19.9c0-1.4,0-2.5,0.9-3.4s2.3-0.9,3.4-0.9h13.5c6.9-0.2,13.1-3.2,17.7-5.7c2.3-1.4,4.8-3,6.9-4.3
	c1.6-1.1,3.7-1.1,5.3,0c6,4.1,11.5,7.1,17,8.7c3,0.9,6.1,1.4,9.2,1.4H90c1.2-0.1,2.3,0.4,3.2,1.1c0.8,0.9,1.2,2,1.1,3.2L94.3,34.3
	L94.3,34.3z"/>
<path id="Vector-2" class="st0" d="M49.1,23.4h-0.7c-8.4,0.1-16.5,3.5-22.5,9.4c-6.4,6.2-10,14.7-10.1,23.6c0,8.8,3.5,17.3,9.6,23.6
	c6.2,6.3,14.6,9.8,23.4,9.8c18.3,0.2,33.3-14.5,33.5-32.8c0.1-8.9-3.4-17.4-9.6-23.7C66.5,26.9,58,23.3,49.1,23.4z M78.5,56.5
	c0.1,7.8-3.1,15.4-8.7,20.8c-11.6,11.3-30.1,11.3-41.8,0c-5.5-5.5-8.6-13-8.7-20.8c0-7.8,3-15.3,8.5-20.8c11.6-11.6,30.4-11.6,42,0
	C75.6,41.1,78.8,48.7,78.5,56.5z"/>
<path id="Vector-3" class="st0" d="M62.9,44.2c-1.4,1.4-2.8,2.7-4.1,3.9c-4.1,4.1-15.6,15.1-15.6,15.1s-4.6-4.1-5.5-5
	c-0.8-0.8-1.6-1.6-2.3-2.5c-0.8,0.9-1.6,1.7-2.5,2.5c2.8,2.5,5.3,5,7.6,7.6c0.9,0.9,1.8,1.8,2.8,2.7l6-5.7l16.3-16.2
	C65,46,64.5,45.6,64,45.1C63.6,44.9,63.2,44.6,62.9,44.2z"/>
</svg>
