<svg width="26" height="26" viewBox="0 0 26 26" fill="none" xmlns="http://www.w3.org/2000/svg">
<path d="M13.7128 26.0011C13.2241 26.0011 12.7291 26.0011 12.2404 26.0011C12.1769 25.9884 12.1134 25.963 12.0436 25.9566C10.0063 25.817 8.10234 25.2395 6.36969 24.1669C2.43475 21.7297 0.302259 18.1819 0.0230048 13.5679C-0.116622 11.2133 0.37842 8.9602 1.53352 6.90387C3.91987 2.63889 7.57557 0.328698 12.4562 0.024057C14.7981 -0.121917 17.0385 0.398512 19.1012 1.52822C22.7695 3.54647 25.0099 6.62461 25.7969 10.7373C25.8921 11.2323 25.9365 11.74 26 12.2414C26 12.7301 26 13.2252 26 13.7139C25.9556 14.082 25.9238 14.4501 25.8731 14.8182C25.6255 16.5445 25.0607 18.1629 24.1595 19.6607C24.0706 19.813 24.0579 19.9463 24.1023 20.1113C24.572 21.8567 25.0353 23.602 25.505 25.3473C25.524 25.4045 25.5303 25.4679 25.543 25.5504C25.4669 25.5314 25.4161 25.5251 25.3717 25.5124C23.6454 25.0491 21.9127 24.5921 20.1864 24.1224C19.9643 24.059 19.7929 24.078 19.5962 24.1986C18.2951 24.9792 16.8925 25.506 15.401 25.7726C14.8362 25.8678 14.2713 25.9249 13.7128 26.0011ZM10.1587 19.9273C12.069 19.9273 13.954 19.9273 15.8326 19.9273C15.8326 19.1086 15.8326 18.3089 15.8326 17.4838C15.4264 17.4838 15.0456 17.4838 14.6267 17.4838C14.6267 15.0276 14.6267 12.5968 14.6267 10.1724C13.1162 10.1724 11.6438 10.1724 10.1714 10.1724C10.1714 10.9911 10.1714 11.7845 10.1714 12.6032C10.5775 12.6032 10.9647 12.6032 11.3582 12.6032C11.3582 14.2343 11.3582 15.8464 11.3582 17.4901C10.952 17.4901 10.5585 17.4901 10.1587 17.4901C10.1587 18.3216 10.1587 19.1149 10.1587 19.9273ZM14.6267 7.69721C14.6267 6.80232 13.8905 6.06611 13.002 6.06611C12.1134 6.06611 11.3709 6.80232 11.3772 7.69721C11.3772 8.59209 12.1134 9.3283 13.002 9.3283C13.8905 9.3283 14.6267 8.59209 14.6267 7.69721Z" fill="#E2001A"/>
</svg>
