<svg width="23" height="26" viewBox="0 0 23 26" fill="none" xmlns="http://www.w3.org/2000/svg">
<path d="M16.6111 0L23 6.5V24.7104C22.9997 25.0525 22.8658 25.3806 22.6279 25.6224C22.39 25.8642 22.0675 26 21.7312 26H1.26883C0.933261 25.9976 0.612078 25.861 0.374667 25.6197C0.137256 25.3784 0.0026765 25.0518 0 24.7104V1.2896C0 0.5772 0.568611 0 1.26883 0H16.6111ZM13.4537 16.1798L16.2776 19.0528L18.0857 17.2159L15.2618 14.3429C15.8911 13.2523 16.1084 11.9658 15.8731 10.7241C15.6378 9.48228 14.9659 8.37022 13.9832 7.59582C13.0005 6.82142 11.7742 6.43771 10.5335 6.51644C9.29292 6.59518 8.12297 7.13096 7.24244 8.0236C6.3621 8.91851 5.83292 10.1095 5.75417 11.373C5.67542 12.6366 6.05252 13.886 6.81472 14.8869C7.57692 15.8878 8.67186 16.5713 9.89415 16.8094C11.1164 17.0474 12.3821 16.8235 13.4537 16.1798V16.1798ZM12.6641 13.5382C12.4283 13.7865 12.1463 13.9846 11.8345 14.1209C11.5227 14.2571 11.1874 14.3289 10.8481 14.3319C10.5088 14.3349 10.1722 14.2691 9.85817 14.1383C9.5441 14.0076 9.25877 13.8145 9.01882 13.5704C8.77888 13.3263 8.58912 13.036 8.46062 12.7165C8.33213 12.3969 8.26747 12.0546 8.27042 11.7094C8.27336 11.3641 8.34386 11.023 8.4778 10.7057C8.61173 10.3885 8.80642 10.1016 9.0505 9.8618C9.53248 9.38819 10.178 9.12612 10.8481 9.13205C11.5181 9.13797 12.1591 9.41141 12.6329 9.89347C13.1067 10.3755 13.3755 11.0276 13.3813 11.7094C13.3872 12.3911 13.1296 13.0478 12.6641 13.5382Z" fill="#E2001A"/>
</svg>
