<svg version="1.2" xmlns="http://www.w3.org/2000/svg" viewBox="0 0 24 24" width="24" height="24">
	<title>download icon</title>
	<style>
		.s0 { fill: #e2001a } 
	</style>
	<g id="download icon">
		<path id="Vector" fill-rule="evenodd" class="s0" d="m23 22q0 0.4-0.3 0.7-0.3 0.3-0.7 0.3h-20q-0.4 0-0.7-0.3-0.3-0.3-0.3-0.7v-16q0-0.1 0-0.1 0-0.1 0-0.1l1-4q0.1-0.4 0.4-0.6 0.3-0.2 0.6-0.2h17q0.3 0 0.6 0.2 0.2 0.1 0.3 0.4l2 4q0 0.1 0 0.1 0.1 0.1 0.1 0.3zm-19.7-17h17.1l-1-2h-15.6zm17.7 2h-18v14h18z"/>
		<path id="Vector" class="s0" d="m8.5 16.8q-0.3-0.3-0.4-0.6-0.1-0.4 0.1-0.7 0.3-0.4 0.6-0.5 0.4 0 0.8 0.1l1.4 1v-6.1q0-0.4 0.3-0.7 0.3-0.3 0.7-0.3 0.4 0 0.7 0.3 0.3 0.3 0.3 0.7v6.2l1.5-1q0.1-0.2 0.3-0.2 0.2-0.1 0.4 0 0.2 0 0.4 0.1 0.2 0.1 0.3 0.3 0.1 0.2 0.2 0.4 0 0.2 0 0.4-0.1 0.2-0.2 0.4-0.2 0.1-0.3 0.2l-3 2q-0.3 0.2-0.6 0.2-0.3 0-0.5-0.2z"/>
	</g>
</svg>