<svg width="25" height="26" viewBox="0 0 25 26" fill="none" xmlns="http://www.w3.org/2000/svg">
<path d="M14.6333 18.1536C17.1796 18.1469 19.2288 16.091 19.2288 13.5514C19.2221 11.0117 17.1662 8.96256 14.6265 8.96256C12.0869 8.96256 10.031 11.0252 10.031 13.5648C10.031 16.1045 12.0936 18.1604 14.6333 18.1536ZM19.6252 17.1257C19.6588 17.166 19.6991 17.2063 19.7327 17.2466C19.2557 17.7169 18.7719 18.194 18.2949 18.6643C18.2277 18.6038 18.2546 18.6374 18.2882 18.6643C19.9208 20.2969 21.5534 21.9295 23.1861 23.5621C23.2331 23.6092 23.2801 23.6562 23.3339 23.6965C23.6698 23.9518 24.0393 24.0123 24.4223 23.8242C24.8053 23.636 24.9934 23.3203 25.0001 22.897C25.0001 22.5611 24.8388 22.3125 24.6104 22.084C23.0047 20.485 21.4056 18.8793 19.7999 17.2802C19.7394 17.2265 19.6789 17.1727 19.6252 17.1257ZM3.06378 0.806152C2.2777 1.62582 1.52521 2.40519 0.74585 3.21814C1.5588 3.21814 2.30457 3.21814 3.06378 3.21814C3.06378 2.42534 3.06378 1.64598 3.06378 0.806152Z" fill="white"/>
<path d="M18.4359 0C18.4292 0.107498 18.409 0.214995 18.409 0.322493C18.409 3.01666 18.409 5.71083 18.409 8.41172C18.409 8.50578 18.409 8.60656 18.409 8.75437C17.4348 8.01532 16.3867 7.59877 15.211 7.47783C15.211 7.15534 15.211 6.84628 15.211 6.52379C11.2 6.52379 7.2158 6.52379 3.2115 6.52379C3.2115 7.01425 3.2115 7.49799 3.2115 8.01532C6.11395 8.01532 9.0164 8.01532 11.9121 8.01532C11.9188 8.02876 11.9188 8.0422 11.9256 8.06235C11.8718 8.09595 11.8248 8.12954 11.771 8.15641C10.911 8.61328 10.1989 9.23811 9.64123 10.0376C9.54717 10.172 9.44639 10.2123 9.28514 10.2123C7.30986 10.2056 5.34131 10.2123 3.36603 10.2123C3.26525 10.2123 3.16447 10.2123 3.03682 10.2123C3.03682 10.6893 3.0301 11.1462 3.04354 11.5963C3.04354 11.6434 3.17791 11.724 3.25181 11.724C3.89008 11.7374 4.52835 11.7307 5.16662 11.7307C6.26848 11.7307 7.36361 11.7307 8.46547 11.7307C8.55953 11.7307 8.64687 11.7307 8.7275 11.7307C8.63343 12.4563 8.54609 13.1618 8.45203 13.9008C6.68503 13.9008 4.87772 13.9008 3.05026 13.9008C3.05026 14.4182 3.05026 14.9086 3.05026 15.4192C3.15775 15.4192 3.2451 15.4192 3.33916 15.4192C5.086 15.4192 6.83284 15.4192 8.57968 15.4125C8.75437 15.4125 8.82156 15.4663 8.87531 15.6275C9.10374 16.2859 9.43967 16.8772 9.8831 17.4147C9.91669 17.455 9.95029 17.502 10.0108 17.5826C7.67267 17.5826 5.38162 17.5826 3.05698 17.5826C3.05698 18.0933 3.05698 18.5837 3.05698 19.1078C3.15104 19.1078 3.25181 19.1078 3.34588 19.1078C6.1677 19.1078 8.98952 19.1078 11.8113 19.1145C11.9592 19.1145 12.1137 19.1481 12.2481 19.2018C13.659 19.7729 15.0833 19.8334 16.5278 19.3698C16.7025 19.3161 16.81 19.3362 16.9377 19.4706C17.3744 19.9274 17.8312 20.3642 18.2679 20.8143C18.3351 20.8815 18.3956 20.9957 18.3956 21.0898C18.4023 22.6149 18.4023 24.1467 18.4023 25.6719C18.4023 25.7055 18.3956 25.7391 18.3889 25.7861C12.2615 25.7861 6.13411 25.7861 0 25.7861C0 18.7786 0 11.7845 0 4.75679C1.53185 4.75679 3.04354 4.75679 4.57539 4.75679C4.5821 4.66273 4.58882 4.60226 4.58882 4.53507C4.58882 3.09057 4.58882 1.64606 4.58882 0.201559C4.58882 0.134373 4.57538 0.0671863 4.56867 0C9.1978 0 13.8202 0 18.4359 0ZM3.20478 21.3048C3.20478 21.8087 3.20478 22.2991 3.20478 22.7896C7.2158 22.7896 11.2 22.7896 15.1908 22.7896C15.1908 22.2857 15.1908 21.8019 15.1908 21.3048C11.1932 21.3048 7.20909 21.3048 3.20478 21.3048ZM15.0766 2.62698C12.2749 2.62698 9.4867 2.62698 6.70519 2.62698C6.70519 3.13088 6.70519 3.62134 6.70519 4.1118C9.50686 4.1118 12.2816 4.1118 15.0766 4.1118C15.0766 3.61462 15.0766 3.13088 15.0766 2.62698Z" fill="#999587"/>
<path d="M14.6333 18.154C12.0936 18.1607 10.031 16.1048 10.031 13.5651C10.0243 11.0255 12.0869 8.96289 14.6266 8.96289C17.1729 8.96289 19.2221 11.0054 19.2288 13.5517C19.2288 16.0914 17.1796 18.1473 14.6333 18.154Z" fill="#999587"/>
<path d="M19.625 17.126C19.6787 17.1797 19.7325 17.2268 19.7862 17.2805C21.392 18.8795 22.991 20.4853 24.5968 22.0843C24.8252 22.3128 24.9932 22.5613 24.9864 22.8973C24.9797 23.3205 24.7916 23.643 24.4086 23.8244C24.0257 24.0126 23.6562 23.9521 23.3202 23.6968C23.2665 23.6565 23.2195 23.6095 23.1724 23.5624C21.5398 21.9298 19.9072 20.2972 18.2745 18.6645C18.2477 18.6377 18.2141 18.6041 18.2813 18.6645C18.7583 18.1942 19.242 17.7172 19.719 17.2469C19.6989 17.2066 19.6586 17.1663 19.625 17.126Z" fill="#999587"/>
<path d="M3.06378 0.806152C3.06378 1.64598 3.06378 2.42534 3.06378 3.21814C2.30457 3.21814 1.55208 3.21814 0.74585 3.21814C1.52521 2.4119 2.2777 1.62582 3.06378 0.806152Z" fill="#999587"/>
</svg>
