<svg width="26" height="26" viewBox="0 0 26 26" fill="none" xmlns="http://www.w3.org/2000/svg">
<path d="M25.9929 12.8889C25.9929 15.9961 25.9929 19.0962 25.9929 22.2034C25.9929 23.5199 25.4762 24.5887 24.3862 25.3531C23.7209 25.8202 22.9635 25.9972 22.1567 25.9972C19.7502 25.9972 17.3437 25.9972 14.9372 25.9972C11.2425 25.9972 7.54077 25.9972 3.8461 25.9972C2.20402 25.9972 0.859215 25.162 0.307138 23.7252C0.13019 23.2722 0.0240206 22.7626 0.0169427 22.2813C-0.00429108 16.0881 -0.00428936 9.89493 0.00986648 3.70175C0.00986648 1.59961 1.63779 0 3.74701 0C9.95434 0 16.1687 0 22.3761 0C24.4853 0 26.0071 1.56422 26 3.67344C25.9858 6.75233 26 9.82415 25.9929 12.8889C25.9929 12.8889 26 12.8889 25.9929 12.8889ZM9.02713 16.5411C10.4427 16.5411 11.8583 16.5482 13.2739 16.5411C14.1232 16.534 14.6753 15.8758 14.4771 15.0618C14.0312 13.2215 12.8563 12.0112 11.1293 11.2964C11.0019 11.2397 10.8178 11.2539 10.6763 11.2964C9.57921 11.6219 8.48213 11.6219 7.38505 11.2964C7.25765 11.261 7.08778 11.2539 6.96038 11.3034C5.27583 11.9688 4.17876 13.172 3.62668 14.899C3.3648 15.713 3.86733 16.5765 4.86532 16.5552C6.25259 16.5128 7.63986 16.5411 9.02713 16.5411ZM9.03421 9.35701C10.7188 9.35701 12.0919 7.99097 12.0777 6.33473C12.0636 4.62896 10.7258 3.28415 9.03421 3.28415C7.39921 3.28415 5.99071 4.69266 5.99071 6.33473C5.99071 8.00512 7.34967 9.35701 9.03421 9.35701ZM19.7926 6.10116C19.0849 6.10116 18.3771 6.10116 17.6693 6.10116C17.0606 6.10116 16.5297 6.62493 16.5368 7.19824C16.5439 7.79986 17.0181 8.267 17.6551 8.267C19.0778 8.27408 20.5004 8.27408 21.9302 8.267C22.5813 8.267 23.0556 7.79279 23.0556 7.17701C23.0556 6.55415 22.5813 6.10116 21.9231 6.09409C21.2082 6.10116 20.5004 6.10116 19.7926 6.10116ZM19.7926 12.627C20.4934 12.627 21.187 12.6341 21.8877 12.627C22.5247 12.6199 23.0485 12.1174 23.0485 11.5228C23.0485 10.8575 22.6238 10.4541 21.9019 10.4541C20.4934 10.4541 19.0919 10.4541 17.6834 10.4541C17.5702 10.4541 17.4498 10.4612 17.3437 10.4895C16.8058 10.631 16.4873 11.1123 16.5439 11.6503C16.6005 12.1669 17.103 12.6199 17.641 12.627C18.3629 12.6341 19.0778 12.627 19.7926 12.627ZM20.5783 19.6908C20.4013 19.6908 20.3093 19.6908 20.2102 19.6908C19.5732 19.6978 19.0353 20.2004 19.0424 20.7808C19.0495 21.3541 19.5803 21.8566 20.2032 21.8637C20.4297 21.8637 20.6632 21.8708 20.8897 21.8637C21.371 21.8495 21.7674 21.5593 21.916 21.1205C22.0576 20.6958 21.9089 20.2499 21.5338 19.9385C21.2224 19.6837 20.8685 19.6695 20.5783 19.6908ZM10.6409 19.6837V19.6908C10.5064 19.6908 10.379 19.6908 10.2445 19.6908C9.68538 19.7049 9.16161 20.2075 9.14038 20.7525C9.11914 21.2762 9.64291 21.8283 10.195 21.8637C10.471 21.8778 10.7471 21.8778 11.016 21.8637C11.5398 21.8354 12.0282 21.3682 12.0706 20.8445C12.1202 20.3278 11.7451 19.8252 11.2213 19.7191C11.0302 19.6837 10.832 19.6908 10.6409 19.6837ZM15.4539 21.8637C15.6521 21.8637 15.8007 21.8708 15.9493 21.8637C16.5156 21.8212 16.9615 21.3541 16.9686 20.7949C16.9756 20.2712 16.4731 19.7262 15.9352 19.6978C15.645 19.6837 15.3477 19.6766 15.0575 19.6978C14.5904 19.7403 14.2789 20.0163 14.102 20.4339C13.9321 20.8445 14.0666 21.1913 14.3497 21.5027C14.6682 21.8424 15.0646 21.9062 15.4539 21.8637ZM5.69343 19.6908C5.50233 19.6908 5.37492 19.6908 5.2546 19.6908C4.68129 19.7049 4.15045 20.2145 4.14337 20.7666C4.13629 21.3116 4.66713 21.8425 5.24045 21.8637C5.49525 21.8708 5.75713 21.8708 6.01194 21.8637C6.45785 21.8425 6.8896 21.5027 7.03116 21.0568C7.15856 20.6675 6.99577 20.2287 6.63479 19.9314C6.33044 19.6908 5.98363 19.6695 5.69343 19.6908Z" fill="#999587"/>
</svg>
