<svg width="98" height="98" viewBox="0 0 98 98" fill="none" xmlns="http://www.w3.org/2000/svg">
<path d="M93.7759 32.9482C91.6638 31.681 89.5517 30.2026 87.4397 28.9353C85.9612 28.0905 84.4828 27.0345 83.0043 26.1896C82.3707 25.7672 81.9483 25.3448 82.1595 24.5C82.1595 23.4439 82.1595 22.3879 82.1595 21.5431C82.1595 21.1207 82.1595 20.6982 82.1595 20.2758C82.1595 18.5862 82.3707 18.375 84.0603 18.375C86.5948 18.375 88.4957 16.4741 88.4957 13.9396C88.4957 10.1379 88.4957 7.18101 88.4957 4.43532C88.4957 2.11204 86.5948 0.211182 84.2716 0.211182C75.6121 0.211182 66.9526 0.211182 58.5043 0.211182C56.181 0.211182 54.2802 2.11204 54.2802 4.43532C54.2802 7.39222 54.2802 10.5603 54.2802 14.362C54.2802 15.8405 54.9138 16.8965 56.181 17.7414C57.0259 18.375 58.0819 18.5862 59.1379 18.5862C59.5603 18.5862 59.9828 18.5862 60.4052 18.7974C60.8276 19.2198 60.8276 19.6422 60.8276 20.0646C60.8276 21.5431 60.8276 23.2327 60.8276 24.5C60.8276 25.3448 60.6164 25.7672 59.7715 26.1896C57.6595 27.4569 55.3362 28.9353 53.2241 30.2026C51.7457 31.0474 50.2672 32.1034 48.7888 32.9482C47.5216 33.7931 46.4655 34.6379 46.0431 35.6939C45.8319 35.9051 45.6207 36.1164 45.4095 36.3276C45.1983 36.3276 44.7759 36.3276 44.5647 36.1164C42.2414 34.6379 40.1293 33.3707 38.4397 32.3146C38.0172 32.1034 37.806 31.681 37.806 31.0474C37.806 29.3577 37.806 27.6681 37.806 25.7672C37.806 24.9224 38.2284 24.7112 38.8621 24.5C41.1853 24.0776 42.6638 22.3879 42.6638 20.0646C42.6638 18.7974 42.6638 17.9526 42.6638 17.1077C42.2414 14.5733 40.3405 12.6724 37.806 12.6724C30.2026 12.6724 22.8103 12.6724 15.4181 12.6724C12.8836 12.6724 11.194 14.5733 10.9828 17.1077C10.9828 17.9526 10.9828 18.7974 10.9828 19.6422V20.0646C10.9828 22.5991 12.4612 24.2888 14.7845 24.7112C15.6293 24.9224 15.8405 25.3448 15.8405 25.9784C15.8405 27.4569 15.8405 29.3577 15.8405 31.0474C15.8405 31.8922 15.6293 32.3146 14.9957 32.737C11.4052 35.0603 7.60345 37.3836 4.01293 39.4957L3.80172 39.7069C1.26724 41.1853 0 43.2974 0 46.4655C0 56.8146 0 67.1638 0 77.3017V89.5517C0 94.8319 3.1681 97.7888 8.23707 97.7888H49C62.5172 97.7888 76.0345 97.7888 89.7629 97.7888C95.0431 97.7888 98 94.6207 98 89.5517C98 85.1164 98 80.4698 98 76.0345C98 64.4181 98 52.3793 98 40.5517C98 37.1724 96.7328 34.6379 93.7759 32.9482ZM15.6293 22.1767C14.3621 22.1767 13.5172 21.3319 13.5172 20.0646C13.5172 19.0086 13.5172 18.1638 13.5172 17.3189C13.5172 15.8405 14.3621 14.9957 15.8405 14.9957C18.375 14.9957 20.9095 14.9957 23.6552 14.9957H26.8233H29.7802C32.3147 14.9957 35.0603 14.9957 37.5948 14.9957C39.2845 14.9957 40.1293 15.6293 40.1293 17.5301V18.1638C40.1293 18.7974 40.1293 19.431 40.1293 20.2758C40.1293 21.5431 39.2845 22.3879 38.0172 22.3879C34.4267 22.3879 30.625 22.3879 27.0345 22.3879C23.444 22.3879 19.2198 22.3879 15.6293 22.1767ZM18.375 25.7672C18.375 25.556 18.375 25.1336 18.5862 24.9224C18.7974 24.7112 19.2198 24.7112 19.431 24.7112C24.2888 24.7112 29.3578 24.7112 34.0043 24.7112C34.2155 24.7112 34.6379 24.7112 34.8491 24.9224C35.0603 25.1336 35.0603 25.556 35.0603 25.7672C35.0603 27.2457 35.0603 28.9353 35.0603 30.625C35.0603 30.8362 35.0603 31.2586 34.8491 31.4698C34.6379 31.681 34.2155 31.681 34.0043 31.681C32.3147 31.681 30.625 31.681 28.7241 31.681C27.4569 31.681 26.1897 31.681 24.7112 31.681C23.0216 31.681 21.3319 31.681 19.6422 31.681C19.2198 31.681 19.0086 31.681 18.7974 31.4698C18.5862 31.2586 18.5862 30.8362 18.5862 30.4138C18.375 28.9353 18.375 27.2457 18.375 25.7672ZM28.3017 95.4655H20.2759C16.2629 95.4655 12.25 95.4655 8.02586 95.4655C6.125 95.4655 4.64655 94.8319 3.59052 93.7758C2.53448 92.7198 2.11207 91.0301 2.11207 89.1293C2.11207 88.2845 2.74569 88.2845 3.1681 88.2845C5.28017 88.2845 7.39224 88.2845 9.50431 88.2845H17.5302C23.6552 88.2845 30.2026 88.2845 36.3276 88.2845C36.75 88.2845 36.9612 88.2845 36.9612 88.0733C36.9612 88.0733 37.1724 87.6508 37.1724 87.4396C37.1724 74.556 37.1724 61.4612 37.1724 48.3664C37.1724 47.9439 37.1724 47.7327 36.9612 47.7327C36.9612 47.7327 36.75 47.5215 36.3276 47.5215C31.0474 47.5215 25.9784 47.5215 20.6983 47.5215C14.9957 47.5215 9.2931 47.5215 3.59052 47.5215C3.1681 47.5215 2.74569 47.5215 2.32328 47.0991C2.11207 46.8879 1.90086 46.2543 2.11207 45.8319C2.11207 43.931 2.9569 42.4526 4.43534 41.3965C6.75862 39.9181 9.0819 38.4396 11.4052 36.9612C12.8836 36.1164 14.3621 35.0603 16.0517 34.2155C16.4741 34.0043 16.8966 34.0043 17.319 34.0043C23.8664 34.0043 29.569 34.0043 35.4828 34.0043C35.9052 34.0043 36.5388 34.2155 36.9612 34.4267L38.0172 35.0603C39.7069 36.1164 41.6078 37.3836 43.2974 38.4396C43.931 38.862 44.3534 39.4957 44.3534 40.3405C44.3534 47.7327 44.3534 55.3362 44.3534 62.7284C44.3534 71.3879 44.3534 80.0474 44.3534 88.7069C44.3534 91.0301 44.5647 92.931 45.8319 94.6207L46.2543 95.2543L28.3017 95.4655ZM35.0603 64.2069V68.0086V71.8103C35.0603 75.8233 35.0603 80.0474 35.0603 84.2715C35.0603 84.6939 35.0603 85.1164 34.8491 85.3276C34.6379 85.5388 34.2155 85.5388 33.7931 85.5388C24.9224 85.5388 15.4181 85.5388 3.80172 85.5388C3.37931 85.5388 3.1681 85.5388 2.74569 85.3276C2.53448 85.1164 2.53448 84.6939 2.53448 84.2715C2.53448 73.0776 2.53448 61.8836 2.53448 50.9008C2.53448 50.4784 2.53448 50.2672 2.74569 49.8448C2.9569 49.6336 3.37931 49.6336 3.80172 49.6336C15.6293 49.6336 25.1336 49.6336 33.7931 49.6336C34.2155 49.6336 34.4267 49.6336 34.8491 49.8448C35.0603 50.056 35.0603 50.4784 35.0603 50.9008C35.0603 55.7586 35.0603 59.9827 35.0603 64.2069ZM59.1379 15.8405C57.2371 15.8405 56.6034 15.2069 56.6034 13.0948C56.6034 10.3491 56.6034 7.60342 56.6034 4.64653C56.6034 2.74566 57.2371 2.11204 59.1379 2.11204C67.375 2.11204 75.6121 2.11204 83.6379 2.11204C85.3276 2.11204 85.9612 2.74566 85.9612 4.64653C85.9612 7.60342 85.9612 10.3491 85.9612 13.306C85.9612 14.9957 85.3276 15.6293 83.4267 15.6293C80.4698 15.6293 77.5129 15.6293 74.556 15.6293H71.5991H71.1767H67.7974C66.7414 15.6293 65.6853 15.6293 64.4181 15.6293C62.7284 15.8405 61.0388 15.8405 59.1379 15.8405ZM62.9397 19.431C62.9397 19.2198 62.9397 18.7974 63.1509 18.5862C63.3621 18.375 63.7845 18.375 63.9957 18.375C68.8534 18.375 73.7112 18.375 78.569 18.375C78.7802 18.375 79.2026 18.375 79.4138 18.5862C79.625 18.7974 79.625 19.2198 79.625 19.431C79.625 20.9095 79.625 22.5991 79.625 24.2888C79.625 24.7112 79.625 24.9224 79.4138 25.1336C79.2026 25.3448 78.7802 25.3448 78.569 25.3448C76.8793 25.3448 74.9784 25.3448 73.2888 25.3448C72.0216 25.3448 70.7543 25.3448 69.2759 25.3448C67.5862 25.3448 65.8965 25.3448 64.2069 25.3448C63.9957 25.3448 63.5733 25.3448 63.3621 25.1336C63.1509 24.9224 63.1509 24.5 63.1509 24.0776C62.9397 22.3879 62.9397 20.6982 62.9397 19.431ZM95.4655 58.2931V72.0215C95.4655 77.9353 95.4655 83.8491 95.4655 89.7629C95.4655 93.3534 93.3534 95.4655 89.7629 95.4655C83.4267 95.4655 76.8793 95.4655 70.5431 95.4655C64.6293 95.4655 58.7155 95.4655 52.5905 95.4655C50.6897 95.4655 49.2112 94.8319 48.1552 93.7758C47.0991 92.7198 46.6767 91.0301 46.8879 89.3405C46.8879 89.1293 46.8879 88.4957 47.7328 88.4957C47.944 88.4957 48.1552 88.4957 48.1552 88.4957H48.3664H55.125C63.5733 88.4957 72.444 88.4957 81.1034 88.4957C81.5259 88.4957 81.7371 88.4957 81.7371 88.2845C81.7371 88.2845 81.9483 88.0733 81.9483 87.6508C81.9483 71.3879 81.9483 56.3922 81.9483 42.0301C81.9483 41.6077 81.9483 41.3965 81.7371 41.3965C81.7371 41.3965 81.3147 41.1853 81.1034 41.1853C76.0345 41.1853 70.9655 41.1853 65.8966 41.1853C59.9828 41.1853 54.2802 41.1853 48.3664 41.1853C47.944 41.1853 47.5215 41.1853 47.0991 40.7629C46.8879 40.5517 46.8879 39.9181 46.8879 39.7069C46.8879 37.5948 47.7328 36.1164 49.4224 35.0603L53.2241 32.737C55.7586 31.2586 58.2931 29.5689 60.6164 28.0905C61.0388 27.8793 61.4612 27.6681 61.8836 27.6681C69.2759 27.6681 74.7672 27.6681 80.0474 27.6681C80.4698 27.6681 80.8922 27.8793 81.5259 28.0905L82.5819 28.7241C85.75 30.8362 89.1293 32.9482 92.5086 34.8491C94.4095 35.9051 95.2543 37.5948 95.2543 39.9181C95.4655 46.2543 95.4655 52.3793 95.4655 58.2931ZM79.625 84.4827C79.625 84.9051 79.625 85.3276 79.4138 85.5388C79.2026 85.75 78.7802 85.75 78.3578 85.75C67.7974 85.75 58.0819 85.75 48.3664 85.75C47.944 85.75 47.5215 85.75 47.3103 85.5388C47.0991 85.3276 47.0991 84.9051 47.0991 84.4827C47.0991 79.4138 47.0991 74.3448 47.0991 69.2758V64.8405V60.1939C47.0991 55.3362 47.0991 50.056 47.0991 45.1982C47.0991 44.7758 47.0991 44.3534 47.5216 44.1422C47.7328 43.931 48.1552 43.7198 48.5776 43.7198C57.6595 43.7198 67.5862 43.7198 78.3578 43.7198C78.7802 43.7198 79.2026 43.7198 79.4138 43.931C79.625 44.1422 79.625 44.5646 79.625 44.987C79.625 57.8707 79.625 70.7543 79.625 84.4827Z" fill="#E2001A"/>
<path d="M74.7671 68.2198C74.3447 67.375 73.9223 66.5302 73.7111 65.4741C73.7111 65.2629 73.7111 65.2629 73.7111 65.2629C74.5559 63.7845 75.1896 62.306 75.8232 60.8276V60.6164C74.7671 58.2931 73.9223 56.181 72.8663 53.8578C72.6551 53.2241 72.4439 52.5905 72.0214 51.9569C71.8102 52.3793 71.599 52.8017 71.3878 53.2242C70.3318 55.3362 69.2758 57.4483 68.2197 59.7716C68.2197 59.9828 68.2197 59.9828 68.2197 60.194C69.0646 62.306 69.9094 64.4181 70.7542 66.5302V66.7414C69.9094 68.2198 69.2758 69.6983 68.4309 71.3879V71.5992C68.8534 72.6552 69.2758 73.7112 69.9094 74.556C70.7542 76.2457 71.3878 77.7241 72.2327 79.4138C72.2327 79.4138 72.2327 79.4138 72.2327 79.2026C73.4999 76.6681 74.7671 74.1336 76.0344 71.5992V71.3879C75.8232 70.5431 75.1896 69.2759 74.7671 68.2198ZM70.543 59.1379C70.543 59.1379 70.543 58.9267 70.543 59.1379C70.7542 58.5043 70.9654 57.8707 71.3878 57.4483C71.599 57.8707 71.8102 58.2931 71.8102 58.7155C72.2327 59.7716 72.6551 60.8276 73.0775 61.8836V62.0948C72.8663 62.5173 72.4439 63.1509 72.2327 63.5733C72.0215 63.1509 72.0214 62.7285 71.8102 62.5173C71.599 61.4612 70.9654 60.194 70.543 59.1379ZM73.4999 73.2888C73.2887 73.7112 73.0775 73.9224 72.8663 74.3448V74.1336C72.2327 72.8664 71.8102 71.5991 71.1766 70.3319C71.1766 70.1207 71.1766 70.1207 71.1766 70.1207C71.3878 69.6983 71.599 69.4871 71.8102 69.0647C72.4439 70.3319 72.8663 71.5992 73.4999 72.6552C73.7111 73.0776 73.7111 73.2888 73.4999 73.2888Z" fill="#E2001A"/>
<path d="M57.237 65.263V65.0517C58.0818 63.5733 58.7154 61.8836 59.5602 60.4052C59.5602 60.194 59.5602 60.194 59.5602 60.194C58.9266 58.9267 58.293 57.4483 57.6594 56.1811C57.0258 54.9138 56.3921 53.6466 55.7585 52.3793C55.7585 52.3793 55.7585 52.3793 55.7585 52.5905C54.4913 55.125 53.224 57.6595 51.9568 59.9828C51.9568 60.194 51.9568 60.194 51.9568 60.4052C52.8016 62.3061 53.6464 64.4181 54.7025 66.319C54.7025 66.5302 54.7025 66.5302 54.7025 66.5302C53.8576 68.2198 53.224 69.9095 52.3792 71.5992C52.3792 71.8104 52.3792 71.8104 52.3792 72.0216C53.224 73.9224 54.0689 75.8233 55.1249 77.7242C55.5473 78.3578 55.7585 79.2026 56.1809 79.8362C56.1809 79.8362 56.1809 79.625 56.3921 79.625C57.6594 77.0905 58.9266 74.5561 60.1939 72.2328V72.0216C59.1378 69.4871 58.293 67.375 57.237 65.263ZM54.4913 58.7155V58.5043C54.7025 57.8707 55.1249 57.4483 55.3361 56.8147C55.9697 58.2931 56.6033 59.7716 57.4482 61.25V61.4612C57.237 62.0949 56.8145 62.7285 56.6033 63.3621C56.3921 62.9397 56.1809 62.5173 55.9697 62.0948C55.3361 60.8276 54.9137 59.7716 54.4913 58.7155ZM57.6594 73.2888C57.4482 73.7112 57.0258 74.1336 56.8145 74.7673C56.6033 74.1336 56.3921 73.7112 55.9697 73.0776C55.5473 72.2328 55.1249 71.388 54.9137 70.5431C54.9137 70.3319 54.9137 70.3319 54.9137 70.3319C55.1249 69.9095 55.3361 69.4871 55.5473 69.0647V68.8535C56.3921 70.1207 57.0258 71.5992 57.6594 73.2888C57.6594 73.0776 57.6594 73.0776 57.6594 73.2888Z" fill="#E2001A"/>
<path d="M69.2759 66.5302C67.7974 62.9397 66.319 59.5604 64.8405 55.9698C64.6293 55.5474 64.4181 55.125 64.2069 54.4914V54.7026C62.5172 58.0819 60.8276 61.4612 59.1379 64.6293C59.1379 64.8405 59.1379 64.8405 59.1379 65.0517C60.6164 68.2198 62.0948 71.5992 63.5733 74.7673C63.7845 75.1897 63.9957 75.8233 64.2069 76.2457C65.8966 73.0776 67.5862 69.9095 69.2759 66.7414C69.2759 66.7414 69.2759 66.7414 69.2759 66.5302ZM66.7414 67.7974C66.1078 69.0647 65.4741 70.1207 64.8405 71.3879C64.8405 71.3879 64.8405 71.388 64.8405 71.5992C64.6293 70.9655 64.4181 70.5431 64.2069 69.9095C63.3621 68.0086 62.5172 66.1078 61.6724 64.2069V63.9957C62.306 62.7285 62.9397 61.4612 63.5733 60.4052C63.7845 61.0388 63.9957 61.4612 64.2069 62.0948C65.0517 63.9957 65.8966 65.8966 66.7414 67.7974C66.7414 67.5862 66.7414 67.7974 66.7414 67.7974Z" fill="#E2001A"/>
<path d="M29.5689 71.5991C29.1465 70.7543 28.7241 69.9095 28.5129 68.8534C28.5129 68.6422 28.5129 68.6422 28.5129 68.6422C29.3577 67.1638 29.9913 65.6853 30.6249 64.2069V63.9957C29.5689 61.6724 28.7241 59.5603 27.668 57.237C27.4568 56.6034 27.2456 55.9698 26.8232 55.3362C26.612 55.7586 26.4008 56.181 26.1896 56.6034C25.1336 58.7155 24.0775 60.8276 23.0215 63.1508C23.0215 63.362 23.0215 63.362 23.0215 63.5732C23.8663 65.6853 24.7111 67.7974 25.556 69.9095V70.1207C24.7111 71.5991 24.0775 73.0776 23.2327 74.7672V74.9784C23.6551 76.0345 24.0775 77.0905 24.7111 77.9353C25.556 79.625 26.1896 81.1034 27.0344 82.7931C27.0344 82.7931 27.0344 82.7931 27.0344 82.5819C28.3017 80.0474 29.5689 77.5129 30.8361 74.9784V74.7672C30.6249 73.9224 30.2025 72.8664 29.5689 71.5991ZM25.556 62.5172C25.556 62.5172 25.3448 62.5172 25.556 62.5172C25.7672 61.8836 25.9784 61.25 26.4008 60.8276C26.612 61.25 26.8232 61.6724 26.8232 62.0948C27.2456 63.1508 27.668 64.2069 28.0905 65.2629V65.4741C27.8792 65.8965 27.4568 66.5301 27.2456 66.9526C27.0344 66.5301 27.0344 66.1077 26.8232 65.8965C26.4008 64.8405 25.9784 63.5732 25.556 62.5172ZM28.5129 76.8793C28.3017 77.3017 28.0904 77.5129 27.8792 77.9353V77.7241C27.2456 76.4569 26.8232 75.1896 26.1896 73.9224C26.1896 73.7112 26.1896 73.7112 26.1896 73.7112C26.4008 73.2888 26.612 73.0776 26.8232 72.6551C27.4568 73.9224 27.8792 75.1896 28.5129 76.2457C28.5129 76.4569 28.5129 76.6681 28.5129 76.8793Z" fill="#E2001A"/>
<path d="M12.25 68.8534V68.6422C13.0948 67.1638 13.7285 65.4741 14.5733 63.9956C14.5733 63.7844 14.5733 63.7844 14.5733 63.7844C13.9397 62.5172 13.3061 61.0388 12.6724 59.7715C12.0388 58.5043 11.4052 57.237 10.7716 55.9698C10.7716 55.9698 10.7716 55.9698 10.7716 56.181C9.50433 58.7155 8.23709 61.25 6.96985 63.5732C6.96985 63.7844 6.96985 63.7844 6.96985 63.9956C8.02588 65.4741 8.87071 67.5862 9.71554 69.487C9.71554 69.6982 9.71554 69.6982 9.71554 69.6982C8.87071 71.3879 8.23709 73.0775 7.39226 74.7672C7.39226 74.9784 7.39226 74.9784 7.39226 75.1896C8.23709 77.0905 9.08192 78.9913 10.138 80.8922C10.5604 81.5258 10.7716 82.3706 11.194 83.0043C11.194 83.0043 11.194 82.7931 11.4052 82.7931C12.6724 80.2586 13.9397 77.7241 15.2069 75.4008V75.1896C14.1509 72.8663 13.0948 70.7543 12.25 68.8534ZM9.29312 62.0948V61.8836C9.50433 61.25 9.92675 60.8275 10.138 60.1939C10.7716 61.6724 11.4052 63.1508 12.25 64.6293V64.8405C12.0388 65.4741 11.6164 66.1077 11.4052 66.7413C11.194 66.3189 10.9828 65.8965 10.7716 65.4741C10.138 64.2069 9.71554 63.1508 9.29312 62.0948ZM12.6724 76.6681C12.4612 77.0905 12.0388 77.5129 11.8276 78.1465C11.6164 77.5129 11.4052 77.0905 10.9828 76.4569C10.5604 75.612 10.138 74.7672 9.92674 73.9224C9.92674 73.7112 9.92674 73.7112 9.92674 73.7112C10.138 73.2888 10.3492 72.8663 10.5604 72.4439V72.2327C11.4052 73.5 12.0388 74.9784 12.6724 76.6681C12.6724 76.6681 12.6724 76.4569 12.6724 76.6681Z" fill="#E2001A"/>
<path d="M24.2888 70.1207C22.8104 66.5302 21.3319 63.1508 19.8535 59.5603C19.6423 59.1379 19.4311 58.7155 19.2198 58.0819V58.2931C17.5302 61.6724 15.8405 65.0517 14.1509 68.2198C14.1509 68.431 14.1509 68.431 14.1509 68.6422C15.4181 71.8103 16.8966 75.1896 18.375 78.3577C18.5862 78.7801 18.7974 79.4138 19.0086 79.8362C20.6983 76.6681 22.3879 73.5 24.0776 70.3319C24.2888 70.1207 24.2888 70.1207 24.2888 70.1207ZM21.5431 71.1767C20.9095 72.4439 20.2759 73.5 19.6423 74.7672C19.6423 74.7672 19.6423 74.7672 19.6423 74.9784C19.4311 74.3448 19.2198 73.9224 19.0086 73.2888C18.1638 71.3879 17.319 69.487 16.4742 67.5862V67.375C17.1078 66.1077 17.7414 64.8405 18.375 63.7845C18.5862 64.4181 18.7974 64.8405 19.0086 65.4741C19.8535 67.375 20.6983 69.2758 21.5431 71.1767C21.5431 71.1767 21.5431 71.1767 21.5431 71.1767Z" fill="#E2001A"/>
</svg>
