<svg width="98" height="98" viewBox="0 0 98 98" fill="none" xmlns="http://www.w3.org/2000/svg">
<path d="M93.7759 32.7371C91.6638 31.4698 89.5517 29.9914 87.4397 28.7241C85.9612 27.8793 84.4828 26.8233 83.0043 25.9784C82.3707 25.556 81.9483 25.1336 82.1595 24.2888C82.1595 23.2328 82.1595 22.1767 82.1595 21.3319C82.1595 20.9095 82.1595 20.4871 82.1595 20.0647C82.1595 18.375 82.3707 18.1638 84.0603 18.1638C86.5948 18.1638 88.4957 16.2629 88.4957 13.7284C88.4957 9.92672 88.4957 6.96983 88.4957 4.22414C88.4957 1.90086 86.5948 0 84.2716 0C75.6121 0 66.9526 0 58.5043 0C56.181 0 54.2802 1.90086 54.2802 4.22414C54.2802 7.18103 54.2802 10.3491 54.2802 14.1509C54.2802 15.6293 54.9138 16.6853 56.181 17.5302C57.0259 18.1638 58.0819 18.375 59.1379 18.375C59.5603 18.375 59.9828 18.375 60.4052 18.5862C60.8276 19.0086 60.8276 19.431 60.8276 19.8534C60.8276 21.3319 60.8276 23.0216 60.8276 24.2888C60.8276 25.1336 60.6164 25.556 59.7715 25.9784C57.6595 27.2457 55.3362 28.7241 53.2241 29.9914C51.7457 30.8362 50.2672 31.8922 48.7888 32.7371C47.5216 33.5819 46.4655 34.4267 46.0431 35.4828C45.8319 35.694 45.6207 35.9052 45.4095 36.1164C45.1983 36.1164 44.7759 36.1164 44.5647 35.9052C42.2414 34.4267 40.1293 33.1595 38.4397 32.1034C38.0172 31.8922 37.806 31.4698 37.806 30.8362C37.806 29.1465 37.806 27.4569 37.806 25.556C37.806 24.7112 38.2284 24.5 38.8621 24.2888C41.1853 23.8664 42.6638 22.1767 42.6638 19.8534C42.6638 18.5862 42.6638 17.7414 42.6638 16.8966C42.2414 14.3621 40.3405 12.4612 37.806 12.4612C30.2026 12.4612 22.8103 12.4612 15.4181 12.4612C12.8836 12.4612 11.194 14.3621 10.9828 16.8966C10.9828 17.7414 10.9828 18.5862 10.9828 19.431V19.8534C10.9828 22.3879 12.4612 24.0776 14.7845 24.5C15.6293 24.7112 15.8405 25.1336 15.8405 25.7672C15.8405 27.2457 15.8405 29.1465 15.8405 30.8362C15.8405 31.681 15.6293 32.1034 14.9957 32.5259C11.4052 34.8491 7.60345 37.1724 4.01293 39.2845L3.80172 39.4957C1.26724 40.9741 0 43.0862 0 46.2543C0 56.6034 0 66.9526 0 77.0905V89.3405C0 94.6207 3.1681 97.5776 8.23707 97.5776H49C62.5172 97.5776 76.0345 97.5776 89.7629 97.5776C95.0431 97.5776 98 94.4095 98 89.3405C98 84.9052 98 80.2586 98 75.8233C98 64.2069 98 52.1681 98 40.3405C98 36.9612 96.7328 34.4267 93.7759 32.7371ZM15.6293 21.9655C14.3621 21.9655 13.5172 21.1207 13.5172 19.8534C13.5172 18.7974 13.5172 17.9526 13.5172 17.1078C13.5172 15.6293 14.3621 14.7845 15.8405 14.7845C18.375 14.7845 20.9095 14.7845 23.6552 14.7845H26.8233H29.7802C32.3147 14.7845 35.0603 14.7845 37.5948 14.7845C39.2845 14.7845 40.1293 15.4181 40.1293 17.319V17.9526C40.1293 18.5862 40.1293 19.2198 40.1293 20.0647C40.1293 21.3319 39.2845 22.1767 38.0172 22.1767C34.4267 22.1767 30.625 22.1767 27.0345 22.1767C23.444 22.1767 19.2198 22.1767 15.6293 21.9655ZM18.375 25.556C18.375 25.3448 18.375 24.9224 18.5862 24.7112C18.7974 24.5 19.2198 24.5 19.431 24.5C24.2888 24.5 29.3578 24.5 34.0043 24.5C34.2155 24.5 34.6379 24.5 34.8491 24.7112C35.0603 24.9224 35.0603 25.3448 35.0603 25.556C35.0603 27.0345 35.0603 28.7241 35.0603 30.4138C35.0603 30.625 35.0603 31.0474 34.8491 31.2586C34.6379 31.4698 34.2155 31.4698 34.0043 31.4698C32.3147 31.4698 30.625 31.4698 28.7241 31.4698C27.4569 31.4698 26.1897 31.4698 24.7112 31.4698C23.0216 31.4698 21.3319 31.4698 19.6422 31.4698C19.2198 31.4698 19.0086 31.4698 18.7974 31.2586C18.5862 31.0474 18.5862 30.625 18.5862 30.2026C18.375 28.7241 18.375 27.0345 18.375 25.556ZM28.3017 95.2543H20.2759C16.2629 95.2543 12.25 95.2543 8.02586 95.2543C6.125 95.2543 4.64655 94.6207 3.59052 93.5647C2.53448 92.5086 2.11207 90.819 2.11207 88.9181C2.11207 88.0733 2.74569 88.0733 3.1681 88.0733C5.28017 88.0733 7.39224 88.0733 9.50431 88.0733H17.5302C23.6552 88.0733 30.2026 88.0733 36.3276 88.0733C36.75 88.0733 36.9612 88.0733 36.9612 87.8621C36.9612 87.8621 37.1724 87.4397 37.1724 87.2285C37.1724 74.3448 37.1724 61.25 37.1724 48.1552C37.1724 47.7328 37.1724 47.5216 36.9612 47.5216C36.9612 47.5216 36.75 47.3103 36.3276 47.3103C31.0474 47.3103 25.9784 47.3103 20.6983 47.3103C14.9957 47.3103 9.2931 47.3103 3.59052 47.3103C3.1681 47.3103 2.74569 47.3103 2.32328 46.8879C2.11207 46.6767 1.90086 46.0431 2.11207 45.6207C2.11207 43.7198 2.9569 42.2414 4.43534 41.1853C6.75862 39.7069 9.0819 38.2284 11.4052 36.75C12.8836 35.9052 14.3621 34.8491 16.0517 34.0043C16.4741 33.7931 16.8966 33.7931 17.319 33.7931C23.8664 33.7931 29.569 33.7931 35.4828 33.7931C35.9052 33.7931 36.5388 34.0043 36.9612 34.2155L38.0172 34.8491C39.7069 35.9052 41.6078 37.1724 43.2974 38.2284C43.931 38.6509 44.3534 39.2845 44.3534 40.1293C44.3534 47.5216 44.3534 55.125 44.3534 62.5172C44.3534 71.1767 44.3534 79.8362 44.3534 88.4957C44.3534 90.819 44.5647 92.7198 45.8319 94.4095L46.2543 95.0431L28.3017 95.2543ZM35.0603 63.9957V67.7974V71.5991C35.0603 75.6121 35.0603 79.8362 35.0603 84.0603C35.0603 84.4828 35.0603 84.9052 34.8491 85.1164C34.6379 85.3276 34.2155 85.3276 33.7931 85.3276C24.9224 85.3276 15.4181 85.3276 3.80172 85.3276C3.37931 85.3276 3.1681 85.3276 2.74569 85.1164C2.53448 84.9052 2.53448 84.4828 2.53448 84.0603C2.53448 72.8664 2.53448 61.6724 2.53448 50.6897C2.53448 50.2672 2.53448 50.056 2.74569 49.6336C2.9569 49.4224 3.37931 49.4224 3.80172 49.4224C15.6293 49.4224 25.1336 49.4224 33.7931 49.4224C34.2155 49.4224 34.4267 49.4224 34.8491 49.6336C35.0603 49.8448 35.0603 50.2672 35.0603 50.6897C35.0603 55.5474 35.0603 59.7715 35.0603 63.9957ZM59.1379 15.6293C57.2371 15.6293 56.6034 14.9957 56.6034 12.8836C56.6034 10.1379 56.6034 7.39224 56.6034 4.43534C56.6034 2.53448 57.2371 1.90086 59.1379 1.90086C67.375 1.90086 75.6121 1.90086 83.6379 1.90086C85.3276 1.90086 85.9612 2.53448 85.9612 4.43534C85.9612 7.39224 85.9612 10.1379 85.9612 13.0948C85.9612 14.7845 85.3276 15.4181 83.4267 15.4181C80.4698 15.4181 77.5129 15.4181 74.556 15.4181H71.5991H71.1767H67.7974C66.7414 15.4181 65.6853 15.4181 64.4181 15.4181C62.7284 15.6293 61.0388 15.6293 59.1379 15.6293ZM62.9397 19.2198C62.9397 19.0086 62.9397 18.5862 63.1509 18.375C63.3621 18.1638 63.7845 18.1638 63.9957 18.1638C68.8534 18.1638 73.7112 18.1638 78.569 18.1638C78.7802 18.1638 79.2026 18.1638 79.4138 18.375C79.625 18.5862 79.625 19.0086 79.625 19.2198C79.625 20.6983 79.625 22.3879 79.625 24.0776C79.625 24.5 79.625 24.7112 79.4138 24.9224C79.2026 25.1336 78.7802 25.1336 78.569 25.1336C76.8793 25.1336 74.9784 25.1336 73.2888 25.1336C72.0216 25.1336 70.7543 25.1336 69.2759 25.1336C67.5862 25.1336 65.8965 25.1336 64.2069 25.1336C63.9957 25.1336 63.5733 25.1336 63.3621 24.9224C63.1509 24.7112 63.1509 24.2888 63.1509 23.8664C62.9397 22.1767 62.9397 20.4871 62.9397 19.2198ZM95.4655 58.0819V71.8103C95.4655 77.7241 95.4655 83.6379 95.4655 89.5517C95.4655 93.1422 93.3534 95.2543 89.7629 95.2543C83.4267 95.2543 76.8793 95.2543 70.5431 95.2543C64.6293 95.2543 58.7155 95.2543 52.5905 95.2543C50.6897 95.2543 49.2112 94.6207 48.1552 93.5647C47.0991 92.5086 46.6767 90.819 46.8879 89.1293C46.8879 88.9181 46.8879 88.2845 47.7328 88.2845C47.944 88.2845 48.1552 88.2845 48.1552 88.2845H48.3664H55.125C63.5733 88.2845 72.444 88.2845 81.1034 88.2845C81.5259 88.2845 81.7371 88.2845 81.7371 88.0733C81.7371 88.0733 81.9483 87.8621 81.9483 87.4397C81.9483 71.1767 81.9483 56.181 81.9483 41.819C81.9483 41.3965 81.9483 41.1853 81.7371 41.1853C81.7371 41.1853 81.3147 40.9741 81.1034 40.9741C76.0345 40.9741 70.9655 40.9741 65.8966 40.9741C59.9828 40.9741 54.2802 40.9741 48.3664 40.9741C47.944 40.9741 47.5215 40.9741 47.0991 40.5517C46.8879 40.3405 46.8879 39.7069 46.8879 39.4957C46.8879 37.3836 47.7328 35.9052 49.4224 34.8491L53.2241 32.5259C55.7586 31.0474 58.2931 29.3578 60.6164 27.8793C61.0388 27.6681 61.4612 27.4569 61.8836 27.4569C69.2759 27.4569 74.7672 27.4569 80.0474 27.4569C80.4698 27.4569 80.8922 27.6681 81.5259 27.8793L82.5819 28.5129C85.75 30.625 89.1293 32.7371 92.5086 34.6379C94.4095 35.694 95.2543 37.3836 95.2543 39.7069C95.4655 46.0431 95.4655 52.1681 95.4655 58.0819ZM79.625 84.2716C79.625 84.694 79.625 85.1164 79.4138 85.3276C79.2026 85.5388 78.7802 85.5388 78.3578 85.5388C67.7974 85.5388 58.0819 85.5388 48.3664 85.5388C47.944 85.5388 47.5215 85.5388 47.3103 85.3276C47.0991 85.1164 47.0991 84.694 47.0991 84.2716C47.0991 79.2026 47.0991 74.1336 47.0991 69.0647V64.6293V59.9828C47.0991 55.125 47.0991 49.8448 47.0991 44.9871C47.0991 44.5647 47.0991 44.1422 47.5216 43.931C47.7328 43.7198 48.1552 43.5086 48.5776 43.5086C57.6595 43.5086 67.5862 43.5086 78.3578 43.5086C78.7802 43.5086 79.2026 43.5086 79.4138 43.7198C79.625 43.931 79.625 44.3534 79.625 44.7759C79.625 57.6595 79.625 70.5431 79.625 84.2716Z" fill="#E2001A"/>
<path d="M50.9009 55.9698C50.9009 56.3922 50.9009 56.3922 50.9009 56.3922C50.9009 56.3922 50.9009 56.3922 51.3233 56.3922C54.9138 56.3922 58.7155 56.3922 62.5173 56.3922C66.7414 56.3922 70.9655 56.3922 75.4009 56.3922C75.6121 56.3922 75.8233 56.3922 75.8233 56.3922C75.8233 56.3922 75.8233 56.3922 75.8233 55.9698C75.8233 53.0129 75.8233 50.4784 75.8233 48.1551C75.8233 47.7327 75.8233 47.7327 75.8233 47.7327C75.8233 47.7327 75.6121 47.7327 75.4009 47.7327C72.444 47.7327 69.4871 47.7327 66.7414 47.7327C65.6854 47.7327 64.6293 47.7327 63.5733 47.7327H60.6164C57.6595 47.7327 54.7026 47.7327 51.7457 47.7327C51.3233 47.7327 51.3233 47.7327 51.3233 47.7327C51.3233 47.7327 51.3233 47.7327 51.3233 48.1551C50.9009 50.4784 50.9009 53.0129 50.9009 55.9698ZM53.4354 52.5905C53.4354 50.056 53.6466 50.056 56.1811 50.056H59.9828C63.9957 50.056 68.0086 50.056 72.0216 50.056C72.444 50.056 72.8664 50.056 73.0776 50.2672C73.2888 50.4784 73.2888 50.9008 73.2888 51.3232C73.2888 53.6465 73.0776 53.8577 70.5431 53.8577H63.3621C62.5173 53.8577 61.8836 53.8577 61.0388 53.8577C58.9267 53.8577 56.8147 53.8577 54.7026 53.8577C54.2802 53.8577 54.069 53.8577 53.8578 53.6465C53.4354 53.4353 53.4354 53.0129 53.4354 52.5905Z" fill="#E2001A"/>
<path d="M74.9785 66.5302C69.2759 66.5302 63.3621 66.5302 57.6595 66.5302H52.8017C51.9569 66.5302 51.3233 66.5302 51.1121 66.7414C50.9009 66.9526 50.9009 67.375 50.9009 68.2198V68.431C50.9009 68.8534 50.9009 68.8534 50.9009 68.8534C50.9009 68.8534 51.3233 68.8534 51.5345 68.8534C54.4914 68.8534 57.4483 68.8534 60.194 68.8534H73.7112C74.5561 68.8534 75.1897 68.8534 75.4009 68.6422C75.6121 68.431 75.6121 68.0086 75.6121 67.1638V66.9526C75.6121 66.5302 75.6121 66.5302 75.6121 66.5302C75.6121 66.5302 75.1897 66.5302 74.9785 66.5302Z" fill="#E2001A"/>
<path d="M75.1897 73.0776C72.2328 73.0776 69.2759 73.0776 66.319 73.0776C65.2629 73.0776 64.2069 73.0776 63.3621 73.0776H52.8017C51.9569 73.0776 51.3233 73.0776 51.1121 73.2888C50.9009 73.5 50.9009 73.9224 50.9009 74.7672C50.9009 75.1897 50.9009 75.1897 50.9009 75.1897C50.9009 75.1897 51.1121 75.1897 51.3233 75.1897C57.8707 75.1897 64.6293 75.1897 71.1767 75.1897H73.7112C74.5561 75.1897 75.1897 75.1897 75.4009 74.9784C75.6121 74.7672 75.6121 74.1336 75.6121 73.2888C75.6121 72.8664 75.6121 72.8664 75.6121 72.8664C75.6121 73.0776 75.6121 72.8664 75.1897 73.0776Z" fill="#E2001A"/>
<path d="M75.1896 60.194C73.0775 60.194 70.9655 60.194 68.8534 60.194H66.9526H59.1379C58.2931 60.194 57.6594 60.194 57.6594 60.4052C57.4482 60.6164 57.4482 61.0388 57.4482 61.8837C57.4482 62.3061 57.4482 62.3061 57.4482 62.3061C57.4482 62.3061 57.6594 62.3061 57.8707 62.3061C61.8836 62.3061 65.8965 62.3061 69.9094 62.3061H73.7112C74.7672 62.3061 75.4008 62.3061 75.4008 62.0949C75.612 61.8837 75.612 61.25 75.612 60.4052C75.612 59.9828 75.612 59.9828 75.612 59.9828C75.612 60.194 75.4008 60.194 75.1896 60.194Z" fill="#E2001A"/>
<path d="M68.6423 79.4137C65.0517 79.4137 61.4612 79.4137 57.8707 79.4137C56.8147 79.4137 55.5474 79.4137 54.4914 79.4137C53.8578 79.4137 53.4354 79.4137 52.8017 79.4137C51.7457 79.4137 51.1121 79.4137 51.1121 79.6249C50.9009 79.8362 50.9009 80.4698 50.9009 81.3146C50.9009 81.5258 50.9009 81.737 50.9009 81.737C50.9009 81.737 51.1121 81.737 51.3233 81.737C53.4354 81.737 55.5474 81.737 57.4483 81.737H59.7716H61.6724C63.5733 81.737 65.4742 81.737 67.1638 81.737C68.0086 81.737 68.6423 81.737 68.8535 81.5258C69.0647 81.3146 69.0647 80.8922 69.0647 79.8362C69.0647 79.4137 69.0647 79.4137 69.0647 79.4137C69.2759 79.4137 69.0647 79.4137 68.6423 79.4137Z" fill="#E2001A"/>
<path d="M51.5346 62.7284C51.7458 62.7284 51.7458 62.7284 51.957 62.7284H52.1682C52.8018 62.7284 53.2242 62.7284 53.4354 62.7284C53.4354 62.7284 53.4354 62.0948 53.4354 61.4612C53.4354 61.0387 53.4354 60.4051 53.4354 60.4051C53.4354 60.4051 52.8018 60.4051 52.3794 60.4051C51.7458 60.4051 51.3234 60.4051 51.1122 60.4051C51.1122 60.4051 51.1122 61.0387 51.1122 61.6724C51.1122 61.6724 51.1122 61.6724 51.1122 61.8836C51.1122 62.0948 51.1122 62.0948 51.1122 62.306C51.1122 62.7284 51.1122 62.7284 51.1122 62.9396C50.9009 62.7284 51.1122 62.7284 51.5346 62.7284Z" fill="#E2001A"/>
<path d="M74.556 79.4137H74.3448C73.9224 79.4137 73.5 79.4137 73.5 79.4137C73.5 79.4137 73.5 80.0474 73.5 80.681V80.8922C73.5 81.1034 73.5 81.1034 73.5 81.3146C73.5 81.5258 73.5 81.737 73.5 81.737C73.5 81.737 73.7112 81.737 73.9224 81.737C74.1336 81.737 74.1336 81.737 74.3448 81.737H74.556C75.1897 81.737 75.6121 81.737 75.8233 81.737C75.8233 81.737 75.8233 81.1034 75.8233 80.4698C75.8233 80.0474 75.8233 79.4137 75.8233 79.4137C75.4009 79.4137 74.9784 79.4137 74.556 79.4137Z" fill="#E2001A"/>
<path d="M6.33621 69.0647C6.33621 69.0647 6.54741 69.0647 6.75862 69.0647C9.71552 69.0647 12.8836 69.0647 15.8405 69.0647H18.5862H21.5431C22.5991 69.0647 23.444 69.0647 24.5 69.0647C26.4009 69.0647 28.5129 69.0647 30.4138 69.0647C30.8362 69.0647 30.8362 69.0647 30.8362 69.0647C30.8362 69.0647 30.8362 69.0646 30.8362 68.6422C30.8362 64.4181 30.8362 59.9828 30.8362 54.2802C30.8362 54.069 30.8362 53.8578 30.8362 53.8578C30.8362 53.8578 30.8362 53.8578 30.4138 53.8578C21.9655 53.8578 14.1509 53.8578 6.54741 53.8578C6.125 53.8578 6.125 53.8578 6.125 53.8578C6.125 53.8578 6.125 53.8578 6.125 54.2802C6.125 59.5603 6.125 64.2069 6.125 68.431C6.33621 68.8534 6.33621 69.0647 6.33621 69.0647ZM8.87069 65.4741C8.87069 63.1509 8.87069 60.6164 8.87069 57.4483C8.87069 57.2371 8.87069 56.8147 9.0819 56.6034C9.2931 56.3922 9.71552 56.3922 9.92672 56.3922C14.9957 56.3922 20.6983 56.3922 27.4569 56.3922C27.6681 56.3922 28.0905 56.3922 28.3017 56.6034C28.5129 56.8147 28.5129 57.2371 28.5129 57.4483C28.5129 60.4052 28.5129 63.1509 28.5129 65.6853C28.5129 65.8966 28.5129 66.319 28.3017 66.5302C28.0905 66.7414 27.6681 66.7414 27.2457 66.7414C25.1336 66.7414 23.0216 66.7414 20.6983 66.7414H18.375C17.5302 66.7414 16.8966 66.7414 16.0517 66.7414C13.9397 66.7414 11.8276 66.7414 9.71552 66.7414C9.2931 66.7414 9.0819 66.7414 8.65948 66.5302C8.87069 66.1078 8.65948 65.6853 8.87069 65.4741Z" fill="#E2001A"/>
<path d="M30.4138 79.4137C24.7112 79.4137 18.7974 79.4137 13.0948 79.4137H8.23704C7.39222 79.4137 6.7586 79.4137 6.54739 79.6249C6.33618 79.6249 6.33618 80.2586 6.33618 81.1034V81.3146C6.33618 81.737 6.33618 81.737 6.33618 81.737C6.33618 81.737 6.7586 81.737 6.9698 81.737C9.9267 81.737 12.8836 81.737 15.6293 81.737H29.1465C29.9914 81.737 30.625 81.737 30.8362 81.5258C31.0474 81.3146 31.0474 80.8922 31.0474 80.0474V79.8362C31.0474 79.4137 31.0474 79.4137 31.0474 79.4137C30.8362 79.4137 30.625 79.4137 30.4138 79.4137Z" fill="#E2001A"/>
<path d="M30.4137 73.0776C26.4008 73.0776 22.3879 73.0776 18.3749 73.0776H14.5732C13.5172 73.0776 12.8836 73.0776 12.6724 73.2888C12.6724 73.2888 12.6724 73.9224 12.6724 74.9785C12.6724 75.4009 12.6724 75.4009 12.6724 75.4009C12.6724 75.4009 12.6724 75.4009 13.0948 75.4009C15.2068 75.4009 17.3189 75.4009 19.431 75.4009C20.2758 75.4009 20.9094 75.4009 21.7543 75.4009H29.1465C29.9913 75.4009 30.6249 75.4009 30.8362 75.1897C31.0474 74.9785 31.0474 74.5561 31.0474 73.7112C31.0474 73.2888 31.0474 73.2888 31.0474 73.2888C31.0474 73.0776 30.8362 72.8664 30.4137 73.0776Z" fill="#E2001A"/>
<path d="M7.81473 73.0775C7.18111 73.0775 6.54749 73.0775 6.54749 73.0775C6.54749 73.0775 6.54749 73.4999 6.54749 73.9224C6.54749 74.556 6.54749 75.1896 6.54749 75.1896C6.54749 75.1896 7.18111 75.1896 7.60352 75.1896C8.23714 75.1896 8.65955 75.1896 8.87076 75.1896C8.87076 75.1896 8.87076 74.7672 8.87076 74.556C8.87076 73.7112 8.87076 73.0775 8.87076 73.0775C8.65955 73.0775 8.23714 73.0775 7.81473 73.0775Z" fill="#E2001A"/>
</svg>
