<svg width="86" height="86" viewBox="0 0 86 86" fill="none" xmlns="http://www.w3.org/2000/svg">
<path d="M81.3564 0H4.64363C1.48596 0 0 1.48918 0 4.65368V52.6796V81.3463C0 84.5108 1.48596 86 4.64363 86H81.1706C84.3283 86 85.8143 84.5108 85.8143 81.3463C85.8143 55.658 85.8143 30.1558 85.8143 4.46753C86 1.48918 84.3283 0 81.3564 0ZM2.22894 7.25974C2.22894 6.7013 2.22894 5.95671 2.22894 5.39827C2.22894 5.02597 2.22894 4.83983 2.22894 4.46753C2.22894 2.79221 2.78618 2.23377 4.45788 2.23377H81.1706C83.2138 2.23377 83.7711 2.79221 83.7711 4.83983C83.7711 5.21212 83.7711 5.39827 83.7711 5.77056C83.7711 6.51515 83.7711 7.25974 83.7711 7.81818C83.7711 8.00433 83.7711 8.37662 83.5853 8.56277C83.3996 8.74892 83.2138 8.74892 82.8423 8.74892C82.6566 8.74892 82.6566 8.74892 82.4709 8.74892H82.2851H35.6631C25.0756 8.74892 14.3024 8.74892 3.52916 8.74892C3.15767 8.74892 2.78618 8.74892 2.41469 8.37662C2.22894 8.00433 2.22894 7.63203 2.22894 7.25974ZM83.7711 77.2511C83.7711 77.6234 83.7711 77.9957 83.7711 78.368V79.1126L82.8423 78.1818C82.6566 77.9957 82.6566 77.9957 82.4709 77.8095C81.5421 76.8788 80.7991 76.1342 79.8704 75.2035C77.6415 72.9697 75.2268 70.5498 72.8121 68.316C72.6264 68.1299 72.2549 67.7576 72.2549 67.3853C72.2549 67.013 72.6264 66.8268 72.8121 66.6407C72.9978 66.4545 73.1836 66.2684 73.3693 66.0822C73.7408 65.71 74.1123 65.3377 74.4838 65.3377C75.041 65.3377 75.4125 65.8961 75.784 66.2684C75.9698 66.4545 75.9698 66.6407 76.1555 66.6407C77.27 67.5714 78.1987 68.6883 79.3132 69.619C80.6134 70.7359 81.7279 72.039 83.0281 73.1558C83.3996 73.5281 83.5853 74.0866 83.5853 74.645C83.7711 75.5758 83.7711 76.3203 83.7711 77.2511ZM65.0108 74.2727C65.0108 75.0173 65.1965 75.948 64.6393 76.3203C64.2678 76.5065 63.8963 76.6926 63.5248 76.6926C63.1534 76.6926 62.9676 76.6926 62.5961 76.6926C62.4104 76.6926 62.2246 76.6926 62.0389 76.6926H61.6674H61.1102C59.9957 76.6926 59.2527 76.6926 58.6955 76.1342C58.324 75.7619 58.324 75.0173 58.5097 73.7143C58.6955 72.9697 59.067 72.9697 59.4384 72.9697C60.9244 72.7835 62.4104 72.5974 64.0821 72.039C64.2678 72.039 64.6393 71.8528 64.8251 72.039C65.0108 72.2251 65.0108 72.5974 65.0108 72.7835V72.9697C65.0108 73.1558 65.0108 73.1558 65.0108 73.342C65.0108 73.5281 65.0108 73.9004 65.0108 74.2727ZM57.2095 70.9221C51.8229 70.9221 46.622 68.6883 42.9071 64.7792C39.0065 60.8701 36.9633 55.658 36.9633 50.2597C36.9633 44.6753 39.1922 39.4632 43.0929 35.7403C46.9935 31.8312 52.1944 29.7835 57.7667 29.7835C63.1534 29.7835 68.3542 32.0173 72.2549 35.7403C76.1555 39.6493 78.1987 44.6753 78.1987 50.0736C78.1987 55.658 75.9698 60.8701 72.0691 64.7792C67.9827 68.6883 62.7819 70.9221 57.2095 70.9221ZM56.2808 74.8312C56.2808 76.5065 56.095 76.6926 54.4233 76.6926C53.6803 76.6926 53.3089 76.6926 52.9374 76.5065C52.7516 76.3203 52.7516 75.7619 52.7516 75.0173C52.7516 74.8312 52.7516 74.645 52.7516 74.4589C52.7516 73.9004 52.7516 73.342 52.9374 72.9697C53.3089 72.4113 53.8661 72.5974 54.2376 72.7835C54.4233 72.7835 54.6091 72.9697 54.7948 72.9697C56.2808 72.9697 56.2808 73.1558 56.2808 74.8312H55.9093H56.2808ZM50.5227 75.7619C50.5227 75.948 50.5227 76.3203 50.3369 76.5065C50.1512 76.6926 49.9654 76.6926 49.7797 76.6926C48.108 76.6926 46.622 76.6926 44.9503 76.6926C44.7646 76.6926 44.5788 76.6926 44.3931 76.5065C44.2073 76.3203 44.2073 76.1342 44.2073 75.948C44.2073 74.4589 44.2073 72.7835 44.2073 71.1082V68.8745L44.7646 69.2468C46.622 70.5498 48.2937 71.2944 49.9654 71.8528C50.5227 72.039 50.7084 72.4112 50.7084 72.7835C50.5227 73.7143 50.5227 74.645 50.5227 75.7619ZM41.7927 75.5758C41.7927 75.7619 41.7927 76.1342 41.6069 76.3203C41.4212 76.5065 41.0497 76.5065 40.8639 76.5065C40.6782 76.5065 40.4924 76.5065 40.3067 76.5065C39.5637 76.5065 39.0065 76.5065 38.635 76.1342C38.2635 75.7619 38.2635 75.2035 38.2635 74.0866V62.7316L39.1922 63.8485C39.9352 64.7792 40.6782 65.71 41.4212 66.4545C41.7927 66.8268 41.7927 67.1991 41.7927 67.5714V69.619C41.7927 71.4805 41.7927 73.5281 41.7927 75.5758ZM50.5227 27.7359C50.5227 28.2944 50.3369 28.4805 49.7797 28.6667C48.108 29.2251 46.4363 30.1558 44.5788 31.2727L44.0216 31.645V29.2251C44.0216 27.5498 44.0216 26.0606 44.0216 24.5714C44.0216 24.3853 44.0216 24.1991 44.2073 24.013C44.3931 23.8268 44.5788 23.8268 44.7646 23.8268C46.2505 23.8268 47.9223 23.8268 49.594 23.8268C49.7797 23.8268 49.9654 23.8268 50.1512 24.013C50.3369 24.1991 50.3369 24.3853 50.3369 24.7576C50.5227 25.8745 50.5227 26.8052 50.5227 27.7359ZM65.0108 25.8745V28.6667L64.6393 28.4805C62.9676 27.9221 61.2959 27.5498 59.4384 27.5498C58.5097 27.5498 58.5097 26.8052 58.5097 26.619C58.5097 24.1991 58.5097 21.5931 58.5097 18.987C58.5097 18.8009 58.5097 18.4286 58.6955 18.2424C58.8812 18.0563 59.2527 18.0563 59.4384 18.0563C60.7387 18.0563 62.0389 18.0563 63.3391 18.0563H64.0821C64.2678 18.0563 64.6393 18.0563 64.8251 18.2424C64.8251 18.4286 65.0108 18.6147 65.0108 18.987C65.0108 21.2208 65.0108 23.4545 65.0108 25.8745ZM67.2397 73.342C67.054 71.4805 67.6112 70.3636 69.2829 69.8052C69.4687 69.8052 69.4687 69.619 69.6544 69.619C70.5832 69.2468 70.7689 69.2468 71.6976 70.1775L72.8121 71.2944C74.1123 72.5974 75.5983 73.9004 76.8985 75.3896C76.8985 75.3896 76.8985 75.3896 77.0842 75.5758C77.27 75.7619 77.4557 75.948 77.6415 76.3203V76.6926H77.27C76.7127 76.6926 75.9698 76.6926 75.4125 76.6926C73.9266 76.6926 72.4406 76.6926 70.7689 76.6926C70.3974 76.6926 70.2117 76.6926 69.8402 76.6926C69.4687 76.6926 69.0972 76.6926 68.9114 76.6926C68.3542 76.6926 67.9827 76.5065 67.6112 76.3203C67.2397 75.948 67.2397 75.2035 67.2397 74.4589C67.2397 74.0866 67.2397 73.5281 67.2397 73.342ZM83.7711 58.6364V69.619C83.7711 69.619 83.7711 69.8052 83.7711 69.9913C83.7711 69.9913 83.7711 70.1775 83.7711 70.3636V71.1082L83.2138 70.5498C82.6566 69.9913 82.0994 69.4329 81.3564 68.6883C79.6847 67.013 78.1987 65.5238 76.7127 64.0346C76.1555 63.4762 76.3413 62.9177 76.7127 62.7316C76.7127 62.7316 76.7127 62.7316 76.7127 62.5454C81.9136 54.1688 81.3564 43.7446 75.041 35.9264C73.1836 33.5065 70.7689 31.645 68.1685 30.342C67.4255 29.9697 67.2397 29.5974 67.2397 28.8528C67.2397 25.8745 67.2397 23.0823 67.2397 20.1039V17.684C67.2397 16.381 66.8683 16.0087 65.568 16.0087H64.8251C62.4104 16.0087 60.1814 16.0087 57.7667 16.0087C56.6523 16.0087 56.2808 16.381 56.2808 17.4978V18.8009C56.2808 21.2208 56.2808 23.8268 56.2808 26.4329C56.2808 26.8052 56.2808 27.1775 55.9093 27.5498C55.7235 27.7359 55.3521 27.7359 54.9806 27.7359C54.7948 27.7359 54.4233 27.7359 54.2376 27.9221C53.8661 27.9221 53.3089 27.9221 52.9374 27.5498C52.5659 27.1775 52.5659 26.4329 52.7516 25.8745C52.7516 25.6883 52.7516 25.5022 52.7516 25.316C52.7516 24.9437 52.7516 24.5714 52.7516 24.013C52.7516 23.6407 52.7516 23.2684 52.7516 22.8961C52.7516 21.9654 52.3801 21.5931 51.4514 21.5931C48.6652 21.5931 45.8791 21.5931 43.0929 21.5931C42.1642 21.5931 41.7927 21.9654 41.7927 23.0822C41.7927 26.2468 41.7927 29.5974 41.7927 32.7619C41.7927 33.3203 41.6069 33.8788 41.2354 34.2511C40.4924 34.9957 39.7495 35.7403 39.1922 36.4848C39.0065 36.671 38.8207 36.8571 38.4492 36.8571C38.0778 36.8571 37.892 36.671 37.892 36.2987C37.7063 36.1126 37.5205 35.9264 36.9633 35.9264C35.8488 35.9264 34.7343 35.9264 33.6199 35.9264C31.9482 35.9264 30.2765 35.9264 28.6048 35.9264C27.676 35.9264 27.3045 36.2987 27.3045 37.4156C27.3045 42.2554 27.3045 47.0952 27.3045 52.1212V61.987C27.3045 66.2684 27.3045 70.7359 27.3045 75.2035C27.3045 75.5758 27.3045 75.9481 26.933 76.1342C26.7473 76.3203 26.3758 76.3203 26.0043 76.3203H25.8186C23.7754 76.3203 23.5896 76.1342 23.5896 74.0866V52.1212C23.5896 50.632 23.2181 50.4459 21.9179 50.4459H20.8035C18.5745 50.4459 16.3456 50.4459 14.1166 50.4459C13.3737 50.632 13.0022 51.0043 13.0022 52.1212V55.2857C13.0022 61.8009 13.0022 68.6883 13.0022 75.3896C13.0022 75.7619 13.0022 76.1342 12.6307 76.5065C12.2592 76.6926 11.8877 76.8788 11.5162 76.8788H11.3305C9.473 76.8788 9.28726 76.6926 9.28726 74.645V65.1515C9.28726 48.7706 9.28726 32.0173 9.28726 15.4502C9.28726 15.0779 9.28726 14.8918 9.10151 14.8918C9.10151 14.8918 8.73002 14.7056 8.54428 14.8918H8.35853C7.98704 14.5195 7.42981 14.5195 7.42981 14.5195C7.24406 14.7056 7.24406 15.2641 7.24406 16.0087V77.0649C7.24406 78.7403 7.42981 78.9264 9.10151 78.9264H18.203C38.4492 78.9264 58.8812 78.9264 79.1274 78.9264C79.6847 78.9264 80.4277 79.1125 81.1706 79.671C81.5421 80.0433 82.0994 80.6017 82.4709 80.974C82.6566 81.1602 82.8423 81.3463 83.2138 81.7186C83.5853 82.0909 83.7711 82.4632 83.7711 82.8355C83.7711 83.2078 83.3996 83.5801 83.0281 83.7662C82.4709 83.7662 81.9136 83.7662 81.5421 83.7662H58.8812C40.6782 83.7662 22.4752 83.7662 4.27214 83.7662C2.78618 83.7662 2.22894 83.0216 2.22894 81.5325V65.71C2.22894 47.8398 2.22894 29.7835 2.22894 11.9134C2.22894 11.5411 2.22894 11.1688 2.41469 10.9827C2.60043 10.7965 2.97192 10.7965 3.34341 10.7965C27.4903 10.7965 53.4946 10.7965 82.6566 10.7965C83.0281 10.7965 83.2138 10.7965 83.5853 10.9827C83.7711 11.1688 83.7711 11.5411 83.7711 11.7273C83.7711 27.5498 83.7711 43 83.7711 58.6364ZM29.7192 61.4286V57.5195V53.2381C29.7192 48.7706 29.7192 44.1169 29.7192 39.6493C29.7192 39.2771 29.7192 38.9048 30.0907 38.5325C30.2765 38.3463 30.8337 38.1602 31.2052 38.3463C32.5054 38.3463 33.9914 38.3463 35.2916 38.3463C35.4773 38.3463 35.8488 38.3463 36.0346 38.5325C36.2203 38.7186 36.2203 39.0909 36.2203 39.2771C36.2203 41.1385 36.2203 42.4416 35.6631 44.1169C34.3629 48.3983 34.3629 52.8658 36.0346 57.3333C36.2203 57.8918 36.2203 58.2641 36.2203 58.8225V59.9394C36.2203 64.9654 36.2203 70.1775 36.2203 75.2035C36.2203 75.5758 36.2203 75.9481 35.8488 76.1342C35.6631 76.3203 35.2916 76.3203 34.9201 76.3203H34.7343C33.4341 76.3203 32.1339 76.3203 30.648 76.3203C30.2765 76.3203 30.0907 76.3203 29.7192 76.1342C29.5335 75.9481 29.5335 75.5758 29.5335 75.2035C29.7192 70.9221 29.7192 66.0822 29.7192 61.4286ZM21.7322 75.7619C21.7322 75.948 21.7322 76.3203 21.5464 76.5065C21.3607 76.6926 20.9892 76.6926 20.8035 76.6926C19.3175 76.6926 17.8315 76.6926 16.3456 76.6926C16.3456 76.6926 16.3456 76.6926 16.1598 76.6926C15.9741 76.6926 15.6026 76.6926 15.4168 76.5065C15.2311 76.3203 15.2311 75.948 15.2311 75.5758C15.2311 72.7835 15.2311 70.1775 15.2311 67.3853V64.5931C15.2311 63.6623 15.2311 62.7316 15.2311 61.8009C15.2311 59.1948 15.2311 56.5887 15.2311 53.9827C15.2311 53.6104 15.2311 53.2381 15.4168 53.0519C15.6026 52.8658 15.9741 52.8658 16.3456 52.8658C17.8315 52.8658 19.1318 52.8658 20.6177 52.8658C20.8035 52.8658 21.1749 52.8658 21.3607 53.0519C21.5464 53.2381 21.5464 53.6104 21.5464 53.7965C21.7322 61.0563 21.7322 68.5022 21.7322 75.7619Z" fill="black"/>
</svg>
