<svg version="1.2" xmlns="http://www.w3.org/2000/svg" viewBox="0 0 451 449" width="451" height="449">
	<title>map</title>
	<defs>
		<filter x="-50%" y="-50%" width="200%" height="200%" id="f1" ><feDropShadow dx="-1.2246467991473532e-16" dy="2" stdDeviation="1.6666666666666667" flood-color="#000000" flood-opacity="0"/></filter>
		<filter x="-50%" y="-50%" width="200%" height="200%" id="f2" ><feDropShadow dx="-1.2246467991473532e-16" dy="2" stdDeviation="1.6666666666666667" flood-color="#000000" flood-opacity="0"/></filter>
		<filter x="-50%" y="-50%" width="200%" height="200%" id="f3" ><feDropShadow dx="-1.2246467991473532e-16" dy="2" stdDeviation="1.6666666666666667" flood-color="#000000" flood-opacity="0"/></filter>
		<filter x="-50%" y="-50%" width="200%" height="200%" id="f4" ><feDropShadow dx="-1.2246467991473532e-16" dy="2" stdDeviation="1.6666666666666667" flood-color="#000000" flood-opacity="0"/></filter>
		<filter x="-50%" y="-50%" width="200%" height="200%" id="f5" ><feDropShadow dx="-1.2246467991473532e-16" dy="2" stdDeviation="1.6666666666666667" flood-color="#000000" flood-opacity="0"/></filter>
		<filter x="-50%" y="-50%" width="200%" height="200%" id="f6" ><feDropShadow dx="-1.2246467991473532e-16" dy="2" stdDeviation="1.6666666666666667" flood-color="#000000" flood-opacity="0"/></filter>
		<filter x="-50%" y="-50%" width="200%" height="200%" id="f7" ><feDropShadow dx="-1.2246467991473532e-16" dy="2" stdDeviation="1.6666666666666667" flood-color="#000000" flood-opacity="0"/></filter>
		<filter x="-50%" y="-50%" width="200%" height="200%" id="f8" ><feDropShadow dx="-1.2246467991473532e-16" dy="2" stdDeviation="1.6666666666666667" flood-color="#000000" flood-opacity="0"/></filter>
		<filter x="-50%" y="-50%" width="200%" height="200%" id="f9" ><feDropShadow dx="-1.2246467991473532e-16" dy="2" stdDeviation="1.6666666666666667" flood-color="#000000" flood-opacity="0"/></filter>
		<filter x="-50%" y="-50%" width="200%" height="200%" id="f10" ><feDropShadow dx="-1.2246467991473532e-16" dy="2" stdDeviation="1.6666666666666667" flood-color="#000000" flood-opacity="0"/></filter>
		<filter x="-50%" y="-50%" width="200%" height="200%" id="f11" ><feDropShadow dx="-1.2246467991473532e-16" dy="2" stdDeviation="1.6666666666666667" flood-color="#000000" flood-opacity="0"/></filter>
		<filter x="-50%" y="-50%" width="200%" height="200%" id="f12" ><feDropShadow dx="-1.2246467991473532e-16" dy="2" stdDeviation="1.6666666666666667" flood-color="#000000" flood-opacity="0"/></filter>
		<filter x="-50%" y="-50%" width="200%" height="200%" id="f13" ><feDropShadow dx="-1.2246467991473532e-16" dy="2" stdDeviation="1.6666666666666667" flood-color="#000000" flood-opacity="0"/></filter>
		<filter x="-50%" y="-50%" width="200%" height="200%" id="f14" ><feDropShadow dx="-1.2246467991473532e-16" dy="2" stdDeviation="1.6666666666666667" flood-color="#000000" flood-opacity="0"/></filter>
		<filter x="-50%" y="-50%" width="200%" height="200%" id="f15" ><feDropShadow dx="-1.2246467991473532e-16" dy="2" stdDeviation="1.6666666666666667" flood-color="#000000" flood-opacity="0"/></filter>
		<filter x="-50%" y="-50%" width="200%" height="200%" id="f16" ><feDropShadow dx="-1.2246467991473532e-16" dy="2" stdDeviation="1.6666666666666667" flood-color="#000000" flood-opacity="0"/></filter>
		<filter x="-50%" y="-50%" width="200%" height="200%" id="f17" ><feDropShadow dx="-1.2246467991473532e-16" dy="2" stdDeviation="1.6666666666666667" flood-color="#000000" flood-opacity="0"/></filter>
		<filter x="-50%" y="-50%" width="200%" height="200%" id="f18" ><feDropShadow dx="-1.2246467991473532e-16" dy="2" stdDeviation="1.6666666666666667" flood-color="#000000" flood-opacity="0"/></filter>
		<filter x="-50%" y="-50%" width="200%" height="200%" id="f19" ><feDropShadow dx="-1.2246467991473532e-16" dy="2" stdDeviation="1.6666666666666667" flood-color="#000000" flood-opacity="0"/></filter>
		<filter x="-50%" y="-50%" width="200%" height="200%" id="f20" ><feDropShadow dx="-1.2246467991473532e-16" dy="2" stdDeviation="1.6666666666666667" flood-color="#000000" flood-opacity="0"/></filter>
		<filter x="-50%" y="-50%" width="200%" height="200%" id="f21" ><feDropShadow dx="-1.2246467991473532e-16" dy="2" stdDeviation="1.6666666666666667" flood-color="#000000" flood-opacity="0"/></filter>
		<filter x="-50%" y="-50%" width="200%" height="200%" id="f22" ><feDropShadow dx="-1.2246467991473532e-16" dy="2" stdDeviation="1.6666666666666667" flood-color="#000000" flood-opacity="0"/></filter>
		<filter x="-50%" y="-50%" width="200%" height="200%" id="f23" ><feDropShadow dx="-1.2246467991473532e-16" dy="2" stdDeviation="1.6666666666666667" flood-color="#000000" flood-opacity="0"/></filter>
		<filter x="-50%" y="-50%" width="200%" height="200%" id="f24" ><feDropShadow dx="-1.2246467991473532e-16" dy="2" stdDeviation="1.6666666666666667" flood-color="#000000" flood-opacity="0"/></filter>
		<filter x="-50%" y="-50%" width="200%" height="200%" id="f25" ><feDropShadow dx="-1.2246467991473532e-16" dy="2" stdDeviation="1.6666666666666667" flood-color="#000000" flood-opacity="0"/></filter>
		<filter x="-50%" y="-50%" width="200%" height="200%" id="f26" ><feDropShadow dx="-1.2246467991473532e-16" dy="2" stdDeviation="1.6666666666666667" flood-color="#000000" flood-opacity="0"/></filter>
		<filter x="-50%" y="-50%" width="200%" height="200%" id="f27" ><feDropShadow dx="-1.2246467991473532e-16" dy="2" stdDeviation="1.6666666666666667" flood-color="#000000" flood-opacity="0"/></filter>
		<filter x="-50%" y="-50%" width="200%" height="200%" id="f28" ><feDropShadow dx="-1.2246467991473532e-16" dy="2" stdDeviation="1.6666666666666667" flood-color="#000000" flood-opacity="0"/></filter>
		<filter x="-50%" y="-50%" width="200%" height="200%" id="f29" ><feDropShadow dx="-1.2246467991473532e-16" dy="2" stdDeviation="1.6666666666666667" flood-color="#000000" flood-opacity="0"/></filter>
		<filter x="-50%" y="-50%" width="200%" height="200%" id="f30" ><feDropShadow dx="-1.2246467991473532e-16" dy="2" stdDeviation="1.6666666666666667" flood-color="#000000" flood-opacity="0"/></filter>
	</defs>
	<style>
		.s0 { filter: url(#f1);fill: #ffffff;stroke: #999587 } 
		.s1 { filter: url(#f2);fill: #ffffff;stroke: #999587 } 
		.s2 { filter: url(#f3);fill: #ffffff;stroke: #999587 } 
		.s3 { filter: url(#f4);fill: #ffffff;stroke: #999587 } 
		.s4 { filter: url(#f5);fill: #ffffff;stroke: #999587 } 
		.s5 { filter: url(#f6);fill: #ffffff;stroke: #999587 } 
		.s6 { filter: url(#f7);fill: #ffffff;stroke: #999587 } 
		.s7 { filter: url(#f8);fill: #ffffff;stroke: #999587 } 
		.s8 { filter: url(#f9);fill: #ffffff;stroke: #999587 } 
		.s9 { filter: url(#f10);fill: #ffffff;stroke: #999587 } 
		.s10 { filter: url(#f11);fill: #ffffff;stroke: #999587 } 
		.s11 { filter: url(#f12);fill: #ffffff;stroke: #999587 } 
		.s12 { filter: url(#f13);fill: #ffffff;stroke: #999587 } 
		.s13 { filter: url(#f14);fill: #ffffff;stroke: #999587 } 
		.s14 { filter: url(#f15);fill: #ffffff;stroke: #999587 } 
		.s15 { filter: url(#f16);fill: #ffffff;stroke: #999587 } 
		.s16 { fill: #ffffff;stroke: #999587 } 
		.s17 { filter: url(#f17);fill: #ffffff;stroke: #999587 } 
		.s18 { fill: #e2001a;stroke: #999587 } 
		.s19 { filter: url(#f18);fill: #ffffff;stroke: #999587 } 
		.s20 { filter: url(#f19);fill: #ffffff;stroke: #999587 } 
		.s21 { filter: url(#f20);fill: #ffffff;stroke: #999587 } 
		.s22 { filter: url(#f21);fill: #ffffff;stroke: #999587 } 
		.s23 { filter: url(#f22);fill: none;stroke: #999587 } 
		.s24 { filter: url(#f23);fill: #ffffff;stroke: #999587 } 
		.s25 { filter: url(#f24);fill: #ffffff;stroke: #999587 } 
		.s26 { filter: url(#f25);fill: #ffffff;stroke: #999587 } 
		.s27 { filter: url(#f26);fill: #ffffff;stroke: #999587 } 
		.s28 { filter: url(#f27);fill: #ffffff;stroke: #999587 } 
		.s29 { filter: url(#f28);fill: #ffffff;stroke: #999587 } 
		.s30 { filter: url(#f29);fill: #ffffff;stroke: #999587 } 
		.s31 { filter: url(#f30);fill: #ffffff;stroke: #999587 } 
		.s32 { fill: #ffffff } 
	</style>
	<g id="map">
		<g id="Europe map vector">
			<path id="Shape" class="s0" d="m222 242.2c0.9 0.4 2.3-0.4 2.5-2 0.2-2.2 9.5-0.6 13.5-4.7 4-4 19-7.1 19.2-5.4 0.1 1.7 0.3 5.4 4.1 5.4 2.4 0 4-1.1 4.8-2.4 1.7 0.6 3.6 1.3 4.4 1.6 1.2 0.5 16.7 2.1 22.7 1 0.1 0.2 0.2 0.4 0.3 0.4 1 0 7.8 2.1 6.8 4.8-0.9 2.7-0.2 5.2 1.4 6.6 1.5 1.4 2.1 6.8 0.4 7.6-1.8 0.7-5.1 3.1-5.1 4.4 0 1.4 3.5 2.5 2.9 4.5-0.5 1.9-0.2 6.6 0.6 7.7 0.8 1.2 4.5 6.8 3.5 8.5-1 1.8-2.7 1.8-3.9 3.1-1.1 1.4-7.9 7.4-8.1 8.4-0.2 0.9 0.9 4.5 0.4 5.7-2.3-0.3-4.7-0.8-5.2-1.2-0.8-0.9-4.6-2-7.5-1.8-2.9 0.3-4.3-1.4-6.6-0.5-2.3 0.8-6.1 0-7.5-0.9-1.5-0.9-3.2 1.7-5.2 0.6-2-1.2-2.6-4.4-4.1-5.2-1.4-0.9-5.5-0.3-5.8-1.5-0.2-1.1-0.5-3.1-2.3-3.1-1.7 0-4-1.2-4.9 0.8-0.8 2-4.3-0.6-4.6-2-0.3-1.4-1.7-2.6-5.8-4-1.6-0.6-3.4-1.8-5-3 0.5-1.2 0.6-2.8-0.3-3.9-1.1-1.3-1.9-3.7-2.1-7-0.2-3.3-1.2-3.1-1.2-4.6 0-1.6-0.6-3.5-1.9-4.3-1.4-0.8-1.9-1.3-0.6-3.5 1.4-2.1 0.8-7.5 0.2-9.1-0.1-0.3-0.1-0.6 0-1z"/>
			<path id="Shape" class="s1" d="m251.4 367.3c-1.4-0.9-2.6-1.5-3.7-1.5-3.9-0.3-7.2-2.1-7.5-4-0.2-2-4.9-1.5-7-3.8-2-2.3-7.6-9.2-7.7-12.3-0.1-3.1-4.4-2.8-6.7-2.8-1.4 0-1.3-2-1.6-3.7 1.8-0.3 5-0.8 6.2-1.2 1.5-0.6 5 1.3 5.4 0.2 0.4-1.2 1.5-3.9 3.1-3.9 1.5 0 0.6-4.1 2.1-4.3 1.4-0.1 4.4-2.8 5.2-3.5 2 1.2 6 3.7 7.3 5.4 1.7 2.4 6.7 2.6 9 2.1 0.6-0.2 1.7-0.5 3-0.9 0.2 2.3 0.8 4.7 2.3 5.3 2.7 1 1.7 3.8 2.7 6.2 0.2 0.4 0.4 1.1 0.4 1.9-4.3-3-7.8-4-7.8-4 0 0-11.6-0.6-13.5-1.3-2-0.8-3.9 2.5-5.6 1.1-1.8-1.3-4.3 0.4-3.9 2.3 0.4 2 4 3.1 4 6 0 2.9 7.4 7.2 7.2 8.7-0.1 1.1 4.4 4 7.1 8z"/>
			<path id="Shape" class="s2" d="m270.5 401.2c-2.5-1.2-3.3-5.3-5.8-7.4-2.8-2.2-2.2-10.5 0.2-12.9 2.4-2.4 1-3.7-2.4-5.5 0.6-3 2.8-6.2 4.2-6.2 1.5 0 6.1 3.2 7.6 4.2-0.9 3-1.5 7-0.9 9.1 0.5 2 2.4 3.5 5 5.4q-0.1 0.1-0.2 0.3c-0.2 0.9-1.7 3.7-3.1 5-1.3 1.4-0.2 2.9-2.1 3.3-1.3 0.3-1.8 2.6-2.5 4.7z"/>
			<path id="Shape" class="s3" d="m242.8 301.9c0 0 1.4 4.5 3.4 7.3-0.7 0.7-1.2 1.5-1.2 2.3 0 2.7-2 2.5-3.8 2.3-1.8-0.2 0 2.2-1 3.4-1 1.2 0 3.6-1.4 3.8-0.8 0.1-1.2 1-1.5 2.1q0 0 0 0c-0.6-0.2-2.5 1.9-6 1.9-3.5 0-6 2.7-7.6 2.7-1.5 0-6.4-1.5-9.7-1.7-3.3-0.2-6.9-0.6-7.9-1.2-1-0.6-1.2-3.7-1.8-3.7-0.5 0-6 0-6.9 1-1 1-3.9 2.7-5.5 1.7-1.5-0.9-3.6-1.9-5.4-1.1-1.7 0.7-4.4-1.6-4.4-2.3 0-0.8-0.8-4.5 0.9-4.7 1.8-0.2 3.9 3.3 5.1 1.4 1.1-2 3.8-1.6 5.2-0.8 1.4 0.8 3.5 1.1 5-0.4 1.6-1.6 7.6-2.3 9-1.7 1.3 0.5 4.8 2.1 3.4-2.6-1.3-4.6 3-3.6 3.5-5.4 0.5-1.4 4-2.2 4.8-3.2 2.7 0.7 6.9 0.7 7.6-0.5 0.9-1.4 1.4-4 1.4-4 0 0 5.8 0 8.1 2.6 2.3 2.6 6.7 0.8 6.7 0.8z"/>
			<path id="Shape" class="s4" d="m259.2 292.5c-1.7 1-3.8 2.4-5 4.2-2.5 3.5-5.9 3.8-8.4 4.2-1 0.1-1.8 1.4-2.4 2.8-0.4-1-0.6-1.8-0.6-1.8 0 0-4.4 1.8-6.7-0.8-2.3-2.6-8.1-2.6-8.1-2.6 0 0-0.5 2.6-1.4 4-0.7 1.2-4.9 1.2-7.6 0.5 0.1-0.2 0.2-0.4 0.1-0.7-0.8-1.3-7.2-5.4-9.1-6.7-2-1.4-2-5.7-2.9-7.4-1-1.8-3.1-4.1-0.6-4.7 2.5-0.6 7-1.5 9.1-3.5 2.1-1.9 6-2.1 7.2-3.3 1.1-1.1 3.9 1 4.6-0.2q0.3-0.3 0.5-0.9c1.6 1.2 3.4 2.4 5 3 4.1 1.4 5.5 2.6 5.8 4 0.3 1.4 3.8 4 4.6 2 0.9-2 3.2-0.8 5-0.8 1.7 0 2 2 2.3 3.1 0.2 1.2 4.3 0.6 5.7 1.5 1.2 0.6 1.8 2.7 2.9 4.1z"/>
			<path id="Shape" class="s5" d="m287.2 296.2c0.5 0.4 2.9 0.9 5.2 1.2-0.1 0.1-0.1 0.2-0.2 0.3-1 0.8-3.9 4.8-3.9 6.4 0 0.9 0.8 2.1 1.8 3-2.4-0.6-4.8-1.3-5.5-2-1.4-1.4-7.2-2.3-8.1-2.6-0.8-0.3-6.3 5.2-8 5.2-1.8 0-9.3 0.9-9.3 2.9 0 2-9.2 2.3-11.8 0-1.8-1.5-3.2-4.8-4-6.9 0.6-1.4 1.4-2.7 2.4-2.8 2.5-0.4 5.9-0.7 8.4-4.2 1.2-1.8 3.3-3.2 5-4.2 0.4 0.5 0.7 0.8 1.2 1.1 2 1.1 3.7-1.5 5.2-0.6 1.4 0.9 5.2 1.7 7.5 0.9 2.3-0.9 3.7 0.8 6.6 0.5 2.9-0.3 6.7 0.9 7.5 1.8z"/>
			<path id="Shape" class="s6" d="m31.5 423.7c0 0.7 0.6 1.7 1.3 2.8-2.4 0.4-4.9 1.4-7 1.4-3.6 0-6.7 0.6-6.7-1.7 0-2.3 2.3-12.1-1.2-14.8-3.5-2.8-6.7-3.8-3.4-7.7 3.4-3.8 7.1-18.2 5.5-20.9-0.8-1.2-0.5-3.5-0.3-5.9 1.1-0.2 1.9-0.5 2.4-1 1.5-1.9 3.1-1.6 3.1 0.3 0 1.9 3.5 1.3 5.4 1.3 1.8 0 1.2 1.5 3.4 0 2.2-1.6 5.4-1 5.4 0.9 0 1.9 4.7 1 2.2 3.5-2.6 2.5-5.7 3.1-5.7 5 0 1.9 2.8 6 0.6 8.2-2.2 2.2 0.7 5.9-1.5 5.9-2.2 0-4.8 1-2.2 3.5 2.5 2.5 4.4 4.7 2.5 4.7-1.9 0-3.2 3.8-2.2 4.7 0.9 1 5.3 3.8 1.9 4.4-3.5 0.7-3.5 3.5-3.5 5.4z"/>
			<path id="Shape" class="s7" d="m128.2 274c-0.5 0-1.7-0.4-3.1-1.1q0.7-0.4 1.4-0.8c2.8-1.7 7.2-4.8 7-8.1-0.3-3.4 4.2-4.4 4-7.1-0.3-2.8 3.6-4.2 4-2.1 0.4 2.1 5.5 1.3 4.1-0.3-1.4-1.5-0.3-5.3 3.6-6 3.9-0.8 6.9-1.5 8.8-0.3 1.2 0.7 1.9 0 2.2-0.9 0.7 2.5 1 4.8 0.3 5.9-2.1 3.1-4.9 3.4-4.4 4.2 0.5 0.7 3.6 3.3 2.8 4.6-0.8 1.3-1.8 0.5-1.8 2.9 0 2.3-3.6 2.3-4.9 2.3-1.3 0 0.3 2.3-0.5 4.1-0.8 1.7-0.8 5.1-1 6.7-0.7-0.5-1.3-1-1.9-1.6-2.4-2.4-4.8-2.8-6.3-4.4-1.6-1.6-4.4-2.3-6-0.8-1.6 1.6-5.9 2.8-8.3 2.8z"/>
			<path id="Shape" class="s8" d="m349.2 338.2c0.4 0 1.7 1 3.1 2.2 0 0.2 0 0.3 0 0.4 0.4 4.5-1.8 4.5-4.5 4.8-2.8 0.3-4.3 4.4-4.4 7.1-0.1 1.6 0.3 3.3 0 4.6-2.5-0.8-4.9-1.8-5.3-2.5-0.8-1.3-4.9-1.8-7-2.1-2.1-0.3-8.5 0-10.4 1.8-1.8 1.8-4.1 2.9-6.1 2.6-2.1-0.3-8.1-0.5-9.4-0.3-1.2 0.3-8.2-1.3-9.3-1-0.9 0.2-2.6-3-4.9-3.3 0.4-1.1-0.6-2.4-0.6-3.9 0-1.9-8.3-2.5-9.7-2.9-1.3-0.4 1-5.4-1.1-5.4-2.2 0-2.9-1.5-2.9-3.1 0-1.5-3.3-4.1-3.1-5 0.2-1 2.7-1.4 5.4-4.1 2.7-2.7 6.8-12.4 7.9-13.2 1.2-0.8 4.3-2.5 5.9-3.7 0.9-0.6 1.1-1.3 0.8-1.9 1.4-0.1 2.6-0.3 3.4-0.3 1.3 0 7 1.6 8.8 1.6 1.8 0 4.4 0.8 5.1 1.5 0.8 0.8 2.6 0.3 3.9-1 1.3-1.3 2.9-0.5 4.4-0.5 1.6 0 4.1-1.3 4.9-2.6 0.4-0.6 2.2-1.3 4.2-2 2.3 4.2 4.7 8.6 5.8 9.9 2.4 2.7 7.5 10.2 5.5 12.2-1.5 1.6-0.9 7.9 1.5 9.8 0 0.1-0.1 0.3-0.2 0.3-0.8 1.1 1.6 1.9 3.4 2.1 0.7 0.1 3.9-2.1 4.9-2.1z"/>
			<path id="Shape" class="s9" d="m338.1 354.8c0.4 0.7 2.8 1.7 5.3 2.5-0.2 0.8-0.7 1.5-1.8 1.9-2.9 0.9-5.2 7.1-7 7.5-1.8 0.4 0.4 6.3 1.8 6.5 0.6 0.2 0.9 1 1.2 2.1-1 0.7-2.4 1.3-3.5 0.7-2.4-1.2-8-0.4-9 0-0.5 0.2-0.2 1.2 0.1 2.3-1.9 0.3-4.6 1-4.2 2.1 0.5 1.3-1.3 2-3.3 2 0 0-7.3-0.5-9.4-1.5-1.5-0.8-8.4-0.4-11.7-0.2 0.1-0.9-1.5-1.4-1.7-2.4-0.2-1.2-4.3-5-4.8-5.6-0.6-0.6 0.2-3.1 0-4.3-0.2-1.2 1.1-3.5 2.9-3.5 1.7 0-0.8-3.9-2.8-5.6-1.9-1.8-1.7-4.8 0-6 0.4-0.3 0.6-0.5 0.8-0.8 2.3 0.4 4 3.5 4.9 3.3 1.1-0.3 8.1 1.3 9.3 1 1.3-0.2 7.3 0 9.4 0.3 2 0.3 4.3-0.8 6.1-2.6 1.9-1.8 8.3-2 10.4-1.8 2.1 0.3 6.2 0.8 7 2.1z"/>
			<path id="Shape" class="s10" d="m426.7 319.8c-2.8 0.6-5.5 1.3-7.1 2-3.9 1.8-7.1 3-11.1 3.4-4 0.4-11 5.7-11 7 0 1.3 0.4 7.6 7.1 7.1 6.7-0.5 9.7 0.9 8.8 2.3-0.9 1.4-8.1-0.6-11.6 1.7-3.5 2.3-5.7 1.7-8.4 3.6-2.7 1.9-6.1 3-7.1 1.7-1.1-1.3 1.8-5.3-0.4-6.7-2.2-1.5-8.6-2.8-8.8-4-0.3-1.3 12.1-3.9 11.6-6.5-0.5-2.6-10.8-0.3-14.2-2.1-3.4-1.8 4-4.9-0.9-5.7-4.9-0.7-6.3 0.8-9.7 1.5-3.4 0.6-3.7 5.9-7.5 8.8-3.6 2.7-4.4 2.5-4.2 6.5-1.3-1.2-2.6-2.2-3-2.2-1.1 0-4.2 2.2-4.9 2.1-1.8-0.3-4.2-1-3.4-2.1 0.8-1 5.2-6.4 5.2-8 0-1.5 0.2-4.6 3.3-3.8 3.1 0.7 6 2 6 1 0-1-0.8-4.4-2.1-5.7-1.3-1.3-4.4-5.4-5.4-8.8-1.1-3.3-4.4-4.6-6.2-4.6-1.8 0-4.9-4.2-7-3.9-2.1 0.3-9.8 2.3-10.6 3.6-0.8 1.3-3.4 2.6-4.9 2.6-1.6 0-3.1-0.8-4.4 0.5-1.3 1.3-3.1 1.8-3.9 1-0.8-0.7-3.4-1.5-5.2-1.5-1.8 0-7.5-1.6-8.7-1.6-0.8 0-2.1 0.2-3.4 0.3q-0.3-0.6-1.4-1c-1.8-0.6-3.9-2.7-3.9-4.2 0-1.6 2.9-5.7 3.9-6.4 0.9-0.8-0.4-5.1-0.2-6 0.2-1 6.9-7 8.1-8.4 1.2-1.3 2.9-1.3 3.9-3.1 1-1.7-2.7-7.3-3.5-8.5-0.3-0.5-0.6-1.6-0.7-3 1.6 0.1 3.2 0.4 4.6-1 1.6-1.5 2.4-3.4 5.7-3.4 3.4 0 13.5 0 15 1.9 1.6 1.8 5.7 0.2 8 1.3 2.4 1 5.7 2 6 0.7 0.2-1.3 3.4 1.8 5.7 0.5 2.3-1.2 4.4 2.6 5.7 1.9 1.3-0.8 6.7-0.8 8 0.5 1.3 1.3 1.5-1.3 1.5-2.9 0-1.5 5.2-5.7 5.2-5.7 0 0 3.5-0.1 5.6-1.1 0.6 0.9 1.3 1 2.4 1 2 0 2.7-1.3 4.1-2.1 1.3-0.8 4.5 0.4 5.8-0.2 1.4-0.6 6.2-0.8 7.2 0.8 0.9 1.5 1.9 5.2 1.1 6.6-0.7 1.3 1 2.9 2 4.8 1 1.9 5 1 6.4 1.5 1.3 0.6 4.4 4.9 3.9 6.8-0.6 2 1.9 2.3 3.3 1.8 1.3-0.6 2.7 0.9 4.2 1.9 1.6 1 2.9 0.6 4.5-0.4 1.5-0.9 4.1-1.7 4.8-0.4 0.8 1.4 3.9 3.9 3.9 4.7 0 0.8 4.9 0 7.2 1.2 2.3 1.1 4.8 0.5 7.4 1.9 2.5 1.3 4.8 1.5 5 3.1 0.2 1.5-2.5 2.9-2.5 3.7 0 0.7 2.1 1.3 2.1 2.5 0 1.2-2.7 1.2-3.1 2.1-0.4 1 1.6 2.3 1.9 3.3 0.4 1-1.5 4.3-1.5 5.3 0 0.9-5.8-0.2-7.2-0.2-1.3 0-5.4 4.4-6.8 4.6-1.1 0.2-0.6 2.3-0.2 4.1z"/>
			<path id="Shape" class="s11" d="m378.8 246.5c0.4 1.8-2.7 3.3-4.4 4.1-1.8 0.8-5.1-2.3-6.2-1-1.2 1.4 0.4 3.9 1.3 8.2 0.5 1.8 0.9 2.9 1.3 3.6-2.1 1-5.6 1.1-5.6 1.1 0 0-5.2 4.2-5.2 5.7 0 1.6-0.2 4.2-1.5 2.9-1.3-1.3-6.7-1.3-8-0.5-1.3 0.7-3.4-3.2-5.7-1.9-2.3 1.3-5.4-1.8-5.7-0.5-0.3 1.3-3.6 0.3-6-0.8-2.3-1-6.4 0.6-8-1.2-1.5-1.9-11.6-1.9-15-1.9-3.3 0-4.1 1.9-5.7 3.4-1.4 1.4-3 1.1-4.6 1-0.2-1.7-0.2-3.6 0.1-4.7 0.6-2-2.9-3.1-2.9-4.5 0-1.4 3.3-3.7 5.1-4.5 1.7-0.7 1.1-6.2-0.4-7.5-1.6-1.4-2.4-3.9-1.4-6.6 0.1-0.3 0.1-0.5 0.1-0.8 2.5 0.1 5.3 0.2 6.4 0.5 2.1 0.5 3.3-0.8 4.4-2.1 1-1.3 4.6-1.8 5.7-1.8 1 0 1-2.8 1.3-4.1 0.2-1.3 2.8-3.6 4.4-4.2 1.5-0.5 1.2-2.3 2.8-2.3 1.6 0 1.3-2.1 1-3.3-0.2-1.3 0.3-3.1 2.4-4.7 2-1.5 4.1-0.8 5.9-0.8 1.8 0 2.1-2 3.4-3.1 0.7-0.6 1.8-0.9 2.7-1.1q0.2 0.4 0.4 0.7c1.2 0.9 2.5 1.9 4.7 1.3 2.1-0.6 3.5 0.4 4.4 2.2 1 1.7 2.6 0.9 4.7 0 2.1-1 7 1.7 8.1 2.3 1.2 0.6 0.6 3.9 0.8 6 0.2 2.1-1.1 4.8 1 6.2 2.1 1.3 1.5 4.4 4.1 5.4 2.5 1 3.5 4.5 5 4.9 1.6 0.3 4.4 2.7 4.8 4.4z"/>
			<path id="Shape" class="s12" d="m285.5 210.8c-1.6 1.1-4.3 1.6-6.9 1.8q-0.1-0.2-0.3-0.4c-2-3.8-0.7-6.6 1.3-8.3 2.1-1.7 0.6-5.2 3.5-7 3-1.8 7.1-5.6 8.4-3.9 1.3 1.7 5.3 9.1 7.8 9.1 2.5 0 7 0.7 7.1-3.4 0.1-4-1.6-6 0.8-8.6 4.1-0.4 8.7-0.7 9.4-0.2 1.1 0.8 7.3 5.7 8.8 5.2 1-0.3 5.2 0.1 8.3 0.5 0.3 0.8 0.8 1.6 1.5 2.3 1.6 1.5 1.6 3.5 1 4.8-0.6 1.4 1.4 3.7 2.7 5.1 1.2 1.1 1.2 3.9 1.9 5.3-0.9 0.2-2 0.5-2.7 1.1-1.3 1.1-1.6 3.1-3.4 3.1-1.8 0-3.9-0.8-5.9 0.8-0.8 0.6-1.4 1.2-1.7 1.9-1.7-1-3.2-1.8-4.5-2.9-2.3-1.9-6.3-4.7-8.3-4.3-1.9 0.4-1.9-3.2-5.1-2-3.2 1.2-8.7 0-11.1 0-2.3 0-9.8-2-12.6 0z"/>
			<path id="Shape" class="s13" d="m278.1 224.5c-1-0.6-1.8-0.8-0.4-2.4 2-2.2 2.6-5.9 0.9-9.5 2.5-0.2 5.3-0.7 6.9-1.8 2.8-2 10.3 0 12.6 0 2.4 0 7.9 1.2 11.1 0 3.2-1.2 3.2 2.4 5.1 2 2-0.4 6 2.4 8.3 4.3 1.3 1.1 2.8 1.9 4.5 2.9-0.6 1-0.8 2-0.7 2.8 0.3 1.2 0.6 3.3-1 3.3-1.5 0-1.3 1.8-2.8 2.3-1.6 0.6-4.2 2.9-4.4 4.2-0.3 1.3-0.3 4.1-1.3 4.1-1.1 0-4.7 0.5-5.7 1.8-1.1 1.3-2.3 2.6-4.4 2.1-1.1-0.3-3.9-0.4-6.4-0.5-0.4-2.3-6-4-6.9-4-0.9 0 0-4.7 0-6.2 0-1.6-3.6-3.5-4.8-2.9-1.2 0.5-4.3-0.6-5.2-2-0.8-1.1-3.2-0.7-5.4-0.5z"/>
			<path id="Shape" class="s14" d="m160.2 247.3c0.3-0.6 0.3-1.3 0.3-1.8-0.1-1.3 5-1.8 6.6-1.1 1.5 0.8 6.3 3 6.4 0.9 0.2-2 5.5-0.2 3.8-3.4-1.7-3.3-3.5-5.3-2.3-7.5 0.6-1.2-0.5-2.7-1.6-4.2 3.5 0.1 6.6 0.3 8 0.8 0.6 0.2 1.7 0.1 3.3-0.1 0.3 0.7 0.6 1.3 0.5 2-0.4 2.9 3.3 4.3 6.4 3.1 3.1-1.1 5.2-1.4 3.1 1.6-2 3 1.8 5.4 4.6 3.3 2.7-2 6.7-6.7 9.8-5.6 3.1 1 6.4-3.8 7.7-2.1 1.3 1.7-4.1 5-0.7 5 3.3 0 4.7 0.8 5.1 2.9 0.1 0.5 0.4 0.9 0.8 1.1-0.1 0.3-0.1 0.7 0 1 0.6 1.6 1.2 7-0.2 9.1-1.3 2.2-0.8 2.7 0.6 3.5 1.4 0.8 1.9 2.7 1.9 4.3 0 1.5 1 1.3 1.2 4.6 0.2 3.3 1 5.6 2.1 7 1.2 1.3 0.6 3.7-0.2 4.8-0.7 1.2-3.5-0.9-4.6 0.2-1.2 1.2-5.1 1.4-7.2 3.3-2.1 2-6.6 2.9-9.1 3.5-2.5 0.6-0.4 2.9 0.6 4.7 0.9 1.7 0.9 6 2.9 7.3 1.9 1.4 8.3 5.5 9.1 6.8 0.8 1.4-4.3 2.1-4.9 3.9-0.5 1.7-4.8 0.8-3.4 5.4 1.3 4.7-2.2 3.1-3.5 2.5-1.4-0.5-7.4 0.2-8.9 1.8-1.6 1.5-3.7 1.1-5.1 0.4-1.4-0.8-4.1-1.2-5.2 0.7-1.2 2-3.3-1.5-5.1-1.3-0.5 0.1-0.8 0.4-0.9 1-1.5-0.8-3.5-1.8-5.1-2.2-2.6-0.8-3.9-0.8-5.9 0.2-1.3 0.7-5 0.5-7.4 0.3 0.4-1.4 0.3-3.7 0.7-5.3 0.6-2.5 1-5.1 3.5-7.2 2.5-2.1-0.6-3.1-1.7-2.9-1.2 0.2-2.2-1.5-4.7-1.5-2.5 0-4.4-1.2-5.6-2.8-0.3-0.4-1.1-0.7-2-1-0.4-4.8-2.2-6.2-2.7-7.2-0.6-1.1 1.5-2.1 1.8-3.4 0.2-1.3-2.6-3.9-2.4-5.4 0.3-1.6 0.3-5.2 1.1-7 0.8-1.8-0.8-4.1 0.5-4.1 1.3 0 4.9 0 4.9-2.3 0-2.4 1-1.6 1.8-2.9 0.8-1.3-2.3-3.9-2.8-4.6-0.5-0.8 2.3-1.1 4.4-4.2 0.7-1.1 0.4-3.4-0.3-5.9z"/>
			<path id="Shape" class="s15" d="m342.7 151.7c-1.5 1.5-2.9 3.5-4.2 5.3-2 0.5-4.6 0.9-7.8 0.9-5.7 0-20 5.9-27.1 6.2-7.2 0.3-7.2-2.8-9.6-2.1-2.5 0.8-2.7-3.1-5.3-2.8-2.6 0.3-6.5-3.7-8.2-3.2-1.6 0.5 0.4-4.8 2.4-9.1 1.9-4.2-0.9-8.1-1.6-9.8-0.6-1.7 0.9-3.7-0.9-6.1-1.8-2.3-2.2-3.8-0.2-5 1.9-1.2 1.4-5.6 3.8-5.6 2.5 0 6.2-0.2 6.1-2.9-0.1-2.7 2.2-4.2 4.7-4.8 2.4-0.7 2.2-3.8 5.1-4 3-0.3 7.9-4.9 9-8.8 1-3.9 2.9-5 4.7-3.9 1.8 1.2 1.7-0.4 1.6-3.1-0.1-2.7 0.4-5.1-3.1-6.7-2.2-1-4.5-2.3-7-2.9-0.3-2-0.7-3.7-1.3-4.3-1.2-1.2-3.7-4.6-1.6-4.6 2 0 2.9-6.2 0.4-7.4-2.5-1.3 0-6.7-2.1-7.9-2.1-1.3-0.8-5.4-0.4-8.3 0.4-2.9-7.9-5.4-12.5-7.5-4.2-1.9-6.3-4.9-9.5-6.9 1.2-2.8 3.6-4.6 5.8-4.3 3.3 0.4 5.4 6.2 9.5 7.1 4.2 0.8 8.3 2.5 9.6 0.4 1.2-2.1 4.2 1.2 6.6 0.4 2.5-0.8 2.5 4.6 5 1.2 2.5-3.3-0.4-5.4 3.8-4.9 4.1 0.4 1.6-4.6 1.6-7.5 0-2.9 5.4-3.3 5.4-5.8 0-2.5 7.5-0.4 8.7-2.1 1.3-1.7 5.4-2.9 7.1 0 1.7 2.9 8.7 3.7 9.1 6.2 0.2 1.2 0 3.1 0 4.9-0.9 1-1.7 2.1-1.9 3.2-0.5 2.3-3.3 1-3.3 2.6 0 1.5 0 3.1-1.4 4.6-1.2 1.6 0 2.3 1.4 4.9 1.2 2.6 4.1 2.3 5.4 3.1 1.3 0.8 6.2 4.9 6.2 6.5 0 1.5-3.9 5.4-5.4 6.4-1.6 1.1-3.7 3.6-2.6 5.2 1 1.6 5.4 8 8.2 13.2 2.9 5.1-1 2.8-2.8 5.1-1.8 2.4 0.8 5.2 1.3 6.8 0.5 1.5-2.3 1.3-2.1 2.5 0.3 1.3 4.2 1.9 4.4 2.9 0.3 1-2.6 2.3-1.3 4.4 1.3 2.1 4.4 2 4.7 4.6 0.2 2.6-5.7 2.9-5.5 4.9 0.3 2.1 7.8 4.7 11.2 8.6 3.3 3.8 3.1 4.9 2.3 7-1.6 4.1-10.9 7.7-12.9 12.4-2.1 4.6-9.9 7.2-13.5 10.8z"/>
			<path id="Shape" fill-rule="evenodd" class="s16" d="m167.9 302.5c-2.5 2.1-2.9 4.7-3.5 7.2-0.6 2.5-0.2 6.6-1.9 6.6-1.8 0-4.1 1.7-4.5 3.7-0.4 1.9-4.4 3.4-5.6 6.9-1.2 3.5-0.6 5.1 1.2 2.9 1.7-2.1 3.8-1.3 3.8 0.4 0 1.8 2.4 2 1.6 4.3-0.8 2.3 0 3.7 1 4.3 0.9 0.5-0.6 2.9-1.8 3.5-1.2 0.5-3.1 0-1.7 2.1 1.3 2.1 3.8 2.3 2.5 4.4-1.4 2.2 0 4.1 1.9 4.3 2 0.2 4.7-0.2 4.1 1.4-0.3 0.9-0.9 1.9-1 2.9-1.5 0.5-3.3 1.3-5.5 3.6-4.2 4.5-7.6 4.9-10 3.3-2.5-1.5-11.8-4.1-16.1-3.5-4.2 0.7-8.8 3.7-7.2 8.7 0.2 0.8 0.4 1.5 0.5 2.3-3.1-0.1-6.6 0.2-9-0.3-2.8-0.6-8.8-1-10.3-2.5-1.6-1.6-4.1-2.8-4.1-1 0 1.9-4.4 2.2-6.9 0.7-2.6-1.6-6.6-2.9-8.5-4.1-1-0.7-3.1-1.5-5-2.5 0.2 0 0.4 0 0.5-0.1 2.1-1 4.8-12.3 4.1-15.8-0.6-3.4 2.6-7.6 1.3-10.4-1.3-2.9 2-5.7-2.3-6.9-4.3-1.1-6.7-4.2-6.8-7.5-0.2-3.2-0.7-2.2-2.9-3.8-2.2-1.7-3.2 0.2-7.6-2.1-4.4-2.3-10.4-2.1-11.7-3.7-1.2-1.7 0.7-3.5-1-5.5-1.7-1.9 0.9-4.5 5.4-4.1 4.6 0.4 5.7-1.9 8.6-0.9 2.8 1 2.9 4.3 5.3 2.6 2.3-1.7 5.9 1.7 7.6 0.4 1.7-1.3 1.8-6-1.2-9.3-2.9-3.4 4.1-6.2 5.1-3.4 1 2.9 8.8 5.4 11 3.8 2.2-1.7 0.4-5.9 5.7-6.2 5.3-0.4 9.5-1 9-6.1-0.5-5.2 2.2-7.6 5.3-7.5 0.7 0 1.3-0.1 2-0.2 0.4 0.5 1 0.3 1.1 1.1 0.2 1.4 2.3 4.7 3.1 3.4 0.8-1.4 2.7 1.7 4.5 2.7 1.7 0.9 5.2 2.1 5.4 3.3 0.2 1.1 0.8 3.6 2.5 2.9 1.8-0.8 3.9-3.5 3.9-2 0 1.6 0.6 4.5 2.5 4.1 2-0.4 2.5 3.3 4.5 2.9 1.9-0.4 7.9 0 9.1 1.6 1.1 1.5 3.1 2.7 5.6 2.7 2.5 0 3.5 1.7 4.7 1.5 1.1-0.2 4.2 0.8 1.7 2.9zm10.3 79.2c-3.6 0.4-7.3-9.5-3.6-11.7 3.6-2.2 4-4.8 5.4-4.6 1.4 0.1 1.9 15.7-1.8 16.3z"/>
			<path id="Shape" fill-rule="evenodd" class="s16" d="m122.1 379.1c-3.8 1.5-5.2 4.5-9.6 5-4.4 0.5-8 1.6-8 4.3 0 3-3.8 3.2-7.3 8.5-3.4 5.3 0.3 11.2-0.1 12.8-0.4 1.5-6.2 4.6-6.4 6.7-0.3 2.1 0.2 5.7-3.3 6.2-3.5 0.5-6 2.5-6.8 4.7-0.8 2.2-3.2 3.2-6.4 3.1-3.1-0.2-6.2 0.2-11.1 0.4-4.9 0.1-5.9 3.1-8 3.1-2.1 0-4-0.8-5 0.2-1.1 1 0 2.6-2.1 2.9-4.9 0.6-7-8.4-10.6-10.1-1.4-0.7-3-0.7-4.6-0.4-0.7-1-1.3-2.1-1.3-2.8 0-1.9 0-4.7 3.5-5.4 3.4-0.6-1-3.4-1.9-4.4-1-0.9 0.3-4.7 2.2-4.7 1.8 0 0-2.2-2.6-4.7-2.5-2.5 0-3.5 2.3-3.5 2.1 0-0.7-3.7 1.5-5.9 2.2-2.2-0.6-6.3-0.6-8.2 0-1.9 3.1-2.5 5.7-5 2.5-2.5-2.2-1.6-2.2-3.5 0-1.9-3.2-2.5-5.4-0.9-2.2 1.5-1.6 0-3.5 0-1.8 0-5.3 0.6-5.3-1.3 0-1.9-1.6-2.2-3.1-0.3-0.5 0.6-1.3 0.9-2.4 1 0.3-3.3 0.6-6.9-1.5-8.6-3.8-2.9-3.3-6.2 1.9-6.3 5.2-0.1 3.6-4.5 7.2-4.5 3.6 0 4 3.2 10.6 2.7 6.6-0.5 23.6 0.9 28.9 0.3 4.9-0.6 12.5 2.1 15.1 1.6 1.9 1 4 1.8 5 2.5 1.8 1.2 5.9 2.5 8.5 4.1 2.5 1.5 6.9 1.2 6.9-0.7 0-1.8 2.5-0.6 4.1 1 1.5 1.6 7.5 1.9 10.3 2.5 2.4 0.5 5.9 0.2 9 0.3 0.6 3.6-0.5 6-3.6 7.3zm-3.3 23.5c-1.9-1.3 7-7 7.7-2.6 0.6 4.4-3.8 5.2-7.7 2.6z"/>
			<path id="Shape" fill-rule="evenodd" class="s16" d="m325.9 381.8c0 2.1-2.5 2.7-2.5 4.1 0 1-0.9 1.7-2 3-1.9-1.4-3.8-2.9-5.9-2.9-4.2 0-5.3 3.8-6.6 3.3-1.3-0.5-1.3-3.3-5.3-1.7-4 1.6 0.5 5.7-1.7 6.6-2.2 0.9-5.7 1.3-7-1-1.3-2.4-6.8-0.8-4.5 2.4 2.3 3.2 7.1 7.1 7.1 9.8 0 2.7-6 1.5-2.9 4.7 3.1 3.2 2.5-1.6 7.3-0.3 4.8 1.3 4.4 6.9 2.8 7.1-1.5 0.3-3.1 2.7-6.3 0.8-3.2-1.9-5.8 1.8-3.1 1.7 2.7-0.1 5.8 1.4 4 3.5-1.8 2-5.4-0.8-6.1 0.2-0.6 1.1 3.4 7.9 1.6 8.8-1.8 0.9-5.2-4-8.2-3.9-2.9 0.2-5.3-3.4-4.5-6 0.8-2.6-5.2-4.9-1.8-7.4 3.4-2.5 9.3 0.8 9.3-0.8 0-1.5-5.8-5.1-7.9-2.8-2.1 2.3-6.6 1.1-6.2-2.1 0.4-3.2-1.8-6.6-4.6-7.5-0.2 0-0.3-0.1-0.4-0.2 0.7-2.1 1.2-4.4 2.5-4.7 1.9-0.4 0.8-1.9 2.1-3.3 1.4-1.3 2.9-4.1 3.1-5 0.2-1 3.7-0.2 6-0.8 2.4-0.6 2.9-3.1 4.1-2.5 1.2 0.6 7.4-2.6 8.1-3.8q0.2-0.2 0.2-0.4c3.3-0.2 10.2-0.6 11.7 0.2 2.1 1 9.4 1.5 9.4 1.5 2 0 3.8-0.7 3.3-2-0.4-1.1 2.3-1.8 4.2-2.1 0.3 1.2 0.7 2.5 0.7 3.5zm-2.6 62.1c0.2 1.3-6.7 3.8-11.7 3.6-5.1-0.1-9.7-2.8-12.8-3.3-2.2-0.4 2.8-4.5 5.3-2.2 2.4 2.3 11.7 0.4 13.8 1.5 2.1 1.2 5.3-0.9 5.4 0.4z"/>
			<path id="Shape" class="s17" d="m40.6 241.6c1.6 3.1 4.1 18.2 0 20.3-4 2.1-6.3-1.9-10.7 2.2-4.4 4.1-11.9 6.2-15.1 6.2-4.5 0-9.7-4.7-8.7-7 1.1-2.3 5.9-2.2 5.9-5.7 0-3.5 6.2-4.2 2.3-7.3-3.9-3.1-6.4-3-4-6.2 2.3-3.3-4.2-5.1-1.1-6.6 3.1-1.6 6.4 1.9 9.3-0.2 3-2 7.3-1.5 7.2-3.6-0.2-2-4.3-0.9-4.2-4.1 0.1-3.2 5.2-3.2 8.8-1.8q0.5 0.2 1.1 0.2c-0.6 2.5-1.5 4.3-2.4 5-1.4 0.9-3.9 4.6-1.9 5 1.9 0.4 5 3.5 5.4 1.2 0.4-2.3 1.8-5.5 5.1-1.6 0.8 1 1.8 1.9 2.9 2.7-0.1 0.3-0.1 0.8 0.1 1.3z"/>
			<path id="Shape" fill-rule="evenodd" class="s16" d="m47.2 236.1c-2.1 2.1-6.2 2.4-6.7 4.2-1.1-0.8-2.1-1.7-2.9-2.7-3.3-3.9-4.7-0.7-5.1 1.6-0.4 2.3-3.5-0.8-5.4-1.2-2-0.4 0.5-4.1 1.9-5 0.9-0.7 1.8-2.5 2.4-5 3.4 0 7.7-4.9 10.9-1.8 3.6 3.5 7.5 7.3 4.9 9.9zm58.6 30.6c-2.7 2.6-3.2 5.5-0.6 5.1 2.5-0.3 5.6 0 3.7 1.8-1.9 1.9-9.3 5.2-12.1 5.1-2.9-0.1-8.6 0.9-9.9 1.8-1.3 0.9-5.4-3-7-1.7-1.5 1.3-3.7 2.5-6.8 2-3.1-0.6-4.7 1.2-6.3 0.9-1.7-0.4-1.8 4.1-3.9 3.8-2.1-0.2-2.7-2.8-6.5-1.3-3.7 1.6-5.3 5.1-6.4 3.7-2-2.5 8.5-12.3 11.1-13.7 2.6-1.5 6.8 0.9 9.7-1.3 2.8-2.2 2.9-3.6-0.8-2.2-3.7 1.4-5.8-1.3-9.2-1.3-3.3 0-2.8-2.9-5.2-1.2-2.3 1.7-8.2-2.2-3.3-3.6 4.9-1.4 8.5-3.9 8.4-5.9-0.1-2.1-4.9-1.7-5.2-3.4-0.2-1.7 3.5-3.6 2.6-5.4-0.9-1.8 2.5-2.7 2.7-1.4 0.3 1.2 8.3 1.5 8.9-0.4 0.7-2-0.4-5.8 0.8-7.9 1.2-2.1 0.3-2.3-2.3-3.2-2.6-0.9-3.5-3.1-1.4-5.5 2-2.3 0.6-5.7-2.4-2.5-2.9 3.1-12.2 3.1-12.5 1.1-0.3-1.9 4.5-6.1 3.1-8.8-1.4-2.7 1-5.8-0.6-6-1.7-0.3-0.4 6-5.1 6.8-4.6 0.8-1.7-6.3-3.6-5.3-1.9 1-6.2 4.7-6.2 2.2 0-2.5 7.5-2.8 7.2-5.4-0.2-2.6-5.3-1.1-4.6-4.7 0.6-3.6 6.6-6 3.2-6.4-3.4-0.4-8.9-3.1-6.3-5.2 2.6-2.1 4 0.8 5.3 1.9 1.3 1.2 2.9-0.3 2.2-2.4-0.8-2.1 4-3.5 3.8-6-0.1-2.4 1.5-8.1 5.5-7.3 4 0.8 7.7 1.1 9.4-0.2 1.7-1.2 2-5.1 3.9-3.4 1.9 1.6-1.6 3.3-1.3 5.1 0.3 1.8-4.4 6.4-6.6 7.3-2.2 0.9 0.4 4.1 3 2.8 2.6-1.3 16.1-1.4 16.1 0.8 0 2.2-3.6 13.2-6.7 15.2-3.1 2.1-5 5.8-3.1 5.7 1.9-0.1 5.7-1.5 7.9 1.3 2.2 2.8 5 1 5.8 4.4 0.8 3.4 1.4 9.6 5.8 10.6 4.4 1 7 9.3 6.6 10.6-0.4 1.3 1.4 4.5 2.9 4.8 1.4 0.2-1.3 2.4 0.1 4.7 1.4 2.4 3.4 2.6 4.3 0.5 0.9-2 9.4 0.7 9.1 4.6-0.2 3.9-4.5 5.8-7.2 8.4zm-64.6-81c1.6 1.7-2.4 7.6-5.8 7.7-2.6 0.1 4.1-9.4 5.8-7.7zm45.6-30c3.4-0.9 0.8 7.5-1.4 9.7-1 0.9-2-8.8 1.4-9.7z"/>
			<path id="Shape" fill-rule="evenodd" class="s16" d="m192.8 212.7c-0.7 1.6-4.9 0.9-5.6 2.9-0.6 2.1-3.3 4.2-2.4 5.5 0.9 1.3 1.5 1.8 4 0.5 2.4-1.3 3.3 4.2 3.1 5.4-0.4 2-4.4 1.7-6.2 0.1-1.8-1.5-4.3-2.7-4.5-0.9-0.2 1.4 2.3 2.9 3.4 4.7-1.5 0.3-2.6 0.3-3.2 0.1-1.4-0.4-4.5-0.7-8-0.8-0.9-1.3-1.7-2.6-1.3-3.8 0.9-2.6-2.8-4.6-3.4-7.6-0.5-3.1-1.4-7.8 0-10 1.5-2.2 1.7-6.6 4.4-6.3 2.7 0.2 3.4 4.1 5.1 2.6 1.7-1.6-1.4-3.1-0.4-3.9 1-0.8 4.8 0.8 5.2-2.7 0.3-3.5 5-4.8 6.3-3.5 1.3 1.3 0.6 6.2-0.9 7.5-1.6 1.3-1 5.4 0.3 6 1.2 0.7 4.7 2.5 4.1 4.2zm13.3 13.2c0.4 1.5-3.1 7.7-6.3 7.2-3.3-0.5-4.7-4.4-2.4-3.9 2.4 0.5 4.3-1.2 2.5-2.3-1.8-1.2-6-4.4-3.4-8 2.6-3.6 5.2 0.4 5.7-2.5 0.5-2.8 1.8 2.4 3 2.1 1.2-0.3 1.9-2.7 3-2.1 1.2 0.8-2.5 7.9-2.1 9.5z"/>
			<path id="Shape" fill-rule="evenodd" class="s16" d="m305 83.3c-1.4-0.3-3-0.5-4.7-0.2-4.6 0.8-7.2-1.1-9.2 0.9-1.9 2.1-2.9 3.5-5.6 4.5-2.8 1.1 0.3 4.3-3.4 7.1-3.8 2.9 2.2 5.7 0.9 8.4-1.3 2.8-8.9 7.9-13.4 10.1-4.6 2.2-4.8 3.4-8.3 4.8-3.5 1.4-2.9 6.1-6.1 6.8-3.2 0.8-1.7 3.1-4.1 4-2.5 0.9-2.4 4-2.4 6.8 0 2.7-3.7 5.6-3.2 8.5 0.5 2.8 1.4 8.4 1 9.8-0.3 1.4 4.2 0.4 6.3 1.7 2 1.3 8.2 7.2 8.2 9.2 0 1.9-5.9 5.1-5.1 7.1 0.7 1.9-4.2 6.6-7.9 7.3-3.8 0.8-4.6 3.5-4.9 5.3-0.4 1.8-0.3 9.7-1.5 12.4-1.1 2.7-2.8 9.5 0.2 6.1 2.9-3.4 4.4-4 3.1-0.5-1.3 3.5-4 8.9-4.9 8.2-1-0.6-2.6-4.3-3.1-1.2-0.6 3.1-2.1 5.3-5.1 4-3-1.3-6.7-0.9-7.2 0.6-0.5 1.6-2.6 0.4-2.7 2.8-0.2 2.5 0.9 5.1-3.3 5.2-4.1 0.1-5.9 2-6.8 0.1-0.9-1.8 0-5.5-0.2-7.3-0.1-1.8-3.6-1-2.4-4 1.2-3 0.9-4.3-1.8-6.6-2.7-2.3-2-4.7-4.4-7.9-2.5-3.2-0.3-6.7-3.1-9-2.8-2.4-4-5.6-3.9-8.8q0-0.5 0-0.8c1-0.2 2.1-0.1 2.7 0.3 1.7 1.3 2.1-4.1 2.1-5.8 0-1.6 1.7-4.9 1.3-7-0.4-2.1 4.9-0.4 5.8-2.1 0.8-1.7 1.2-7.5-0.4-8.3-1.7-0.8-2.1-4.2-0.4-4.2 1.6 0 3.7-1.2 3.3-4.5-0.4-3.3-5.4-2.9-5.8-6.2-0.5-3.4 2.5-4.2 0.4-8.3-2.1-4.2 0.8-6.7 0-8.8-0.9-2-1.7-4.5 0.8-8.7 2.5-4.1 7.1-6.2 8.7-5.8 1.7 0.4 4.6 2.1 5.9-0.4 1.2-2.5 1.2-4.6 0-5-1.3-0.4-4.6-1.2-2.1-4.6 2.5-3.3 5.4-7.4 5.8-11.2 0.4-3.7-0.8-6.6 0.4-7.9 1.2-1.2 4.2 0 6.6-1.6 2.5-1.7 0.5-3.7 1.7-5 1.3-1.2 2.9-5.4 4.6-6.6 1.6-1.3 3.3-2.9 2-4.6-1.2-1.7 2.5-3.3 2.5-6.2 0-2.9 4.2-5 6.7-5 2.5 0 6.6 0 6.6-2.5 0-2.5-1.6-7.9 2.1-6.2 3.7 1.6 6.6-0.4 9.1 1.6 2.5 2.1 5.9 1.7 5.9-1.6 0-3.3 1.2-8.7 4.9-6.7 3.8 2.1 5.9 5.4 10.4 7.5 4.6 2.1 12.9 4.6 12.5 7.5-0.4 2.9-1.7 7 0.4 8.3 2.1 1.2-0.4 6.6 2.1 7.9 2.5 1.2 1.6 7.4-0.4 7.4-2.1 0 0.4 3.4 1.6 4.6 0.6 0.6 1.1 2.3 1.2 4.3zm-50.8 120.7c-1.3-1.6 1-11.2 5.9-11.4 4.9-0.1-4.9 12.7-5.9 11.4z"/>
			<path id="Shape" fill-rule="evenodd" class="s16" d="m333.9 180.6c-0.2 1.6 0.4 2.8 0.5 5.1 0.2 2.3 0.6 2.7 2 4.6 1.3 2-1.2 2-2.3 2.9-0.7 0.6-0.7 1.5-0.4 2.5-3.1-0.5-7.3-0.9-8.3-0.6-1.6 0.5-7.8-4.4-8.8-5.2-0.7-0.5-5.3-0.2-9.4 0.2q0.1-0.1 0.1-0.2c2.6-2.7 0.7-4-1.8-3.5-2.5 0.6-3.4-0.5-5.2-2.9-1.8-2.5 0.7-3.5-1.8-5.6-2.4-2 3.1-2.7 5.3-5 2.2-2.3 11.6-2.3 16.3-3.2 4.7-0.9 12.8 2.7 16.6 1.6 0.9-0.2 1.5-0.5 1.9-0.9 2 3.1-0.8 3.5-1.8 5.8-1.2 2.5-2.7 2.9-2.9 4.4zm-37.3 3.5c-1.4 1.4-6.7 5.8-9.1 6-1.8 0.1-1.1-6.4 3.5-7.7 4.7-1.2 7 0.3 5.6 1.7zm-7.3-4.8c-1.9-1.7 6.6-2.5 5.6-0.6-1 1.9-4.1 1.9-5.6 0.6z"/>
			<path id="Shape" class="s16" d="m366 23.5c-0.6 3.2-2.5 3.6-4.4 3.1-2.3-0.5-4.7 3.4-7.2 3.4-1.4 0-2.9 0.8-4.1 2 0-1.8 0.2-3.7 0-4.9-0.4-2.5-7.4-3.3-9.1-6.2-1.7-2.9-5.8-1.7-7.1 0-1.2 1.6-8.7-0.4-8.7 2.1 0 2.5-5.4 2.9-5.4 5.8 0 2.9 2.5 7.9-1.6 7.5-4.2-0.5-1.3 1.6-3.8 4.9-2.5 3.4-2.5-2.1-5-1.2-2.4 0.8-5.4-2.5-6.6-0.4-1.2 2.1-5.4 0.4-9.6-0.4-4.1-0.9-6.2-6.7-9.5-7.1-2.2-0.3-4.6 1.5-5.8 4.3q-0.4-0.3-0.9-0.6c-3.7-2-4.9 3.4-4.9 6.7 0 3.3-3.4 3.7-5.9 1.6-2.5-2-5.4 0-9.1-1.6-3.7-1.7-2.1 3.7-2.1 6.2 0 2.5-4.1 2.5-6.6 2.5-2.5 0-6.7 2.1-6.7 5 0 2.9-3.7 4.5-2.5 6.2 1.3 1.7-0.4 3.3-2 4.6-1.7 1.2-3.3 5.4-4.6 6.6-1.2 1.3 0.8 3.3-1.7 5-2.4 1.6-5.4 0.4-6.6 1.6-1.2 1.3 0 4.2-0.4 7.9-0.4 3.8-3.3 7.9-5.8 11.2-2.5 3.4 0.8 4.2 2.1 4.6 1.2 0.4 1.2 2.5 0 5-1.3 2.5-4.2 0.8-5.9 0.4-1.6-0.4-6.2 1.7-8.7 5.8-2.5 4.2-1.7 6.7-0.8 8.7 0.8 2.1-2.1 4.6 0 8.8 2.1 4.1-0.9 4.9-0.4 8.3 0.4 3.3 5.4 2.9 5.8 6.2 0.4 3.3-1.7 4.6-3.3 4.6-1.7 0-1.3 3.3 0.4 4.1 1.6 0.8 1.2 6.6 0.4 8.3-0.9 1.7-6.2 0-5.8 2.1 0.4 2.1-1.3 5.4-1.3 7 0 1.7-0.4 7.1-2.1 5.8-0.6-0.4-1.7-0.5-2.7-0.3 0-2.6-0.9-3.5-2.1-4-1.2-0.5-2-5.6-3.4-4.8-1.5 0.8-0.3 4.8-2.2 6.3-2 1.6-4.8-0.3-6.1 1.3-1.3 1.7-11.1 11.3-16.3 12.1-5.2 0.7-7.6-2.1-10.2-2.8-2.6-0.6-10.9-4.9-9.2-7.2 1.7-2.3 3.6 0.3 3.6-2.7 0-3 3.1-1.3 2.2-3.5-0.9-2.2-3.2-2.7-4.6-0.5-1.4 2.2-4.9 2.6-4.9 0.6 0-1.9 2.4-3.1 0.6-5.1-1.8-2.1 3.1-5.5 3-2.6-0.1 2.8 4 3.2 3.5 0.9-0.5-2.3 2.2-3.8 4.5-3.6 2.3 0.1 1.3-5.3-1.6-2.7-2.8 2.5-5.3 4.5-6.2 2.3-0.9-2.2-2.4 1.5-4.5-1.4-2.1-3 2.2-3.4 0.7-5.3-1.6-2-1.6-3.5 0-4.2 1.5-0.6 3.2-2.7 0.9-3.2-2.4-0.5 0.9-2.2 1-3.2 0.1-1.1-4-2.2-3.4-4.4 0.7-2.2 2.2-5.1 4-3.9 1.9 1.2 5.1 0.9 3.3-0.9-1.8-1.8 1.4-4.5 4-4 2.6 0.5 1.8-3.7 4.6-3.1 2.9 0.6 8.3 1.4 7.5-0.1-0.7-1.6-6-1.6-4.6-3.5 1.4-2 6.6-0.8 8.4-3.1 1.8-2.3 6.7-0.3 4.8-3-2-2.7-2.2-5 1-4.9 3.2 0.1 2.7 5.3 4.8 3.7 2.1-1.5 1.1-6.4 4.3-6.5 3.1-0.2 1.4-3.8 5.4-5.6 4-1.8 7.2-5.2 7.7-3.1 0.6 2.1 5.1 0.7 2.8-1.2-2.4-1.8-6.3-4.9-5-5.4 1.3-0.5 5.7 0 6.1-1.9 0.4-2 5.4 1.1 5.4-0.8 0-1.9-1.9-4.3 0-5.9 2-1.7-0.2-7.1 1.2-8.1 1.4-0.9 5.7 1.1 6.9-1.1 1.1-2.2-2.2-3 1.4-6.5 3.6-3.5 7.7-8.2 8-11 0.2-2.7 3.2 0.4 3.2-2.7 0-3.1 1.8-6.2 3.5-6.3 1.7-0.1 3.2-1.9 4.1-3.6 1-1.7 3.5-0.1 3.5 1.7 0 1.8 4.6 0.6 2.5-1.5-2.1-2 2.4-3.2 0.8-4.6-1.7-1.4-3.8-1.9-5.5 0.4-1.6 2.3-3.8 1.7-5.1 0.8-1.3-0.9-5.1 0.9-8.6 3.1-3.4 2.2-4.2 0.7-6.4 3.2-2.2 2.4-6.9 2.3-3-0.3 3.9-2.5 10-3.5 10.7-5.9 0.8-2.5 5.2-3.2 3.8-4.7-1.4-1.4 2.6-1.3 5.5-4.2 3-3 3.9-6.1 5.2-4.2 1.3 2-3.7 6-2.1 7.3 1.7 1.3 3.3-4.3 4.8-2.4 1.6 2 3.5 5.1 3.9 2.4 0.4-2.7 2.7-2.2 4.5-0.5 1.8 1.6 2.1-1.2 0.8-2.4-1.3-1.1 1.2-2.3-1.2-3.1-2.3-0.7-5.1 2.7-5.5 0.4-0.4-2.3 3.2-3.9 4.5-5.9 1.3-2.1 5.7-2.6 5.9-0.8 0.3 1.8 3.4 1.7 3.1-0.4-0.2-2.1 0.7-2.4 2.9-2.1 2.2 0.4 2.4-2.1 0.8-4-1.7-1.8-0.3-1.9 2.4-2.4 2.7-0.5 5.1-2.7 6.1-0.5 1 2.2-1.9 6.6 0.7 5 2.5-1.5 5.6-2.1 4.9 0.4-0.8 2.5 2.9 4.6 2.9 1.8 0-2.8 1.2-4.9-2-5.7-3.3-0.8 2.5-3.9 2.8-1.7 0.3 2.2 3.9 3.8 4.7 2.9 0.7-0.9 4.3 1.7 4.1 0.5-0.3-1.2-6.9-3.5-4.9-4.4 1.9-0.9 4.8-1.7 6.6-0.1 1.8 1.5 6 0.2 2.4-1.8-3.6-2.1-3.7-6-0.5-5.8 3.2 0.1 7.1 0.5 7.1-1.5 0-1.9 2.7-2.2 3.1-0.7 0.3 0.9-2.2 4.5-4.6 4.5-2.5 0-3.6 4-1.8 3.3 1.8-0.6 0.9 6.4 3.2 5.7 2.3-0.6 2.4-4.1 0.9-5-1.6-0.9 0.5-0.8 2.1-3.4 1.5-2.6 4.7-4.4 6-2 1.3 2.3 3.3 0.6 2-1.3-1.3-2 1.7-2.3 1.5-3.4-0.1-1 5.2 1.8 6.2 0.8 1.1-1.1 1.6-4.7 4.8-3.9 3.2 0.8 3.2 3.4 1 3.4-2.1 0-2.3 4.9-5.6 6.7-3.4 1.8-3.7 5.9-1.6 5.5 2.1-0.4 4.8-4.1 8.4-8.2 3.6-4.2 5.4-5.6 5.6-3 0.1 2.6-2.1 7.4-0.2 7.4 2 0 6.4-5.6 5.2-6.9-1.2-1.3 0.7-5.3 5.4-4.9 4.8 0.4 6.3 4.3 3.7 4.9-2.6 0.7 0.1 3-1.1 4.9-1.1 2 2.1 2.9 2.1-0.8 0-3.6 5.2-6.2 6.8-4.6 1.7 1.5 1.9 2.7 4.7 2.2 2.9-0.5 5.8 1 6.6 2.2 0.8 1.1 4.9 2.4 4.5 4.4-0.4 1.9-3.6 0.1-5.9 2.3-2.3 2.2-3.8 3-5.8 1.8-2.1-1.2-4.7-1.3-4.4-0.4 0.2 0.9 5.8 2.5 5.6 4.4-0.1 2 3.4 2.3 3.9 0.4 0.5-1.8 4.5-1.6 6.5-0.3z"/>
			<path id="Shape" class="s18" d="m255.7 395c-0.2 4.4-2 2.4-6.5-0.4-4.6-2.9-9.4 0.2-8.4 3.7 0.9 3.5 6 4.2 4 6.9-2.1 2.7-4.7 2.6-5.1 5.1-0.4 2.6-3.1 7.3-4.4 7.3-1.3 0-2.3-4.4-0.4-7 2-2.6 1.4-7.2-0.4-9.4-1.8-2.2 0.2-4.8-2.8-5.2-3-0.4-3.1-3.7-6.2-5.2-3.1-1.4-5.7-2.7-7.6-5-2-2.3-5.2-1.9-8.4-3.6-3.3-1.7-5.7-6.2-11.9-10.2-6.2-4-7.9-8.4-8.3-10.6-0.4-2.2-0.9-2.5-2.7-5.2-1.8-2.7-7.8-6.5-12.3-5.2-4.5 1.3-3.3 3.8-6.1 5.2-1.3 0.7-2.7 0.8-4.2 1.2 0.1-1 0.7-2 1-2.9 0.6-1.6-2.1-1.2-4.1-1.4-1.9-0.2-3.3-2.1-1.9-4.3 1.3-2.1-1.2-2.3-2.5-4.4-1.4-2.1 0.5-1.6 1.7-2.1 1.2-0.6 2.7-3 1.8-3.5-1-0.6-1.7-1.9-1-4.2 2.6-0.2 6.3-0.5 7.4-0.5 1.8 0 3.6-5.7 4.4-6.2 0.8-0.5 2.9 4.2 4.9 6 2.1 1.8 2.4-1.6 2.4-3.1 0-1.6 1.8-2.1 3.1-1.8 1.2 0.2 4.1 0.7 4.1-1.1 0-1.8 1.5-1 2.6-1 1 0 1.3-2.1 1.3-2.1l1.7-1.6q0.5 0.3 1 0.6c1.6 1 4.5-0.7 5.5-1.7 0.9-1 6.4-1 7-1 0.5 0 0.7 3.1 1.7 3.7 0.6 0.4 2.4 0.7 4.4 0.9-0.3 2.9-0.6 7.4-0.4 11.6-2.6 1-4.9 2.9-3.9 5 1.8 3.7-2.2 4.2-0.1 8.7 2.1 4.6 10.3 5 12.3 12.6 1.9 7.6 8.3 14.2 13.6 13.9 5.2-0.2 3.1 3.1 6.4 5.2 3.4 2.1 17.6 7.9 17.3 12.3z"/>
			<path id="Path" class="s19" d="m232.1 416.7c-0.4 0.6-4.3 4.6-3.6 8.1 0.6 3.5 0.3 6.1-2.4 5.9-2.7-0.1-3.5-4.5-9.9-6.2-6.5-1.6-8.5-3.4-9.1-4.9-0.7-2 4.3-5 7.4-3.5 3.1 1.6 5.3 1.2 10.6 0 5.3-1.1 7.4-0.1 7 0.6z"/>
			<path id="Path" class="s20" d="m183.1 390.1c-1.2 3.8 0.2 12-1.4 14.2-1.7 2.2-3.1 0.7-6.1 3.7-3 3-4.8-3.4-3.6-8.4 1.1-5-4.7-8.8-3.3-11.2 1.2-2 3.5 0.9 6.4-1.6 2.8-2.4 9.2-0.6 8 3.3z"/>
			<path id="Shape" class="s21" d="m266.5 369.3c-1.5 0.3-3.5 3.3-4 6.1q-0.2-0.1-0.4-0.2c-1.7-0.9-3.9-2.7-6.2-4.6 0.3-1.3 0.4-2.3 0.3-2.7-0.1-1 1.6-4.1 3.4-6.5 1.9 1.9 4.9 5.4 6.9 7.9z"/>
			<path id="Shape" class="s22" d="m293 364.9c-1.8 0-3.1 2.4-3 3.5 0.2 0.7 0 1.7-0.1 2.7-6.1 0.8-15.1 2.7-15.1 2.7 0 0-6.3-4.6-8.1-4.6-0.1 0-0.2 0-0.2 0.1-2-2.5-5-6-6.9-7.9 1.3-1.8 2.7-3.2 3.2-3.2 1.4 0 1.8-11.1 0.7-13.6-1-2.4 0-5.2-2.7-6.2-1.5-0.5-2.1-3-2.3-5.3 3.7-1.1 9.1-2.9 9.1-2.9 0 0 2.3 0.9 3.7 1.2 0.4 0.1 1.3 0.2 2.5 0.4q-0.2 0.2-0.2 0.4c-0.2 0.9 3.1 3.5 3.1 5 0 1.6 0.7 3.1 2.9 3.1 2.1 0-0.2 5.1 1.1 5.4 1.4 0.4 9.7 1 9.7 2.9 0 2 1.6 3.5-0.2 4.7-1.7 1.2-1.9 4.2 0 6 2 1.7 4.5 5.6 2.8 5.6z"/>
			<path id="Shape" class="s23" d="m273.1 358.1h4.3l2.1 4.2 6.4 4.3-3.3 5.7c-4.2 0.8-7.8 1.5-7.8 1.5 0 0-6.3-4.6-8.1-4.6-0.1 0-0.2 0-0.2 0.1-2-2.5 0.4-2.7 2.3-4.8z"/>
			<path id="Shape" class="s24" d="m151.2 287.1c0.5 1 2.3 2.4 2.7 7.2-1.7-0.5-4.1-0.7-5.7-0.6-0.3-4.4 1.3-6.5 3-7.4-0.1 0.2-0.2 0.5 0 0.8z"/>
			<g id="Group 2">
				<path id="Shape" class="s25" d="m255.9 370.6c-1.5-1.2-3.1-2.4-4.5-3.3-2.7-4-7.2-6.9-7.1-8 0.2-1.5-7.1-5.8-7.1-8.7 0-2.9-3.7-4-4.1-5.9-0.4-2 2.1-3.7 3.9-2.4 1.7 1.4 3.6-1.9 5.6-1.1 1.9 0.8 13.5 1.3 13.5 1.3 0 0 3.5 1 7.9 4 0.4 4 0 11.7-1.1 11.7-1.4 0-7 8-6.7 9.7 0.1 0.4 0 1.4-0.3 2.7z"/>
				<path id="Shape" class="s26" d="m292.8 311.3c-1.6 1.1-4.7 2.9-5.9 3.6-1.1 0.8-5.2 10.5-7.9 13.2-2.3 2.3-4.5 2.9-5.2 3.7-1.2-0.2-2.1-0.3-2.5-0.4-1.4-0.3-3.7-1.2-3.7-1.2 0 0-9.8 3.2-12.1 3.8-2.3 0.6-7.2 0.3-9-2-1.3-1.8-5.3-4.3-7.3-5.5q0.2-0.1 0.2-0.1c0 0-1.4-3-2.1-3.3 0.3-1.1 0.7-2 1.5-2.1 1.4-0.2 0.4-2.6 1.4-3.8 1-1.2-0.8-3.6 1-3.4 1.8 0.2 3.8 0.4 3.8-2.3 0-0.8 0.5-1.6 1.2-2.3 0.4 0.5 0.8 1 1.2 1.4 2.6 2.3 11.8 2 11.8 0 0-2 7.5-2.9 9.3-2.9 1.7 0 7.2-5.5 8-5.2 0.9 0.3 6.7 1.2 8.1 2.6 0.7 0.7 3.1 1.4 5.5 2 0.7 0.6 1.4 1 2.1 1.2 1.7 0.6 2.1 1.8 0.6 3z"/>
				<path id="Shape" class="s27" d="m119.3 275.4c2-0.4 3.9-1.4 5.8-2.5 1.4 0.7 2.6 1.1 3.1 1.1 2.4 0 6.7-1.2 8.3-2.8 1.6-1.5 4.4-0.8 6 0.8 1.5 1.6 3.9 2 6.3 4.4 0.6 0.6 1.2 1.1 1.9 1.6q0 0.2-0.1 0.3c-0.2 1.6 2.6 4.1 2.4 5.4-0.2 1-1.4 1.8-1.8 2.6-1.7 0.9-3.3 3-3 7.4q-0.9 0-1.4 0.1c-2 0.4-2.5-3.3-4.5-2.9-1.9 0.4-2.5-2.5-2.5-4.1 0-1.5-2.1 1.2-3.9 2-1.7 0.7-2.3-1.8-2.5-2.9-0.2-1.2-3.7-2.4-5.4-3.3-1.8-1-3.7-4.1-4.5-2.7-0.8 1.3-2.9-2-3.1-3.3-0.1-0.9-0.7-0.7-1.1-1.2z"/>
				<path id="Shape" class="s28" d="m353.3 321.7c1.3 1.3 2.1 4.7 2.1 5.7 0 1-2.9-0.3-6-1-3.1-0.8-3.3 2.3-3.3 3.8 0 1.5-3.8 6.3-5 7.8-2.4-2-3-8.3-1.5-9.9 2-2-3.1-9.5-5.5-12.2-1.1-1.3-3.5-5.6-5.8-9.9 2.5-0.8 5.3-1.5 6.4-1.6 2.1-0.3 5.2 3.9 7 3.9 1.8 0 5.2 1.3 6.2 4.6 1 3.4 4.1 7.5 5.4 8.8z"/>
				<path id="Shape" class="s29" d="m273.4 382.5c-0.6-2.1 0-6.1 0.9-9.1 0.3 0.2 0.5 0.4 0.5 0.4 0 0 9-1.9 15.1-2.8q-0.1 0.6-0.1 1 0.1 0 0.1 0.1c0 0.2 0 0.4 0.2 0.6 0.5 0.5 4.6 4.4 4.8 5.6 0.2 1 1.8 1.5 1.7 2.4q0 0.2-0.1 0.4c-0.8 1.2-7 4.3-8.2 3.8-1.2-0.6-1.7 1.9-4.1 2.5q-0.4 0.1-0.8 0.1-0.2 0.1-0.3 0.1-0.4 0-0.7 0-0.1 0-0.2 0c-1.1 0.1-2.1 0-2.8 0.1q-0.1 0-0.1 0-0.3 0-0.5 0.1 0 0-0.1 0-0.2 0-0.3 0.1c-2.6-1.9-4.5-3.4-5-5.4z"/>
				<path id="Shape" class="s30" d="m190.9 323.2l-1.7 1.6c0 0-0.3 2.1-1.3 2.1-1 0-2.6-0.8-2.6 1 0 1.8-2.9 1.3-4.1 1-1.3-0.2-3.1 0.3-3.1 1.9 0 1.5-0.3 4.9-2.4 3.1-2-1.9-4.1-6.5-4.9-6-0.8 0.5-2.6 6.2-4.4 6.2-1.1 0-4.8 0.3-7.4 0.5q0 0 0-0.1c0.8-2.3-1.6-2.5-1.6-4.3 0-1.7-2.1-2.5-3.8-0.4-1.8 2.2-2.4 0.6-1.2-2.9 1.2-3.5 5.2-5 5.6-6.9 0.4-2 2.7-3.7 4.5-3.7 0.6 0 0.9-0.5 1.2-1.3 2.4 0.2 6.1 0.4 7.4-0.3 2-1 3.3-1 5.9-0.2 1.6 0.4 3.6 1.4 5.1 2.2-0.4 1.2 0 3.1 0 3.7 0 0.7 2.7 3 4.4 2.3 1.4-0.6 3-0.2 4.4 0.5z"/>
				<path id="Shape" class="s31" d="m210.5 325.7c1.2 0.1 2.4 0.2 3.6 0.3 3.2 0.2 8.1 1.7 9.6 1.7 1.6 0 4.1-2.7 7.6-2.7 3.5 0 5.4-2.1 6-1.9 0.6 0.2 2.1 3.3 2.1 3.3 0 0-3.8 3.4-5.4 3.6-1.5 0.2-0.6 4.3-2.1 4.3-1.6 0-2.7 2.7-3.1 3.9-0.4 1.1-3.9-0.8-5.5-0.2-1.1 0.4-4.3 0.9-6.1 1.2-0.2-1.2-0.5-2.2-1.5-2.6-1.2-0.5-3.5-0.2-5.6 0.7-0.2-4.2 0.1-8.7 0.4-11.6z"/>
				<path id="Shape" fill-rule="evenodd" class="s16" d="m47.2 236.1c-2.1 2.1-6.2 2.4-6.7 4.2-1.1-0.8-2.1-1.7-2.9-2.7-3.3-3.9-4.7-0.7-5.1 1.6-0.4 2.3-3.5-0.8-5.4-1.2-2-0.4 0.5-4.1 1.9-5 0.9-0.7 1.8-2.5 2.4-5 3.4 0 7.7-4.9 10.9-1.8 3.6 3.5 7.5 7.3 4.9 9.9zm58.6 30.6c-2.7 2.6-3.2 5.5-0.6 5.1 2.5-0.3 5.6 0 3.7 1.8-1.9 1.9-9.3 5.2-12.1 5.1-2.9-0.1-8.6 0.9-9.9 1.8-1.3 0.9-5.4-3-7-1.7-1.5 1.3-3.7 2.5-6.8 2-3.1-0.6-4.7 1.2-6.3 0.9-1.7-0.4-1.8 4.1-3.9 3.8-2.1-0.2-2.7-2.8-6.5-1.3-3.7 1.6-5.3 5.1-6.4 3.7-2-2.5 8.5-12.3 11.1-13.7 2.6-1.5 6.8 0.9 9.7-1.3 2.8-2.2 2.9-3.6-0.8-2.2-3.7 1.4-5.8-1.3-9.2-1.3-3.3 0-2.8-2.9-5.2-1.2-2.3 1.7-8.2-2.2-3.3-3.6 4.9-1.4 8.5-3.9 8.4-5.9-0.1-2.1-4.9-1.7-5.2-3.4-0.2-1.7 3.5-3.6 2.6-5.4-0.9-1.8 2.5-2.7 2.7-1.4 0.3 1.2 8.3 1.5 8.9-0.4 0.7-2-0.4-5.8 0.8-7.9 1.2-2.1 0.3-2.3-2.3-3.2-2.6-0.9-3.5-3.1-1.4-5.5 2-2.3 0.6-5.7-2.4-2.5-2.9 3.1-12.2 3.1-12.5 1.1-0.3-1.9 4.5-6.1 3.1-8.8-1.4-2.7 1-5.8-0.6-6-1.7-0.3-0.4 6-5.1 6.8-4.6 0.8-1.7-6.3-3.6-5.3-1.9 1-6.2 4.7-6.2 2.2 0-2.5 7.5-2.8 7.2-5.4-0.2-2.6-5.3-1.1-4.6-4.7 0.6-3.6 6.6-6 3.2-6.4-3.4-0.4-8.9-3.1-6.3-5.2 2.6-2.1 4 0.8 5.3 1.9 1.3 1.2 2.9-0.3 2.2-2.4-0.8-2.1 4-3.5 3.8-6-0.1-2.4 1.5-8.1 5.5-7.3 4 0.8 7.7 1.1 9.4-0.1 1.7-1.3 2-5.2 3.9-3.5 1.9 1.6-1.6 3.3-1.3 5.1 0.3 1.8-4.4 6.4-6.6 7.3-2.2 0.9 0.4 4.1 3 2.8 2.6-1.3 16.1-1.4 16.1 0.8 0 2.2-3.6 13.2-6.7 15.2-3.1 2.1-5 5.8-3.1 5.7 1.9-0.1 5.7-1.5 7.9 1.3 2.2 2.8 5 1 5.8 4.4 0.8 3.4 1.4 9.6 5.8 10.6 4.4 1 7 9.3 6.6 10.6-0.4 1.3 1.4 4.5 2.9 4.8 1.4 0.2-1.3 2.4 0.1 4.7 1.4 2.4 3.4 2.6 4.3 0.5 0.9-2 9.4 0.7 9.1 4.6-0.2 3.9-4.5 5.8-7.2 8.4zm-64.6-81c1.6 1.7-2.4 7.6-5.8 7.7-2.6 0.1 4.1-9.4 5.8-7.7zm45.6-30c3.4-0.9 0.8 7.5-1.4 9.7-1 1-2-8.8 1.4-9.7z"/>
			</g>
		</g>
		<g id="Icons">
			<path id="Icon-Color" fill-rule="evenodd" class="s32" d="m204 338c0 5.4-5.7 12.8-8 15.6-0.5 0.6-1.5 0.6-2 0-2.3-2.8-8-10.2-8-15.6 0-5 4-9 9-9 5 0 9 4 9 9zm-5.8 0c0-1.8-1.4-3.2-3.2-3.2-1.8 0-3.2 1.4-3.2 3.2 0 1.8 1.4 3.2 3.2 3.2 1.8 0 3.2-1.4 3.2-3.2z"/>
		</g>
	</g>
</svg>