<svg version="1.2" xmlns="http://www.w3.org/2000/svg" viewBox="0 0 21 20" width="21" height="20">
	<title>Vector</title>
	<style>
		.s0 { fill: #e2001a } 
	</style>
	<path id="Vector" class="s0" d="m13.5 5.8l-0.3-0.3c-0.6-0.6-0.5-0.9 0.1-1.4l3.1-3.1c0.9-0.9 1.1-1.4 1.9-0.6l0.3 0.3zm0.6 0.5l4.9-5c0.8 1.1 2.7 3.9 1.8 6-0.9 1.9-1.3 2-2.3 3.4-2.1 2.4-4.7 4.9-6.8 6.8-1.4 1.1-1.4 1.5-3.3 2.3-2.1 0.8-5-1-6.1-1.8l4.9-4.9 1.4 1.8c0.4 0.5 1.3-0.1 2-0.7 1.2-1.2 3.6-3.6 4.5-4.6 0.7-0.7 1.3-1.7 0.8-2zm-12.5 11.3l-0.2-0.3c-0.8-0.8-0.3-1 0.6-1.9l3.1-3c0.6-0.6 0.8-0.7 1.4-0.2l0.2 0.3z"/>
</svg>