<svg version="1.2" xmlns="http://www.w3.org/2000/svg" viewBox="0 0 21 22" width="21" height="22">
	<title>Vector</title>
	<style>
		.s0 { fill: #e2001a } 
	</style>
	<path id="Vector" fill-rule="evenodd" class="s0" d="m18.1 15.4q0-0.2 0-0.3 0-1.3 0-2.6c0-1.1-0.7-1.8-1.8-1.8q-5.3 0-10.6 0c-1.1 0-1.8 0.7-1.8 1.8q0 1.3 0 2.6 0 0.1 0 0.3-0.1 0-0.1 0-1.1 0-2.1 0c-0.4 0-0.7-0.3-0.7-0.7q0-3.7 0-7.3c0-0.4 0.3-0.7 0.7-0.7q0.1 0 0.2 0 9.1 0 18.2 0c0.7 0 0.9 0.2 0.9 0.8q0 3.6 0 7.1c0 0.5-0.2 0.8-0.8 0.8q-1 0-2.1 0zm-7.1 5.6q-2.6 0-5.2 0c-0.6 0-0.8-0.2-0.8-0.8q0-3.8 0-7.6c0-0.6 0.2-0.8 0.8-0.8q5.2 0 10.4 0c0.6 0 0.8 0.2 0.8 0.8q0 3.8 0 7.6c0 0.6-0.2 0.8-0.8 0.8q-2.6 0-5.2 0zm0-5.2q-1.5 0-3 0c-0.4 0-0.6 0.3-0.6 0.6 0 0.3 0.2 0.5 0.6 0.5q1.4 0 2.8 0 1.6 0 3.2 0c0.2 0 0.4 0 0.6-0.2 0.2-0.4-0.1-0.8-0.5-0.9q-1.6 0-3.1 0zm0 3.3q1.6 0 3.1 0c0.3 0 0.5-0.2 0.5-0.5 0-0.3-0.2-0.5-0.5-0.6q-0.1 0-0.2 0-2 0-3.9 0-1 0-2 0c-0.3 0-0.5 0.1-0.6 0.4-0.1 0.3 0.1 0.7 0.6 0.7q1.5 0 3 0zm0-4.4q1.5 0 2.9 0c0.5 0 0.7-0.2 0.7-0.5q0-0.5-0.7-0.5-2.9 0-5.8 0c-0.5 0-0.7 0.2-0.7 0.5q0 0.5 0.7 0.5 1.4 0 2.9 0zm6-9.1q-6 0-12 0 0-0.1 0-0.2 0-1.8 0-3.6c0-0.5 0.2-0.8 0.8-0.8q4.3 0 8.6 0 0.4 0 0.7 0.2c0.5 0.5 1.1 0.9 1.6 1.4 0.2 0.1 0.3 0.3 0.3 0.5 0 0.8 0 1.6 0 2.5z"/>
</svg>