<svg version="1.2" xmlns="http://www.w3.org/2000/svg" viewBox="0 0 21 18" width="21" height="18">
	<title>Vector</title>
	<style>
		.s0 { fill: #e2001a } 
	</style>
	<path id="Vector" fill-rule="evenodd" class="s0" d="m21 6.3q0 5.2 0 10.3-0.1 0.2-0.1 0.4c-0.3 0.6-0.8 0.8-1.5 0.8q-4.1 0-8.2 0c-2.8 0-5.7 0-8.5 0-1.1 0.1-1.7-0.7-1.7-1.6 0-3.2 0-6.4 0-9.6q0-0.1 0-0.3 0.2 0 0.3 0 9.7 0 19.5 0 0.1 0 0.2 0zm-15.7 6.3q0.2 0.4 0.3 0.7 0.2 0.5 0.6 0.5 0.4-0.1 0.6-0.5 0.4-1.2 0.8-2.3 0-0.1 0-0.3c0-0.3-0.2-0.5-0.5-0.5-0.3-0.1-0.6 0.1-0.7 0.3-0.1 0.3-0.1 0.5-0.2 0.8q-0.2-0.4-0.3-0.7-0.2-0.5-0.6-0.4c-0.3 0-0.5 0.1-0.6 0.4q-0.1 0.3-0.3 0.7-0.1-0.4-0.3-0.7c-0.1-0.4-0.4-0.5-0.8-0.4-0.3 0.1-0.4 0.5-0.3 0.8q0.4 1.2 0.9 2.3 0.2 0.5 0.6 0.5 0.4-0.1 0.6-0.5c0.1-0.2 0.1-0.4 0.2-0.7zm11.5 0q0.1 0.4 0.3 0.8 0.1 0.3 0.5 0.3 0.5 0 0.6-0.3 0.4-1.2 0.8-2.5c0.2-0.4-0.2-0.8-0.6-0.7q-0.4 0-0.6 0.4-0.1 0.3-0.2 0.7-0.2-0.4-0.3-0.7-0.2-0.5-0.6-0.4-0.4 0-0.6 0.4-0.1 0.3-0.2 0.7-0.2-0.4-0.3-0.7c-0.1-0.4-0.5-0.5-0.8-0.4-0.4 0.1-0.5 0.5-0.4 0.8q0.5 1.2 0.9 2.3 0.2 0.5 0.6 0.4 0.4 0 0.6-0.4 0.1-0.3 0.3-0.7zm-5.8 0q0.2 0.4 0.3 0.7 0.2 0.5 0.6 0.4 0.5 0 0.6-0.4 0.4-1.2 0.8-2.3c0.1-0.4 0-0.7-0.4-0.8-0.3-0.1-0.6 0-0.8 0.4q-0.1 0.3-0.2 0.7-0.2-0.4-0.3-0.7-0.2-0.5-0.6-0.4-0.4 0-0.6 0.4-0.1 0.3-0.2 0.7-0.2-0.4-0.3-0.7c-0.2-0.4-0.5-0.5-0.8-0.4-0.4 0.1-0.5 0.5-0.4 0.8q0.5 1.2 0.9 2.3 0.2 0.5 0.6 0.5 0.4-0.1 0.6-0.5 0.1-0.3 0.2-0.7zm10-7.5q-9.9 0-19.7 0-0.1 0-0.3 0 0-0.1 0-0.2 0-1.2 0-2.4c0-0.8 0.6-1.4 1.4-1.5q0.1 0 0.2 0 8.4 0 16.8 0c0.5 0 0.9 0.1 1.3 0.5 0.1 0.2 0.2 0.5 0.3 0.7q0 1.5 0 2.9zm-14.3-2.1c0-0.3-0.3-0.6-0.6-0.6-0.4 0-0.7 0.3-0.7 0.6 0 0.4 0.3 0.7 0.6 0.7 0.4 0 0.7-0.3 0.7-0.7zm-2.6 0c0-0.3-0.2-0.6-0.6-0.6-0.3 0-0.6 0.3-0.6 0.6 0 0.4 0.3 0.6 0.6 0.7 0.3 0 0.6-0.3 0.6-0.7zm4.6-0.6c-0.3 0-0.6 0.3-0.6 0.6 0 0.4 0.3 0.7 0.6 0.7 0.4 0 0.7-0.3 0.7-0.7-0.1-0.3-0.3-0.6-0.7-0.6z"/>
</svg>