<svg version="1.2" xmlns="http://www.w3.org/2000/svg" viewBox="0 0 21 15" width="21" height="15">
	<title>Vector</title>
	<style>
		.s0 { fill: #e2001a } 
	</style>
	<path id="Vector" fill-rule="evenodd" class="s0" d="m19.2 15h-16.4c-1 0-1.8-0.8-1.8-1.8v-10.5c0-0.9 0.8-1.7 1.8-1.7h16.4c1 0 1.8 0.8 1.8 1.7v10.5c0 1-0.8 1.8-1.8 1.8zm0.3-12.4c-0.4-0.4-0.8-0.2-1.2 0.1l-7.3 5.9-7.3-5.9c-0.4-0.3-0.8-0.5-1.2-0.1-0.3 0.4-0.1 0.8 0.1 1l4.7 4.3-4.5 4.8c-0.2 0.1-0.3 0.4-0.1 0.6 0.1 0.2 0.5 0.1 0.7 0l5.1-4.3 2.5 2.3 2.5-2.3 5.1 4.3c0.2 0.1 0.6 0.2 0.7 0 0.2-0.2 0.1-0.5-0.1-0.6l-4.5-4.8 4.7-4.3c0.2-0.2 0.4-0.6 0.1-1z"/>
</svg>