<svg version="1.2" xmlns="http://www.w3.org/2000/svg" viewBox="0 0 21 26" width="21" height="26">
	<title>Vector</title>
	<style>
		.s0 { fill: #e2001a } 
	</style>
	<path id="Vector" fill-rule="evenodd" class="s0" d="m21 10.7c0 3.3-2 6-4.2 7.9-0.7 0.6-2 1.6-3.1 3-1.2 1.6-2.4 3.3-2.7 4.4-0.4-1.1-1.5-2.8-2.7-4.4-1.1-1.4-2.4-2.4-3.1-3-2.3-1.9-4.2-4.6-4.2-7.9 0-5.3 4.5-9.7 10-9.7 5.5 0 10 4.4 10 9.7zm-10-5.6c-1.5 0-3 0.6-4.1 1.7-1 1-1.6 2.4-1.6 3.9 0 1.5 0.6 2.9 1.6 4 1.1 1 2.6 1.6 4.1 1.6q1.1 0 2.2-0.4 1-0.5 1.9-1.2 0.8-0.8 1.2-1.8 0.4-1.1 0.4-2.2 0-1.1-0.4-2.1-0.4-1-1.2-1.8-0.9-0.8-1.9-1.2-1.1-0.5-2.2-0.5z"/>
</svg>