<svg width="66" height="76" viewBox="0 0 66 76" fill="none" xmlns="http://www.w3.org/2000/svg">
<path d="M39.53 26.9161C26.3077 26.9161 13.1636 26.9161 0 26.9161C0 40.3151 0 53.6746 0 67.0934C1.46697 67.0934 2.89482 67.0934 4.36179 67.0934C4.36179 67.7069 4.36179 68.2611 4.36179 68.7955C4.36179 73.1892 7.1197 75.9997 11.4424 75.9997C22.8652 75.9997 34.2684 75.9997 45.6912 75.9997C49.9748 75.9997 52.7523 73.1892 52.7523 68.8548C52.7523 68.2809 52.7523 67.6871 52.7523 67.0538C54.2779 67.0538 55.6862 67.0538 57.1532 67.0538C57.1532 66.7371 57.1532 66.46 57.1532 66.2027C57.1532 61.3142 57.1336 56.4058 57.1727 51.5173C57.1727 50.5475 57.4661 49.5579 57.6226 48.5881C57.7008 48.5881 57.7986 48.5881 57.8769 48.5683C58.9722 49.6766 60.0675 50.7454 61.1238 51.8735C61.3585 52.1308 61.5345 52.5464 61.5345 52.8829C61.5736 55.8517 61.5541 58.8204 61.5541 61.7892C61.5541 62.0465 61.5541 62.3236 61.5541 62.5809C63.0602 62.5809 64.488 62.5809 65.955 62.5809C65.955 59.1965 65.8768 55.8517 65.9941 52.5266C66.0528 51.0225 65.6812 49.9141 64.5271 48.9443C63.2558 47.8756 62.1604 46.6089 60.9673 45.4016C62.5712 44.4516 64.2924 44.7683 65.9159 44.6693C65.9159 43.1454 65.9159 41.7204 65.9159 40.2162C61.515 40.2162 57.1532 40.2162 52.7523 40.2162C52.7523 39.9787 52.7523 39.8401 52.7523 39.7016C52.7523 29.1922 52.7522 18.6828 52.7718 8.15355C52.7718 7.85667 52.9283 7.48063 53.1434 7.26292C54.2388 6.115 55.3732 4.98687 56.4099 3.9577C55.3341 2.86915 54.3366 1.85977 53.2608 0.791016C51.8525 2.23581 50.366 3.75978 48.8795 5.24416C48.5078 5.6202 48.3513 5.99625 48.3513 6.53062C48.3709 17.4557 48.3709 28.4005 48.3709 39.3256C48.3709 39.6224 48.3709 39.8995 48.3709 40.2756C46.8648 40.2756 45.437 40.2756 44.0091 40.2756C44.0091 49.261 44.0091 58.1475 44.0091 67.133C45.4761 67.133 46.9039 67.133 48.3709 67.133C48.3709 67.7465 48.3709 68.3007 48.3709 68.835C48.3709 70.7746 47.569 71.5861 45.6521 71.5861C34.2684 71.5861 22.8652 71.5861 11.4815 71.5861C11.2859 71.5861 11.0903 71.5861 10.8947 71.5861C9.85804 71.5267 8.9583 70.834 8.84094 69.8048C8.72359 68.934 8.82138 68.0434 8.82138 67.1132C19.0902 67.1132 29.3003 67.1132 39.5495 67.1132C39.53 53.6746 39.53 40.3151 39.53 26.9161ZM4.38135 22.364C10.2688 22.364 16.078 22.364 21.8872 22.364C21.8872 20.8796 21.8872 19.4348 21.8872 17.99C16.0193 17.99 10.2101 17.99 4.38135 17.99C4.38135 19.4546 4.38135 20.8796 4.38135 22.364Z" fill="#999587"/>
<path d="M39.569 0C39.569 1.46459 39.569 2.90939 39.569 4.45314C36.6155 4.45314 33.7207 4.45314 30.7867 4.45314C30.7867 10.4698 30.7867 16.3876 30.7867 22.3647C29.3002 22.3647 27.8919 22.3647 26.3858 22.3647C26.3858 16.4272 26.3858 10.4698 26.3858 4.47294C23.4323 4.47294 20.557 4.47294 17.584 4.47294C17.584 2.94897 17.584 1.48438 17.584 0C24.8993 0 32.2341 0 39.569 0Z" fill="#999587"/>
<path d="M4.38086 22.3652C4.38086 20.8808 4.38086 19.4558 4.38086 17.9912C10.2292 17.9912 16.0188 17.9912 21.8867 17.9912C21.8867 19.4162 21.8867 20.861 21.8867 22.3652C16.0971 22.3652 10.2683 22.3652 4.38086 22.3652Z" fill="#999587"/>
</svg>
