<svg width="80" height="80" viewBox="0 0 80 80" fill="none" xmlns="http://www.w3.org/2000/svg">
<path d="M80 42.4943C79.7918 43.9531 79.6668 45.4328 79.3961 46.8917C77.147 58.9376 70.7331 68.1493 60.2584 74.4849C53.8445 78.3612 46.8266 80.1744 39.3506 79.9868C27.7097 79.695 17.9431 75.1934 10.1547 66.5654C4.38633 60.1673 1.13771 52.5812 0.221431 44.0157C-1.92349 23.9252 11.7374 5.12682 31.5206 0.916992C33.2699 0.541858 35.0608 0.375135 36.8309 0.125046C37.0599 0.0833643 37.289 0.0416815 37.5181 0C39.184 0 40.85 0 42.5159 0C43.8487 0.166726 45.2023 0.312611 46.5142 0.521019C54.8232 1.93819 62.0285 5.58532 68.0259 11.5249C74.0858 17.5062 77.8967 24.7171 79.3753 33.116C79.6252 34.5748 79.7918 36.0337 80 37.5134C80 39.1598 80 40.827 80 42.4943ZM2.84532 41.2647C3.01191 42.5777 3.15768 45.1202 3.67829 47.6211C9.23843 74.2348 40.6417 86.0098 62.3408 69.6498C64.2983 68.1701 64.4233 66.4195 62.674 64.6689C60.4666 62.4597 58.2592 60.2506 56.0519 58.0415C42.4951 44.4742 28.9384 30.9068 15.3817 17.3187C13.6324 15.568 11.8623 15.6722 10.3838 17.6313C5.42755 24.2795 2.97026 31.7613 2.84532 41.2647ZM39.9962 2.83434C32.1662 2.75098 23.5032 5.71037 17.3392 10.6496C16.9643 10.9414 16.6519 11.3791 16.4437 11.7959C15.9023 12.9421 16.2355 14.1092 17.2975 15.1721C28.5635 26.4469 39.8296 37.7218 51.0956 48.9966C55.7187 53.6233 60.3209 58.2499 64.9647 62.8557C66.3808 64.2729 68.2758 64.1687 69.442 62.6265C76.3349 53.3732 78.7922 43.057 76.2099 31.803C72.2533 14.7969 57.4263 3.04275 39.9962 2.83434Z" fill="#999587"/>
<path d="M2.84473 41.2638C2.96967 31.7396 5.40614 24.2577 10.3832 17.6304C11.8617 15.6713 13.611 15.5463 15.3811 17.3178C28.9378 30.8851 42.4945 44.4524 56.0513 58.0197C58.2587 60.2289 60.466 62.438 62.6734 64.6471C64.4227 66.3977 64.3186 68.1484 62.3403 69.6281C40.6412 85.988 9.23784 74.213 3.67771 47.5994C3.17792 45.1402 3.01132 42.5767 2.84473 41.2638ZM24.9187 30.9476C24.8354 30.9476 24.7313 30.9476 24.648 30.9476C24.523 31.6979 24.3148 32.4481 24.3148 33.1984C24.2939 39.2005 24.2315 45.2235 24.3148 51.2257C24.3981 57.4571 27.2094 62.1671 32.6237 65.2723C33.1027 65.5433 33.3734 65.4807 33.7691 65.1264C36.8927 62.1879 38.4962 58.5824 38.5795 54.3309C38.642 51.2882 38.6003 48.2454 38.5795 45.2027C38.5795 44.8484 38.3713 44.4107 38.1214 44.1398C33.894 39.8675 29.6458 35.6368 25.3768 31.3853C25.231 31.2185 25.0853 31.0935 24.9187 30.9476ZM21.441 41.493C21.441 39.6382 21.3993 37.8876 21.4618 36.1578C21.4826 35.4492 21.3577 35.0116 20.6497 34.6989C20.0457 34.4489 19.4835 34.0112 18.942 33.6361C16.7138 32.073 15.027 30.0306 13.5485 27.7381C12.5698 26.1959 11.3828 24.7787 10.2582 23.2365C6.9888 28.6343 5.05212 36.2828 6.01005 44.1606C6.71808 49.9127 8.75888 55.1437 12.2157 59.9371C12.8196 59.0618 13.3611 58.2907 13.8609 57.4987C15.6518 54.6227 18.0049 52.3719 20.9828 50.788C21.1703 50.6838 21.4202 50.4962 21.4202 50.3295C21.441 48.3496 21.441 46.3906 21.441 44.1398C19.9416 44.6191 18.588 45.036 17.2553 45.4945C16.2557 45.8488 15.2978 46.3698 14.2774 46.599C12.9238 46.8908 11.5077 47.0367 10.1125 47.1409C9.23784 47.2034 8.65475 46.5573 8.63393 45.7654C8.6131 44.9526 9.13372 44.3899 10.0292 44.3065C10.2374 44.2857 10.4457 44.3274 10.6539 44.2857C12.0491 44.0148 13.5069 43.9106 14.8188 43.4104C16.9429 42.5768 19.0045 41.5972 21.441 41.493ZM21.5451 53.8308C19.067 55.1229 15.6101 59.0826 14.1108 62.2921C26.7096 77.1724 48.2837 77.5475 60.8825 67.0855C59.0916 65.2932 57.3007 63.5009 55.5515 61.7294C50.8035 68.1275 44.4729 71.1911 36.5179 69.5864C28.0215 67.8983 23.2319 62.2713 21.5451 53.8308ZM53.3649 59.6453C49.3458 55.6022 45.41 51.6633 41.4533 47.6827C41.4533 47.7244 41.4325 47.8286 41.4325 47.912C41.4325 50.2253 41.3492 52.5595 41.4533 54.8728C41.6407 58.9367 43.265 62.3546 46.2638 65.1264C46.5553 65.3974 46.7844 65.6058 47.2633 65.3557C49.8664 63.9594 51.9072 62.042 53.3649 59.6453ZM22.5655 28.8218C19.3377 25.5915 16.1099 22.3612 12.8613 19.0892C12.4865 19.6102 12.0908 20.1938 11.8201 20.5689C13.5277 22.9448 15.1312 25.133 16.693 27.363C17.9841 29.197 19.5251 30.7184 21.4202 31.8438C21.8366 30.8017 22.2115 29.7805 22.5655 28.8218ZM36.4971 66.7103C38.8294 67.2939 41.2242 67.2939 43.5566 66.7103C42.3488 64.9597 41.1409 63.2299 40.0372 61.6044C38.8919 63.2299 37.7049 64.9389 36.4971 66.7103Z" fill="white"/>
<path d="M39.9952 2.8337C57.4253 3.04211 72.2731 14.8171 76.1673 31.8232C78.7495 43.098 76.3131 53.3934 69.3994 62.6467C68.254 64.1889 66.3382 64.2722 64.9221 62.8759C60.2991 58.2701 55.676 53.6226 51.053 49.0168C39.8078 37.7211 28.5417 26.4463 17.2757 15.1714C16.2136 14.1085 15.8805 12.9206 16.4219 11.7952C16.6301 11.3576 16.9425 10.9408 17.3173 10.649C23.5022 5.70972 32.1652 2.7295 39.9952 2.8337ZM19.1915 12.8164C22.2944 15.9425 25.4181 19.0478 28.396 22.028C29.3122 21.0902 30.291 20.1107 31.2489 19.0895C31.4155 18.9228 31.5405 18.6727 31.5821 18.4434C31.8737 17.0471 32.3734 15.7133 33.3314 14.6504C34.1435 13.7543 35.1015 13.004 36.0802 12.1078C35.7887 11.8577 35.4138 11.5034 35.0182 11.1908C34.3101 10.6281 34.1435 9.79451 34.6017 9.1276C35.0598 8.48154 35.8928 8.29398 36.6008 8.83583C37.3713 9.46106 38.0169 10.253 38.7666 10.9408C38.9748 11.1492 39.2663 11.295 39.5579 11.3576C39.8494 11.4201 40.1826 11.3367 40.495 11.3784C40.9115 11.4409 41.0989 11.2325 41.3696 10.9408C42.0152 10.1905 42.7232 9.44022 43.5145 8.81499C44.2017 8.27313 45.0556 8.48154 45.5137 9.1276C45.9927 9.79451 45.8052 10.6281 45.0972 11.17C44.7015 11.4826 44.3267 11.8369 43.931 12.1704C44.056 12.2954 44.0976 12.3788 44.1601 12.4204C46.5341 13.7334 47.9293 15.7758 48.4916 18.4226C48.5541 18.6935 48.7831 18.9644 48.9914 19.1312C50.9697 20.6942 52.24 22.6949 52.719 25.175C52.8231 25.6752 53.0313 25.8419 53.4895 25.9878C55.1554 26.4671 56.509 27.4049 57.4045 28.9055C57.9459 29.8016 58.2791 30.802 58.7164 31.8023C58.883 31.6981 59.1329 31.5731 59.362 31.4064C61.257 30.1142 62.6939 28.3845 63.985 26.488C65.2345 24.6748 66.6505 22.9659 68.0041 21.2152C68.1291 21.0485 68.254 20.9026 68.379 20.7567C57.5086 4.70937 35.0182 0.582898 19.1915 12.8164ZM58.6331 44.3693C58.6123 44.5569 58.5915 44.6819 58.5915 44.807C58.5706 47.2245 58.5498 49.642 58.5915 52.0804C58.5915 52.3722 58.7997 52.7056 59.0288 52.914C61.5277 55.4358 64.0266 57.9366 66.5256 60.4375C66.713 60.6251 66.9004 60.7918 67.0878 60.9586C76.084 49.5795 76.209 33.9698 69.8367 23.3202C69.6493 23.5494 69.5035 23.7578 69.3577 23.9662C68.3581 25.3209 67.2544 26.613 66.359 28.051C64.5056 30.9687 62.1524 33.3237 59.0912 34.9701C58.8622 35.0952 58.6539 35.4703 58.6331 35.7412C58.5915 37.4502 58.6123 39.18 58.6123 40.8889C58.6123 41.0765 58.6539 41.2849 58.6748 41.4725C59.4036 41.5975 60.07 41.6183 60.7156 41.8267C61.9234 42.2019 63.152 42.577 64.2974 43.098C65.9841 43.8275 67.7126 44.286 69.566 44.3276C70.0449 44.3485 70.6905 44.4735 70.982 44.7861C71.2736 45.1196 71.3985 45.7865 71.2944 46.2658C71.1694 46.9536 70.5239 47.2037 69.8367 47.2037C67.3794 47.2037 65.047 46.6618 62.8396 45.5781C61.5277 44.8695 60.1325 44.4735 58.6331 44.3693ZM41.4321 28.572C41.4321 30.8228 41.4113 32.9486 41.4529 35.0743C41.4529 35.3036 41.682 35.5745 41.8694 35.7621C46.2842 40.1803 50.699 44.5986 55.1138 49.0168C55.2595 49.1627 55.447 49.2877 55.6552 49.4753C55.6969 49.3086 55.7177 49.2252 55.7177 49.1627C55.7177 43.7441 55.7177 38.3255 55.7177 32.9069C55.7177 32.7193 55.6969 32.5526 55.676 32.365C55.4053 30.1976 53.6977 28.6137 51.5111 28.572C50.6573 28.5512 49.8035 28.572 48.9289 28.572C46.4716 28.572 44.0143 28.572 41.4321 28.572ZM49.8243 25.7168C49.2829 22.8617 47.0339 20.4441 44.2434 20.194C41.4737 19.944 38.6208 19.9648 35.8511 20.194C33.5604 20.3816 31.9361 21.8613 30.8533 23.9037C30.7491 24.1121 30.645 24.4872 30.7283 24.6123C31.2489 25.1541 31.6446 25.7794 32.6025 25.7794C38.0585 25.7168 43.5354 25.7585 48.9914 25.7585C49.2413 25.7168 49.512 25.7168 49.8243 25.7168ZM44.9514 17.2347C44.0352 15.3173 41.9111 14.1085 39.7037 14.2753C37.6004 14.442 35.5804 15.755 35.1431 17.2347C38.3917 17.2347 41.6403 17.2347 44.9514 17.2347ZM34.9765 28.5929C36.1635 29.7808 37.3921 31.0104 38.5375 32.1566C38.5375 31.0729 38.5375 29.8433 38.5375 28.5929C37.288 28.5929 36.101 28.5929 34.9765 28.5929Z" fill="white"/>
<path d="M24.9214 30.9496C25.0672 31.0954 25.2338 31.2205 25.3795 31.3664C29.6277 35.6179 33.8759 39.8694 38.1241 44.1209C38.374 44.371 38.5823 44.8295 38.5823 45.1838C38.6239 48.2265 38.6447 51.2693 38.5823 54.312C38.499 58.5844 36.8955 62.1898 33.7718 65.1075C33.3761 65.4618 33.1054 65.5244 32.6265 65.2534C27.1913 62.1482 24.4008 57.459 24.3175 51.2068C24.2342 45.2046 24.2967 39.1816 24.3175 33.1795C24.3175 32.4292 24.5466 31.679 24.6507 30.9287C24.7548 30.9496 24.8381 30.9496 24.9214 30.9496Z" fill="#999587"/>
<path d="M21.4422 41.4932C19.0058 41.5974 16.9441 42.5769 14.7992 43.3897C13.4873 43.8898 12.0296 43.9941 10.6343 44.265C10.4261 44.3067 10.2178 44.265 10.0096 44.2858C9.11414 44.39 8.59353 44.9527 8.61436 45.7447C8.63518 46.5366 9.21826 47.1827 10.0929 47.1202C11.4881 47.0368 12.8834 46.8909 14.2578 46.5783C15.2782 46.3491 16.2361 45.828 17.2357 45.4737C18.5685 45.0152 19.922 44.5984 21.4214 44.1191C21.4214 46.3491 21.4214 48.3289 21.4006 50.3088C21.4006 50.4755 21.1507 50.6631 20.9633 50.7673C17.9645 52.3512 15.6114 54.6228 13.8413 57.478C13.3415 58.27 12.8001 59.0202 12.1962 59.9164C8.7393 55.123 6.67768 49.892 5.99047 44.1399C5.03255 36.2621 6.96922 28.6344 10.2387 23.2158C11.384 24.758 12.5502 26.1752 13.5289 27.7174C14.9866 30.0099 16.6734 32.0523 18.9225 33.6154C19.4847 34.0113 20.0262 34.4281 20.6301 34.6782C21.3381 34.97 21.4631 35.4285 21.4422 36.1371C21.4214 37.8877 21.4422 39.6383 21.4422 41.4932Z" fill="#999587"/>
<path d="M21.5476 53.8311C23.2344 62.2716 28.024 67.8986 36.5204 69.6075C44.4754 71.1914 50.8268 68.1487 55.554 61.7505C57.3032 63.522 59.0941 65.3143 60.8851 67.1066C48.3071 77.5478 26.7121 77.1935 14.1133 62.3132C15.5918 59.0621 19.0487 55.1232 21.5476 53.8311Z" fill="#999587"/>
<path d="M53.366 59.6452C51.9083 62.0419 49.8675 63.9592 47.2853 65.3556C46.8063 65.6057 46.5772 65.3972 46.2857 65.1263C43.2869 62.3545 41.6626 58.9366 41.4752 54.8727C41.3711 52.5594 41.4544 50.246 41.4544 47.9119C41.4544 47.8285 41.4752 47.7243 41.4752 47.6826C45.411 51.6632 49.3469 55.6021 53.366 59.6452Z" fill="#999587"/>
<path d="M22.5677 28.8234C22.1929 29.7821 21.818 30.7825 21.4224 31.8454C19.5273 30.72 17.9863 29.1777 16.6952 27.3646C15.1334 25.1346 13.5299 22.9255 11.8223 20.5705C12.0722 20.1954 12.4886 19.6327 12.8635 19.0908C16.1329 22.3628 19.3607 25.5931 22.5677 28.8234Z" fill="#999587"/>
<path d="M36.498 66.7115C37.7267 64.94 38.9137 63.231 40.0174 61.6055C41.1419 63.231 42.3289 64.9608 43.5367 66.7115C41.2252 67.295 38.8096 67.295 36.498 66.7115Z" fill="#999587"/>
<path d="M19.1934 12.8171C35.02 0.583542 57.5104 4.71001 68.2975 20.7991C68.1725 20.945 68.0476 21.0908 67.9226 21.2576C66.569 23.0082 65.153 24.6963 63.9035 26.5303C62.6124 28.4268 61.1963 30.1566 59.2805 31.4487C59.0514 31.6154 58.8015 31.7405 58.6349 31.8447C58.1976 30.8443 57.8644 29.844 57.323 28.9478C56.4275 27.4681 55.0739 26.5094 53.408 26.0301C52.9498 25.9051 52.7416 25.7175 52.6375 25.2173C52.1585 22.7373 50.8882 20.7366 48.9099 19.1735C48.6808 19.0068 48.4517 18.715 48.4101 18.4649C47.8478 15.8181 46.4734 13.7757 44.0786 12.4628C44.0161 12.4211 43.9745 12.3586 43.8495 12.2127C44.2452 11.8792 44.62 11.5249 45.0157 11.2123C45.7446 10.6496 45.9112 9.83684 45.4322 9.16993C44.9741 8.52387 44.1203 8.31546 43.4331 8.85732C42.6417 9.48255 41.9545 10.2328 41.2881 10.9831C41.0174 11.2957 40.83 11.4833 40.4135 11.4207C40.1011 11.3791 39.7679 11.4624 39.4764 11.3999C39.1849 11.3374 38.8933 11.1706 38.6851 10.9831C37.9562 10.2953 37.3107 9.50339 36.5193 8.87816C35.8321 8.31546 34.9783 8.52387 34.5202 9.16993C34.062 9.83684 34.2286 10.6705 34.9367 11.2332C35.3323 11.5458 35.7072 11.9001 35.9987 12.1502C35.02 13.0255 34.062 13.7966 33.2499 14.6927C32.292 15.7556 31.7922 17.0686 31.5006 18.4857C31.459 18.715 31.334 18.9651 31.1674 19.1318C30.2095 20.1322 29.2308 21.1325 28.3145 22.0704C25.3991 19.0276 22.2962 15.9223 19.1934 12.8171Z" fill="#999587"/>
<path d="M58.6352 44.3695C60.1346 44.4737 61.5298 44.8697 62.8209 45.5157C65.0283 46.5995 67.3607 47.1413 69.8179 47.1413C70.5052 47.1413 71.1299 46.8912 71.2757 46.2035C71.359 45.745 71.2548 45.0572 70.9633 44.7238C70.6718 44.4112 70.047 44.2861 69.5472 44.2653C67.6939 44.2236 65.9654 43.7651 64.2786 43.0357C63.1125 42.5355 61.9047 42.1395 60.6968 41.7644C60.0513 41.5768 59.3641 41.5352 58.656 41.4101C58.6352 41.2225 58.5936 41.0141 58.5936 40.8266C58.5936 39.1176 58.5727 37.3878 58.6144 35.6789C58.6144 35.408 58.8435 35.0328 59.0725 34.9078C62.1129 33.2614 64.4869 30.9064 66.3403 27.9887C67.2357 26.5715 68.3394 25.2585 69.339 23.9039C69.4848 23.6955 69.6514 23.4871 69.8179 23.2578C76.2111 33.9074 76.0653 49.5172 67.0691 60.8962C66.8817 60.7295 66.6943 60.5628 66.5069 60.3752C64.0079 57.8743 61.4882 55.3734 59.0101 52.8517C58.8018 52.6433 58.5727 52.289 58.5727 52.0181C58.5519 49.6005 58.5727 47.183 58.5727 44.7446C58.5936 44.6613 58.6144 44.5362 58.6352 44.3695Z" fill="#999587"/>
<path d="M41.4336 28.5727C44.0158 28.5727 46.4731 28.5727 48.9512 28.5727C49.805 28.5727 50.6588 28.5519 51.5335 28.5727C53.72 28.6144 55.4276 30.1983 55.6984 32.3658C55.7192 32.5533 55.74 32.72 55.74 32.9076C55.74 38.3262 55.74 43.7448 55.74 49.1634C55.74 49.2259 55.6984 49.3093 55.6775 49.476C55.4693 49.3093 55.3027 49.1842 55.1361 49.0175C50.7213 44.5993 46.3065 40.181 41.8917 35.7628C41.7043 35.5752 41.4752 35.3043 41.4752 35.0751C41.4336 32.9493 41.4336 30.8235 41.4336 28.5727Z" fill="#999587"/>
<path d="M49.8252 25.718C49.5128 25.718 49.2629 25.718 48.9922 25.718C43.5362 25.718 38.0594 25.6971 32.6033 25.7388C31.6454 25.7388 31.2289 25.1344 30.7291 24.5717C30.625 24.4675 30.7291 24.0715 30.8541 23.8631C31.937 21.8416 33.5613 20.341 35.852 20.1535C38.6424 19.9242 41.4746 19.9034 44.2442 20.1535C47.0347 20.4452 49.2837 22.8628 49.8252 25.718Z" fill="#999587"/>
<path d="M44.9538 17.2354C41.6636 17.2354 38.3941 17.2354 35.1455 17.2354C35.6036 15.7557 37.6028 14.4428 39.7061 14.2761C41.9135 14.1093 44.0376 15.3181 44.9538 17.2354Z" fill="#999587"/>
<path d="M34.9785 28.5938C36.0822 28.5938 37.29 28.5938 38.5395 28.5938C38.5395 29.8442 38.5395 31.053 38.5395 32.1575C37.3942 31.0113 36.1863 29.7817 34.9785 28.5938Z" fill="#999587"/>
</svg>
