<svg width="80" height="78" viewBox="0 0 80 78" fill="none" xmlns="http://www.w3.org/2000/svg">
<path d="M0.0229666 50.6307C0.0229666 59.1147 0.0229666 67.6215 0.0229666 76.1055C0.0229666 77.5651 0.459308 77.9984 1.90611 77.9984C7.99189 77.9984 14.0777 77.9984 20.1634 77.9984C21.6332 77.9984 22.0466 77.5651 22.0466 76.1055C22.0466 59.1147 22.0466 42.1239 22.0466 25.133C22.0466 23.6734 21.6102 23.2629 20.1405 23.2629C14.0777 23.2629 8.03781 23.2629 1.97501 23.2629C0.390409 23.2629 0 23.6506 0 25.2243C0.0229652 33.7083 0.0229666 42.1695 0.0229666 50.6307ZM68.9185 28.668C68.7118 28.7365 68.5511 28.7821 68.4133 28.8505C67.7473 29.147 67.4487 29.6715 67.5865 30.3785C67.7243 31.0627 68.2066 31.4504 68.9415 31.4732C69.8601 31.496 70.7787 31.496 71.6973 31.4732C72.4092 31.4504 72.8915 31.0399 73.0293 30.3557C73.1671 29.6487 72.8455 29.147 72.1796 28.8505C72.0188 28.7821 71.881 28.7365 71.7662 28.6908C71.7662 27.6646 71.7662 26.6839 71.7662 25.7032C72.4781 26.5014 73.1211 27.2312 73.7871 27.9838C74.0397 27.8698 73.879 28.0751 73.9019 28.2347C74.0168 28.7593 74.0627 29.375 74.3613 29.7399C74.7976 30.2417 75.4865 30.1961 75.9918 29.7399C76.7496 29.0558 77.4845 28.3259 78.1735 27.5733C78.5868 27.0944 78.6328 26.433 78.1964 26.0225C77.852 25.7032 77.163 25.3611 76.8185 25.4979C76.1066 25.7716 75.7851 25.4979 75.3717 25.0418C75.0272 24.6541 74.6368 24.3348 74.2924 23.9471C74.1775 23.8103 74.1316 23.5822 74.0168 23.3313C75.1421 23.3313 76.1066 23.3313 77.0941 23.3313C77.163 23.5138 77.2319 23.6962 77.3237 23.8559C77.6223 24.4717 78.1505 24.7453 78.8165 24.6085C79.4825 24.4716 79.8959 24.0383 79.9188 23.3541C79.9648 22.3963 79.9648 21.4156 79.9188 20.4577C79.8959 19.7735 79.4595 19.249 78.8165 19.249C78.3572 19.249 77.852 19.5683 77.4156 19.8419C77.2319 19.956 77.2089 20.2753 77.1171 20.4805C76.1066 20.4805 75.1191 20.4805 73.9249 20.4805C74.1546 20.1384 74.2464 19.9332 74.4072 19.7735C74.7976 19.363 75.2339 18.9753 75.6014 18.5648C75.8999 18.2227 76.1755 18.1086 76.6118 18.3367C77.186 18.6332 77.7601 18.4051 78.1505 17.9262C78.5639 17.4016 78.6098 16.7631 78.1735 16.2841C77.4615 15.5087 76.7037 14.7561 75.9229 14.0719C75.4406 13.6614 74.7517 13.6386 74.3613 14.1175C74.0397 14.4824 73.9938 15.0982 73.9019 15.6227C73.879 15.7824 74.0397 15.9876 74.1316 16.2157C73.3278 16.8315 72.8455 17.8122 71.7203 18.2455C71.7203 17.128 71.7203 16.1245 71.7203 15.1438C72.547 14.9385 73.0982 14.4824 73.0293 13.593C72.9604 12.886 72.5011 12.4298 71.7891 12.3842C70.7787 12.3386 69.7682 12.3386 68.7807 12.3842C68.1147 12.4298 67.6784 12.8632 67.5635 13.5245C67.4717 14.1403 67.7473 14.6421 68.3214 14.9385C68.5051 15.0298 68.7118 15.121 68.8266 15.1666C68.8266 16.2157 68.8266 17.1964 68.8266 18.1771C68.7577 18.2227 68.6659 18.2683 68.597 18.3139C67.9999 17.7209 67.3798 17.1508 66.8287 16.535C66.6679 16.3525 66.599 15.9876 66.6679 15.7596C66.8976 15.0298 66.7827 14.4368 66.1397 14.0263C65.4967 13.6158 64.8766 13.7754 64.3484 14.2772C63.7743 14.8245 63.2002 15.3947 62.649 15.9648C62.0289 16.6034 61.9141 17.3104 62.3734 17.8806C62.8787 18.4964 63.4987 18.6104 64.2106 18.2227C64.3025 18.1771 64.4173 18.1543 64.5322 18.1315C65.1752 18.9069 66.0938 19.4314 66.599 20.4805C65.4508 20.4805 64.4633 20.4805 63.4528 20.4805C63.3839 20.2981 63.315 20.1156 63.2231 19.9332C62.9246 19.363 62.4423 19.0893 61.7993 19.1806C61.1333 19.2946 60.674 19.7051 60.651 20.3893C60.6051 21.3928 60.6051 22.3735 60.651 23.3769C60.674 24.0611 61.1333 24.5857 61.7763 24.5629C62.2586 24.5401 62.7638 24.1524 63.2002 23.8787C63.3609 23.7875 63.3839 23.491 63.4528 23.3541C64.4862 23.3541 65.4737 23.3541 66.4383 23.3541C65.6574 24.0611 64.9226 24.7225 64.1877 25.3839C64.2795 25.612 64.0958 25.5436 63.9121 25.4751C63.292 25.2471 62.7638 25.4295 62.3734 25.9313C61.9601 26.4558 61.9371 27.0944 62.3964 27.5733C63.0853 28.3259 63.8202 29.0558 64.5781 29.7399C65.0603 30.1505 65.7263 30.1961 66.1397 29.7628C66.4612 29.4207 66.7827 28.7365 66.6679 28.3944C66.3923 27.6874 66.6909 27.3681 67.1272 26.9576C67.4947 26.6383 67.8162 26.2734 68.1607 25.9313C68.2984 25.8172 68.5051 25.7716 68.6659 25.6804C68.7348 25.84 68.8726 26.0225 68.8726 26.1821C68.9185 27.0032 68.9185 27.8242 68.9185 28.668ZM48.6862 51.3377C49.0536 51.8166 49.2603 52.3184 49.6278 52.5008C49.9952 52.6833 50.5693 52.6148 50.9827 52.478C51.3042 52.3868 51.5568 52.0219 51.8094 51.7482C52.1539 51.3605 52.4525 51.2693 52.9807 51.4745C53.5778 51.7254 53.8763 51.9991 53.7615 52.6376C53.7156 52.9113 53.7156 53.2078 53.7615 53.4815C53.8763 54.2113 54.3356 54.6674 55.0935 54.6902C55.8513 54.713 56.3106 54.2569 56.4714 53.5271C56.5173 53.2762 56.5173 53.0025 56.4943 52.7517C56.4254 52.0903 56.5862 51.7026 57.3211 51.4289C58.01 51.1552 58.2397 51.5429 58.6071 51.885C58.7909 52.0675 58.9516 52.2727 59.1813 52.4096C59.7784 52.8201 60.3754 52.8201 60.9036 52.3412C61.4778 51.8166 61.5237 51.2008 61.1103 50.5623C60.8807 50.2202 60.4903 49.9693 60.2606 49.6044C60.1228 49.3991 60.0769 49.057 60.0999 48.8062C60.2147 48.0307 60.674 47.6886 61.4778 47.8483C61.7304 47.8939 62.006 47.8711 62.2586 47.8255C62.9476 47.6658 63.3839 47.2325 63.4069 46.5255C63.4298 45.7729 62.9935 45.294 62.2586 45.1571C62.006 45.1115 61.7304 45.1115 61.4778 45.1343C60.8118 45.2027 60.4214 45.0431 60.1228 44.3361C59.8473 43.6519 60.2147 43.4238 60.5592 43.0589C60.7429 42.8765 60.9266 42.694 61.0644 42.4888C61.4548 41.873 61.3859 41.28 60.8807 40.7783C60.3755 40.2765 59.7554 40.2081 59.1583 40.6186C58.8368 40.8467 58.5842 41.1888 58.2627 41.4169C58.0789 41.5537 57.7574 41.6221 57.5507 41.5765C56.747 41.4169 56.3106 40.9835 56.5173 40.0941C56.5632 39.9116 56.5403 39.6836 56.5173 39.5011C56.3795 38.7713 55.9432 38.338 55.1853 38.2924C54.4734 38.2468 53.8763 38.7941 53.8074 39.5467C53.7615 39.9344 53.8074 40.345 53.7844 40.7327C53.7615 40.9151 53.7155 41.1432 53.6007 41.2344C52.9347 41.7818 52.3606 41.7362 51.6946 41.0976C51.6028 41.0063 51.4879 40.8923 51.3961 40.8011C50.7301 40.2081 49.9493 40.2081 49.3981 40.7783C48.8699 41.3256 48.8699 42.0554 49.4211 42.694C49.5818 42.8765 49.7655 43.0817 49.9722 43.2414C50.3397 43.5379 50.3397 43.8115 50.2019 44.2677C49.9722 44.9519 49.6048 45.2255 48.8929 45.1115C48.6402 45.0659 48.3647 45.0887 48.1121 45.1343C47.3772 45.2712 46.9179 45.7273 46.9179 46.4799C46.9179 47.2325 47.3542 47.6886 48.0891 47.8255C48.3876 47.8711 48.7321 47.8939 49.0307 47.8483C49.7426 47.7114 49.9033 48.1904 50.1789 48.6921C50.4775 49.2623 50.1789 49.4903 49.8574 49.8552C49.444 50.2886 49.1225 50.7675 48.6862 51.3377ZM71.3758 46.0922C71.4676 46.1378 71.5825 46.1834 71.6743 46.229C71.6743 46.708 71.6743 47.1641 71.6743 47.643C71.6973 48.6465 72.2255 49.2623 73.0752 49.2395C73.9019 49.2167 74.4072 48.6237 74.4301 47.5974C74.4301 47.1413 74.4301 46.6623 74.4301 46.2062C74.522 46.1606 74.6368 46.115 74.7287 46.0694C75.1421 46.4571 75.5554 46.8676 75.9688 47.2325C76.474 47.6886 77.0941 47.8483 77.5993 47.415C77.9668 47.1185 78.2653 46.5255 78.2424 46.0694C78.2424 45.6589 77.7831 45.2711 77.5075 44.8834C77.2778 44.5641 77.0022 44.2905 76.7496 43.994C76.7956 43.9028 76.8644 43.8343 76.9104 43.7431C77.3926 43.7431 77.852 43.7431 78.3342 43.7431C79.3217 43.7203 79.9418 43.173 79.9418 42.3519C79.9188 41.5537 79.3217 41.0291 78.3802 41.0063C77.8749 41.0063 77.3927 41.0063 76.8874 41.0063C76.8415 40.9151 76.7956 40.8011 76.7496 40.7099C77.14 40.2993 77.5534 39.8888 77.9209 39.4783C78.3572 38.9766 78.5409 38.3608 78.1046 37.859C77.806 37.4941 77.2089 37.1977 76.7496 37.2205C76.3592 37.2205 75.9459 37.6766 75.5554 37.9503C75.2339 38.1783 74.9583 38.452 74.6598 38.7029C74.5679 38.6573 74.499 38.6117 74.4072 38.5432C74.4072 38.2468 74.4072 37.9503 74.4072 37.631C74.4072 36.1714 73.9708 35.51 73.0063 35.5328C72.0647 35.5556 71.6514 36.1714 71.6514 37.6082C71.6514 37.9275 71.6284 38.2468 71.6054 38.5889C71.5136 38.6345 71.4447 38.6801 71.3528 38.7257C70.9394 38.338 70.5261 37.9275 70.1127 37.5626C69.6534 37.1292 69.0563 36.9468 68.5511 37.3117C68.1836 37.5854 67.8162 38.1099 67.7932 38.5204C67.7702 38.9081 68.1607 39.3643 68.4362 39.752C68.6889 40.1169 69.0333 40.4134 69.3319 40.7327C69.2859 40.8239 69.217 40.9151 69.1711 41.0063C68.6659 41.0063 68.1606 40.9835 67.6554 41.0063C66.7138 41.0291 66.1167 41.5765 66.1167 42.3747C66.1167 43.173 66.7138 43.6975 67.6784 43.7203C68.1836 43.7431 68.6659 43.7203 69.1711 43.7203C69.217 43.8115 69.263 43.9256 69.3319 44.0168C69.0104 44.3589 68.6659 44.701 68.3444 45.0659C67.6325 45.8185 67.5406 46.5711 68.1377 47.1869C68.7348 47.8027 69.5615 47.7342 70.3423 47.0044C70.6868 46.7308 71.0313 46.4115 71.3758 46.0922ZM16.5579 20.5033C16.5579 19.0893 16.5809 17.7437 16.5579 16.421C16.5349 15.5999 16.0067 15.0754 15.18 15.0754C12.4242 15.0526 9.66834 15.0526 6.93549 15.0754C6.17764 15.0754 5.62647 15.5087 5.58054 16.2385C5.51165 17.6525 5.55758 19.0665 5.55758 20.5033C9.232 20.5033 12.8375 20.5033 16.5579 20.5033ZM8.35932 1.41432C8.35932 5.08616 8.35932 8.68958 8.35932 12.2474C10.2195 12.2474 11.9878 12.2474 13.7561 12.2474C13.7561 8.59835 13.7561 5.01774 13.7561 1.41432C11.9419 1.41432 10.1736 1.41432 8.35932 1.41432ZM64.7618 5.47386C66.2545 5.47386 67.5176 4.26512 67.5406 2.7827C67.5636 1.30028 66.3464 0.0459247 64.8537 0.000311721C63.315 -0.0224947 62.0289 1.20905 62.0519 2.73709C62.0289 4.21951 63.2691 5.45106 64.7618 5.47386ZM55.1624 32.8416C56.6551 32.8416 57.8952 31.6101 57.8952 30.1048C57.8952 28.6224 56.6781 27.3681 55.1624 27.3681C53.6237 27.3453 52.3606 28.5996 52.3836 30.1277C52.4065 31.6101 53.6467 32.8416 55.1624 32.8416ZM70.2964 58.8182C70.2734 57.3358 69.0333 56.1042 67.5406 56.127C66.0019 56.127 64.7618 57.4042 64.8077 58.9322C64.8537 60.4147 66.1167 61.6234 67.6095 61.6006C69.0793 61.555 70.3194 60.3006 70.2964 58.8182ZM30.1073 20.2068C29.9007 20.3665 29.3495 20.5946 29.1887 20.9823C29.028 21.37 29.0969 22.0086 29.3036 22.3735C29.5792 22.8752 30.0614 23.3313 30.5667 23.6278C30.9571 23.8331 31.6001 23.9243 31.9675 23.7418C32.335 23.5594 32.6565 22.9892 32.7024 22.5559C32.7943 21.7349 31.1867 20.2296 30.1073 20.2068ZM47.3312 37.3573C47.3542 36.2398 45.7926 34.6433 44.9428 34.7574C44.5295 34.8258 44.0013 35.1223 43.8176 35.4872C43.6338 35.8293 43.6568 36.4679 43.8635 36.8099C44.185 37.3573 44.6902 37.859 45.2414 38.1783C45.5859 38.3836 46.2059 38.4064 46.5963 38.224C46.9868 38.0415 47.1705 37.5398 47.3312 37.3573ZM21.3806 4.10548C21.5873 4.10548 21.794 4.10548 21.9777 4.10548C22.8504 4.05986 23.4474 3.51251 23.4474 2.7599C23.4474 1.98448 22.8733 1.43712 22.0006 1.39151C21.6791 1.3687 21.3806 1.39151 21.0591 1.39151C19.9567 1.39151 19.3367 1.89325 19.3367 2.7599C19.3367 3.60373 19.9567 4.12828 21.0361 4.12828C21.1509 4.10548 21.2658 4.10548 21.3806 4.10548ZM28.2701 4.10548C28.4768 4.10548 28.6835 4.10548 28.8672 4.10548C29.7399 4.05986 30.337 3.51251 30.337 2.73709C30.337 1.96167 29.7629 1.41431 28.8902 1.3687C28.6146 1.34589 28.3161 1.3687 28.0405 1.3687C26.8693 1.3687 26.2492 1.84764 26.2492 2.73709C26.2492 3.60373 26.8922 4.10548 28.0405 4.10548C28.0864 4.10548 28.1783 4.10548 28.2701 4.10548ZM35.2286 1.3687C34.976 1.3687 34.7004 1.34589 34.4478 1.3687C33.644 1.43712 33.0928 2.00728 33.0928 2.7599C33.1158 3.4669 33.644 4.03706 34.4018 4.08267C34.8841 4.12828 35.3893 4.12828 35.8716 4.08267C36.6754 4.03706 37.2266 3.44409 37.2266 2.69147C37.2036 1.98447 36.6754 1.43712 35.9175 1.3687C35.6879 1.34589 35.4582 1.3687 35.2286 1.3687ZM42.0033 4.08267C42.0033 4.10547 42.0033 4.10547 42.0033 4.08267C42.21 4.08267 42.4167 4.10547 42.6004 4.08267C43.519 4.03706 44.1391 3.4897 44.1161 2.69147C44.0931 1.91605 43.519 1.39151 42.6234 1.3687C42.1641 1.34589 41.7048 1.34589 41.2455 1.39151C40.4876 1.45993 39.9594 2.0757 40.0053 2.7827C40.0513 3.53532 40.4876 3.99144 41.2225 4.10548C41.4751 4.12828 41.7277 4.08267 42.0033 4.08267ZM49.0077 1.3687C48.7551 1.3687 48.4795 1.34589 48.2269 1.3687C47.4231 1.43712 46.8719 2.00728 46.8719 2.7599C46.8949 3.4669 47.4231 4.03706 48.1809 4.08267C48.6632 4.12828 49.1684 4.12828 49.6507 4.08267C50.4545 4.03706 51.0057 3.44409 51.0057 2.69147C50.9827 1.98447 50.4545 1.43712 49.6966 1.3687C49.467 1.34589 49.2373 1.3687 49.0077 1.3687ZM55.8972 1.3687C55.6446 1.3687 55.3691 1.34589 55.1164 1.3687C54.3127 1.43712 53.7615 2.00728 53.7615 2.7599C53.7844 3.4669 54.3126 4.03706 55.0705 4.08267C55.5528 4.12828 56.058 4.12828 56.5403 4.08267C57.344 4.03706 57.8952 3.44409 57.8952 2.69147C57.8722 1.98447 57.344 1.43712 56.5862 1.3687C56.3565 1.34589 56.1269 1.3687 55.8972 1.3687ZM33.8047 9.23693C32.8402 9.19132 32.312 9.53341 32.1283 10.2632C31.9446 10.993 32.289 11.5632 33.001 11.8141C33.5292 12.0193 34.1033 12.179 34.6545 12.2702C35.3664 12.3842 35.8716 12.0193 36.1242 11.3579C36.3768 10.7193 36.0783 9.98955 35.4123 9.71587C34.8382 9.4878 34.2181 9.35096 33.8047 9.23693ZM25.4684 15.3947C24.4349 15.3947 23.723 16.5122 24.2972 17.3788C24.6876 17.949 25.2158 18.4735 25.7899 18.8841C26.6396 19.477 27.7879 18.8156 27.8338 17.7894C27.8568 16.8771 26.364 15.3947 25.4684 15.3947ZM56.1499 16.6262C56.2188 15.5543 55.7595 15.0754 54.726 14.8017C53.3022 14.3912 52.5673 14.4824 52.3147 15.2578C52.1539 15.6912 52.2458 16.3297 52.4754 16.7403C52.751 17.2876 54.7031 17.8122 55.2313 17.5157C55.6446 17.2648 55.9432 16.8315 56.1499 16.6262ZM41.1766 14.0491C42.1411 14.0719 42.6234 13.7298 42.8071 13.0228C42.9908 12.3158 42.6923 11.7684 42.0492 11.472C41.4981 11.2439 40.901 11.0843 40.3269 10.993C39.6149 10.9018 39.0867 11.2439 38.8801 11.9281C38.6504 12.6123 38.88 13.2053 39.5231 13.5017C40.0972 13.7982 40.7632 13.9123 41.1766 14.0491ZM37.571 27.3909C37.594 26.5014 36.0783 25.0418 35.1827 25.0646C34.1722 25.1102 33.5062 26.2049 34.0574 27.026C34.4478 27.6189 35.0219 28.1663 35.619 28.554C36.4687 29.1014 37.5481 28.3944 37.571 27.3909ZM29.6021 9.07728C29.4643 8.8036 29.3725 8.30187 29.1198 8.21064C28.2701 7.89135 27.3515 7.59487 26.4559 7.54925C26.1573 7.52645 25.6521 8.21064 25.5143 8.64396C25.3076 9.35096 25.7899 9.87551 26.6626 10.1492C28.2931 10.6509 28.9591 10.5825 29.3495 9.80709C29.4643 9.62464 29.5103 9.39657 29.6021 9.07728ZM22.9652 13.2053C22.9652 12.0421 21.5184 10.5369 20.6457 10.6281C20.2323 10.6737 19.6582 10.9702 19.4974 11.3123C19.3137 11.7 19.3596 12.3386 19.5663 12.7263C19.8419 13.2281 20.3242 13.707 20.8294 13.9807C21.2198 14.1859 21.8399 14.2315 22.2533 14.0719C22.6207 13.8895 22.8274 13.3649 22.9652 13.2053ZM41.3832 33.5486C41.567 33.4118 42.0722 33.1837 42.233 32.8188C42.3937 32.4311 42.3937 31.8381 42.187 31.4732C41.8885 30.9487 41.3833 30.4698 40.878 30.1733C40.5335 29.968 39.8905 29.9452 39.546 30.1277C39.2016 30.3101 38.88 30.8347 38.8341 31.268C38.6734 32.1346 40.1891 33.5714 41.3832 33.5486ZM49.49 14.6421C49.49 13.6386 48.9388 13.2737 48.2039 13.0684C46.6882 12.6351 46.0682 12.7035 45.6548 13.4561C45.517 13.6842 45.4481 14.0035 45.4711 14.2772C45.5629 15.3947 46.5275 15.4859 47.3312 15.714C48.0432 15.9192 48.7551 15.9876 49.2603 15.2578C49.3981 15.0298 49.444 14.7561 49.49 14.6421ZM20.0256 5.54228C19.6812 5.90718 19.1989 6.24928 18.9692 6.72822C18.7166 7.32119 18.9922 7.95977 19.6123 8.21064C20.2094 8.46151 20.8524 8.62116 21.4954 8.71238C22.1614 8.7808 22.6207 8.37028 22.8274 7.75451C23.0341 7.09312 22.7815 6.52296 22.2073 6.24928C21.6102 5.92999 20.9213 5.81596 20.0256 5.54228Z" fill="white"/>
<path d="M0.0224609 50.6324C0.0224609 42.1712 0.0224609 33.71 0.0224609 25.226C0.0224609 23.6524 0.41287 23.2646 1.99747 23.2646C8.06027 23.2646 14.1001 23.2646 20.1629 23.2646C21.6327 23.2646 22.069 23.698 22.069 25.1348C22.069 42.1256 22.069 59.1164 22.069 76.1072C22.069 77.5668 21.6327 78.0002 20.1859 78.0002C14.1001 78.0002 8.01434 78.0002 1.92857 78.0002C0.458796 78.0002 0.0454275 77.5668 0.0454275 76.1072C0.0224623 67.6232 0.0224609 59.1164 0.0224609 50.6324ZM15.1795 46.5272C16.121 46.5272 16.9019 46.5272 17.7056 46.5272C18.785 46.5044 19.2902 46.0027 19.3132 44.9536C19.3362 43.2659 19.3362 41.601 19.3132 39.9134C19.3132 38.8415 18.808 38.3397 17.7286 38.3169C16.9019 38.2941 16.0751 38.3169 15.1795 38.3169C15.1795 37.4503 15.1795 36.652 15.1795 35.8538C15.1565 34.7135 14.6742 34.2118 13.5719 34.2118C11.8725 34.1889 10.196 34.1889 8.49661 34.2118C7.44021 34.2118 6.93498 34.7363 6.91201 35.7854C6.88905 36.6064 6.91201 37.4275 6.91201 38.1573C6.79719 38.2485 6.77422 38.2713 6.75125 38.2713C5.97044 38.2713 5.21259 38.2941 4.43178 38.2941C3.30648 38.3169 2.80125 38.7959 2.80125 39.9134C2.77828 41.5554 2.80125 43.2203 2.80125 44.8624C2.80125 46.0255 3.30648 46.4816 4.50067 46.5044C5.28149 46.5044 6.08527 46.5044 6.93498 46.5044C6.93498 47.4395 6.91202 48.2605 6.93498 49.0816C6.95795 50.0851 7.46318 50.5868 8.49661 50.6096C10.219 50.6324 11.9414 50.6324 13.6638 50.6096C14.6742 50.6096 15.1795 50.085 15.2024 49.0588C15.2024 48.2605 15.1795 47.4395 15.1795 46.5272ZM11.0228 56.106C13.2045 56.106 15.3862 56.106 17.5679 56.106C18.6702 56.106 19.2902 55.6042 19.3132 54.7604C19.3362 53.9165 18.6932 53.3692 17.6138 53.3692C13.2504 53.3692 8.88702 53.3692 4.52364 53.3692C3.42131 53.3692 2.80125 53.8709 2.80125 54.7148C2.77828 55.5814 3.42131 56.106 4.50067 56.106C6.6594 56.106 8.84109 56.106 11.0228 56.106ZM11.1376 58.8427C8.93295 58.8427 6.72829 58.8427 4.50067 58.8427C3.42131 58.8427 2.77828 59.3445 2.77828 60.2111C2.77828 61.055 3.39834 61.5795 4.50067 61.5795C8.86405 61.5795 13.2274 61.5795 17.5908 61.5795C18.6702 61.5795 19.3132 61.055 19.3132 60.2111C19.3132 59.3673 18.6931 58.8427 17.5908 58.8427C15.4321 58.8427 13.2963 58.8427 11.1376 58.8427ZM11.1146 64.3163C10.2649 64.3163 9.39225 64.3163 8.54254 64.3163C8.51958 64.3163 8.47365 64.3163 8.45068 64.3163C7.50911 64.3619 6.91202 64.9092 6.93498 65.7075C6.95795 66.4829 7.53208 67.0303 8.42772 67.0531C10.1731 67.0759 11.9184 67.0759 13.6867 67.0531C14.6283 67.0531 15.2254 66.4601 15.2024 65.6619C15.1795 64.8636 14.5824 64.3391 13.6408 64.3163C12.7681 64.3163 11.9414 64.3163 11.1146 64.3163Z" fill="#999587"/>
<path d="M68.9191 28.6673C68.9191 27.8463 68.942 27.0252 68.9191 26.2042C68.9191 26.0445 68.7813 25.8621 68.7124 25.7025C68.5516 25.7937 68.3449 25.8393 68.2072 25.9533C67.8397 26.2726 67.5182 26.6375 67.1737 26.9796C66.7374 27.3673 66.4388 27.7094 66.7144 28.4164C66.8522 28.7585 66.5307 29.4427 66.1862 29.7848C65.7499 30.2409 65.0839 30.1953 64.6246 29.762C63.8438 29.0778 63.1089 28.348 62.4429 27.5954C62.0065 27.0936 62.0065 26.4779 62.4199 25.9533C62.8103 25.4516 63.3385 25.2691 63.9586 25.4972C64.1423 25.5656 64.326 25.634 64.2342 25.406C64.969 24.7446 65.7269 24.0604 66.4848 23.3762C65.5202 23.3762 64.5327 23.3762 63.4993 23.3762C63.4304 23.513 63.4074 23.8095 63.2467 23.9007C62.7874 24.1972 62.3051 24.5849 61.8228 24.5849C61.1798 24.6077 60.7205 24.0604 60.6975 23.399C60.6516 22.3955 60.6516 21.392 60.6975 20.4114C60.7435 19.75 61.1798 19.3166 61.8458 19.2026C62.4659 19.1114 62.9711 19.3851 63.2696 19.9552C63.3615 20.1377 63.4304 20.3201 63.4993 20.5026C64.4868 20.5026 65.4972 20.5026 66.6455 20.5026C66.1403 19.4307 65.2217 18.9289 64.5786 18.1535C64.4408 18.1991 64.349 18.1991 64.2571 18.2447C63.5452 18.6324 62.9252 18.5184 62.4199 17.9026C61.9606 17.3325 62.0754 16.6255 62.6955 15.9869C63.2467 15.4167 63.8208 14.8466 64.3949 14.2992C64.9231 13.7747 65.5432 13.6378 66.1862 14.0483C66.8292 14.4589 66.9441 15.0518 66.7144 15.7816C66.6455 16.0097 66.7144 16.3746 66.8752 16.5571C67.4263 17.1728 68.0464 17.743 68.6435 18.336C68.7124 18.2903 68.8042 18.2447 68.8731 18.1991C68.8731 17.2184 68.8731 16.2606 68.8731 15.1887C68.7583 15.1431 68.5516 15.0746 68.3679 14.9606C67.7938 14.6641 67.5182 14.1852 67.61 13.5466C67.7249 12.8852 68.1382 12.4291 68.8272 12.4063C69.8377 12.3607 70.8481 12.3607 71.8356 12.4063C72.5476 12.4519 73.0069 12.908 73.0758 13.615C73.1676 14.5045 72.5935 14.9606 71.7668 15.1659C71.7668 16.1693 71.7668 17.15 71.7668 18.2675C72.892 17.8342 73.3743 16.8535 74.1781 16.2378C74.0862 16.0097 73.9255 15.8044 73.9484 15.6448C74.0633 15.1203 74.1092 14.5273 74.4077 14.1396C74.7982 13.6606 75.4871 13.6834 75.9694 14.094C76.7732 14.7782 77.531 15.5308 78.22 16.3062C78.6563 16.8079 78.6333 17.4237 78.197 17.9483C77.8066 18.4272 77.2554 18.6553 76.6583 18.3588C76.199 18.1307 75.9464 18.2447 75.6479 18.5868C75.2575 19.0202 74.8441 19.3851 74.4537 19.7956C74.2929 19.9552 74.2011 20.1605 73.9714 20.5026C75.1656 20.5026 76.1531 20.5026 77.1636 20.5026C77.2554 20.2973 77.2784 19.978 77.4621 19.864C77.8985 19.5903 78.4037 19.271 78.863 19.271C79.506 19.271 79.9423 19.8184 79.9653 20.4798C80.0112 21.4376 80.0112 22.4183 79.9653 23.3762C79.9423 24.0604 79.529 24.4937 78.863 24.6305C78.197 24.7674 77.6918 24.4709 77.3702 23.8779C77.2784 23.6955 77.2095 23.513 77.1406 23.3534C76.1531 23.3534 75.1886 23.3534 74.0633 23.3534C74.1781 23.6271 74.224 23.8323 74.3388 23.9692C74.6833 24.3569 75.0737 24.6762 75.4182 25.0639C75.8086 25.4972 76.1531 25.7937 76.865 25.52C77.2325 25.3832 77.8984 25.7025 78.2429 26.0446C78.7022 26.4779 78.6563 27.1393 78.22 27.5954C77.531 28.3708 76.7961 29.1006 76.0383 29.762C75.533 30.1953 74.8211 30.2409 74.4077 29.762C74.0862 29.3971 74.0403 28.7813 73.9484 28.2568C73.9255 28.0971 74.0862 27.8919 73.8336 28.0059C73.1676 27.2533 72.5016 26.5235 71.8127 25.7253C71.8127 26.7059 71.8127 27.6866 71.8127 28.7129C71.9045 28.7585 72.0653 28.8041 72.2261 28.8726C72.892 29.169 73.2135 29.6708 73.0758 30.3778C72.938 31.062 72.4557 31.4725 71.7438 31.4953C70.8252 31.5181 69.9066 31.5181 68.988 31.4953C68.276 31.4725 67.7708 31.0848 67.633 30.4006C67.4952 29.6936 67.7938 29.1918 68.4598 28.8726C68.5516 28.7813 68.7124 28.7357 68.9191 28.6673Z" fill="#999587"/>
<path d="M48.6857 51.3396C49.122 50.7694 49.4435 50.2905 49.8339 49.88C50.1554 49.5379 50.454 49.287 50.1554 48.7169C49.8799 48.2151 49.7191 47.759 49.0072 47.873C48.7086 47.9186 48.3642 47.9186 48.0656 47.8502C47.3307 47.7134 46.8714 47.2573 46.8944 46.5046C46.8944 45.752 47.3537 45.2959 48.0886 45.1591C48.3412 45.1134 48.6168 45.1135 48.8694 45.1363C49.5813 45.2503 49.9488 44.9766 50.1784 44.2924C50.3392 43.8363 50.3162 43.5626 49.9488 43.2661C49.7421 43.1065 49.5583 42.924 49.3976 42.7188C48.8464 42.0802 48.8235 41.3504 49.3746 40.803C49.9258 40.2329 50.6836 40.2329 51.3726 40.8258C51.4874 40.9171 51.5793 41.0311 51.6711 41.1223C52.3142 41.7609 52.8883 41.8065 53.5773 41.2592C53.6921 41.1679 53.761 40.9171 53.761 40.7574C53.7839 40.3697 53.738 39.9592 53.7839 39.5715C53.8528 38.8189 54.4499 38.2943 55.1618 38.3171C55.9197 38.3627 56.356 38.7961 56.4938 39.5259C56.5398 39.7083 56.5398 39.9364 56.4938 40.1188C56.2871 41.0083 56.7235 41.4416 57.5273 41.6013C57.7569 41.6469 58.0555 41.5784 58.2392 41.4416C58.5607 41.2135 58.8133 40.8714 59.1348 40.6434C59.7319 40.2329 60.352 40.3013 60.8572 40.803C61.3625 41.3048 61.4313 41.8977 61.0409 42.5135C60.9031 42.7188 60.6965 42.9012 60.5357 43.0837C60.1912 43.4486 59.8238 43.6766 60.0994 44.3608C60.3979 45.0906 60.7883 45.2275 61.4543 45.1591C61.7069 45.1363 61.9825 45.1362 62.2351 45.1819C62.97 45.3415 63.4064 45.7976 63.3834 46.5503C63.3604 47.2573 62.947 47.7134 62.2351 47.8502C61.9825 47.8958 61.7069 47.9186 61.4543 47.873C60.6505 47.7134 60.1912 48.0783 60.0764 48.8309C60.0305 49.0818 60.0764 49.4239 60.2372 49.6291C60.4668 49.9712 60.8572 50.2221 61.0869 50.587C61.5002 51.2028 61.4543 51.8414 60.8802 52.3659C60.352 52.8448 59.7319 52.8448 59.1578 52.4343C58.9511 52.2975 58.7903 52.0922 58.5837 51.9098C58.2162 51.5677 57.9866 51.18 57.2976 51.4536C56.5857 51.7501 56.402 52.115 56.4709 52.7764C56.4938 53.0273 56.4938 53.301 56.4479 53.5518C56.2871 54.2816 55.8278 54.715 55.07 54.715C54.3121 54.6922 53.8528 54.2588 53.738 53.5062C53.6921 53.2325 53.6921 52.9361 53.738 52.6624C53.8528 52.001 53.5313 51.7273 52.9572 51.4993C52.429 51.2712 52.1304 51.3624 51.786 51.7729C51.5563 52.0466 51.2807 52.3887 50.9592 52.5027C50.5229 52.6396 49.9717 52.708 49.6043 52.5255C49.2598 52.3431 49.0531 51.8185 48.6857 51.3396Z" fill="#999587"/>
<path d="M71.3767 46.0925C71.0322 46.4118 70.6877 46.7311 70.3662 47.0503C69.5854 47.7801 68.7816 47.8486 68.1616 47.2328C67.5874 46.6398 67.6563 45.8644 68.3682 45.1118C68.7127 44.7697 69.0342 44.4276 69.3557 44.0627C69.3098 43.9715 69.2639 43.8574 69.195 43.7662C68.6898 43.7662 68.2075 43.7662 67.7023 43.7662C66.7607 43.7434 66.1636 43.2189 66.1406 42.4206C66.1406 41.6224 66.7377 41.0751 67.6793 41.0522C68.1845 41.0294 68.6898 41.0522 69.195 41.0522C69.2409 40.961 69.3098 40.8698 69.3557 40.7786C69.0572 40.4593 68.7127 40.14 68.4601 39.7979C68.1845 39.4102 67.7941 38.9769 67.8171 38.5663C67.84 38.133 68.2075 37.6085 68.5749 37.3576C69.0802 36.9927 69.6773 37.1751 70.1366 37.6085C70.5499 37.9962 70.9633 38.3839 71.3767 38.7716C71.4685 38.726 71.5374 38.6804 71.6293 38.6348C71.6523 38.3155 71.6752 37.9962 71.6752 37.6541C71.6752 36.2401 72.0886 35.6015 73.0302 35.5787C73.9947 35.5559 74.431 36.2173 74.431 37.6769C74.431 37.9734 74.431 38.2699 74.431 38.5892C74.5229 38.6348 74.5918 38.6804 74.6837 38.7488C74.9822 38.4979 75.2578 38.2242 75.5793 37.9962C75.9697 37.7225 76.3601 37.2664 76.7735 37.2664C77.2328 37.2664 77.8069 37.5629 78.1284 37.905C78.5648 38.4067 78.3811 39.0453 77.9447 39.5242C77.5543 39.9575 77.1639 40.3452 76.7735 40.7558C76.8194 40.847 76.8654 40.961 76.9113 41.0522C77.4165 41.0522 77.8988 41.0522 78.404 41.0522C79.3686 41.0751 79.9657 41.5996 79.9657 42.3978C79.9886 43.2189 79.3686 43.7662 78.3581 43.789C77.8758 43.789 77.4165 43.789 76.9343 43.789C76.8883 43.8802 76.8194 43.9487 76.7735 44.0399C77.0261 44.3364 77.3017 44.6101 77.5313 44.9293C77.8069 45.3171 78.2662 45.7048 78.2662 46.1153C78.2662 46.5714 77.9677 47.1644 77.6232 47.4609C77.118 47.8942 76.4749 47.7117 75.9927 47.2784C75.5793 46.8907 75.1659 46.503 74.7526 46.1153C74.6607 46.1609 74.5459 46.2065 74.454 46.2521C74.454 46.7082 74.454 47.1872 74.454 47.6433C74.431 48.6468 73.9258 49.2626 73.0991 49.2854C72.2723 49.3082 71.7212 48.6696 71.6982 47.6889C71.6982 47.21 71.6982 46.7539 71.6982 46.2749C71.5834 46.1837 71.4685 46.1381 71.3767 46.0925Z" fill="#999587"/>
<path d="M16.5573 20.5017C12.8369 20.5017 9.25438 20.5017 5.55699 20.5017C5.55699 19.0649 5.51106 17.6509 5.57996 16.2369C5.62589 15.5071 6.17705 15.0737 6.9349 15.0737C9.69072 15.0509 12.4465 15.0509 15.1794 15.0737C16.0061 15.0737 16.5343 15.6211 16.5573 16.4193C16.5803 17.7421 16.5573 19.0877 16.5573 20.5017Z" fill="#999587"/>
<path d="M8.35938 1.41211C10.1966 1.41211 11.9419 1.41211 13.7562 1.41211C13.7562 5.03834 13.7562 8.59615 13.7562 12.2452C11.9879 12.2452 10.1966 12.2452 8.35938 12.2452C8.35938 8.66457 8.35938 5.06114 8.35938 1.41211ZM12.4012 5.51727C11.4597 5.51727 10.61 5.51727 9.73729 5.51727C9.73729 6.42953 9.73729 7.27337 9.73729 8.16282C10.6559 8.16282 11.5286 8.16282 12.4012 8.16282C12.4012 7.25056 12.4012 6.40673 12.4012 5.51727Z" fill="#999587"/>
<path d="M30.108 20.209C31.2103 20.2318 32.7949 21.7598 32.7031 22.5352C32.6571 22.9686 32.3356 23.5387 31.9682 23.7212C31.6007 23.9036 30.9577 23.8352 30.5673 23.6071C30.0621 23.3335 29.6028 22.8545 29.3042 22.3528C29.0975 21.9651 29.0286 21.3493 29.1894 20.9616C29.3502 20.5967 29.9013 20.3686 30.108 20.209Z" fill="#999587"/>
<path d="M47.3331 37.3587C47.1723 37.5639 46.9657 38.0657 46.5752 38.2253C46.1848 38.3849 45.5877 38.3849 45.2203 38.1797C44.6691 37.8604 44.1639 37.3587 43.8424 36.8113C43.6357 36.4692 43.6127 35.8306 43.7964 35.4885C43.9802 35.1464 44.5084 34.8271 44.9217 34.7587C45.7944 34.6447 47.3561 36.2411 47.3331 37.3587Z" fill="#999587"/>
<path d="M21.3795 4.10433C21.2646 4.10433 21.1498 4.10433 21.035 4.10433C19.9556 4.08153 19.3126 3.57979 19.3356 2.73595C19.3356 1.89211 19.9786 1.39036 21.0579 1.36756C21.3795 1.36756 21.701 1.34475 21.9995 1.36756C22.8722 1.41317 23.4463 1.96053 23.4463 2.73595C23.4463 3.51137 22.8492 4.05872 21.9766 4.08153C21.7699 4.10433 21.5632 4.10433 21.3795 4.10433Z" fill="#999587"/>
<path d="M28.2714 4.10494C28.1796 4.10494 28.1107 4.10494 28.0188 4.10494C26.8476 4.10494 26.2275 3.6032 26.2275 2.73655C26.2275 1.86991 26.8706 1.36816 28.0188 1.36816C28.2944 1.36816 28.593 1.36816 28.8685 1.36816C29.7412 1.41378 30.3153 1.96113 30.3153 2.73655C30.3153 3.51197 29.7412 4.05933 28.8456 4.10494C28.6618 4.10494 28.4781 4.10494 28.2714 4.10494Z" fill="#999587"/>
<path d="M35.2273 1.36756C35.4569 1.36756 35.6866 1.34475 35.9162 1.36756C36.6741 1.43598 37.2023 1.98333 37.2252 2.69033C37.2482 3.44294 36.697 4.01311 35.8703 4.08153C35.388 4.10433 34.8828 4.10433 34.4005 4.08153C33.6427 4.01311 33.1145 3.46575 33.0915 2.75875C33.0685 2.00614 33.6197 1.43598 34.4465 1.36756C34.6991 1.34475 34.9517 1.36756 35.2273 1.36756Z" fill="#999587"/>
<path d="M42.0026 4.0833C41.75 4.0833 41.4744 4.12891 41.2218 4.0833C40.4869 3.96926 40.0506 3.51314 40.0046 2.76052C39.9587 2.05352 40.5099 1.46055 41.2447 1.36933C41.704 1.32372 42.1634 1.34652 42.6227 1.34652C43.5183 1.36933 44.0924 1.89388 44.1154 2.6693C44.1384 3.46753 43.5413 4.03768 42.5997 4.06049C42.393 4.1061 42.1863 4.1061 42.0026 4.0833C42.0026 4.1061 42.0026 4.1061 42.0026 4.0833Z" fill="#999587"/>
<path d="M49.0085 1.36756C49.2382 1.36756 49.4678 1.34475 49.6975 1.36756C50.4553 1.43598 51.0065 1.98333 51.0065 2.69033C51.0295 3.44294 50.4783 4.01311 49.6515 4.08153C49.1693 4.10433 48.664 4.10433 48.1818 4.08153C47.4239 4.01311 46.8957 3.46575 46.8728 2.75875C46.8498 2.00614 47.401 1.43598 48.2277 1.36756C48.4803 1.34475 48.7329 1.36756 49.0085 1.36756Z" fill="#999587"/>
<path d="M55.8972 1.36756C56.1268 1.36756 56.3565 1.34475 56.5861 1.36756C57.344 1.43598 57.8722 1.98333 57.8952 2.69033C57.9181 3.44294 57.367 4.01311 56.5402 4.08153C56.0579 4.10433 55.5527 4.10433 55.0705 4.08153C54.3126 4.01311 53.7844 3.46575 53.7614 2.75875C53.7385 2.00614 54.2896 1.43598 55.1164 1.36756C55.369 1.34475 55.6216 1.36756 55.8972 1.36756Z" fill="#999587"/>
<path d="M33.804 9.23763C34.2174 9.35166 34.8374 9.4885 35.4116 9.71657C36.0776 9.99024 36.3761 10.72 36.1235 11.3586C35.8709 12.02 35.3656 12.3849 34.6537 12.2709C34.1025 12.1797 33.5284 12.02 33.0002 11.8148C32.2883 11.5411 31.9668 10.9937 32.1275 10.2639C32.3113 9.53411 32.8395 9.16921 33.804 9.23763Z" fill="#999587"/>
<path d="M25.4686 15.3945C26.3642 15.3945 27.857 16.8998 27.834 17.7664C27.7881 18.7927 26.6628 19.4541 25.7901 18.8611C25.216 18.4734 24.6878 17.9489 24.2974 17.3559C23.7232 16.512 24.4351 15.3945 25.4686 15.3945Z" fill="#999587"/>
<path d="M56.1493 16.6249C55.9655 16.8073 55.644 17.2406 55.2077 17.4915C54.6795 17.788 52.7274 17.2634 52.4519 16.7161C52.2452 16.2828 52.1533 15.667 52.2911 15.2337C52.5437 14.4582 53.2786 14.3898 54.7024 14.7775C55.7588 15.0968 56.2182 15.5758 56.1493 16.6249Z" fill="#999587"/>
<path d="M41.1749 14.0488C40.7615 13.9119 40.0955 13.7979 39.4984 13.5242C38.8554 13.2277 38.6258 12.6347 38.8554 11.9506C39.0851 11.2664 39.6133 10.9243 40.3022 11.0155C40.8993 11.1067 41.4964 11.2664 42.0246 11.4944C42.6676 11.7681 42.9662 12.3383 42.7825 13.0453C42.6217 13.7067 42.1394 14.0488 41.1749 14.0488Z" fill="#999587"/>
<path d="M37.5709 27.391C37.5479 28.3717 36.4685 29.0787 35.6188 28.5541C34.9988 28.1664 34.4476 27.619 34.0572 27.0261C33.506 26.205 34.172 25.1103 35.1825 25.0647C36.0781 25.0419 37.5709 26.5015 37.5709 27.391Z" fill="#999587"/>
<path d="M29.6036 9.07644C29.5117 9.39573 29.4658 9.62379 29.374 9.80625C28.9606 10.5817 28.2946 10.6501 26.687 10.1483C25.8144 9.87467 25.3321 9.35012 25.5388 8.64312C25.6766 8.20979 26.1818 7.5256 26.4803 7.54841C27.376 7.59402 28.2946 7.8905 29.1443 8.20979C29.351 8.30102 29.4658 8.80276 29.6036 9.07644Z" fill="#999587"/>
<path d="M22.9666 13.2055C22.8288 13.3879 22.6221 13.9125 22.2547 14.0493C21.8413 14.2089 21.2213 14.1633 20.8309 13.9581C20.3256 13.6844 19.8434 13.2055 19.5678 12.7037C19.3611 12.316 19.3152 11.6774 19.4989 11.2897C19.6596 10.9476 20.2338 10.6511 20.6471 10.6055C21.5198 10.5143 22.9666 12.0195 22.9666 13.2055Z" fill="#999587"/>
<path d="M41.3826 33.5489C40.1884 33.5717 38.6727 32.1349 38.8105 31.2455C38.8564 30.835 39.178 30.2876 39.5224 30.1052C39.8669 29.9227 40.5099 29.9455 40.8544 30.1508C41.3826 30.4473 41.8649 30.9262 42.1634 31.4507C42.3701 31.7928 42.3931 32.4086 42.2094 32.7963C42.0716 33.2068 41.5663 33.4121 41.3826 33.5489Z" fill="#999587"/>
<path d="M49.4891 14.6434C49.4431 14.7574 49.3972 15.0311 49.2594 15.2364C48.7772 15.9662 48.0652 15.8978 47.3303 15.6925C46.5266 15.4644 45.562 15.3732 45.4702 14.2557C45.4472 13.982 45.5161 13.6855 45.6539 13.4347C46.0443 12.7049 46.6644 12.6364 48.203 13.047C48.9609 13.275 49.512 13.6399 49.4891 14.6434Z" fill="#999587"/>
<path d="M20.0247 5.54199C20.9203 5.81567 21.6093 5.9297 22.2064 6.22619C22.7805 6.49986 23.0331 7.07003 22.8264 7.73141C22.6198 8.37 22.1834 8.78051 21.4945 8.68929C20.8514 8.62087 20.2084 8.43841 19.6113 8.18754C18.9913 7.91387 18.7157 7.29809 18.9683 6.70512C19.1979 6.24899 19.7032 5.9069 20.0247 5.54199Z" fill="#999587"/>
<path d="M15.179 46.5246C15.179 47.4369 15.2019 48.2579 15.179 49.079C15.156 50.0824 14.6508 50.607 13.6403 50.6298C11.9179 50.6526 10.1955 50.6526 8.47315 50.6298C7.43971 50.6298 6.93448 50.1052 6.91152 49.1018C6.88855 48.2807 6.91152 47.4597 6.91152 46.5246C6.06181 46.5246 5.28099 46.5246 4.47721 46.5246C3.28302 46.5246 2.77778 46.0457 2.77778 44.8826C2.77778 43.2405 2.75482 41.5756 2.77778 39.9336C2.77778 38.816 3.28302 38.3371 4.40831 38.3143C5.18913 38.2915 5.94698 38.2915 6.7278 38.2915C6.75076 38.2915 6.77372 38.2687 6.88855 38.1775C6.88855 37.4249 6.88855 36.6038 6.88855 35.8056C6.91152 34.7337 7.39378 34.2319 8.47315 34.2319C10.1726 34.2091 11.849 34.2091 13.5485 34.2319C14.6508 34.2319 15.133 34.7565 15.156 35.874C15.156 36.6722 15.156 37.4477 15.156 38.3371C16.0517 38.3371 16.8784 38.3143 17.7051 38.3371C18.7615 38.3599 19.2668 38.8617 19.2897 39.9336C19.3127 41.6212 19.3127 43.2861 19.2897 44.9738C19.2897 46.0229 18.7615 46.5246 17.6822 46.5474C16.9014 46.5246 16.0976 46.5246 15.179 46.5246ZM12.4002 41.0739C12.4002 39.6371 12.4002 38.3143 12.4002 36.9915C11.4586 36.9915 10.6089 36.9915 9.66734 36.9915C9.66734 38.3599 9.66734 39.6827 9.66734 41.0739C8.2435 41.0739 6.91152 41.0739 5.57954 41.0739C5.57954 42.009 5.57954 42.8528 5.57954 43.7879C6.95745 43.7879 8.28943 43.7879 9.6903 43.7879C9.6903 45.2019 9.6903 46.5246 9.6903 47.8474C10.6319 47.8474 11.4816 47.8474 12.4232 47.8474C12.4232 46.479 12.4232 45.1563 12.4232 43.7651C13.847 43.7651 15.179 43.7651 16.511 43.7651C16.511 42.83 16.511 41.9861 16.511 41.0739C15.179 41.0739 13.847 41.0739 12.4002 41.0739Z" fill="white"/>
<path d="M11.0238 56.104C8.8421 56.104 6.66041 56.104 4.47872 56.104C3.39936 56.104 2.7793 55.5794 2.7793 54.7128C2.80226 53.8689 3.42232 53.3672 4.50169 53.3672C8.86507 53.3672 13.2285 53.3672 17.5918 53.3672C18.6712 53.3672 19.2913 53.8917 19.2913 54.7584C19.2683 55.6022 18.6482 56.104 17.5459 56.104C15.3872 56.104 13.2055 56.104 11.0238 56.104Z" fill="white"/>
<path d="M11.1386 58.8418C13.2973 58.8418 15.4331 58.8418 17.5918 58.8418C18.6712 58.8418 19.3142 59.3663 19.3142 60.2102C19.3142 61.054 18.6712 61.5786 17.5918 61.5786C13.2285 61.5786 8.86507 61.5786 4.50169 61.5786C3.42232 61.5786 2.7793 61.054 2.7793 60.2102C2.7793 59.3663 3.39936 58.8418 4.50169 58.8418C6.70634 58.8418 8.93396 58.8418 11.1386 58.8418Z" fill="white"/>
<path d="M11.1144 64.3135C11.9411 64.3135 12.7679 64.3135 13.6176 64.3135C14.5821 64.3363 15.1792 64.8608 15.1792 65.6591C15.2022 66.4573 14.5821 67.0274 13.6635 67.0503C11.9182 67.0731 10.1728 67.0731 8.40451 67.0503C7.50887 67.0503 6.93474 66.4801 6.91177 65.7047C6.88881 64.9064 7.4859 64.3591 8.42748 64.3135C8.45044 64.3135 8.4734 64.3135 8.51933 64.3135C9.39201 64.3135 10.2417 64.3135 11.1144 64.3135Z" fill="white"/>
<path d="M12.4013 5.51953C12.4013 6.43179 12.4013 7.25282 12.4013 8.16508C11.5056 8.16508 10.6329 8.16508 9.7373 8.16508C9.7373 7.29843 9.7373 6.43179 9.7373 5.51953C10.61 5.51953 11.4597 5.51953 12.4013 5.51953Z" fill="white"/>
<path d="M12.4007 41.0736C13.8705 41.0736 15.1795 41.0736 16.5115 41.0736C16.5115 41.9858 16.5115 42.8297 16.5115 43.7647C15.1795 43.7647 13.8475 43.7647 12.4237 43.7647C12.4237 45.1787 12.4237 46.5015 12.4237 47.8471C11.4821 47.8471 10.6324 47.8471 9.69084 47.8471C9.69084 46.5243 9.69084 45.2015 9.69084 43.7875C8.267 43.7875 6.93502 43.7875 5.58008 43.7875C5.58008 42.8525 5.58008 42.0086 5.58008 41.0736C6.91206 41.0736 8.24404 41.0736 9.66788 41.0736C9.66788 39.6596 9.66788 38.3368 9.66788 36.9912C10.6094 36.9912 11.4592 36.9912 12.4007 36.9912C12.4007 38.314 12.4007 39.6368 12.4007 41.0736Z" fill="#999587"/>
</svg>
