<svg width="80" height="80" viewBox="0 0 80 80" fill="none" xmlns="http://www.w3.org/2000/svg">
<path d="M80 42.492C79.7917 43.9917 79.646 45.4914 79.3752 46.9703C77.5842 56.7601 72.8151 64.8003 65.1304 71.0908C59.7365 75.4858 53.5929 78.2977 46.7204 79.4225C36.1409 81.1305 26.3111 79.0684 17.4601 72.9862C8.46339 66.7999 2.77794 58.2598 0.757837 47.491C-1.40805 35.9099 1.07023 25.2869 8.17182 15.872C14.3154 7.72771 22.5 2.70782 32.5172 0.729029C33.9125 0.458247 35.3495 0.333273 36.7656 0.145808C37.0155 0.10415 37.2655 0.0624882 37.5154 0C39.1814 0 40.8475 0 42.5136 0C43.8464 0.166635 45.2001 0.312441 46.5121 0.520735C54.1135 1.81216 60.8194 4.97823 66.5465 10.1231C73.4399 16.3094 77.7508 23.9538 79.3752 33.0979C79.6251 34.556 79.7917 36.014 80 37.4929C80 39.1593 80 40.8256 80 42.492ZM40.9725 77.173C42.1387 77.048 44.2421 76.923 46.3039 76.5689C62.9437 73.6944 75.6266 59.9679 77.0011 43.221C77.8341 33.1812 75.0018 24.2038 68.6499 16.3511C67.6503 15.1221 66.9422 15.0805 65.8176 16.2053C49.2611 32.7438 32.7254 49.3032 16.1898 65.8417C15.1485 66.8832 15.1693 67.6123 16.3147 68.5704C23.208 74.236 31.1427 77.0271 40.9725 77.173ZM2.88207 39.9925C2.92372 42.9502 3.2361 45.8455 3.94418 48.72C5.31868 54.3439 7.85943 59.3846 11.5664 63.8213C12.3578 64.7586 13.1492 64.8003 14.0239 63.9671C14.1488 63.8421 14.2738 63.7172 14.4196 63.5714C30.2055 47.7827 45.9915 31.994 61.7774 16.2053C62.5063 15.4762 63.2561 14.7472 63.985 13.9974C64.8388 13.1225 64.818 12.2893 63.8808 11.5395C53.6345 3.3327 42.1387 0.770691 29.5183 4.41584C13.649 8.99831 2.9862 23.4331 2.88207 39.9925Z" fill="#999587"/>
<path d="M40.9714 77.1734C31.1208 77.0275 23.1862 74.2364 16.2928 68.5708C15.1474 67.6335 15.1058 66.9044 16.1679 65.8421C32.7036 49.3036 49.2601 32.7442 65.7958 16.2057C66.9204 15.0809 67.6284 15.1225 68.6281 16.3515C74.98 24.2042 77.8123 33.1816 76.9792 43.2214C75.6047 59.9683 62.9426 73.6948 46.3028 76.5693C44.2411 76.9234 42.1377 77.0484 40.9714 77.1734ZM44.8867 44.6587C44.8867 44.7628 44.8867 44.8669 44.9075 44.9711C45.5114 50.4076 45.8863 55.8649 45.6156 61.343C45.5114 63.3426 45.2615 65.3422 44.4077 67.1961C43.533 69.0707 42.0752 69.9872 40.0134 70.008C37.9517 70.008 36.4314 69.1124 35.64 67.2169C35.2235 66.2171 34.8903 65.1548 34.7237 64.0925C34.0989 60.3015 34.2863 56.4689 34.4738 52.6363C34.4946 52.3447 34.5154 52.0531 34.5362 51.5948C34.203 51.9073 34.0156 52.0739 33.849 52.2405C32.3287 53.7611 30.8501 55.3441 29.2465 56.8022C28.4135 57.5729 28.226 58.3227 28.351 59.4059C28.705 62.0512 28.9758 64.7382 29.184 67.4044C29.2257 67.9459 28.9966 68.5708 28.7258 69.0707C28.226 69.9664 27.5804 70.7996 26.9973 71.6536C33.5783 75.0904 48.2188 75.0696 52.9671 71.6119C52.4048 70.7787 51.8425 69.9247 51.2385 69.1124C50.822 68.55 50.6971 67.9668 50.7804 67.2794C51.0303 65.0923 51.2177 62.8844 51.5093 60.6765C51.7592 58.9684 51.6342 57.3646 50.9262 55.7399C49.9473 53.532 49.0518 51.2824 48.3229 48.9703C47.7606 47.0332 46.1987 45.9709 44.8867 44.6587ZM53.9251 32.286C55.8202 31.9319 57.5904 31.6611 59.3398 31.2862C61.7347 30.8071 64.0881 30.1614 66.5038 29.7656C69.6902 29.2241 71.6686 30.9946 71.5229 34.2231C71.4812 35.0563 71.3563 35.8895 71.1272 36.681C70.0651 40.4928 67.3369 42.6798 63.734 43.8671C62.2137 44.367 60.631 44.617 59.0066 45.0127C59.2981 45.3044 59.5689 45.6585 59.8812 45.9292C60.6518 46.6166 61.0891 47.4498 61.3182 48.4496C61.7972 50.3867 62.3595 52.3239 62.901 54.2402C62.9843 54.511 63.0884 54.8026 63.2967 54.9692C64.9627 56.3856 66.6288 57.7812 68.3157 59.1976C77.2083 46.5125 75.5631 29.2657 67.0453 19.1218C62.7344 23.4543 58.4234 27.8077 53.9251 32.286ZM66.6496 61.5096C64.7753 59.9474 62.9635 58.4477 61.1724 56.9063C60.7976 56.5939 60.506 56.1148 60.3394 55.6357C59.9437 54.4485 59.5897 53.2612 59.3606 52.0323C58.9233 49.5744 57.882 47.4706 55.9035 45.8876C55.6953 45.7209 55.5495 45.4918 55.362 45.3252C55.2163 45.2002 55.0288 45.0336 54.8414 45.0336C53.0087 44.9503 51.1761 44.8878 49.3434 44.8044C49.7183 45.3668 50.1764 45.8876 50.4263 46.4916C51.78 49.9493 53.1129 53.407 54.4041 56.9063C54.5915 57.4062 54.6331 58.0311 54.5915 58.5727C54.3416 61.3638 54.0292 64.155 53.7585 66.9461C53.7376 67.1961 53.7168 67.5085 53.8418 67.696C54.4457 68.6333 55.0705 69.529 55.7161 70.4455C59.9854 68.1959 63.6091 65.2589 66.6496 61.5096ZM45.1782 40.8469C45.7405 41.1176 46.1779 41.4301 46.636 41.5134C47.7606 41.7217 48.906 41.8467 50.0306 41.9508C53.6335 42.2633 57.2572 42.4299 60.8392 41.7217C63.1092 41.2635 65.2335 40.4719 66.8995 38.7431C68.2324 37.3475 68.7322 35.6395 68.7322 33.744C68.7322 32.8067 68.3365 32.4943 67.3994 32.5568C66.8995 32.5984 66.4205 32.6401 65.9416 32.7651C60.9434 33.9732 55.9035 34.9938 50.8012 35.6395C50.6138 35.6603 50.3847 35.7437 50.2597 35.8686C48.5728 37.4517 46.9692 39.0764 45.1782 40.8469ZM41.9502 44.0754C40.4716 45.5543 39.1596 46.8666 37.8892 48.1788C37.7226 48.3663 37.6185 48.6787 37.6185 48.9495C37.4727 52.9696 37.3061 56.9897 37.2853 61.0306C37.2853 62.3845 37.5768 63.7592 37.91 65.0923C38.2641 66.5712 38.9513 67.1127 40.0134 67.1336C41.1172 67.1544 41.742 66.5504 42.2001 65.0715C42.2834 64.8215 42.3668 64.5716 42.3876 64.3216C42.5542 62.6761 42.8457 61.0097 42.8457 59.3642C42.8249 56.0107 42.6791 52.6571 42.5125 49.3244C42.3876 47.6372 42.1377 45.9709 41.9502 44.0754ZM19.0627 67.2169C20.7704 68.3 22.5198 69.404 24.29 70.5288C24.9147 69.6123 25.4978 68.7999 26.0185 67.9668C26.1851 67.6751 26.2892 67.3002 26.2684 66.9669C26.1851 65.6755 26.0393 64.3841 25.8935 63.0927C25.8102 62.2595 25.7061 61.4263 25.6228 60.6765C23.4361 62.8427 21.291 64.9882 19.0627 67.2169Z" fill="white"/>
<path d="M2.88184 39.9921C3.00679 23.4327 13.6488 8.99797 29.518 4.4155C42.1176 0.79118 53.6343 3.33236 63.8806 11.5392C64.8178 12.289 64.8386 13.1222 63.9847 13.997C63.2558 14.7469 62.5061 15.4759 61.7772 16.2049C45.9912 32.0145 30.2053 47.8031 14.3985 63.5918C14.2735 63.7168 14.1486 63.8418 14.0028 63.9876C13.1281 64.8208 12.3159 64.7791 11.5454 63.8418C7.83837 59.4051 5.2768 54.3644 3.92313 48.7405C3.23587 45.866 2.90266 42.9499 2.88184 39.9921ZM60.9233 12.9139C47.1783 1.97845 26.6857 3.8531 15.1482 16.5382C15.3773 16.6215 15.5856 16.7257 15.7938 16.7882C18.2096 17.6005 20.6254 18.4129 23.0412 19.1835C23.8534 19.4335 24.3532 19.8917 24.6864 20.6833C25.6444 23.0162 26.6649 25.3282 27.6645 27.6403C27.7687 27.8902 27.8936 28.2027 28.0811 28.3693C29.8721 29.7441 31.6631 31.098 33.5791 32.5144C31.434 28.5984 34.5787 24.8491 38.5773 25.8698C38.5773 25.5782 38.5773 25.2866 38.5773 25.0158C38.5773 22.4329 38.5773 19.8709 38.5773 17.2881C38.5773 16.3299 39.1187 15.7467 39.9518 15.7467C40.8264 15.7259 41.3887 16.3299 41.4096 17.3089C41.4304 19.3085 41.4096 21.3081 41.4096 23.3286C41.4096 24.1826 41.4096 25.0366 41.4096 25.9531C43.4505 25.4324 45.1166 25.9323 46.3453 27.4945C51.2393 22.5996 56.0709 17.7671 60.9233 12.9139ZM28.7683 32.6602C28.7891 32.6185 28.81 32.5769 28.8308 32.5144C28.0186 31.8895 27.1439 31.3063 26.3733 30.6397C25.9152 30.244 25.4987 29.7441 25.2487 29.2025C24.2491 26.9946 23.3119 24.7658 22.3956 22.5371C22.1873 22.058 21.8958 21.8289 21.4168 21.6622C18.8552 20.8291 16.2728 19.9751 13.7321 19.0794C13.1698 18.8919 12.9199 19.0377 12.5867 19.4752C4.29799 30.4523 3.46496 45.741 10.5666 57.5096C11.2746 58.6969 12.1077 59.8217 12.9199 61.0506C14.1902 59.7801 15.3565 58.6344 16.4811 57.4472C16.6477 57.2805 16.7102 56.9889 16.7726 56.739C17.4391 53.9062 18.1263 51.0734 18.7719 48.2406C18.9594 47.4282 19.2717 46.7408 19.8965 46.1576C20.2922 45.7827 20.6462 45.3453 20.9586 45.012C19.2093 44.5746 17.5015 44.2413 15.8563 43.6789C11.1288 42.0542 8.44232 38.2841 8.48397 33.5767C8.5048 31.2854 10.0667 29.6607 12.3367 29.6399C13.1073 29.6399 13.8987 29.7232 14.6484 29.869C17.5015 30.4523 20.3339 31.1396 23.187 31.702C25.0197 32.1394 26.894 32.3686 28.7683 32.6602ZM32.7044 36.0762C32.5378 36.0554 32.1421 35.9929 31.7672 35.9304C26.9565 35.0972 22.1457 34.2849 17.3349 33.4517C15.7938 33.1809 14.2944 32.806 12.7533 32.556C11.7328 32.3894 11.3371 32.7851 11.3371 33.8058C11.3371 34.4098 11.3996 35.0139 11.5245 35.5971C12.1285 38.3258 13.982 39.9505 16.4603 40.8878C21.5834 42.8249 26.8523 42.2625 32.1213 41.7001C32.6211 41.6376 33.4125 40.5753 33.35 40.2004C33.1417 38.8882 32.9335 37.5551 32.7044 36.0762ZM28.7475 44.9912C28.2477 44.9912 27.727 45.0537 27.2272 44.9704C25.582 44.7412 24.4574 45.4286 23.3328 46.6367C22.1457 47.9073 21.2918 49.1987 21.0836 50.9276C21.0003 51.6982 20.7504 52.4481 20.5838 53.1771C23.3328 50.4277 26.0401 47.699 28.7475 44.9912ZM35.7866 37.8675C37.4318 36.222 39.0771 34.5765 40.7223 32.931C39.327 32.681 38.0983 33.1601 37.057 34.1807C36.0157 35.2222 35.5783 36.4928 35.7866 37.8675ZM36.3072 31.0355C36.9945 30.7647 37.5776 30.4939 38.1816 30.2856C38.5564 30.1606 38.6606 29.9732 38.5356 29.5982C38.3273 29.015 37.9525 28.6401 37.3069 28.5776C36.6405 28.5151 36.1198 28.8067 35.8699 29.4108C35.62 30.0357 35.7241 30.6189 36.3072 31.0355ZM43.2006 30.7439C43.3672 30.5772 43.5338 30.4314 43.7004 30.2648C44.3668 29.6191 44.1794 28.9109 43.2839 28.6401C42.6591 28.4526 41.9302 28.7234 41.6178 29.3275C41.3679 29.8065 41.2846 30.2023 42.0135 30.3481C42.4092 30.3898 42.7841 30.5981 43.2006 30.7439Z" fill="white"/>
<path d="M44.8877 44.6582C46.1998 45.9705 47.7617 47.0328 48.3656 48.9491C49.0946 51.2403 49.9901 53.5107 50.9689 55.7186C51.6769 57.3433 51.8019 58.9263 51.552 60.6552C51.2396 62.8423 51.073 65.0502 50.8231 67.2581C50.7398 67.9455 50.8647 68.5287 51.2813 69.0911C51.8852 69.9034 52.4267 70.7574 53.0098 71.5906C48.2407 75.0483 33.621 75.0691 27.04 71.6323C27.6232 70.7783 28.2479 69.9451 28.7686 69.0494C29.0393 68.5495 29.2684 67.9246 29.2267 67.3831C28.9977 64.7169 28.7269 62.0507 28.3937 59.3846C28.2479 58.3015 28.4354 57.5308 29.2892 56.7809C30.8928 55.3228 32.3714 53.7398 33.8917 52.2193C34.0792 52.0318 34.2666 51.8652 34.579 51.5736C34.5581 52.0318 34.5165 52.3234 34.5165 52.615C34.3291 56.4476 34.1416 60.2594 34.7664 64.0712C34.933 65.1335 35.2662 66.1958 35.6827 67.1956C36.4741 69.0911 37.9944 69.9868 40.0562 69.9868C42.1179 69.9868 43.5757 69.0494 44.4504 67.1748C45.3043 65.321 45.575 63.3422 45.6583 61.3217C45.929 55.8436 45.5542 50.4071 44.9502 44.9498C44.8877 44.8665 44.8877 44.7624 44.8877 44.6582Z" fill="#999587"/>
<path d="M53.9258 32.2856C58.4033 27.7864 62.7351 23.4539 67.0669 19.1006C75.5638 29.2237 77.209 46.4704 68.3372 59.1764C66.6503 57.7808 64.9843 56.3852 63.3182 54.948C63.1308 54.7814 63.0058 54.4689 62.9225 54.219C62.3811 52.3027 61.8188 50.3655 61.3398 48.4284C61.0899 47.4286 60.6733 46.5954 59.9028 45.908C59.5904 45.6164 59.2988 45.2831 59.0281 44.9915C60.6525 44.6166 62.2561 44.3458 63.7556 43.8459C67.3584 42.6586 70.0658 40.4716 71.1487 36.6598C71.3778 35.8683 71.5028 35.0351 71.5444 34.2019C71.6902 30.9733 69.7117 29.2028 66.5254 29.7444C64.1304 30.161 61.7563 30.7859 59.3613 31.265C57.5911 31.6607 55.8418 31.9523 53.9258 32.2856Z" fill="#999587"/>
<path d="M66.6523 61.5089C63.6117 65.2582 59.988 68.1951 55.6979 70.4447C55.0731 69.5282 54.4275 68.6117 53.8236 67.6952C53.6986 67.5078 53.7194 67.1953 53.7403 66.9454C54.011 64.1542 54.3234 61.3631 54.5733 58.572C54.615 58.0304 54.5733 57.4263 54.3859 56.9056C53.0947 53.4271 51.7826 49.9486 50.4081 46.4909C50.1791 45.8868 49.7001 45.3869 49.3252 44.8037C51.1579 44.8662 52.9905 44.9495 54.8232 45.0328C55.0106 45.0328 55.1981 45.1995 55.3438 45.3244C55.5313 45.4911 55.6979 45.7202 55.8853 45.8868C57.8638 47.4699 58.9051 49.5528 59.3424 52.0315C59.5715 53.2605 59.9255 54.4477 60.3212 55.635C60.467 56.0932 60.7794 56.5723 61.1542 56.9056C62.9661 58.447 64.7988 59.9467 66.6523 61.5089Z" fill="#999587"/>
<path d="M45.1787 40.8469C46.9697 39.0764 48.5941 37.4517 50.2186 35.8479C50.3435 35.7229 50.5726 35.6396 50.76 35.6187C55.8623 34.973 60.9022 33.9524 65.9004 32.7443C66.3794 32.6193 66.8792 32.5777 67.3582 32.536C68.2953 32.4735 68.6702 32.7859 68.691 33.7233C68.7119 35.6187 68.1912 37.3268 66.8584 38.7223C65.2131 40.4512 63.0889 41.2427 60.7981 41.7009C57.216 42.43 53.6132 42.2425 49.9895 41.9301C48.8441 41.8259 47.7195 41.7009 46.5949 41.4926C46.1575 41.4301 45.741 41.1177 45.1787 40.8469Z" fill="#999587"/>
<path d="M41.9527 44.0742C42.1402 45.9697 42.3901 47.6361 42.4734 49.3232C42.64 52.6768 42.7858 56.0303 42.8066 59.363C42.8066 61.0085 42.515 62.6749 42.3484 64.3204C42.3276 64.5704 42.2443 64.8203 42.161 65.0703C41.7028 66.5492 41.078 67.1532 39.9743 67.1324C38.9122 67.1324 38.2249 66.57 37.8709 65.0911C37.5585 63.758 37.2461 62.3833 37.2461 61.0294C37.2669 57.0093 37.4543 52.9892 37.5793 48.9483C37.5793 48.6775 37.6834 48.3651 37.85 48.1776C39.1621 46.8654 40.4741 45.5531 41.9527 44.0742Z" fill="#999587"/>
<path d="M19.0625 67.2156C21.2909 64.9868 23.4359 62.8414 25.6226 60.6543C25.7059 61.425 25.8101 62.2373 25.8934 63.0705C26.0391 64.3619 26.1849 65.6534 26.2682 66.9448C26.2891 67.2781 26.1849 67.6738 26.0183 67.9446C25.4977 68.7778 24.9146 69.5901 24.2898 70.5066C22.5196 69.4026 20.7702 68.2987 19.0625 67.2156Z" fill="#999587"/>
<path d="M60.9242 12.9148C56.051 17.7889 51.2402 22.6005 46.367 27.4746C45.1382 25.9124 43.4722 25.4125 41.4312 25.9332C41.4312 25.0167 41.4312 24.1627 41.4312 23.3087C41.4312 21.3091 41.4312 19.3095 41.4312 17.289C41.4312 16.2892 40.869 15.706 39.9734 15.7268C39.1404 15.7476 38.5989 16.31 38.5989 17.2682C38.5781 19.851 38.5989 22.413 38.5989 24.9959C38.5989 25.2875 38.5989 25.5583 38.5989 25.8499C34.6004 24.8293 31.4557 28.5785 33.6008 32.4945C31.7056 31.0572 29.8938 29.7242 28.1027 28.3494C27.8945 28.1828 27.7903 27.8912 27.6862 27.6204C26.6866 25.3083 25.6661 22.9963 24.7081 20.6634C24.3749 19.8719 23.8751 19.4136 23.0629 19.1637C20.6263 18.393 18.2313 17.5806 15.8155 16.7683C15.6073 16.7058 15.399 16.6016 15.1699 16.5183C26.6866 3.85404 47.1792 1.95856 60.9242 12.9148Z" fill="#999587"/>
<path d="M28.7684 32.6598C26.9149 32.3682 25.0406 32.1391 23.1871 31.7642C20.334 31.2018 17.5017 30.5144 14.6486 29.9312C13.8988 29.7646 13.1074 29.6812 12.3369 29.7021C10.0669 29.7229 8.50494 31.3476 8.48412 33.6388C8.44247 38.3463 11.1498 42.0956 15.8565 43.7411C17.5017 44.3035 19.2094 44.6159 20.9588 45.0742C20.6464 45.4075 20.2923 45.8449 19.8967 46.2198C19.2719 46.7822 18.9595 47.4696 18.7721 48.3027C18.1473 51.1355 17.46 53.9683 16.7728 56.8011C16.7103 57.0511 16.6478 57.3219 16.4812 57.5093C15.3358 58.6758 14.1696 59.8422 12.92 61.1128C12.1078 59.8839 11.2748 58.7591 10.5667 57.5718C3.4651 45.8032 4.29813 30.4936 12.5868 19.5373C12.92 19.0999 13.1699 18.9541 13.7322 19.1416C16.273 20.0372 18.8554 20.8912 21.4169 21.7244C21.8959 21.891 22.1875 22.1202 22.3957 22.5992C23.3121 24.828 24.2492 27.0567 25.2489 29.2647C25.4988 29.8062 25.9153 30.3061 26.3735 30.7019C27.144 31.3893 27.9979 31.9516 28.8309 32.5765C28.8101 32.5557 28.7893 32.6182 28.7684 32.6598Z" fill="#999587"/>
<path d="M32.7055 36.0765C32.9346 37.5554 33.122 38.8885 33.3302 40.2008C33.3927 40.5549 32.6013 41.638 32.1015 41.7005C26.8326 42.2629 21.5637 42.8461 16.4405 40.8881C13.9623 39.9508 12.1088 38.3261 11.5048 35.5975C11.3799 35.0142 11.3174 34.4102 11.3174 33.8061C11.3174 32.7855 11.7131 32.3897 12.7335 32.5564C14.2746 32.7855 15.7949 33.1812 17.3152 33.452C22.126 34.2852 26.9367 35.1184 31.7475 35.9307C32.164 35.9932 32.5389 36.0557 32.7055 36.0765Z" fill="#999587"/>
<path d="M28.748 44.9913C26.0407 47.6992 23.3333 50.4278 20.5635 53.1773C20.7301 52.4274 20.98 51.6776 21.0633 50.9277C21.2716 49.1989 22.1462 47.9075 23.3125 46.6369C24.4371 45.4288 25.5617 44.7414 27.2069 44.9705C27.7275 45.0538 28.269 44.9913 28.748 44.9913Z" fill="#999587"/>
<path d="M35.7869 37.8672C35.5786 36.4927 36.016 35.2223 37.0573 34.181C38.0985 33.1605 39.3273 32.6815 40.7226 32.9315C39.0774 34.5767 37.4321 36.2219 35.7869 37.8672Z" fill="#999587"/>
<path d="M36.3081 31.0355C35.7458 30.619 35.6209 30.0359 35.8708 29.4111C36.1207 28.7864 36.6205 28.5156 37.3078 28.5781C37.9534 28.6406 38.3282 29.0154 38.5365 29.5986C38.6614 29.9734 38.5573 30.1609 38.1824 30.2858C37.5577 30.4941 36.9745 30.7648 36.3081 31.0355Z" fill="#999587"/>
<path d="M43.2011 30.7452C42.8054 30.5994 42.4306 30.3911 42.0141 30.3287C41.2852 30.1829 41.3685 29.7872 41.6184 29.3082C41.9308 28.7251 42.6597 28.4335 43.2844 28.621C44.1799 28.9125 44.3674 29.5998 43.7009 30.2454C43.5343 30.4328 43.3677 30.5786 43.2011 30.7452Z" fill="#999587"/>
</svg>
