<svg width="80" height="80" viewBox="0 0 80 80" fill="none" xmlns="http://www.w3.org/2000/svg">
<path d="M27.7916 24.4139C27.9283 24.5701 27.9869 24.6482 28.065 24.7263C35.3505 32.0285 42.6554 39.3502 49.9995 46.6328C50.2339 46.8671 50.6831 47.0038 51.0151 47.0038C55.6247 47.0233 60.2342 47.0233 64.8438 47.0233C65.0977 47.0233 65.3516 47.0233 65.6446 47.0233C65.3712 44.5632 64.668 42.3179 63.457 40.2483C62.4218 38.4716 61.0155 37.0268 59.3944 35.7772C58.0857 34.7424 58.0467 33.239 59.2186 32.0675C59.3748 31.9113 59.5506 31.7356 59.7264 31.5794C61.3476 29.9979 61.5624 27.4012 60.2342 25.5854C58.8865 23.7305 56.406 23.0667 54.3942 24.1015C52.5972 25.0192 51.7769 26.5226 51.7378 28.5336C51.7183 29.1779 51.6792 29.9393 51.3472 30.4665C50.4878 31.8723 48.6518 31.8332 47.4408 30.4275C43.8274 26.2297 39.2569 23.9453 33.7293 23.6524C31.7175 23.5158 29.7643 23.7696 27.7916 24.4139ZM14.6075 47.0233C14.8614 47.0233 15.1544 47.0233 15.4278 47.0233C20.8577 47.0233 26.3071 47.0233 31.737 47.0233C32.2058 47.0233 32.6746 47.0038 33.1238 46.9062C35.9364 46.3595 37.5771 43.4894 36.6396 40.7755C35.995 38.9206 34.2371 37.6906 32.1277 37.6515C30.0964 37.632 28.065 37.6516 26.0337 37.632C24.5883 37.6125 23.5531 36.6168 23.5531 35.2891C23.5531 33.9614 24.6079 32.9852 26.0532 32.9657C26.9908 32.9461 27.9283 32.9657 28.8658 32.9657C29.0612 32.9657 29.237 32.9266 29.3151 32.9266C27.1666 30.7789 25.0376 28.6507 22.8695 26.4835C16.4435 30.2908 12.6543 39.5845 14.6075 47.0233ZM43.3781 46.9843C42.675 46.3009 41.9523 45.5785 41.2491 44.9147C41.0148 45.52 40.7218 46.2228 40.4093 46.9843C41.4835 46.9843 42.4992 46.9843 43.3781 46.9843Z" fill="white"/>
<path d="M37.6558 79.9812C36.1714 79.786 34.6674 79.6298 33.183 79.376C22.7138 77.5016 14.2955 72.2495 7.90856 63.7954C3.4748 57.938 0.896575 51.2801 0.193423 43.9779C-0.783177 33.708 1.9513 24.4534 8.10388 16.214C8.74844 15.3354 9.47113 14.5154 10.0962 13.7344C13.2603 16.8974 16.3855 20.0213 19.5301 23.1647C16.6784 25.1758 14.276 27.7921 12.5767 30.9941C9.23674 37.281 8.2992 43.8803 10.8188 50.6358C13.2213 57.0399 18.0066 60.7105 24.8623 61.0033C31.4642 61.2962 38.0855 61.101 44.7069 61.0814C46.0546 61.0814 47.0312 60.0076 47.0312 58.7385C47.0312 57.4108 45.9764 56.4151 44.5115 56.4151C38.4176 56.4151 32.3236 56.4151 26.2296 56.4151C23.7881 56.4151 21.4442 56.0051 19.4129 54.5602C18.3777 53.8183 17.4988 52.8616 16.5417 52.0025C16.6003 51.9244 16.6394 51.8463 16.698 51.7682C16.9519 51.7487 17.1863 51.7292 17.4402 51.7292C27.5187 51.7292 37.5972 51.7292 47.6757 51.7487C48.0468 51.7487 48.5156 51.8854 48.7695 52.1392C54.551 57.8794 60.3129 63.6392 66.0749 69.3989C66.1921 69.5161 66.2702 69.6332 66.3874 69.7699C62.6177 73.1086 58.3988 75.7053 53.7111 77.4821C50.2149 78.8097 46.6015 79.6298 42.8513 79.8836C42.6755 79.9031 42.4997 79.9617 42.324 80.0007C40.7809 79.9812 39.2184 79.9812 37.6558 79.9812Z" fill="#999587"/>
<path d="M79.9996 42.3379C79.7848 43.8609 79.6285 45.3838 79.3551 46.8872C78.0074 54.287 74.726 60.7496 69.8235 66.3336C64.96 61.472 60.116 56.6299 55.194 51.7097C55.4674 51.7097 55.7409 51.7097 55.9948 51.7097C59.9012 51.7097 63.8076 51.7097 67.714 51.7097C69.5891 51.7097 70.5071 50.7725 70.4485 48.9177C70.3118 43.978 69.0031 39.4288 65.8389 35.5239C65.4678 35.0553 65.0772 34.5867 64.6279 34.1962C64.1787 33.7862 64.1787 33.4738 64.4717 32.9466C66.0538 30.1351 66.2491 27.2064 64.8233 24.2777C63.2021 20.9585 60.4872 19.1037 56.7956 18.9475C53.0455 18.7913 50.1743 20.4509 48.2406 23.6725C48.1429 23.8482 48.0257 24.0239 47.9085 24.2191C47.0101 23.5944 46.1702 22.95 45.2522 22.4229C38.709 18.518 31.8337 17.8541 24.6459 20.4509C24.2748 20.5876 23.9623 20.7047 23.6107 20.3338C20.3294 17.0146 17.0284 13.7345 13.7471 10.4348C13.6885 10.3762 13.6494 10.3177 13.5908 10.22C16.3644 7.74041 19.4114 5.69034 22.7513 4.05027C28.7086 1.12159 34.9979 -0.284179 41.6388 0.0477388C52.9283 0.613951 62.4013 5.14365 69.9211 13.5587C75.6245 19.9433 78.8472 27.4602 79.8043 35.9534C79.8629 36.5196 79.941 37.0858 79.9996 37.652C79.9996 39.214 79.9996 40.776 79.9996 42.3379Z" fill="#999587"/>
<path d="M27.793 24.414C29.7852 23.7502 31.7189 23.5159 33.7112 23.633C39.2583 23.9454 43.8092 26.2103 47.4226 30.4081C48.6141 31.7943 50.4696 31.8529 51.329 30.4471C51.6415 29.9199 51.7001 29.178 51.7197 28.5142C51.7783 26.5227 52.5791 24.9997 54.376 24.0821C56.3878 23.0668 58.8684 23.7111 60.2161 25.566C61.5443 27.3817 61.3294 29.9785 59.7083 31.56C59.5325 31.7162 59.3762 31.8919 59.2004 32.0481C58.0285 33.2196 58.0676 34.7425 59.3762 35.7578C60.9974 37.0269 62.4037 38.4522 63.4389 40.2289C64.6499 42.2985 65.353 44.5438 65.6265 47.0039C65.3335 47.0039 65.0796 47.0039 64.8257 47.0039C60.2161 47.0039 55.6065 47.0039 50.997 46.9844C50.6454 46.9844 50.2157 46.8477 49.9813 46.6134C42.6568 39.3503 35.3519 32.0286 28.0469 24.7264C27.9883 24.6678 27.9297 24.5702 27.793 24.414ZM58.7512 41.4004C58.7512 40.1313 57.6769 39.0574 56.4074 39.077C55.1378 39.077 54.0635 40.1508 54.0831 41.4199C54.0831 42.689 55.1573 43.7629 56.4269 43.7433C57.6965 43.7433 58.7512 42.6695 58.7512 41.4004Z" fill="#999587"/>
<path d="M14.6094 47.0232C12.6367 39.5844 16.4454 30.2907 22.9105 26.4639C25.0786 28.6311 27.2076 30.7593 29.3561 32.907C29.278 32.907 29.0827 32.946 28.9069 32.946C27.9693 32.946 27.0318 32.946 26.0943 32.946C24.6294 32.9655 23.5942 33.9418 23.5942 35.2694C23.5942 36.5971 24.6294 37.6124 26.0747 37.6124C28.1061 37.6319 30.1374 37.5929 32.1687 37.6319C34.2782 37.6514 36.036 38.901 36.6806 40.7558C37.6181 43.4698 35.9775 46.3399 33.1648 46.8866C32.7156 46.9842 32.2273 47.0037 31.7781 47.0037C26.3482 47.0037 20.8988 47.0037 15.4689 47.0037C15.1563 47.0232 14.8829 47.0232 14.6094 47.0232Z" fill="#999587"/>
<path d="M43.379 46.9835C42.5001 46.9835 41.4844 46.9835 40.4102 46.9835C40.7227 46.2217 41.0157 45.499 41.25 44.9131C41.9532 45.5772 42.6954 46.2999 43.379 46.9835Z" fill="#999587"/>
<path d="M58.7511 41.3999C58.7511 42.669 57.6964 43.7428 56.4268 43.7428C55.1573 43.7428 54.083 42.6885 54.083 41.4194C54.083 40.1503 55.1377 39.0764 56.4073 39.0764C57.6769 39.0569 58.7511 40.1112 58.7511 41.3999Z" fill="white"/>
</svg>
