<svg width="80" height="80" viewBox="0 0 80 80" fill="none" xmlns="http://www.w3.org/2000/svg">
<path d="M32.7576 61.2806C30.507 61.2806 28.2981 61.3223 26.11 61.2597C25.1098 61.2389 24.0678 61.1555 23.0884 60.9471C17.587 59.7381 13.7735 54.6105 14.0652 48.8575C14.3153 43.4172 18.6498 38.6022 24.0678 37.9977C26.6519 37.7059 29.2567 37.8726 31.8616 37.8309C32.1533 37.8309 32.4659 37.8309 32.7576 37.8309C32.7576 36.2259 32.7576 34.7252 32.7576 33.1827C21.8172 33.1827 10.9394 33.1827 0.0198635 33.1827C0.0198635 44.1259 0.0198635 55.0273 0.0198635 65.908C10.9602 65.908 21.8589 65.908 32.7576 65.908C32.7576 64.3655 32.7576 62.8647 32.7576 61.2806ZM32.7576 70.7229C21.7964 70.7229 10.8977 70.7229 -0.000976562 70.7229C-0.000976562 73.8496 -0.000976562 76.9136 -0.000976562 79.9986C10.9394 79.9986 21.8172 79.9986 32.7576 79.9986C32.7576 76.8928 32.7576 73.8287 32.7576 70.7229ZM32.7576 42.5209C30.3195 42.5209 27.923 42.4792 25.5474 42.5209C22.3591 42.5834 19.5667 44.9388 18.8998 48.0029C18.2121 51.2129 19.7334 54.402 22.6508 55.8194C23.2343 56.0904 23.8595 56.403 24.4846 56.4239C27.2353 56.4864 29.9652 56.4447 32.7576 56.4447C32.7576 51.8799 32.7576 47.2525 32.7576 42.5209ZM23.3802 9.75391C18.6706 9.75391 14.0444 9.75391 9.41816 9.75391C9.41816 12.8805 9.41816 15.9655 9.41816 19.0295C14.1069 19.0295 18.7331 19.0295 23.3802 19.0295C23.3802 15.9238 23.3802 12.8597 23.3802 9.75391ZM31.3614 28.4094C29.7985 26.8461 28.3398 25.3661 26.8602 23.9279C26.7144 23.8028 26.4226 23.782 26.2142 23.782C19.65 23.782 13.0858 23.782 6.52157 23.782C6.29234 23.782 6.02143 23.8028 5.87556 23.9488C4.39601 25.4078 2.93729 26.8669 1.39522 28.4302C11.4395 28.4094 21.3171 28.4094 31.3614 28.4094Z" fill="white"/>
<path d="M79.9997 17.6758C79.8747 18.1135 79.7705 18.5721 79.6246 19.0098C78.9578 21.2402 77.645 22.9911 75.707 24.2834C75.4152 24.471 75.1235 24.8253 75.0609 25.1588C73.7898 31.558 66.9963 34.6012 61.6199 31.7873C61.4115 31.6622 61.0156 31.7039 60.7864 31.8081C55.3891 34.4136 49.2 31.7039 47.4912 25.9926C47.387 25.6383 47.0327 25.2631 46.6785 25.0755C41.4479 22.2615 36.2174 19.4892 30.9869 16.6961C30.7368 16.5711 30.5076 16.4252 30.1533 16.2167C31.9246 15.4246 33.5917 14.6743 35.2797 13.9239C39.0515 12.2563 42.8442 10.5888 46.616 8.87959C46.9077 8.75453 47.2203 8.37934 47.2828 8.06667C48.0539 3.75194 50.8671 0.917142 55.1807 0.125066C55.2849 0.104222 55.3683 0.0416882 55.4725 0C56.2643 0 57.0354 0 57.8273 0C58.9109 0.396038 59.9945 0.792078 61.0781 1.16727C61.1823 1.20896 61.3282 1.20896 61.4324 1.16727C62.516 0.792078 63.5996 0.375194 64.6832 0C65.4751 0 66.2461 0 67.038 0C67.163 0.0416882 67.2672 0.104222 67.3923 0.125066C71.4767 0.833766 74.3941 3.7311 75.186 7.7957C75.2485 8.08751 75.5402 8.42102 75.8111 8.58778C77.7075 9.88011 78.9786 11.631 79.6455 13.8196C79.7705 14.2574 79.8955 14.7159 79.9997 15.1537C79.9997 16.0083 79.9997 16.842 79.9997 17.6758Z" fill="#999587"/>
<path d="M32.7563 61.2824C32.7563 62.8666 32.7563 64.3674 32.7563 65.9098C21.8576 65.9098 10.9589 65.9098 0.0185547 65.9098C0.0185547 55.0084 0.0185547 44.1277 0.0185547 33.1846C10.9381 33.1846 21.8159 33.1846 32.7563 33.1846C32.7563 34.727 32.7563 36.2278 32.7563 37.8328C32.4437 37.8328 32.152 37.8328 31.8602 37.8328C29.2554 37.8745 26.6297 37.7286 24.0665 37.9996C18.6484 38.604 14.3348 43.419 14.0639 48.8593C13.793 54.6123 17.5857 59.74 23.0871 60.9489C24.0665 61.1574 25.0876 61.2408 26.1087 61.2616C28.3176 61.3241 30.5057 61.2824 32.7563 61.2824Z" fill="#999587"/>
<path d="M32.7576 70.7236C32.7576 73.8294 32.7576 76.8935 32.7576 79.9993C21.8381 79.9993 10.9394 79.9993 -0.000976562 79.9993C-0.000976562 76.8935 -0.000976562 73.8294 -0.000976562 70.7236C10.9186 70.7236 21.7964 70.7236 32.7576 70.7236Z" fill="#999587"/>
<path d="M32.7569 42.5239C32.7569 47.2555 32.7569 51.8829 32.7569 56.4478C29.9854 56.4478 27.2346 56.4895 24.4839 56.4269C23.8588 56.4061 23.2336 56.1143 22.6501 55.8225C19.7327 54.4259 18.2114 51.2159 18.8991 48.0059C19.5451 44.921 22.3584 42.5864 25.5467 42.5239C27.9223 42.5031 30.3188 42.5239 32.7569 42.5239Z" fill="#999587"/>
<path d="M23.3809 9.75391C23.3809 12.8805 23.3809 15.9446 23.3809 19.0295C18.7131 19.0295 14.1077 19.0295 9.41895 19.0295C9.41895 15.9655 9.41895 12.8805 9.41895 9.75391C14.0452 9.75391 18.6922 9.75391 23.3809 9.75391Z" fill="#999587"/>
<path d="M31.3607 28.41C21.3164 28.41 11.418 28.41 1.39453 28.41C2.95744 26.8466 4.39532 25.3667 5.87487 23.9285C6.02075 23.8034 6.29165 23.7617 6.52088 23.7617C13.0851 23.7617 19.6493 23.7617 26.2136 23.7617C26.4428 23.7617 26.7345 23.7826 26.8596 23.9076C28.3599 25.3667 29.8187 26.8466 31.3607 28.41Z" fill="#999587"/>
</svg>
