<svg width="80" height="80" viewBox="0 0 80 80" fill="none" xmlns="http://www.w3.org/2000/svg">
<circle cx="40" cy="40" r="40" fill="#999587"/>
<path d="M25.6196 10.4346L23.1995 11.2443C19.8097 12.3811 17.5525 13.8778 16.2325 15.7425C14.9043 17.6072 14.6924 19.7664 15.0347 21.492C15.3443 23.0541 16.0532 24.2891 16.7051 25.2869C16.1103 25.6386 15.9717 25.5159 15.3443 26.1457C13.6494 27.8468 12.2723 31.0283 13.5353 34.8313C14.4887 37.7102 16.7051 39.2641 18.4978 39.9021C19.003 40.082 19.0111 39.9757 19.4593 40.0575C19.3289 40.7853 19.1822 40.8753 19.1985 41.8895C19.2393 44.2204 20.0623 47.3773 22.9876 49.2747C24.5277 50.2725 26.247 50.7796 27.9338 51.0495L16.3873 66.4989L18.9133 67.513C30.3213 72.1012 43.2937 67.5621 43.2937 67.5621L44.7197 67.0795V59.0236C46.3331 58.7864 48.5984 58.3448 51.3933 57.1671C55.8098 55.3105 60.7967 51.5157 61.3997 44.8256C61.636 42.233 61.033 39.5013 60.43 37.2849C60.2752 36.7042 60.2589 36.7533 60.1041 36.2626H66.957L65.3354 33.1874C65.3354 33.1874 64.2435 31.0365 63.6731 29.8587C65.3028 26.2111 64.1213 22.2363 61.1145 20.5597C60.2834 20.0935 59.3463 19.8072 58.3522 19.7255C55.3942 19.4719 51.9719 20.985 49.3155 24.5345C49.0466 24.8943 47.9302 26.2193 47.2946 26.9881C47.0991 26.6037 46.8872 26.1293 46.6509 25.5404C45.722 23.1932 44.7197 19.2838 44.7197 13.2316V11.1379H42.6337C40.1973 11.1379 38.2335 11.7759 36.8319 12.9045C35.4304 14.0332 34.6889 15.5462 34.3548 16.912C33.8822 18.7849 34.1918 19.5701 34.3548 20.4861C33.6214 20.8214 33.0999 20.8868 32.0325 21.9582C31.3969 22.5961 30.8102 23.4385 30.3865 24.4363C28.2515 21.4102 26.5078 17.6317 25.9292 12.9699L25.6196 10.4346ZM40.7677 15.8243C41.0284 20.7887 41.8107 24.6572 42.7885 27.0944C43.3752 28.5665 44.0108 29.6543 44.5078 30.3822C43.0655 32.1079 42.6744 32.5986 41.5581 33.9071C40.075 33.1874 37.0845 31.5108 34.0288 28.6238C33.5807 26.6854 34.1674 25.7367 34.9822 24.9189C35.8949 24.0029 37.0356 23.5939 37.0356 23.5939L38.8691 22.9805L38.3964 21.0995C38.3964 21.0995 38.0379 19.382 38.3964 17.9262C38.5839 17.1983 38.8854 16.6176 39.4395 16.1759C39.6676 15.9878 40.3765 15.9715 40.7677 15.8243ZM22.4905 16.454C23.8839 22.4735 26.9478 27.078 30.1827 30.4721C30.199 30.5294 30.2072 30.5866 30.2235 30.6439L30.3131 30.6112C33.9962 34.4388 37.769 36.6388 39.6839 37.6202L42.1366 39.714C42.1366 39.714 50.6355 29.7279 52.64 27.0535H52.6482C55.3617 23.4222 57.7492 23.4794 59.0937 24.2237C60.43 24.9679 61.2204 26.481 59.6722 28.8201L59.0529 29.7524L59.4848 30.7829C59.6559 31.2082 59.8433 31.5026 60.1285 32.0751H54.172L55.2883 34.9295C55.2883 34.9295 55.8669 36.4098 56.4128 38.389C56.9506 40.3682 57.3906 42.8709 57.244 44.4494C56.8039 49.2747 53.4468 51.761 49.7799 53.3068C46.1131 54.8525 42.4951 55.1061 42.4951 55.1061L40.5477 55.2369V63.8735C38.7468 64.397 31.1932 66.2044 23.2891 64.2416L32.9858 51.2785C35.1452 51.1722 36.7667 50.8859 36.7667 50.8859L35.9845 46.7639C35.9845 46.7639 34.1837 47.1156 31.8532 47.1319C29.5309 47.1565 26.8011 46.7639 25.2529 45.7579C23.7454 44.7765 23.395 43.3534 23.3706 41.824C23.3461 40.2865 23.7536 39.0188 23.7536 39.0188L24.7232 36.099L21.6594 36.2626C21.6594 36.2626 20.8608 36.3035 19.8993 35.96C18.9296 35.6083 18.017 35.0685 17.4955 33.5064C16.6725 31.0283 17.3814 30.0223 18.2941 29.1063C19.2067 28.1903 20.3475 27.7814 20.3475 27.7814L23.5499 26.71L21.1623 24.3137C21.1623 24.3137 19.4756 22.4489 19.1252 20.6742C18.9459 19.7827 18.9948 19.063 19.6223 18.1797C19.9971 17.6645 21.4557 17.0511 22.4905 16.454Z" fill="white"/>
<line x1="10.1095" y1="13.368" x2="66.6313" y2="69.8897" stroke="white" stroke-width="4"/>
</svg>
