<svg width="28" height="28" viewBox="0 0 28 28" fill="none" xmlns="http://www.w3.org/2000/svg">
<path d="M28 14.8696C27.9271 15.3944 27.8761 15.9192 27.7813 16.4368C27.1545 19.8626 25.4853 22.6762 22.7956 24.8775C20.9078 26.4154 18.7575 27.3995 16.3521 27.7931C12.6493 28.3908 9.20888 27.6692 6.11105 25.5408C2.96218 23.3759 0.972279 20.3874 0.265243 16.619C-0.492816 12.5663 0.374579 8.84888 2.86014 5.55424C5.0104 2.70423 7.87499 0.947574 11.381 0.255116C11.8694 0.160359 12.3723 0.116625 12.868 0.0510241C12.9554 0.036446 13.0429 0.0218671 13.1304 0C13.7135 0 14.2966 0 14.8797 0C15.3462 0.0583122 15.82 0.109335 16.2792 0.182226C18.9397 0.634146 21.2868 1.74208 23.2913 3.54247C25.704 5.70731 27.2128 8.38238 27.7813 11.5823C27.8688 12.0925 27.9271 12.6027 28 13.1203C28 13.7034 28 14.2865 28 14.8696ZM14.3404 27.0059C14.7485 26.9621 15.4847 26.9184 16.2063 26.7945C22.0303 25.7886 26.4693 20.9851 26.9504 15.1247C27.2419 11.6114 26.2506 8.46985 24.0275 5.72189C23.6776 5.29183 23.4298 5.27726 23.0362 5.67086C17.2414 11.4584 11.4539 17.2531 5.66641 23.0406C5.30196 23.4051 5.30925 23.6602 5.71015 23.9955C8.12282 25.9781 10.8999 26.9548 14.3404 27.0059ZM1.00872 13.9949C1.0233 15.03 1.13264 16.0432 1.38046 17.049C1.86154 19.0171 2.7508 20.781 4.04825 22.3336C4.32523 22.6616 4.60222 22.6762 4.90836 22.3846C4.95209 22.3409 4.99582 22.2971 5.04685 22.2461C10.5719 16.721 16.097 11.1959 21.6221 5.67086C21.8772 5.41575 22.1396 5.16063 22.3947 4.89823C22.6936 4.59209 22.6863 4.30053 22.3583 4.03812C18.7721 1.16624 14.7485 0.269695 10.3314 1.54528C4.77715 3.14886 1.04517 8.20016 1.00872 13.9949Z" fill="#E2001A"/>
<path d="M14.3406 27.0058C10.8929 26.9548 8.1158 25.9781 5.70313 23.9955C5.30224 23.6675 5.28766 23.4123 5.6594 23.0406C11.4469 17.2531 17.2417 11.4583 23.0292 5.67084C23.4228 5.27724 23.6706 5.29182 24.0205 5.72187C26.2436 8.46983 27.2349 11.6114 26.9434 15.1247C26.4623 20.9851 22.0306 25.7886 16.2066 26.7945C15.485 26.9184 14.7488 26.9621 14.3406 27.0058ZM15.711 15.6277C15.711 15.6641 15.711 15.7006 15.7183 15.737C15.9296 17.6394 16.0608 19.5492 15.9661 21.4662C15.9296 22.1659 15.8422 22.8657 15.5433 23.5144C15.2372 24.1704 14.727 24.4911 14.0053 24.4984C13.2837 24.4984 12.7516 24.185 12.4746 23.5217C12.3289 23.1718 12.2122 22.8001 12.1539 22.4283C11.9353 21.1017 12.0009 19.7605 12.0665 18.4194C12.0737 18.3173 12.081 18.2153 12.0883 18.0549C11.9717 18.1642 11.9061 18.2226 11.8478 18.2809C11.3157 18.813 10.7982 19.3669 10.2369 19.8772C9.94535 20.1469 9.87975 20.4093 9.92348 20.7883C10.0474 21.714 10.1422 22.6543 10.215 23.5873C10.2296 23.7768 10.1494 23.9955 10.0547 24.1704C9.87974 24.4838 9.65379 24.7754 9.44969 25.0742C11.753 26.2769 16.8772 26.2696 18.5391 25.0597C18.3423 24.7681 18.1455 24.4693 17.9341 24.185C17.7883 23.9882 17.7446 23.7841 17.7738 23.5435C17.8612 22.7782 17.9268 22.0056 18.0289 21.2329C18.1164 20.6352 18.0726 20.074 17.8248 19.5054C17.4822 18.7328 17.1688 17.9456 16.9137 17.1365C16.7169 16.4586 16.1702 16.0869 15.711 15.6277ZM18.8744 11.298C19.5377 11.1741 20.1573 11.0793 20.7696 10.9481C21.6078 10.7805 22.4315 10.5545 23.277 10.416C24.3922 10.2265 25.0847 10.8461 25.0336 11.9759C25.0191 12.2674 24.9753 12.559 24.8951 12.836C24.5234 14.1699 23.5685 14.9352 22.3075 15.3507C21.7754 15.5256 21.2215 15.6131 20.6529 15.7516C20.755 15.8536 20.8497 15.9775 20.9591 16.0723C21.2288 16.3128 21.3818 16.6044 21.462 16.9543C21.6297 17.6321 21.8265 18.31 22.016 18.9806C22.0451 19.0754 22.0816 19.1774 22.1545 19.2357C22.7376 19.7314 23.3207 20.2197 23.9111 20.7154C27.0235 16.2764 26.4477 10.2411 23.4665 6.69131C21.9577 8.20743 20.4488 9.73083 18.8744 11.298ZM23.328 21.5245C22.672 20.9778 22.0378 20.453 21.411 19.9136C21.2798 19.8043 21.1777 19.6366 21.1194 19.469C20.9809 19.0535 20.857 18.638 20.7768 18.208C20.6238 17.3479 20.2593 16.6117 19.5669 16.0577C19.494 15.9994 19.443 15.9192 19.3774 15.8609C19.3263 15.8172 19.2607 15.7589 19.1951 15.7589C18.5537 15.7297 17.9123 15.7078 17.2708 15.6787C17.402 15.8755 17.5624 16.0577 17.6499 16.2691C18.1236 17.4791 18.5901 18.6891 19.0421 19.9136C19.1077 20.0885 19.1222 20.3072 19.1077 20.4967C19.0202 21.4735 18.9109 22.4502 18.8161 23.4269C18.8088 23.5144 18.8015 23.6237 18.8453 23.6893C19.0566 24.0173 19.2753 24.3308 19.5013 24.6515C20.9955 23.8643 22.2638 22.8365 23.328 21.5245ZM15.813 14.2938C16.0098 14.3885 16.1629 14.4979 16.3232 14.527C16.7169 14.5999 17.1178 14.6436 17.5114 14.6801C18.7724 14.7894 20.0407 14.8477 21.2944 14.5999C22.0889 14.4395 22.8324 14.1626 23.4155 13.5576C23.882 13.0692 24.0569 12.4715 24.0569 11.8082C24.0569 11.4802 23.9184 11.3709 23.5904 11.3927C23.4155 11.4073 23.2478 11.4219 23.0802 11.4656C21.3308 11.8884 19.5669 12.2456 17.7811 12.4715C17.7155 12.4788 17.6353 12.508 17.5915 12.5517C17.0011 13.1057 16.4399 13.6742 15.813 14.2938ZM14.6832 15.4236C14.1657 15.9411 13.7065 16.4003 13.2619 16.8595C13.2035 16.9251 13.1671 17.0344 13.1671 17.1292C13.1161 18.536 13.0578 19.9428 13.0505 21.3568C13.0505 21.8306 13.1525 22.3117 13.2691 22.7782C13.3931 23.2957 13.6336 23.4852 14.0053 23.4925C14.3917 23.4998 14.6103 23.2884 14.7707 22.7709C14.7998 22.6834 14.829 22.596 14.8363 22.5085C14.8946 21.9327 14.9966 21.3495 14.9966 20.7737C14.9894 19.6002 14.9383 18.4266 14.88 17.2604C14.8363 16.67 14.7488 16.0869 14.6832 15.4236ZM6.67257 23.5217C7.27027 23.9007 7.88255 24.287 8.50212 24.6806C8.72079 24.3599 8.92488 24.0756 9.10711 23.7841C9.16542 23.682 9.20187 23.5508 9.19458 23.4342C9.16542 22.9823 9.1144 22.5304 9.06338 22.0785C9.03422 21.7869 8.99777 21.4953 8.96862 21.2329C8.20327 21.991 7.4525 22.7418 6.67257 23.5217Z" fill="white"/>
<path d="M1.00879 13.9949C1.05252 8.20007 4.77722 3.14878 10.3315 1.54519C14.7413 0.276901 18.7722 1.16616 22.3584 4.03804C22.6864 4.30044 22.6936 4.59201 22.3948 4.89815C22.1397 5.16055 21.8773 5.41566 21.6222 5.67078C16.0971 11.2032 10.572 16.7282 5.03962 22.2533C4.99589 22.2971 4.95215 22.3408 4.90113 22.3918C4.59499 22.6834 4.31072 22.6688 4.04102 22.3408C2.74358 20.7882 1.84703 19.0243 1.37324 17.0562C1.1327 16.0504 1.01608 15.0299 1.00879 13.9949ZM21.3233 4.51911C16.5126 0.692375 9.34015 1.34839 5.30203 5.78741C5.38221 5.81656 5.4551 5.85301 5.52799 5.87487C6.37351 6.15915 7.21904 6.44342 8.06457 6.71311C8.34884 6.80058 8.52378 6.96094 8.6404 7.23792C8.9757 8.05429 9.33286 8.86338 9.68273 9.67246C9.71918 9.75993 9.76291 9.86926 9.82851 9.92758C10.4554 10.4087 11.0822 10.8824 11.7528 11.3781C11.002 10.0078 12.1027 8.69573 13.5022 9.05289C13.5022 8.95085 13.5022 8.8488 13.5022 8.75404C13.5022 7.8502 13.5022 6.95365 13.5022 6.04981C13.5022 5.71452 13.6917 5.51042 13.9833 5.51042C14.2894 5.50313 14.4862 5.71452 14.4935 6.0571C14.5008 6.75685 14.4935 7.45659 14.4935 8.16363C14.4935 8.46248 14.4935 8.76133 14.4935 9.08205C15.2078 8.89982 15.7909 9.07476 16.221 9.62144C17.9339 7.90851 19.625 6.21746 21.3233 4.51911ZM10.0691 11.4291C10.0763 11.4145 10.0836 11.4 10.0909 11.3781C9.80665 11.1594 9.50051 10.9553 9.23081 10.7221C9.07045 10.5836 8.92467 10.4087 8.83721 10.2191C8.48733 9.4465 8.15933 8.66657 7.83861 7.88665C7.76572 7.719 7.66367 7.63882 7.49603 7.58051C6.59947 7.28895 5.69563 6.9901 4.80637 6.67667C4.60957 6.61107 4.5221 6.66209 4.40548 6.81516C1.50444 10.6565 1.21288 16.0066 3.69844 20.1249C3.94627 20.5404 4.23783 20.934 4.5221 21.3641C4.96673 20.9194 5.37492 20.5185 5.76852 20.1031C5.82684 20.0447 5.8487 19.9427 5.87057 19.8552C6.10382 18.8639 6.34436 17.8726 6.57032 16.8813C6.63592 16.597 6.74525 16.3565 6.96392 16.1524C7.10242 16.0212 7.22633 15.8681 7.33567 15.7515C6.72339 15.5984 6.12569 15.4818 5.54985 15.285C3.89524 14.7165 2.95496 13.3972 2.96954 11.7498C2.97683 10.948 3.5235 10.3795 4.31801 10.3722C4.5877 10.3722 4.86469 10.4014 5.12709 10.4524C6.12569 10.6565 7.117 10.897 8.11559 11.0938C8.75703 11.2469 9.41304 11.3271 10.0691 11.4291ZM11.4467 12.6245C11.3884 12.6172 11.2499 12.5954 11.1187 12.5735C9.43491 12.2819 7.75114 11.9977 6.06738 11.7061C5.52799 11.6113 5.00318 11.4801 4.46379 11.3927C4.10663 11.3344 3.96813 11.4728 3.96813 11.83C3.96813 12.0414 3.99 12.2528 4.03374 12.4569C4.24512 13.4117 4.89384 13.9803 5.76124 14.3083C7.55434 14.9862 9.39846 14.7894 11.2426 14.5926C11.4175 14.5707 11.6945 14.1989 11.6726 14.0677C11.5997 13.6085 11.5269 13.142 11.4467 12.6245ZM10.0618 15.7442C9.88683 15.7442 9.7046 15.7661 9.52966 15.7369C8.95383 15.6568 8.56022 15.8973 8.16661 16.3201C7.75114 16.7647 7.45229 17.2166 7.3794 17.8216C7.35024 18.0913 7.26278 18.3537 7.20446 18.6088C8.16662 17.6467 9.11419 16.6918 10.0618 15.7442ZM12.5255 13.2514C13.1013 12.6755 13.6771 12.0997 14.253 11.5239C13.7646 11.4364 13.3345 11.6041 12.9701 11.9612C12.6056 12.3257 12.4526 12.7703 12.5255 13.2514ZM12.7077 10.8606C12.9482 10.7658 13.1523 10.6711 13.3637 10.5982C13.4949 10.5544 13.5313 10.4888 13.4876 10.3576C13.4147 10.1535 13.2835 10.0223 13.0576 10.0005C12.8243 9.9786 12.6421 10.0806 12.5546 10.292C12.4671 10.5107 12.5036 10.7148 12.7077 10.8606ZM15.1203 10.7585C15.1787 10.7002 15.237 10.6492 15.2953 10.5909C15.5285 10.3649 15.4629 10.1171 15.1495 10.0223C14.9308 9.95673 14.6757 10.0515 14.5664 10.2629C14.4789 10.4305 14.4498 10.569 14.7049 10.62C14.8434 10.6346 14.9746 10.7075 15.1203 10.7585Z" fill="white"/>
<path d="M15.7106 15.6276C16.1698 16.0868 16.7164 16.4586 16.9278 17.1292C17.1829 17.931 17.4964 18.7255 17.839 19.4981C18.0868 20.0666 18.1305 20.6206 18.0431 21.2256C17.9337 21.9909 17.8754 22.7636 17.7879 23.5362C17.7588 23.7768 17.8025 23.9809 17.9483 24.1777C18.1597 24.4619 18.3492 24.7608 18.5533 25.0523C16.8841 26.2623 11.7672 26.2696 9.46387 25.0669C9.66796 24.7681 9.88663 24.4765 10.0689 24.1631C10.1636 23.9881 10.2438 23.7695 10.2292 23.58C10.149 22.647 10.0543 21.714 9.93765 20.781C9.88663 20.4019 9.95223 20.1322 10.2511 19.8698C10.8123 19.3596 11.3299 18.8056 11.862 18.2735C11.9276 18.2079 11.9932 18.1496 12.1025 18.0476C12.0952 18.2079 12.0806 18.31 12.0806 18.412C12.015 19.7532 11.9494 21.0871 12.1681 22.421C12.2264 22.7927 12.343 23.1645 12.4888 23.5144C12.7658 24.1777 13.2979 24.4911 14.0195 24.4911C14.7411 24.4911 15.2514 24.1631 15.5575 23.5071C15.8563 22.8583 15.9511 22.1659 15.9803 21.4588C16.075 19.5418 15.9438 17.6394 15.7324 15.7297C15.7106 15.7005 15.7106 15.6641 15.7106 15.6276Z" fill="#E2001A"/>
<path d="M18.874 11.298C20.4412 9.72358 21.9573 8.20746 23.4734 6.68405C26.4473 10.2265 27.0232 16.2618 23.918 20.7081C23.3276 20.2198 22.7445 19.7314 22.1614 19.2285C22.0958 19.1702 22.052 19.0608 22.0229 18.9734C21.8334 18.3028 21.6366 17.6249 21.4689 16.947C21.3815 16.5971 21.2357 16.3056 20.966 16.065C20.8566 15.963 20.7546 15.8464 20.6598 15.7443C21.2284 15.6131 21.7896 15.5184 22.3144 15.3434C23.5754 14.9279 24.523 14.1626 24.9021 12.8287C24.9822 12.5517 25.026 12.2602 25.0405 11.9686C25.0916 10.8388 24.3991 10.2192 23.2839 10.4087C22.4456 10.5545 21.6147 10.7732 20.7765 10.9408C20.1569 11.0793 19.5446 11.1814 18.874 11.298Z" fill="#E2001A"/>
<path d="M23.3277 21.5246C22.2635 22.8366 20.9952 23.8644 19.4936 24.6516C19.275 24.3309 19.049 24.0101 18.8376 23.6894C18.7939 23.6238 18.8012 23.5145 18.8085 23.427C18.9032 22.4503 19.0126 21.4736 19.1 20.4968C19.1146 20.3073 19.1 20.0959 19.0344 19.9137C18.5825 18.6964 18.1233 17.4792 17.6422 16.2692C17.562 16.0578 17.3944 15.8829 17.2632 15.6788C17.9046 15.7006 18.546 15.7298 19.1875 15.759C19.2531 15.759 19.3187 15.8173 19.3697 15.861C19.4353 15.9193 19.4936 15.9995 19.5592 16.0578C20.2517 16.6118 20.6161 17.3407 20.7692 18.2081C20.8494 18.6381 20.9733 19.0536 21.1118 19.4691C21.1628 19.6294 21.2721 19.7971 21.4034 19.9137C22.0375 20.4531 22.6789 20.9779 23.3277 21.5246Z" fill="#E2001A"/>
<path d="M15.813 14.2938C16.4398 13.6742 17.0084 13.1057 17.5769 12.5444C17.6207 12.5007 17.7008 12.4715 17.7664 12.4642C19.5523 12.2383 21.3162 11.8811 23.0656 11.4584C23.2332 11.4146 23.4082 11.4 23.5758 11.3855C23.9038 11.3636 24.035 11.4729 24.0423 11.8009C24.0496 12.4642 23.8674 13.0619 23.4009 13.5503C22.825 14.1553 22.0816 14.4323 21.2798 14.5926C20.026 14.8478 18.765 14.7822 17.4968 14.6728C17.0959 14.6364 16.7022 14.5926 16.3086 14.5197C16.1556 14.4979 16.0098 14.3885 15.813 14.2938Z" fill="#E2001A"/>
<path d="M14.683 15.4235C14.7486 16.0868 14.836 16.6699 14.8652 17.2604C14.9235 18.4339 14.9745 19.6074 14.9818 20.7737C14.9818 21.3495 14.8798 21.9326 14.8215 22.5085C14.8142 22.5959 14.785 22.6834 14.7559 22.7709C14.5955 23.2884 14.3768 23.4998 13.9905 23.4925C13.6188 23.4925 13.3782 23.2957 13.2543 22.7782C13.145 22.3117 13.0356 21.8306 13.0356 21.3568C13.0429 19.95 13.1085 18.5432 13.1523 17.1292C13.1523 17.0344 13.1887 16.9251 13.247 16.8595C13.7062 16.4003 14.1654 15.941 14.683 15.4235Z" fill="#E2001A"/>
<path d="M6.67236 23.5218C7.45229 22.7418 8.20306 21.9911 8.96841 21.2257C8.99756 21.4954 9.03401 21.7797 9.06317 22.0712C9.11419 22.5232 9.16521 22.9751 9.19437 23.427C9.20166 23.5436 9.16521 23.6821 9.1069 23.7769C8.92467 24.0684 8.72058 24.3527 8.50191 24.6734C7.88234 24.2871 7.27006 23.9008 6.67236 23.5218Z" fill="#E2001A"/>
<path d="M21.3231 4.51913C19.6174 6.22477 17.9337 7.90853 16.228 9.61416C15.798 9.06749 15.2149 8.89255 14.5005 9.07478C14.5005 8.75406 14.5005 8.45521 14.5005 8.15636C14.5005 7.45661 14.5005 6.75686 14.5005 6.04983C14.5005 5.69996 14.3037 5.49586 13.9903 5.50315C13.6988 5.51044 13.5092 5.70724 13.5092 6.04254C13.502 6.94638 13.5092 7.84293 13.5092 8.74677C13.5092 8.84882 13.5092 8.94357 13.5092 9.04562C12.1097 8.68846 11.0091 10.0005 11.7599 11.3708C11.0966 10.8679 10.4624 10.4014 9.83557 9.9203C9.76268 9.86199 9.72623 9.75995 9.68979 9.66519C9.33991 8.85611 8.98275 8.04702 8.64746 7.23065C8.53083 6.95367 8.3559 6.79331 8.07162 6.70584C7.21881 6.43615 6.38057 6.15188 5.53504 5.8676C5.46215 5.84574 5.38926 5.80929 5.30908 5.78013C9.33991 1.3484 16.5123 0.685103 21.3231 4.51913Z" fill="#E2001A"/>
<path d="M10.0691 11.4292C9.42033 11.3272 8.76432 11.247 8.11559 11.1158C7.117 10.919 6.12569 10.6785 5.12709 10.4744C4.86469 10.4161 4.5877 10.3869 4.31801 10.3942C3.52351 10.4015 2.97683 10.97 2.96954 11.7718C2.95496 13.4191 3.90253 14.7312 5.54986 15.307C6.12569 15.5038 6.72339 15.6131 7.33567 15.7735C7.22633 15.8901 7.10242 16.0432 6.96393 16.1744C6.74526 16.3712 6.63592 16.6117 6.57032 16.9033C6.35165 17.8946 6.11111 18.8859 5.87057 19.8772C5.84871 19.9647 5.82684 20.0595 5.76853 20.1251C5.36763 20.5332 4.95944 20.9414 4.5221 21.3861C4.23783 20.956 3.94627 20.5624 3.69844 20.1469C1.21288 16.0286 1.50444 10.6712 4.40548 6.83715C4.5221 6.68408 4.60957 6.63306 4.80637 6.69866C5.69564 7.01209 6.59948 7.31094 7.49603 7.6025C7.66367 7.66081 7.76572 7.74099 7.83861 7.90864C8.15933 8.68857 8.48733 9.46849 8.83721 10.2411C8.92468 10.4306 9.07046 10.6056 9.23082 10.7441C9.50051 10.9846 9.79936 11.1814 10.0909 11.4001C10.0836 11.3928 10.0763 11.4147 10.0691 11.4292Z" fill="#E2001A"/>
<path d="M11.4468 12.6246C11.5269 13.1422 11.5926 13.6087 11.6654 14.0679C11.6873 14.1918 11.4103 14.5708 11.2354 14.5927C9.39126 14.7895 7.54714 14.9936 5.75404 14.3084C4.88664 13.9804 4.23792 13.4119 4.02654 12.457C3.9828 12.2529 3.96094 12.0415 3.96094 11.8301C3.96094 11.473 4.09943 11.3345 4.45659 11.3928C4.99598 11.473 5.52808 11.6115 6.06018 11.7062C7.74394 11.9978 9.42771 12.2894 11.1115 12.5736C11.2573 12.5955 11.3885 12.6174 11.4468 12.6246Z" fill="#E2001A"/>
<path d="M10.0619 15.7443C9.11428 16.6919 8.16671 17.6467 7.19727 18.6089C7.25558 18.3465 7.34305 18.0841 7.3722 17.8217C7.44509 17.2167 7.75123 16.7648 8.15942 16.3201C8.55302 15.8974 8.94663 15.6568 9.52247 15.737C9.70469 15.7662 9.89421 15.7443 10.0619 15.7443Z" fill="#E2001A"/>
<path d="M12.5255 13.2514C12.4526 12.7703 12.6057 12.3257 12.9701 11.9612C13.3346 11.6041 13.7646 11.4364 14.253 11.5239C13.6772 12.0997 13.1013 12.6756 12.5255 13.2514Z" fill="#E2001A"/>
<path d="M12.7077 10.8606C12.5109 10.7148 12.4672 10.5107 12.5547 10.2921C12.6421 10.0734 12.8171 9.97864 13.0576 10.0005C13.2836 10.0224 13.4148 10.1536 13.4877 10.3577C13.5314 10.4889 13.495 10.5545 13.3638 10.5982C13.1451 10.6711 12.941 10.7659 12.7077 10.8606Z" fill="#E2001A"/>
<path d="M15.1205 10.7586C14.982 10.7076 14.8508 10.6347 14.705 10.6128C14.4499 10.5618 14.4791 10.4233 14.5665 10.2557C14.6759 10.0516 14.931 9.94953 15.1496 10.0151C15.4631 10.1172 15.5287 10.3577 15.2954 10.5837C15.2371 10.6493 15.1788 10.7003 15.1205 10.7586Z" fill="#E2001A"/>
</svg>
