<svg width="28" height="29" viewBox="0 0 28 29" fill="none" xmlns="http://www.w3.org/2000/svg">
<path d="M9.72713 8.54816C9.77498 8.60284 9.79549 8.63019 9.82283 8.65753C12.3727 11.2142 14.9294 13.7778 17.4998 16.3276C17.5818 16.4097 17.739 16.4575 17.8553 16.4575C19.4686 16.4644 21.0819 16.4644 22.6952 16.4644C22.7841 16.4644 22.8729 16.4644 22.9755 16.4644C22.8798 15.603 22.6337 14.8169 22.2098 14.0922C21.8475 13.4701 21.3553 12.9643 20.7879 12.5268C20.3299 12.1645 20.3162 11.6381 20.7264 11.2279C20.7811 11.1732 20.8426 11.1117 20.9041 11.057C21.4715 10.5033 21.5467 9.59408 21.0819 8.95832C20.6102 8.30889 19.742 8.07646 19.0379 8.43878C18.409 8.76007 18.1219 9.28646 18.1082 9.99057C18.1014 10.2162 18.0877 10.4828 17.9715 10.6673C17.6707 11.1595 17.0281 11.1459 16.6042 10.6537C15.3396 9.18391 13.7399 8.38409 11.8053 8.28155C11.1012 8.2337 10.4176 8.32256 9.72713 8.54816ZM5.11276 16.4644C5.20163 16.4644 5.30417 16.4644 5.39988 16.4644C7.30031 16.4644 9.20758 16.4644 11.108 16.4644C11.2721 16.4644 11.4362 16.4575 11.5934 16.4233C12.5778 16.2319 13.152 15.227 12.8239 14.2768C12.5983 13.6274 11.983 13.1967 11.2447 13.183C10.5338 13.1762 9.82283 13.183 9.11188 13.1762C8.60601 13.1694 8.2437 12.8207 8.2437 12.3559C8.2437 11.891 8.61284 11.5492 9.11872 11.5424C9.44685 11.5355 9.77498 11.5424 10.1031 11.5424C10.1715 11.5424 10.233 11.5287 10.2603 11.5287C9.50837 10.7767 8.76324 10.0316 8.00443 9.27278C5.75536 10.6058 4.42915 13.8598 5.11276 16.4644ZM15.1823 16.4507C14.9362 16.2114 14.6833 15.9585 14.4372 15.7261C14.3552 15.938 14.2526 16.1841 14.1432 16.4507C14.5192 16.4507 14.8747 16.4507 15.1823 16.4507Z" fill="white"/>
<path d="M13.1793 28.0037C12.6598 27.9353 12.1334 27.8806 11.6139 27.7918C7.94972 27.1355 5.00336 25.2966 2.76796 22.3366C1.21616 20.2857 0.313797 17.9546 0.0676969 15.3979C-0.274108 11.8021 0.682946 8.56183 2.83632 5.67699C3.06191 5.36937 3.31485 5.08225 3.5336 4.80881C4.64105 5.91626 5.73482 7.01003 6.83544 8.11064C5.83737 8.81476 4.99652 9.7308 4.40178 10.8519C3.23281 13.0531 2.90468 15.3637 3.78654 17.729C4.62738 19.9713 6.30222 21.2565 8.70169 21.359C11.0123 21.4615 13.3297 21.3932 15.6472 21.3863C16.1189 21.3863 16.4607 21.0104 16.4607 20.566C16.4607 20.1012 16.0915 19.7525 15.5788 19.7525C13.4459 19.7525 11.3131 19.7525 9.18022 19.7525C8.3257 19.7525 7.50537 19.609 6.79442 19.1031C6.43211 18.8433 6.12448 18.5084 5.78951 18.2076C5.81002 18.1802 5.82369 18.1529 5.8442 18.1255C5.93307 18.1187 6.0151 18.1119 6.10397 18.1119C9.6314 18.1119 13.1588 18.1119 16.6863 18.1187C16.8161 18.1187 16.9802 18.1665 17.0691 18.2554C19.0926 20.2652 21.1092 22.2819 23.1259 24.2985C23.1669 24.3395 23.1942 24.3806 23.2352 24.4284C21.9159 25.5974 20.4393 26.5066 18.7986 27.1287C17.5749 27.5935 16.3103 27.8806 14.9977 27.9695C14.9362 27.9763 14.8747 27.9969 14.8132 28.0105C14.2731 28.0037 13.7262 28.0037 13.1793 28.0037Z" fill="#E2001A"/>
<path d="M28.0001 14.8237C27.9249 15.3569 27.8702 15.8901 27.7745 16.4165C27.3028 19.0074 26.1543 21.2701 24.4385 23.2253C22.7363 21.5231 21.0409 19.8277 19.3182 18.105C19.4139 18.105 19.5096 18.105 19.5985 18.105C20.9657 18.105 22.3329 18.105 23.7002 18.105C24.3564 18.105 24.6777 17.7769 24.6572 17.1275C24.6094 15.3979 24.1513 13.8051 23.0439 12.4379C22.914 12.2738 22.7773 12.1098 22.6201 11.9731C22.4628 11.8295 22.4628 11.7201 22.5654 11.5355C23.1191 10.5511 23.1874 9.52573 22.6884 8.50031C22.121 7.33818 21.1708 6.68875 19.8788 6.63406C18.5662 6.57937 17.5613 7.16044 16.8846 8.28839C16.8504 8.34992 16.8094 8.41144 16.7683 8.4798C16.4539 8.26105 16.1599 8.03546 15.8386 7.85088C13.5485 6.48366 11.1422 6.25124 8.62656 7.16044C8.49667 7.20829 8.38729 7.24931 8.26424 7.11942C7.11578 5.95728 5.96048 4.80882 4.81201 3.65352C4.7915 3.63301 4.77783 3.6125 4.75732 3.57832C5.72805 2.71014 6.79448 1.99235 7.96345 1.41812C10.0485 0.3927 12.2497 -0.099499 14.574 0.0167147C18.5252 0.214962 21.8407 1.80094 24.4726 4.74729C26.4688 6.9827 27.5967 9.6146 27.9317 12.5883C27.9522 12.7865 27.9796 12.9848 28.0001 13.183C28.0001 13.7299 28.0001 14.2768 28.0001 14.8237Z" fill="#E2001A"/>
<path d="M9.72705 8.54816C10.4243 8.31573 11.1011 8.2337 11.7984 8.27471C13.7398 8.38409 15.3327 9.17708 16.5973 10.6468C17.0143 11.1322 17.6638 11.1527 17.9646 10.6605C18.0739 10.4759 18.0944 10.2162 18.1013 9.98374C18.1218 9.28646 18.4021 8.75324 19.031 8.43194C19.7351 8.07647 20.6033 8.30206 21.075 8.95149C21.5398 9.58725 21.4646 10.4964 20.8972 11.0502C20.8357 11.1049 20.781 11.1664 20.7195 11.2211C20.3093 11.6312 20.323 12.1645 20.781 12.5199C21.3484 12.9643 21.8406 13.4633 22.2029 14.0854C22.6268 14.81 22.8729 15.5962 22.9686 16.4575C22.866 16.4575 22.7772 16.4575 22.6883 16.4575C21.075 16.4575 19.4617 16.4575 17.8483 16.4507C17.7253 16.4507 17.5749 16.4028 17.4929 16.3208C14.9293 13.7778 12.3726 11.2142 9.81592 8.65754C9.79541 8.63703 9.7749 8.60285 9.72705 8.54816ZM20.5623 14.4956C20.5623 14.0512 20.1863 13.6752 19.7419 13.6821C19.2976 13.6821 18.9216 14.0581 18.9284 14.5024C18.9284 14.9467 19.3044 15.3227 19.7488 15.3159C20.1931 15.3159 20.5623 14.9399 20.5623 14.4956Z" fill="#E2001A"/>
<path d="M5.11272 16.4644C4.42227 13.8598 5.75531 10.6058 8.01806 9.26595C8.77686 10.0248 9.522 10.7699 10.274 11.5219C10.2466 11.5219 10.1783 11.5355 10.1167 11.5355C9.78861 11.5355 9.46048 11.5355 9.13234 11.5355C8.61964 11.5424 8.25732 11.8842 8.25732 12.349C8.25732 12.8139 8.61964 13.1694 9.12551 13.1694C9.83646 13.1762 10.5474 13.1625 11.2584 13.1762C11.9967 13.183 12.6119 13.6205 12.8375 14.27C13.1656 15.2202 12.5914 16.2251 11.607 16.4165C11.4498 16.4507 11.2789 16.4575 11.1216 16.4575C9.22121 16.4575 7.31394 16.4575 5.41351 16.4575C5.30413 16.4644 5.20842 16.4644 5.11272 16.4644Z" fill="#E2001A"/>
<path d="M15.1822 16.4507C14.8745 16.4507 14.5191 16.4507 14.1431 16.4507C14.2524 16.1841 14.355 15.9311 14.437 15.7261C14.6831 15.9585 14.9429 16.2114 15.1822 16.4507Z" fill="#E2001A"/>
<path d="M20.5625 14.4956C20.5625 14.9399 20.1934 15.3159 19.749 15.3159C19.3047 15.3159 18.9287 14.9467 18.9287 14.5024C18.9287 14.0581 19.2979 13.6821 19.7422 13.6821C20.1866 13.6752 20.5625 14.0444 20.5625 14.4956Z" fill="white"/>
</svg>
