<svg width="28" height="28" viewBox="0 0 28 28" fill="none" xmlns="http://www.w3.org/2000/svg">
<path d="M28 14.8614C27.9271 15.3716 27.8834 15.8891 27.7886 16.3993C27.0015 20.6121 24.7566 23.8336 21.0904 26.0493C18.8456 27.405 16.3893 28.0391 13.7727 27.9735C9.69841 27.8715 6.28007 26.2971 3.55415 23.2797C1.53521 21.0421 0.398198 18.3891 0.0775007 15.3935C-0.673222 8.36727 4.10808 1.79299 11.0322 0.320696C11.6445 0.189502 12.2713 0.131195 12.8908 0.0437318C12.971 0.0291547 13.0511 0.0145771 13.1313 0C13.7144 0 14.2975 0 14.8806 0C15.347 0.0583085 15.8208 0.109328 16.28 0.182214C19.1881 0.677837 21.71 1.95333 23.8091 4.03058C25.93 6.12239 27.2639 8.64424 27.7813 11.5815C27.8688 12.0917 27.9271 12.6019 28 13.1194C28 13.6952 28 14.2783 28 14.8614ZM0.99586 14.4314C1.05417 14.8905 1.10519 15.7797 1.2874 16.6544C3.23345 25.9619 14.2246 30.0799 21.8193 24.3584C22.5044 23.8409 22.5482 23.2287 21.9359 22.6164C21.1633 21.8438 20.3907 21.0712 19.6181 20.2987C14.8733 15.5538 10.1284 10.8089 5.38358 6.0568C4.77134 5.44456 4.15181 5.481 3.63432 6.16613C1.89964 8.49118 1.03959 11.1078 0.99586 14.4314ZM13.9987 0.991245C11.2582 0.962091 8.22612 1.99707 6.0687 3.72446C5.93751 3.8265 5.82818 3.97956 5.75529 4.12533C5.56579 4.5262 5.68241 4.93436 6.05412 5.30608C9.99724 9.24919 13.9404 13.1923 17.8835 17.1354C19.5015 18.7535 21.1123 20.3715 22.7377 21.9823C23.2333 22.4779 23.8965 22.4415 24.3047 21.9021C26.7172 18.666 27.5773 15.0582 26.6735 11.1224C25.2887 5.17488 20.0992 1.06413 13.9987 0.991245Z" fill="#E2001A"/>
<path d="M0.995605 14.4314C1.03934 11.1005 1.8921 8.48389 3.63407 6.16612C4.15156 5.481 4.7638 5.43726 5.38332 6.05679C10.1282 10.8016 14.873 15.5465 19.6179 20.2914C20.3905 21.064 21.1631 21.8365 21.9357 22.6091C22.5479 23.2214 22.5115 23.8336 21.819 24.3511C14.2244 30.0726 3.2332 25.9546 1.28715 16.6471C1.11222 15.787 1.05391 14.8905 0.995605 14.4314ZM8.72149 10.8235C8.69233 10.8235 8.65589 10.8235 8.62674 10.8235C8.583 11.0859 8.51012 11.3483 8.51012 11.6107C8.50283 13.7098 8.48096 15.8162 8.51012 17.9153C8.53927 20.0946 9.52323 21.7418 11.4183 22.8278C11.5859 22.9225 11.6806 22.9007 11.8191 22.7768C12.9124 21.7491 13.4736 20.4882 13.5028 19.0013C13.5247 17.9372 13.5101 16.873 13.5028 15.8089C13.5028 15.685 13.4299 15.5319 13.3424 15.4372C11.8629 13.943 10.376 12.4634 8.88184 10.9766C8.83082 10.9183 8.77979 10.8745 8.72149 10.8235ZM7.50429 14.5115C7.50429 13.8628 7.48972 13.2506 7.51158 12.6457C7.51887 12.3978 7.47514 12.2448 7.22733 12.1355C7.01596 12.048 6.81917 11.8949 6.62967 11.7637C5.84979 11.2171 5.25942 10.5028 4.74193 9.70108C4.39937 9.16172 3.98392 8.6661 3.59034 8.12675C2.44603 10.0145 1.76819 12.6894 2.10347 15.4445C2.35128 17.4561 3.06556 19.2855 4.27546 20.9619C4.48683 20.6558 4.67633 20.3861 4.85126 20.1091C5.47807 19.1033 6.30168 18.3162 7.34395 17.7622C7.40954 17.7258 7.49701 17.6602 7.49701 17.6019C7.5043 16.9095 7.50429 16.2243 7.50429 15.4372C6.97952 15.6048 6.50576 15.7506 6.03929 15.9109C5.68944 16.0348 5.35417 16.2171 4.99703 16.2972C4.52327 16.3993 4.02765 16.4503 3.53931 16.4867C3.23319 16.5086 3.02911 16.2827 3.02183 16.0057C3.01454 15.7214 3.19675 15.5246 3.51016 15.4955C3.58305 15.4882 3.65593 15.5028 3.72882 15.4882C4.21715 15.3934 4.72735 15.357 5.18653 15.1821C5.92996 14.8905 6.65153 14.548 7.50429 14.5115ZM7.54074 18.8264C6.6734 19.2783 5.4635 20.6631 4.93872 21.7855C9.3483 26.9896 16.8993 27.1207 21.3088 23.4619C20.682 22.8351 20.0552 22.2083 19.443 21.5887C17.7812 23.8263 15.5655 24.8977 12.7812 24.3365C9.80748 23.7461 8.13111 21.7782 7.54074 18.8264ZM18.6777 20.8599C17.271 19.4459 15.8934 18.0684 14.5086 16.6762C14.5086 16.6908 14.5013 16.7273 14.5013 16.7564C14.5013 17.5654 14.4722 18.3818 14.5086 19.1908C14.5742 20.6121 15.1427 21.8074 16.1923 22.7768C16.2943 22.8715 16.3745 22.9444 16.5421 22.8569C17.4532 22.3686 18.1675 21.6981 18.6777 20.8599ZM7.89788 10.0801C6.76815 8.95035 5.63842 7.82063 4.50141 6.67632C4.37021 6.85854 4.23173 7.06261 4.13698 7.19381C4.73464 8.0247 5.29586 8.79 5.8425 9.56988C6.29439 10.2113 6.83375 10.7433 7.49701 11.1369C7.64278 10.7725 7.77397 10.4154 7.89788 10.0801ZM12.7739 23.3307C13.5902 23.5348 14.4284 23.5348 15.2448 23.3307C14.822 22.7185 14.3993 22.1135 14.013 21.545C13.6121 22.1135 13.1967 22.7112 12.7739 23.3307Z" fill="white"/>
<path d="M13.9984 0.991251C20.0989 1.06414 25.2957 5.18218 26.6587 11.1296C27.5624 15.0728 26.7097 18.6733 24.2899 21.9094C23.889 22.4488 23.2185 22.4779 22.7228 21.9896C21.1048 20.3788 19.4867 18.7535 17.8686 17.1427C13.9328 13.1923 9.98971 9.2492 6.04659 5.30608C5.67487 4.93436 5.55826 4.51892 5.74776 4.12533C5.82065 3.97227 5.92997 3.8265 6.06117 3.72446C8.22587 1.99707 11.2579 0.954808 13.9984 0.991251ZM6.71714 4.48247C7.80314 5.57576 8.89642 6.66175 9.93869 7.70402C10.2594 7.37603 10.6019 7.03347 10.9372 6.67633C10.9955 6.61802 11.0393 6.53056 11.0538 6.45039C11.1559 5.96205 11.3308 5.49558 11.6661 5.12387C11.9503 4.81046 12.2856 4.54807 12.6282 4.23466C12.5261 4.1472 12.3949 4.02329 12.2565 3.91396C12.0086 3.71717 11.9503 3.42563 12.1107 3.1924C12.271 2.96645 12.5626 2.90085 12.8104 3.09036C13.0801 3.30901 13.306 3.58598 13.5684 3.8265C13.6413 3.89939 13.7433 3.95041 13.8454 3.97227C13.9474 3.99414 14.064 3.96499 14.1733 3.97956C14.3191 4.00143 14.3847 3.92854 14.4795 3.8265C14.7054 3.56411 14.9532 3.30173 15.2302 3.08307C15.4707 2.89357 15.7695 2.96645 15.9299 3.1924C16.0975 3.42563 16.0319 3.71718 15.7841 3.90668C15.6456 4.01601 15.5144 4.13991 15.376 4.25653C15.4197 4.30026 15.4343 4.32941 15.4561 4.34399C16.287 4.80317 16.7754 5.51745 16.9722 6.4431C16.994 6.53785 17.0742 6.6326 17.1471 6.69091C17.8395 7.23755 18.2841 7.93725 18.4517 8.80459C18.4882 8.97952 18.5611 9.03783 18.7214 9.08885C19.3045 9.25648 19.7783 9.58447 20.0917 10.1092C20.2812 10.4227 20.3978 10.7725 20.5508 11.1224C20.6091 11.0859 20.6966 11.0422 20.7768 10.9839C21.44 10.532 21.943 9.92703 22.3948 9.26377C22.8322 8.62967 23.3278 8.032 23.8015 7.41977C23.8453 7.36146 23.889 7.31044 23.9327 7.25942C20.1281 1.64722 12.2565 0.204086 6.71714 4.48247ZM20.5217 15.5174C20.5144 15.583 20.5071 15.6267 20.5071 15.6704C20.4998 16.5159 20.4925 17.3614 20.5071 18.2141C20.5071 18.3162 20.58 18.4328 20.6602 18.5057C21.5348 19.3876 22.4094 20.2622 23.2841 21.1368C23.3496 21.2024 23.4152 21.2608 23.4808 21.3191C26.6295 17.3395 26.6732 11.8804 24.4429 8.15591C24.3773 8.23609 24.3263 8.30897 24.2753 8.38186C23.9254 8.85561 23.5392 9.30751 23.2257 9.81042C22.5771 10.8308 21.7535 11.6544 20.682 12.2302C20.6019 12.274 20.529 12.4051 20.5217 12.4999C20.5071 13.0976 20.5144 13.7025 20.5144 14.3002C20.5144 14.3658 20.529 14.4387 20.5363 14.5043C20.7914 14.548 21.0246 14.5553 21.2505 14.6282C21.6733 14.7594 22.1033 14.8905 22.5042 15.0728C23.0945 15.3279 23.6995 15.4882 24.3482 15.5028C24.5158 15.5101 24.7418 15.5538 24.8438 15.6631C24.9458 15.7798 24.9896 16.013 24.9531 16.1806C24.9094 16.4211 24.6835 16.5086 24.4429 16.5086C23.5829 16.5086 22.7666 16.3191 21.994 15.9401C21.5348 15.6923 21.0465 15.5538 20.5217 15.5174ZM14.5013 9.99263C14.5013 10.7798 14.494 11.5232 14.5086 12.2667C14.5086 12.3468 14.5888 12.4416 14.6544 12.5072C16.1996 14.0524 17.7447 15.5975 19.2899 17.1427C19.3409 17.1937 19.4065 17.2375 19.4794 17.3031C19.494 17.2448 19.5013 17.2156 19.5013 17.1937C19.5013 15.2987 19.5013 13.4037 19.5013 11.5087C19.5013 11.4431 19.494 11.3847 19.4867 11.3191C19.392 10.5611 18.7943 10.0072 18.029 9.99263C17.7302 9.98534 17.4313 9.99263 17.1252 9.99263C16.2652 9.99263 15.4051 9.99263 14.5013 9.99263ZM17.4386 8.9941C17.2491 7.99556 16.462 7.15009 15.4853 7.06263C14.5159 6.97516 13.5174 6.98245 12.548 7.06263C11.7463 7.12822 11.1777 7.64571 10.7987 8.35999C10.7623 8.43288 10.7259 8.56407 10.755 8.6078C10.9372 8.79731 11.0757 9.01596 11.411 9.01596C13.3206 8.9941 15.2375 9.00867 17.1471 9.00867C17.2345 8.9941 17.3293 8.9941 17.4386 8.9941ZM15.7331 6.02765C15.4124 5.3571 14.669 4.93437 13.8964 4.99267C13.1602 5.05098 12.4532 5.51016 12.3002 6.02765C13.4372 6.02765 14.5742 6.02765 15.7331 6.02765ZM12.2419 9.99992C12.6573 10.4154 13.0873 10.8454 13.4882 11.2463C13.4882 10.8673 13.4882 10.4372 13.4882 9.99992C13.0509 9.99992 12.6355 9.99992 12.2419 9.99992Z" fill="white"/>
<path d="M8.72171 10.8235C8.77273 10.8745 8.83104 10.9183 8.88206 10.9693C10.3689 12.4562 11.8558 13.943 13.3427 15.4299C13.4301 15.5173 13.503 15.6777 13.503 15.8016C13.5176 16.8657 13.5249 17.9299 13.503 18.994C13.4739 20.4882 12.9126 21.7491 11.8193 22.7695C11.6809 22.8934 11.5861 22.9152 11.4185 22.8205C9.51616 21.7345 8.53949 20.0946 8.51034 17.908C8.48119 15.8089 8.50305 13.7025 8.51034 11.6034C8.51034 11.341 8.59051 11.0786 8.62696 10.8162C8.6634 10.8235 8.69255 10.8235 8.72171 10.8235Z" fill="#E2001A"/>
<path d="M7.50473 14.5115C6.65197 14.548 5.9304 14.8905 5.17968 15.1748C4.7205 15.3497 4.2103 15.3862 3.72197 15.4809C3.64908 15.4955 3.57619 15.4809 3.50331 15.4882C3.1899 15.5246 3.00769 15.7214 3.01498 15.9984C3.02227 16.2754 3.22634 16.5013 3.53246 16.4794C4.0208 16.4503 4.50913 16.3993 4.99018 16.2899C5.34732 16.2098 5.68259 16.0276 6.03244 15.9036C6.49891 15.7433 6.97267 15.5975 7.49745 15.4299C7.49745 16.2098 7.49744 16.9022 7.49016 17.5946C7.49016 17.6529 7.40269 17.7185 7.3371 17.7549C6.28754 18.3089 5.46393 19.1033 4.84441 20.1019C4.66948 20.3788 4.47998 20.6412 4.26861 20.9546C3.05871 19.2783 2.33714 17.4488 2.09662 15.4372C1.76134 12.6821 2.43918 10.0145 3.58348 8.11946C3.98436 8.65882 4.39251 9.15444 4.73508 9.69379C5.24528 10.4955 5.83565 11.2098 6.62282 11.7565C6.81961 11.8949 7.00911 12.0407 7.22048 12.1282C7.46829 12.2302 7.51202 12.3906 7.50473 12.6384C7.49744 13.2506 7.50473 13.8629 7.50473 14.5115Z" fill="#E2001A"/>
<path d="M7.54098 18.8264C8.13136 21.7782 9.80773 23.7461 12.7815 24.3438C15.5657 24.8977 17.7887 23.8336 19.4432 21.596C20.0554 22.2155 20.6823 22.8424 21.3091 23.4692C16.9068 27.1207 9.34855 26.9968 4.93896 21.7928C5.45645 20.6558 6.66635 19.2782 7.54098 18.8264Z" fill="#E2001A"/>
<path d="M18.6781 20.8599C18.1679 21.698 17.4537 22.3686 16.5499 22.8569C16.3823 22.9444 16.3021 22.8715 16.2 22.7768C15.1505 21.8074 14.582 20.612 14.5164 19.1908C14.4799 18.3817 14.5091 17.5727 14.5091 16.7564C14.5091 16.7272 14.5164 16.6908 14.5164 16.6762C15.8939 18.0683 17.2715 19.4459 18.6781 20.8599Z" fill="#E2001A"/>
<path d="M7.89811 10.0801C7.76691 10.4154 7.63572 10.7652 7.49724 11.1369C6.83398 10.7433 6.29462 10.204 5.84273 9.56989C5.29609 8.79001 4.73487 8.01742 4.13721 7.19382C4.22467 7.06262 4.37044 6.86583 4.50164 6.67633C5.64594 7.82064 6.77567 8.95036 7.89811 10.0801Z" fill="#E2001A"/>
<path d="M12.7744 23.3307C13.2044 22.7112 13.6199 22.1135 14.0062 21.545C14.3998 22.1135 14.8152 22.7185 15.238 23.3307C14.4289 23.5348 13.5834 23.5348 12.7744 23.3307Z" fill="#E2001A"/>
<path d="M6.71729 4.48245C12.2566 0.20406 20.1282 1.6472 23.9037 7.27397C23.86 7.32499 23.8163 7.37601 23.7725 7.43432C23.2988 8.04656 22.8032 8.63693 22.3658 9.27832C21.9139 9.94158 21.4183 10.5465 20.7478 10.9984C20.6676 11.0567 20.5801 11.1005 20.5218 11.1369C20.3688 10.7871 20.2522 10.4372 20.0626 10.1238C19.7492 9.60631 19.2755 9.27104 18.6924 9.1034C18.5321 9.05967 18.4592 8.99407 18.4227 8.81915C18.2551 7.95181 17.8105 7.2521 17.1181 6.70546C17.0379 6.64715 16.9577 6.54511 16.9431 6.45765C16.7464 5.532 16.2653 4.81772 15.4271 4.35854C15.4053 4.34396 15.3907 4.3221 15.347 4.27108C15.4854 4.15446 15.6166 4.03056 15.7551 3.92123C16.0102 3.72444 16.0685 3.44018 15.9009 3.20695C15.7405 2.981 15.4417 2.90812 15.2012 3.09762C14.9242 3.31628 14.6837 3.57866 14.4505 3.84105C14.3557 3.95038 14.2901 4.01598 14.1443 3.99411C14.035 3.97954 13.9184 4.00869 13.8163 3.98682C13.7143 3.96496 13.6123 3.90665 13.5394 3.84105C13.2843 3.60053 13.0583 3.32357 12.7814 3.10491C12.5409 2.90812 12.242 2.981 12.0817 3.20695C11.9213 3.44018 11.9796 3.73173 12.2274 3.92852C12.3659 4.03785 12.4971 4.16175 12.5992 4.24921C12.2566 4.55533 11.9213 4.82501 11.6371 5.13842C11.3018 5.51014 11.1269 5.96931 11.0248 6.46494C11.0103 6.54511 10.9665 6.63257 10.9082 6.69088C10.5729 7.04073 10.2304 7.39059 9.90968 7.71857C8.88928 6.65444 7.80328 5.56844 6.71729 4.48245Z" fill="#E2001A"/>
<path d="M20.5217 15.5174C21.0465 15.5538 21.5348 15.6923 21.9867 15.9182C22.7593 16.2972 23.5756 16.4867 24.4356 16.4867C24.6762 16.4867 24.8948 16.3993 24.9458 16.1588C24.975 15.9984 24.9386 15.7579 24.8365 15.6413C24.7345 15.5319 24.5158 15.4882 24.3409 15.4809C23.6922 15.4663 23.0873 15.306 22.4969 15.0509C22.0887 14.876 21.666 14.7375 21.2433 14.6063C21.0173 14.5407 20.7768 14.5261 20.529 14.4824C20.5217 14.4168 20.5071 14.3439 20.5071 14.2783C20.5071 13.6806 20.4998 13.0757 20.5144 12.478C20.5144 12.3833 20.5946 12.2521 20.6747 12.2084C21.7389 11.6326 22.5698 10.809 23.2185 9.78855C23.5319 9.29293 23.9182 8.83375 24.268 8.35999C24.319 8.28711 24.3773 8.21422 24.4356 8.13405C26.6732 11.8585 26.6222 17.3176 23.4736 21.2972C23.408 21.2389 23.3424 21.1806 23.2768 21.115C22.4021 20.2404 21.5202 19.3657 20.6529 18.4838C20.58 18.4109 20.4998 18.287 20.4998 18.1923C20.4925 17.3468 20.4998 16.5013 20.4998 15.6486C20.5071 15.6194 20.5144 15.5757 20.5217 15.5174Z" fill="#E2001A"/>
<path d="M14.5015 9.99263C15.4052 9.99263 16.2653 9.99263 17.1326 9.99263C17.4315 9.99263 17.7303 9.98535 18.0364 9.99263C18.8017 10.0072 19.3994 10.5611 19.4941 11.3192C19.5014 11.3847 19.5087 11.4431 19.5087 11.5087C19.5087 13.4037 19.5087 15.2987 19.5087 17.1937C19.5087 17.2156 19.4941 17.2448 19.4868 17.3031C19.414 17.2448 19.3556 17.201 19.2973 17.1427C17.7522 15.5975 16.207 14.0524 14.6618 12.5072C14.5962 12.4416 14.516 12.3468 14.516 12.2667C14.5015 11.5232 14.5015 10.7798 14.5015 9.99263Z" fill="#E2001A"/>
<path d="M17.4388 8.99408C17.3294 8.99408 17.242 8.99408 17.1472 8.99408C15.2376 8.99408 13.3207 8.98679 11.4111 9.00137C11.0758 9.00137 10.9301 8.79 10.7552 8.59321C10.7187 8.55677 10.7552 8.41828 10.7989 8.3454C11.1779 7.63841 11.7464 7.11363 12.5481 7.04803C13.5248 6.96786 14.5161 6.96057 15.4854 7.04803C16.4621 7.15007 17.2493 7.99555 17.4388 8.99408Z" fill="#E2001A"/>
<path d="M15.7332 6.02762C14.5816 6.02762 13.4373 6.02762 12.3003 6.02762C12.4606 5.51013 13.1603 5.05095 13.8965 4.99264C14.6691 4.93433 15.4125 5.35707 15.7332 6.02762Z" fill="#E2001A"/>
<path d="M12.2422 9.99989C12.6285 9.99989 13.0512 9.99989 13.4885 9.99989C13.4885 10.4372 13.4885 10.8599 13.4885 11.2462C13.0877 10.8454 12.6649 10.4153 12.2422 9.99989Z" fill="#E2001A"/>
</svg>
