<svg width="28" height="28" viewBox="0 0 28 28" fill="none" xmlns="http://www.w3.org/2000/svg">
<path d="M0.00803838 17.8442C0.00803838 20.8343 0.00803838 23.8325 0.00803838 26.8226C0.00803838 27.337 0.160759 27.4897 0.667146 27.4897C2.79719 27.4897 4.92723 27.4897 7.05727 27.4897C7.5717 27.4897 7.71638 27.337 7.71638 26.8226C7.71638 20.8343 7.71638 14.8461 7.71638 8.85787C7.71638 8.34344 7.56366 8.19876 7.04923 8.19876C4.92723 8.19876 2.81326 8.19876 0.691259 8.19876C0.136645 8.19876 0 8.3354 0 8.89002C0.00803789 11.8801 0.00803838 14.8622 0.00803838 17.8442ZM24.1217 10.1037C24.0494 10.1279 23.9931 10.1439 23.9449 10.168C23.7118 10.2725 23.6073 10.4574 23.6555 10.7066C23.7037 10.9477 23.8725 11.0844 24.1297 11.0924C24.4513 11.1004 24.7728 11.1004 25.0943 11.0924C25.3435 11.0844 25.5123 10.9397 25.5605 10.6985C25.6087 10.4494 25.4962 10.2725 25.2631 10.168C25.2068 10.1439 25.1586 10.1279 25.1184 10.1118C25.1184 9.75007 25.1184 9.40444 25.1184 9.05881C25.3676 9.34014 25.5926 9.59735 25.8257 9.8626C25.9142 9.82241 25.8579 9.89475 25.8659 9.95102C25.9061 10.1359 25.9222 10.3529 26.0267 10.4815C26.1794 10.6584 26.4205 10.6423 26.5974 10.4815C26.8626 10.2404 27.1198 9.98317 27.361 9.71792C27.5057 9.54912 27.5217 9.31603 27.369 9.17134C27.2485 9.05881 27.0073 8.93824 26.8867 8.98647C26.6376 9.08293 26.525 8.98647 26.3804 8.82571C26.2598 8.68907 26.1231 8.57654 26.0026 8.43989C25.9624 8.39167 25.9463 8.31129 25.9061 8.22287C26.3 8.22287 26.6376 8.22287 26.9832 8.22287C27.0073 8.28717 27.0314 8.35148 27.0636 8.40774C27.1681 8.62477 27.3529 8.72122 27.586 8.67299C27.8191 8.62477 27.9638 8.47205 27.9719 8.23091C27.9879 7.89332 27.9879 7.54769 27.9719 7.2101C27.9638 6.96896 27.8111 6.78409 27.586 6.78409C27.4253 6.78409 27.2485 6.89662 27.0957 6.99307C27.0314 7.03326 27.0234 7.14579 26.9912 7.21813C26.6376 7.21813 26.2919 7.21813 25.874 7.21813C25.9544 7.09757 25.9865 7.02523 26.0428 6.96896C26.1794 6.82428 26.3321 6.68763 26.4607 6.54295C26.5652 6.42238 26.6617 6.38219 26.8144 6.46257C27.0154 6.56707 27.2163 6.48669 27.3529 6.31789C27.4976 6.13302 27.5137 5.90796 27.361 5.73916C27.1118 5.46587 26.8466 5.20063 26.5733 4.95949C26.4045 4.81481 26.1633 4.80677 26.0267 4.97556C25.9142 5.10417 25.8981 5.32119 25.8659 5.50606C25.8579 5.56233 25.9142 5.63467 25.9463 5.71505C25.665 5.93207 25.4962 6.2777 25.1023 6.43042C25.1023 6.03657 25.1023 5.6829 25.1023 5.33727C25.3917 5.26493 25.5846 5.10417 25.5605 4.79069C25.5364 4.54152 25.3756 4.38076 25.1264 4.36468C24.7728 4.34861 24.4191 4.34861 24.0735 4.36468C23.8404 4.38076 23.6877 4.53348 23.6475 4.76658C23.6153 4.9836 23.7118 5.16044 23.9127 5.26493C23.977 5.29708 24.0494 5.32923 24.0896 5.34531C24.0896 5.71505 24.0896 6.06068 24.0896 6.40631C24.0654 6.42239 24.0333 6.43846 24.0092 6.45453C23.8002 6.24555 23.5832 6.0446 23.3903 5.82758C23.334 5.76328 23.3099 5.63467 23.334 5.55429C23.4144 5.29708 23.3742 5.08809 23.1491 4.94341C22.9241 4.79873 22.707 4.855 22.5222 5.03183C22.3212 5.22474 22.1203 5.42569 21.9274 5.62663C21.7103 5.85169 21.6702 6.10087 21.8309 6.30182C22.0077 6.51884 22.2248 6.55903 22.4739 6.42238C22.5061 6.40631 22.5463 6.39827 22.5865 6.39023C22.8115 6.66352 23.1331 6.84839 23.3099 7.21813C22.908 7.21813 22.5624 7.21813 22.2087 7.21813C22.1846 7.15383 22.1605 7.08953 22.1283 7.02523C22.0238 6.82428 21.855 6.72782 21.63 6.75998C21.3969 6.80017 21.2361 6.94485 21.2281 7.18598C21.212 7.53965 21.212 7.88528 21.2281 8.23895C21.2361 8.48008 21.3969 8.66496 21.6219 8.65692C21.7907 8.64888 21.9676 8.51224 22.1203 8.41578C22.1765 8.38363 22.1846 8.27914 22.2087 8.23091C22.5704 8.23091 22.916 8.23091 23.2536 8.23091C22.9803 8.48008 22.7231 8.71318 22.4659 8.94628C22.4981 9.02666 22.4338 9.00255 22.3695 8.97843C22.1524 8.89806 21.9676 8.96236 21.8309 9.13919C21.6862 9.32406 21.6782 9.54912 21.8389 9.71792C22.0801 9.98317 22.3373 10.2404 22.6025 10.4815C22.7713 10.6262 23.0044 10.6423 23.1491 10.4896C23.2617 10.369 23.3742 10.1279 23.334 10.0073C23.2375 9.75811 23.342 9.64558 23.4948 9.5009C23.6234 9.38837 23.7359 9.25976 23.8565 9.13919C23.9047 9.099 23.977 9.08293 24.0333 9.05077C24.0574 9.10704 24.1056 9.17134 24.1056 9.22761C24.1217 9.51697 24.1217 9.80634 24.1217 10.1037ZM17.0403 18.0934C17.1689 18.2622 17.2413 18.439 17.3699 18.5033C17.4985 18.5676 17.6994 18.5435 17.8441 18.4953C17.9567 18.4631 18.0451 18.3345 18.1335 18.2381C18.2541 18.1014 18.3585 18.0693 18.5434 18.1416C18.7524 18.23 18.8569 18.3265 18.8167 18.5516C18.8006 18.648 18.8006 18.7525 18.8167 18.849C18.8569 19.1062 19.0177 19.2669 19.2829 19.275C19.5482 19.283 19.7089 19.1223 19.7652 18.865C19.7812 18.7766 19.7813 18.6802 19.7732 18.5918C19.7491 18.3587 19.8054 18.222 20.0626 18.1256C20.3037 18.0291 20.3841 18.1657 20.5127 18.2863C20.577 18.3506 20.6333 18.423 20.7136 18.4712C20.9226 18.6159 21.1316 18.6159 21.3165 18.4471C21.5174 18.2622 21.5335 18.0452 21.3888 17.8201C21.3085 17.6995 21.1718 17.6111 21.0914 17.4825C21.0432 17.4102 21.0271 17.2896 21.0352 17.2012C21.0753 16.9279 21.2361 16.8073 21.5174 16.8636C21.6059 16.8797 21.7023 16.8716 21.7907 16.8556C22.0319 16.7993 22.1846 16.6466 22.1926 16.3974C22.2007 16.1322 22.0479 15.9634 21.7907 15.9151C21.7023 15.8991 21.6059 15.8991 21.5174 15.9071C21.2843 15.9312 21.1477 15.8749 21.0432 15.6258C20.9467 15.3846 21.0753 15.3043 21.1959 15.1756C21.2602 15.1113 21.3245 15.047 21.3728 14.9747C21.5094 14.7577 21.4853 14.5487 21.3085 14.3719C21.1316 14.195 20.9146 14.1709 20.7056 14.3156C20.5931 14.396 20.5047 14.5165 20.3921 14.5969C20.3278 14.6451 20.2153 14.6693 20.143 14.6532C19.8616 14.5969 19.7089 14.4442 19.7813 14.1307C19.7973 14.0664 19.7893 13.986 19.7813 13.9217C19.733 13.6645 19.5803 13.5118 19.3151 13.4957C19.0659 13.4797 18.8569 13.6726 18.8328 13.9378C18.8167 14.0745 18.8328 14.2191 18.8247 14.3558C18.8167 14.4201 18.8006 14.5005 18.7604 14.5326C18.5273 14.7255 18.3264 14.7095 18.0933 14.4844C18.0611 14.4522 18.021 14.412 17.9888 14.3799C17.7557 14.1709 17.4824 14.1709 17.2895 14.3719C17.1046 14.5648 17.1046 14.822 17.2975 15.047C17.3538 15.1113 17.4181 15.1837 17.4905 15.2399C17.6191 15.3444 17.6191 15.4409 17.5708 15.6017C17.4905 15.8428 17.3618 15.9392 17.1127 15.8991C17.0243 15.883 16.9278 15.891 16.8394 15.9071C16.5822 15.9553 16.4214 16.1161 16.4214 16.3813C16.4214 16.6466 16.5741 16.8073 16.8313 16.8556C16.9358 16.8716 17.0564 16.8797 17.1609 16.8636C17.4101 16.8154 17.4663 16.9842 17.5628 17.161C17.6673 17.362 17.5628 17.4423 17.4503 17.5709C17.3056 17.7237 17.1931 17.8925 17.0403 18.0934ZM24.9818 16.2447C25.0139 16.2608 25.0541 16.2768 25.0863 16.2929C25.0863 16.4617 25.0863 16.6225 25.0863 16.7913C25.0943 17.1449 25.2792 17.362 25.5766 17.3539C25.8659 17.3459 26.0428 17.1369 26.0508 16.7752C26.0508 16.6144 26.0508 16.4456 26.0508 16.2849C26.083 16.2688 26.1231 16.2527 26.1553 16.2366C26.3 16.3733 26.4447 16.518 26.5893 16.6466C26.7662 16.8073 26.9832 16.8636 27.16 16.7109C27.2886 16.6064 27.3931 16.3974 27.3851 16.2366C27.3851 16.092 27.2243 15.9553 27.1279 15.8187C27.0475 15.7061 26.951 15.6097 26.8626 15.5052C26.8787 15.4731 26.9028 15.4489 26.9189 15.4168C27.0877 15.4168 27.2485 15.4168 27.4172 15.4168C27.7629 15.4087 27.9799 15.2158 27.9799 14.9265C27.9719 14.6451 27.7629 14.4603 27.4333 14.4522C27.2565 14.4522 27.0877 14.4522 26.9109 14.4522C26.8948 14.4201 26.8787 14.3799 26.8626 14.3477C26.9993 14.2031 27.144 14.0584 27.2726 13.9137C27.4253 13.7369 27.4896 13.5198 27.3369 13.343C27.2324 13.2144 27.0234 13.1099 26.8626 13.1179C26.726 13.1179 26.5813 13.2787 26.4447 13.3752C26.3321 13.4555 26.2357 13.552 26.1312 13.6404C26.099 13.6243 26.0749 13.6083 26.0428 13.5841C26.0428 13.4797 26.0428 13.3752 26.0428 13.2626C26.0428 12.7482 25.89 12.5151 25.5525 12.5231C25.2229 12.5312 25.0782 12.7482 25.0782 13.2546C25.0782 13.3671 25.0702 13.4797 25.0621 13.6002C25.03 13.6163 25.0059 13.6324 24.9737 13.6484C24.829 13.5118 24.6844 13.3671 24.5397 13.2385C24.3789 13.0858 24.1699 13.0215 23.9931 13.1501C23.8645 13.2466 23.7359 13.4314 23.7279 13.5761C23.7198 13.7128 23.8565 13.8735 23.9529 14.0102C24.0413 14.1388 24.1619 14.2433 24.2664 14.3558C24.2503 14.3879 24.2262 14.4201 24.2101 14.4522C24.0333 14.4522 23.8565 14.4442 23.6796 14.4522C23.3501 14.4603 23.1411 14.6532 23.1411 14.9345C23.1411 15.2158 23.3501 15.4007 23.6877 15.4087C23.8645 15.4168 24.0333 15.4087 24.2101 15.4087C24.2262 15.4409 24.2423 15.4811 24.2664 15.5132C24.1539 15.6338 24.0333 15.7544 23.9208 15.883C23.6716 16.1482 23.6394 16.4135 23.8484 16.6305C24.0574 16.8475 24.3468 16.8234 24.6201 16.5662C24.7406 16.4697 24.8612 16.3572 24.9818 16.2447ZM5.79532 7.22617C5.79532 6.72782 5.80336 6.25359 5.79532 5.78739C5.78728 5.49803 5.60241 5.31316 5.31305 5.31316C4.3485 5.30512 3.38395 5.30512 2.42744 5.31316C2.16219 5.31316 1.96928 5.46588 1.95321 5.72309C1.9291 6.22144 1.94517 6.71979 1.94517 7.22617C3.23123 7.22617 4.49318 7.22617 5.79532 7.22617ZM2.92579 0.49846C2.92579 1.79256 2.92579 3.06255 2.92579 4.31646C3.57686 4.31646 4.19578 4.31646 4.8147 4.31646C4.8147 3.0304 4.8147 1.76845 4.8147 0.49846C4.1797 0.49846 3.56079 0.49846 2.92579 0.49846ZM22.6669 1.9292C23.1893 1.9292 23.6314 1.5032 23.6394 0.980733C23.6475 0.458271 23.2215 0.0161856 22.699 0.000109863C22.1605 -0.00792803 21.7103 0.426118 21.7184 0.964657C21.7103 1.48712 22.1444 1.92117 22.6669 1.9292ZM19.307 11.5747C19.8295 11.5747 20.2635 11.1406 20.2635 10.6101C20.2635 10.0877 19.8375 9.64558 19.307 9.64558C18.7685 9.63754 18.3264 10.0796 18.3344 10.6182C18.3425 11.1406 18.7765 11.5747 19.307 11.5747ZM24.604 20.7298C24.5959 20.2074 24.1619 19.7733 23.6394 19.7814C23.1009 19.7814 22.6669 20.2315 22.6829 20.77C22.699 21.2925 23.1411 21.7185 23.6636 21.7105C24.178 21.6944 24.612 21.2523 24.604 20.7298ZM10.5377 7.12168C10.4653 7.17795 10.2724 7.25832 10.2162 7.39497C10.1599 7.53161 10.184 7.75667 10.2563 7.88528C10.3528 8.06211 10.5216 8.22287 10.6984 8.32736C10.8351 8.39971 11.0601 8.43186 11.1887 8.36755C11.3174 8.30325 11.4299 8.1023 11.446 7.94958C11.4781 7.66022 10.9155 7.12972 10.5377 7.12168ZM16.5661 13.1662C16.5741 12.7723 16.0276 12.2097 15.7302 12.2499C15.5855 12.274 15.4006 12.3785 15.3363 12.5071C15.272 12.6276 15.28 12.8527 15.3524 12.9733C15.4649 13.1662 15.6417 13.343 15.8346 13.4555C15.9552 13.5279 16.1722 13.5359 16.3089 13.4716C16.4455 13.4073 16.5098 13.2305 16.5661 13.1662ZM7.48328 1.44693C7.55562 1.44693 7.62796 1.44693 7.69226 1.44693C7.9977 1.43085 8.20669 1.23795 8.20669 0.972695C8.20669 0.699407 8.00574 0.506497 7.7003 0.490422C7.58777 0.482384 7.48328 0.490422 7.37075 0.490422C6.98493 0.490422 6.76791 0.667255 6.76791 0.972695C6.76791 1.2701 6.98493 1.45497 7.36271 1.45497C7.4029 1.44693 7.44309 1.44693 7.48328 1.44693ZM9.89464 1.44693C9.96699 1.44693 10.0393 1.44693 10.1036 1.44693C10.4091 1.43085 10.6181 1.23794 10.6181 0.964657C10.6181 0.691368 10.4171 0.498459 10.1117 0.482383C10.0152 0.474345 9.91072 0.482383 9.81427 0.482383C9.40433 0.482383 9.18731 0.651179 9.18731 0.964657C9.18731 1.2701 9.41237 1.44693 9.81427 1.44693C9.83034 1.44693 9.86249 1.44693 9.89464 1.44693ZM12.3301 0.482383C12.2417 0.482383 12.1453 0.474345 12.0568 0.482383C11.7755 0.506497 11.5826 0.707445 11.5826 0.972695C11.5906 1.22187 11.7755 1.42282 12.0408 1.43889C12.2096 1.45497 12.3864 1.45497 12.5552 1.43889C12.8365 1.42282 13.0294 1.21383 13.0294 0.94858C13.0214 0.699405 12.8365 0.506497 12.5713 0.482383C12.4909 0.474345 12.4105 0.482383 12.3301 0.482383ZM14.7013 1.43889C14.7013 1.44693 14.7013 1.44693 14.7013 1.43889C14.7736 1.43889 14.846 1.44693 14.9103 1.43889C15.2318 1.42282 15.4488 1.22991 15.4408 0.94858C15.4328 0.675292 15.2318 0.490421 14.9183 0.482383C14.7576 0.474345 14.5968 0.474346 14.4361 0.490422C14.1708 0.514535 13.9859 0.731559 14.002 0.980733C14.0181 1.24598 14.1708 1.40674 14.428 1.44693C14.5164 1.45497 14.6048 1.43889 14.7013 1.43889ZM17.1529 0.482383C17.0644 0.482383 16.968 0.474345 16.8796 0.482383C16.5982 0.506497 16.4053 0.707445 16.4053 0.972695C16.4134 1.22187 16.5982 1.42282 16.8635 1.43889C17.0323 1.45497 17.2091 1.45497 17.3779 1.43889C17.6592 1.42282 17.8522 1.21383 17.8522 0.94858C17.8441 0.699405 17.6592 0.506497 17.394 0.482383C17.3136 0.474345 17.2332 0.482383 17.1529 0.482383ZM19.5642 0.482383C19.4758 0.482383 19.3794 0.474345 19.2909 0.482383C19.0096 0.506497 18.8167 0.707445 18.8167 0.972695C18.8247 1.22187 19.0096 1.42282 19.2749 1.43889C19.4437 1.45497 19.6205 1.45497 19.7893 1.43889C20.0706 1.42282 20.2635 1.21383 20.2635 0.94858C20.2555 0.699405 20.0706 0.506497 19.8054 0.482383C19.725 0.474345 19.6446 0.482383 19.5642 0.482383ZM11.8318 3.25546C11.4942 3.23938 11.3093 3.35995 11.245 3.61716C11.1807 3.87437 11.3013 4.07532 11.5505 4.16374C11.7353 4.23608 11.9363 4.29234 12.1292 4.32449C12.3784 4.36468 12.5552 4.23608 12.6436 4.00298C12.732 3.77792 12.6275 3.52071 12.3944 3.42425C12.1935 3.34387 11.9765 3.29564 11.8318 3.25546ZM8.91402 5.42569C8.55232 5.42569 8.30314 5.81954 8.50409 6.12498C8.64073 6.32593 8.82561 6.5108 9.02655 6.65548C9.32396 6.86447 9.72585 6.63137 9.74193 6.26966C9.74996 5.94815 9.2275 5.42569 8.91402 5.42569ZM19.6526 5.85973C19.6768 5.48195 19.516 5.31315 19.1543 5.2167C18.6559 5.07202 18.3987 5.10417 18.3103 5.37746C18.2541 5.53018 18.2862 5.75524 18.3666 5.89992C18.463 6.09283 19.1463 6.2777 19.3311 6.17321C19.4758 6.08479 19.5803 5.93207 19.6526 5.85973ZM14.4119 4.95145C14.7495 4.95949 14.9183 4.83892 14.9826 4.58975C15.0469 4.34057 14.9424 4.14766 14.7174 4.04317C14.5245 3.96279 14.3155 3.90653 14.1145 3.87437C13.8654 3.84222 13.6805 3.96279 13.6082 4.20393C13.5278 4.44506 13.6082 4.65405 13.8332 4.75854C14.0342 4.86303 14.2673 4.90322 14.4119 4.95145ZM13.15 9.65362C13.158 9.34014 12.6275 8.82571 12.3141 8.83375C11.9604 8.84983 11.7273 9.23565 11.9202 9.52501C12.0568 9.734 12.2578 9.92691 12.4668 10.0635C12.7642 10.2565 13.142 10.0073 13.15 9.65362ZM10.3608 3.19919C10.3126 3.10273 10.2805 2.9259 10.192 2.89375C9.89465 2.78122 9.57313 2.67673 9.25965 2.66065C9.15516 2.65261 8.97833 2.89375 8.9301 3.04647C8.85776 3.29564 9.02655 3.48052 9.33199 3.57697C9.90268 3.7538 10.1358 3.72969 10.2724 3.4564C10.3126 3.3921 10.3287 3.31172 10.3608 3.19919ZM8.03789 4.65405C8.03789 4.24412 7.5315 3.71362 7.22606 3.74577C7.08138 3.76184 6.88043 3.86634 6.82417 3.9869C6.75987 4.12355 6.77594 4.34861 6.84828 4.48525C6.94474 4.66209 7.11353 4.83088 7.29037 4.92734C7.42701 4.99968 7.64403 5.01575 7.78872 4.95949C7.91732 4.89519 7.98966 4.71031 8.03789 4.65405ZM14.4843 11.8238C14.5486 11.7756 14.7254 11.6952 14.7817 11.5666C14.8379 11.43 14.8379 11.221 14.7656 11.0924C14.6611 10.9075 14.4843 10.7387 14.3074 10.6342C14.1869 10.5619 13.9618 10.5539 13.8412 10.6182C13.7207 10.6825 13.6082 10.8673 13.5921 11.0201C13.5358 11.3255 14.0663 11.8319 14.4843 11.8238ZM17.3217 5.16044C17.3217 4.80677 17.1287 4.67816 16.8715 4.60582C16.341 4.4531 16.124 4.47721 15.9793 4.74247C15.9311 4.82284 15.907 4.93538 15.915 5.03183C15.9472 5.42569 16.2848 5.45784 16.5661 5.53822C16.8153 5.61056 17.0644 5.63467 17.2413 5.37746C17.2895 5.29708 17.3056 5.20063 17.3217 5.16044ZM7.00904 1.95332C6.88847 2.08192 6.71968 2.20249 6.6393 2.37129C6.55088 2.58027 6.64734 2.80533 6.86436 2.89375C7.07334 2.98217 7.29841 3.03843 7.52347 3.07058C7.75657 3.0947 7.91732 2.95002 7.98966 2.73299C8.062 2.49989 7.97359 2.29895 7.77264 2.20249C7.56366 2.08996 7.32252 2.04977 7.00904 1.95332Z" fill="white"/>
<path d="M0.0078125 17.8442C0.0078125 14.8622 0.0078125 11.8801 0.0078125 8.89003C0.0078125 8.33541 0.144457 8.19877 0.699072 8.19877C2.82107 8.19877 4.93504 8.19877 7.05704 8.19877C7.57147 8.19877 7.72419 8.35149 7.72419 8.85788C7.72419 14.8461 7.72419 20.8343 7.72419 26.8226C7.72419 27.337 7.57147 27.4897 7.06508 27.4897C4.93504 27.4897 2.805 27.4897 0.674956 27.4897C0.160531 27.4897 0.0158509 27.337 0.0158509 26.8226C0.00781299 23.8325 0.0078125 20.8343 0.0078125 17.8442ZM5.31282 16.3974C5.64237 16.3974 5.91566 16.3974 6.19699 16.3974C6.57477 16.3894 6.7516 16.2125 6.75964 15.8428C6.76768 15.248 6.76768 14.6612 6.75964 14.0664C6.75964 13.6886 6.58281 13.5118 6.20503 13.5038C5.91566 13.4957 5.6263 13.5038 5.31282 13.5038C5.31282 13.1983 5.31282 12.917 5.31282 12.6357C5.30478 12.2338 5.13599 12.057 4.75017 12.057C4.15536 12.0489 3.5686 12.0489 2.97379 12.057C2.60405 12.057 2.42722 12.2418 2.41918 12.6116C2.41114 12.9009 2.41918 13.1903 2.41918 13.4475C2.37899 13.4797 2.37095 13.4877 2.36291 13.4877C2.08963 13.4877 1.82438 13.4957 1.55109 13.4957C1.15723 13.5038 0.980398 13.6726 0.980398 14.0664C0.97236 14.6452 0.980398 15.2319 0.980398 15.8107C0.980398 16.2206 1.15723 16.3813 1.5752 16.3894C1.84849 16.3894 2.12982 16.3894 2.42722 16.3894C2.42722 16.7189 2.41918 17.0083 2.42722 17.2977C2.43526 17.6513 2.61209 17.8282 2.97379 17.8362C3.57664 17.8442 4.17948 17.8442 4.78232 17.8362C5.13599 17.8362 5.31282 17.6513 5.32086 17.2896C5.32086 17.0083 5.31282 16.7189 5.31282 16.3974ZM3.85796 19.7733C4.62156 19.7733 5.38516 19.7733 6.14876 19.7733C6.53458 19.7733 6.7516 19.5965 6.75964 19.2991C6.76768 19.0017 6.54262 18.8088 6.16484 18.8088C4.63764 18.8088 3.11044 18.8088 1.58324 18.8088C1.19742 18.8088 0.980398 18.9856 0.980398 19.283C0.97236 19.5885 1.19742 19.7733 1.5752 19.7733C2.33076 19.7733 3.09436 19.7733 3.85796 19.7733ZM3.89815 20.7379C3.12651 20.7379 2.35488 20.7379 1.5752 20.7379C1.19742 20.7379 0.972359 20.9147 0.972359 21.2202C0.972359 21.5176 1.18938 21.7024 1.5752 21.7024C3.1024 21.7024 4.6296 21.7024 6.1568 21.7024C6.53458 21.7024 6.75964 21.5176 6.75964 21.2202C6.75964 20.9227 6.54262 20.7379 6.1568 20.7379C5.40124 20.7379 4.65371 20.7379 3.89815 20.7379ZM3.89011 22.667C3.59271 22.667 3.28727 22.667 2.98987 22.667C2.98183 22.667 2.96576 22.667 2.95772 22.667C2.62817 22.683 2.41918 22.876 2.42722 23.1573C2.43526 23.4306 2.6362 23.6235 2.94968 23.6315C3.56056 23.6396 4.17144 23.6396 4.79036 23.6315C5.11991 23.6315 5.3289 23.4225 5.32086 23.1412C5.31282 22.8599 5.10383 22.675 4.77428 22.667C4.46884 22.667 4.17948 22.667 3.89011 22.667Z" fill="#E2001A"/>
<path d="M24.1216 10.1037C24.1216 9.81438 24.1296 9.52502 24.1216 9.23565C24.1216 9.17939 24.0733 9.11509 24.0492 9.05882C23.9929 9.09097 23.9206 9.10705 23.8724 9.14724C23.7438 9.25977 23.6312 9.38837 23.5107 9.50894C23.358 9.64558 23.2535 9.76615 23.3499 10.0153C23.3981 10.1359 23.2856 10.377 23.165 10.4976C23.0123 10.6584 22.7792 10.6423 22.6185 10.4896C22.3452 10.2484 22.088 9.99121 21.8549 9.72596C21.7021 9.54913 21.7022 9.33211 21.8468 9.14724C21.9835 8.9704 22.1683 8.9061 22.3854 8.98648C22.4497 9.01059 22.514 9.03471 22.4818 8.95433C22.739 8.72123 23.0043 8.48009 23.2695 8.23895C22.9319 8.23895 22.5863 8.23895 22.2246 8.23895C22.2005 8.28718 22.1925 8.39167 22.1362 8.42383C21.9754 8.52832 21.8066 8.66496 21.6378 8.66496C21.4128 8.673 21.252 8.48009 21.244 8.24699C21.2279 7.89333 21.2279 7.53966 21.244 7.19403C21.2601 6.96093 21.4128 6.80821 21.6459 6.76802C21.8629 6.73587 22.0397 6.83232 22.1442 7.03327C22.1764 7.09757 22.2005 7.16188 22.2246 7.22618C22.5702 7.22618 22.9239 7.22618 23.3258 7.22618C23.149 6.8484 22.8275 6.67157 22.6024 6.39828C22.5542 6.41435 22.522 6.41435 22.4899 6.43043C22.2407 6.56707 22.0237 6.52688 21.8468 6.30986C21.6861 6.10891 21.7263 5.85974 21.9433 5.63468C22.1362 5.43373 22.3371 5.23278 22.5381 5.03988C22.723 4.855 22.94 4.80678 23.165 4.95146C23.3901 5.09614 23.4303 5.30513 23.3499 5.56234C23.3258 5.64272 23.3499 5.77132 23.4062 5.83563C23.5991 6.05265 23.8161 6.2536 24.0251 6.46258C24.0492 6.4465 24.0814 6.43043 24.1055 6.41435C24.1055 6.06872 24.1055 5.73113 24.1055 5.35335C24.0653 5.33728 23.9929 5.31316 23.9286 5.27297C23.7277 5.16848 23.6312 4.99968 23.6634 4.77462C23.7036 4.54152 23.8483 4.38077 24.0894 4.37273C24.4431 4.35665 24.7967 4.35665 25.1424 4.37273C25.3915 4.3888 25.5523 4.54956 25.5764 4.79874C25.6086 5.11222 25.4076 5.27297 25.1183 5.34531C25.1183 5.69898 25.1183 6.04461 25.1183 6.43847C25.5121 6.28575 25.6809 5.94012 25.9622 5.7231C25.9301 5.64272 25.8738 5.57038 25.8819 5.51411C25.922 5.32924 25.9381 5.12025 26.0426 4.98361C26.1793 4.81481 26.4204 4.82285 26.5892 4.96753C26.8705 5.20867 27.1358 5.47392 27.3769 5.74721C27.5296 5.92404 27.5216 6.14107 27.3689 6.32594C27.2322 6.49473 27.0393 6.57511 26.8303 6.47062C26.6696 6.39024 26.5811 6.43043 26.4767 6.551C26.34 6.70372 26.1953 6.83232 26.0587 6.977C26.0024 7.03327 25.9703 7.10561 25.8899 7.22618C26.3079 7.22618 26.6535 7.22618 27.0072 7.22618C27.0393 7.15384 27.0473 7.04131 27.1117 7.00112C27.2644 6.90467 27.4412 6.79213 27.602 6.79213C27.827 6.79213 27.9797 6.98504 27.9878 7.21814C28.0039 7.55573 28.0039 7.90136 27.9878 8.23895C27.9797 8.48009 27.8351 8.63281 27.602 8.68104C27.3689 8.72927 27.192 8.62477 27.0795 8.41579C27.0473 8.35149 27.0232 8.28718 26.9991 8.23092C26.6535 8.23092 26.3159 8.23092 25.922 8.23092C25.9622 8.32737 25.9783 8.39971 26.0185 8.44794C26.1391 8.58458 26.2757 8.69711 26.3963 8.83376C26.5329 8.98648 26.6535 9.09097 26.9027 8.99452C27.0313 8.94629 27.2644 9.05882 27.3849 9.17939C27.5457 9.33211 27.5296 9.56521 27.3769 9.72596C27.1358 9.99925 26.8786 10.2565 26.6133 10.4896C26.4365 10.6423 26.1873 10.6584 26.0426 10.4896C25.9301 10.361 25.914 10.1439 25.8819 9.95906C25.8738 9.9028 25.9301 9.83046 25.8417 9.87065C25.6086 9.6054 25.3755 9.34818 25.1343 9.06686C25.1343 9.41249 25.1343 9.75812 25.1343 10.1198C25.1665 10.1359 25.2227 10.152 25.279 10.1761C25.5121 10.2806 25.6246 10.4574 25.5764 10.7066C25.5282 10.9477 25.3594 11.0924 25.1102 11.1004C24.7887 11.1085 24.4672 11.1085 24.1457 11.1004C23.8965 11.0924 23.7197 10.9558 23.6714 10.7146C23.6232 10.4654 23.7277 10.2886 23.9608 10.1761C23.9929 10.1439 24.0492 10.1279 24.1216 10.1037Z" fill="#E2001A"/>
<path d="M17.0403 18.0934C17.1931 17.8925 17.3056 17.7237 17.4422 17.579C17.5548 17.4584 17.6592 17.37 17.5548 17.1691C17.4583 16.9922 17.402 16.8315 17.1529 16.8717C17.0484 16.8877 16.9278 16.8877 16.8233 16.8636C16.5661 16.8154 16.4053 16.6546 16.4134 16.3894C16.4134 16.1241 16.5741 15.9634 16.8313 15.9152C16.9198 15.8991 17.0162 15.8991 17.1046 15.9071C17.3538 15.9473 17.4824 15.8509 17.5628 15.6097C17.6191 15.449 17.611 15.3525 17.4824 15.248C17.4101 15.1918 17.3458 15.1274 17.2895 15.0551C17.0966 14.83 17.0886 14.5728 17.2815 14.3799C17.4744 14.179 17.7396 14.179 17.9808 14.388C18.021 14.4201 18.0531 14.4603 18.0853 14.4925C18.3103 14.7175 18.5113 14.7336 18.7524 14.5407C18.7926 14.5085 18.8167 14.4201 18.8167 14.3638C18.8247 14.2272 18.8087 14.0825 18.8247 13.9459C18.8489 13.6806 19.0578 13.4958 19.307 13.5038C19.5723 13.5199 19.725 13.6726 19.7732 13.9298C19.7893 13.9941 19.7893 14.0745 19.7732 14.1388C19.7009 14.4523 19.8536 14.605 20.1349 14.6612C20.2153 14.6773 20.3198 14.6532 20.3841 14.605C20.4966 14.5246 20.585 14.404 20.6976 14.3237C20.9066 14.179 21.1236 14.2031 21.3004 14.3799C21.4772 14.5568 21.5014 14.7657 21.3647 14.9828C21.3165 15.0551 21.2441 15.1194 21.1879 15.1837C21.0673 15.3123 20.9387 15.3927 21.0352 15.6338C21.1397 15.891 21.2763 15.9393 21.5094 15.9152C21.5978 15.9071 21.6943 15.9071 21.7827 15.9232C22.0399 15.9795 22.1926 16.1402 22.1846 16.4055C22.1765 16.6546 22.0319 16.8154 21.7827 16.8636C21.6943 16.8797 21.5978 16.8877 21.5094 16.8717C21.2281 16.8154 21.0673 16.944 21.0271 17.2093C21.011 17.2977 21.0271 17.4182 21.0834 17.4906C21.1638 17.6112 21.3004 17.6996 21.3808 17.8282C21.5255 18.0452 21.5094 18.2703 21.3085 18.4551C21.1236 18.6239 20.9066 18.6239 20.7056 18.4792C20.6333 18.431 20.577 18.3587 20.5047 18.2944C20.3761 18.1738 20.2957 18.0372 20.0545 18.1336C19.8054 18.2381 19.7411 18.3667 19.7652 18.5998C19.7732 18.6882 19.7732 18.7847 19.7571 18.8731C19.7009 19.1303 19.5401 19.283 19.2749 19.283C19.0096 19.275 18.8489 19.1223 18.8087 18.857C18.7926 18.7606 18.7926 18.6561 18.8087 18.5596C18.8489 18.3265 18.7363 18.2301 18.5354 18.1497C18.3505 18.0693 18.246 18.1015 18.1254 18.2461C18.0451 18.3426 17.9486 18.4632 17.8361 18.5034C17.6834 18.5516 17.4905 18.5757 17.3618 18.5114C17.2413 18.4471 17.1689 18.2622 17.0403 18.0934Z" fill="#E2001A"/>
<path d="M24.9816 16.2447C24.861 16.3572 24.7404 16.4698 24.6279 16.5823C24.3546 16.8395 24.0733 16.8636 23.8563 16.6466C23.6553 16.4376 23.6794 16.1643 23.9286 15.8991C24.0492 15.7785 24.1617 15.6579 24.2742 15.5293C24.2582 15.4972 24.2421 15.457 24.218 15.4248C24.0411 15.4248 23.8723 15.4248 23.6955 15.4248C23.3659 15.4168 23.157 15.2319 23.1489 14.9506C23.1489 14.6693 23.3579 14.4764 23.6875 14.4683C23.8643 14.4603 24.0411 14.4683 24.218 14.4683C24.234 14.4362 24.2582 14.404 24.2742 14.3719C24.1697 14.2593 24.0492 14.1468 23.9608 14.0262C23.8643 13.8896 23.7277 13.7369 23.7357 13.5922C23.7437 13.4395 23.8723 13.2546 24.0009 13.1662C24.1778 13.0376 24.3868 13.1019 24.5475 13.2546C24.6922 13.3912 24.8369 13.5279 24.9816 13.6645C25.0137 13.6485 25.0378 13.6324 25.07 13.6163C25.078 13.5038 25.0861 13.3912 25.0861 13.2707C25.0861 12.7723 25.2307 12.5473 25.5603 12.5392C25.8979 12.5312 26.0506 12.7643 26.0506 13.2787C26.0506 13.3832 26.0506 13.4877 26.0506 13.6002C26.0828 13.6163 26.1069 13.6324 26.139 13.6565C26.2435 13.5681 26.34 13.4716 26.4525 13.3912C26.5891 13.2948 26.7258 13.134 26.8705 13.134C27.0312 13.134 27.2322 13.2385 27.3447 13.3591C27.4974 13.5359 27.4331 13.761 27.2804 13.9298C27.1438 14.0825 27.0071 14.2192 26.8705 14.3638C26.8865 14.396 26.9026 14.4362 26.9187 14.4683C27.0955 14.4683 27.2643 14.4683 27.4412 14.4683C27.7787 14.4764 27.9877 14.6612 27.9877 14.9426C27.9958 15.2319 27.7787 15.4248 27.4251 15.4329C27.2563 15.4329 27.0955 15.4329 26.9267 15.4329C26.9107 15.465 26.8865 15.4891 26.8705 15.5213C26.9589 15.6258 27.0553 15.7222 27.1357 15.8348C27.2322 15.9714 27.3929 16.1081 27.3929 16.2527C27.3929 16.4135 27.2884 16.6225 27.1679 16.727C26.991 16.8797 26.766 16.8154 26.5972 16.6627C26.4525 16.526 26.3078 16.3894 26.1631 16.2527C26.131 16.2688 26.0908 16.2849 26.0586 16.301C26.0586 16.4617 26.0586 16.6305 26.0586 16.7913C26.0506 17.1449 25.8738 17.362 25.5844 17.37C25.295 17.378 25.1021 17.153 25.0941 16.8074C25.0941 16.6386 25.0941 16.4778 25.0941 16.309C25.0539 16.2769 25.0137 16.2608 24.9816 16.2447Z" fill="#E2001A"/>
<path d="M5.79534 7.22617C4.4932 7.22617 3.23929 7.22617 1.94519 7.22617C1.94519 6.71979 1.92912 6.22144 1.95323 5.72309C1.9693 5.46588 2.16221 5.31316 2.42746 5.31316C3.39201 5.30512 4.35656 5.30512 5.31307 5.31316C5.60243 5.31316 5.7873 5.50607 5.79534 5.78739C5.80338 6.25359 5.79534 6.72783 5.79534 7.22617Z" fill="#E2001A"/>
<path d="M2.92578 0.498482C3.56881 0.498482 4.17969 0.498482 4.81469 0.498482C4.81469 1.77651 4.81469 3.03042 4.81469 4.31648C4.19577 4.31648 3.56881 4.31648 2.92578 4.31648C2.92578 3.05453 2.92578 1.78454 2.92578 0.498482ZM4.34045 1.9453C4.0109 1.9453 3.71349 1.9453 3.40805 1.9453C3.40805 2.26682 3.40805 2.56422 3.40805 2.8777C3.72957 2.8777 4.03501 2.8777 4.34045 2.8777C4.34045 2.55618 4.34045 2.25878 4.34045 1.9453Z" fill="#E2001A"/>
<path d="M10.5377 7.1217C10.9235 7.12973 11.4781 7.66827 11.4459 7.94156C11.4299 8.09428 11.3173 8.29523 11.1887 8.35953C11.0601 8.42383 10.8351 8.39972 10.6984 8.31934C10.5216 8.22289 10.3608 8.05409 10.2563 7.87726C10.184 7.74061 10.1599 7.52359 10.2161 7.38695C10.2724 7.25834 10.4653 7.17796 10.5377 7.1217Z" fill="#E2001A"/>
<path d="M16.5661 13.1662C16.5098 13.2385 16.4375 13.4154 16.3009 13.4716C16.1642 13.5279 15.9552 13.5279 15.8266 13.4555C15.6337 13.343 15.4569 13.1662 15.3443 12.9733C15.272 12.8527 15.264 12.6276 15.3283 12.5071C15.3926 12.3865 15.5774 12.274 15.7221 12.2499C16.0276 12.2097 16.5741 12.7723 16.5661 13.1662Z" fill="#E2001A"/>
<path d="M7.48316 1.44694C7.44297 1.44694 7.40278 1.44694 7.36259 1.44694C6.98481 1.4389 6.75975 1.26207 6.76779 0.964667C6.76779 0.667265 6.99285 0.490431 7.37063 0.482393C7.48316 0.482393 7.59569 0.474355 7.70018 0.482393C8.00562 0.498469 8.20657 0.691378 8.20657 0.964667C8.20657 1.23795 7.99758 1.43086 7.69214 1.4389C7.6198 1.44694 7.54746 1.44694 7.48316 1.44694Z" fill="#E2001A"/>
<path d="M9.89457 1.44694C9.86242 1.44694 9.83831 1.44694 9.80615 1.44694C9.39622 1.44694 9.1792 1.2701 9.1792 0.964665C9.1792 0.659225 9.40426 0.482391 9.80615 0.482391C9.90261 0.482391 10.0071 0.482391 10.1036 0.482391C10.409 0.498467 10.6099 0.691377 10.6099 0.964665C10.6099 1.23795 10.409 1.43086 10.0955 1.44694C10.0312 1.44694 9.96691 1.44694 9.89457 1.44694Z" fill="#E2001A"/>
<path d="M12.3303 0.482393C12.4107 0.482393 12.491 0.474355 12.5714 0.482393C12.8367 0.506507 13.0215 0.699415 13.0296 0.94859C13.0376 1.21384 12.8447 1.41479 12.5553 1.4389C12.3866 1.44694 12.2097 1.44694 12.0409 1.4389C11.7757 1.41479 11.5908 1.22188 11.5828 0.972705C11.5747 0.707455 11.7676 0.506507 12.057 0.482393C12.1454 0.474355 12.2338 0.482393 12.3303 0.482393Z" fill="#E2001A"/>
<path d="M14.7012 1.4389C14.6128 1.4389 14.5163 1.45498 14.4279 1.4389C14.1707 1.39871 14.018 1.23795 14.0019 0.972703C13.9858 0.723528 14.1787 0.514543 14.436 0.482391C14.5967 0.466315 14.7575 0.474353 14.9182 0.474353C15.2317 0.482391 15.4327 0.667263 15.4407 0.940552C15.4487 1.22188 15.2397 1.42282 14.9102 1.43086C14.8379 1.44694 14.7655 1.44694 14.7012 1.4389C14.7012 1.44694 14.7012 1.44694 14.7012 1.4389Z" fill="#E2001A"/>
<path d="M17.153 0.482393C17.2334 0.482393 17.3138 0.474355 17.3942 0.482393C17.6594 0.506507 17.8523 0.699415 17.8523 0.94859C17.8604 1.21384 17.6675 1.41479 17.3781 1.4389C17.2093 1.44694 17.0325 1.44694 16.8637 1.4389C16.5984 1.41479 16.4136 1.22188 16.4055 0.972705C16.3975 0.707455 16.5904 0.506507 16.8798 0.482393C16.9682 0.474355 17.0566 0.482393 17.153 0.482393Z" fill="#E2001A"/>
<path d="M19.5642 0.482393C19.6446 0.482393 19.7249 0.474355 19.8053 0.482393C20.0706 0.506507 20.2554 0.699415 20.2635 0.94859C20.2715 1.21384 20.0786 1.41479 19.7892 1.4389C19.6204 1.44694 19.4436 1.44694 19.2748 1.4389C19.0096 1.41479 18.8247 1.22188 18.8166 0.972705C18.8086 0.707455 19.0015 0.506507 19.2909 0.482393C19.3793 0.474355 19.4677 0.482393 19.5642 0.482393Z" fill="#E2001A"/>
<path d="M11.8319 3.25547C11.9766 3.29566 12.1936 3.34389 12.3946 3.42427C12.6277 3.52072 12.7322 3.77793 12.6438 4.00299C12.5554 4.23609 12.3785 4.3647 12.1293 4.32451C11.9364 4.29236 11.7355 4.23609 11.5506 4.16375C11.3014 4.0673 11.1889 3.87439 11.2452 3.61717C11.3095 3.35996 11.4944 3.23136 11.8319 3.25547Z" fill="#E2001A"/>
<path d="M8.91415 5.4257C9.22763 5.4257 9.7501 5.9562 9.74206 6.26164C9.72598 6.62334 9.33213 6.85644 9.02669 6.64746C8.82574 6.51081 8.64087 6.32594 8.50422 6.11696C8.30328 5.81955 8.55245 5.4257 8.91415 5.4257Z" fill="#E2001A"/>
<path d="M19.6526 5.85974C19.5883 5.92404 19.4758 6.07676 19.323 6.16518C19.1382 6.26967 18.4549 6.0848 18.3585 5.89189C18.2862 5.73917 18.254 5.52214 18.3022 5.36942C18.3906 5.09614 18.6479 5.07202 19.1462 5.20867C19.5159 5.3212 19.6767 5.48999 19.6526 5.85974Z" fill="#E2001A"/>
<path d="M14.412 4.95146C14.2674 4.90323 14.0343 4.86304 13.8253 4.76659C13.6002 4.66209 13.5198 4.45311 13.6002 4.21197C13.6806 3.97084 13.8655 3.85027 14.1066 3.88242C14.3156 3.91457 14.5246 3.97084 14.7095 4.05121C14.9345 4.14767 15.039 4.34862 14.9747 4.59779C14.9184 4.83089 14.7496 4.95146 14.412 4.95146Z" fill="#E2001A"/>
<path d="M13.15 9.65363C13.1419 9.99926 12.7641 10.2484 12.4667 10.0636C12.2497 9.92692 12.0568 9.73401 11.9202 9.52502C11.7273 9.23566 11.9604 8.84984 12.314 8.83376C12.6275 8.82573 13.15 9.34015 13.15 9.65363Z" fill="#E2001A"/>
<path d="M10.3607 3.1992C10.3286 3.31173 10.3125 3.39211 10.2804 3.45642C10.1357 3.7297 9.90258 3.75382 9.33993 3.57698C9.03449 3.48053 8.86569 3.29566 8.93803 3.04648C8.98626 2.89376 9.1631 2.65263 9.26759 2.66066C9.58107 2.67674 9.90258 2.78123 10.2 2.89376C10.2723 2.92591 10.3125 3.10275 10.3607 3.1992Z" fill="#E2001A"/>
<path d="M8.0377 4.65403C7.98947 4.71834 7.91713 4.90321 7.78852 4.95144C7.64384 5.0077 7.42682 4.99163 7.29017 4.91929C7.11334 4.82283 6.94454 4.65404 6.84809 4.4772C6.77575 4.34056 6.75967 4.1155 6.82397 3.97885C6.88024 3.85828 7.08119 3.75379 7.22587 3.73771C7.53131 3.70556 8.0377 4.23606 8.0377 4.65403Z" fill="#E2001A"/>
<path d="M14.4844 11.8239C14.0664 11.8319 13.5359 11.3255 13.5841 11.012C13.6002 10.8673 13.7127 10.6744 13.8333 10.6101C13.9539 10.5458 14.1789 10.5539 14.2995 10.6262C14.4844 10.7307 14.6532 10.8995 14.7577 11.0844C14.83 11.2049 14.838 11.422 14.7737 11.5586C14.7255 11.7033 14.5487 11.7756 14.4844 11.8239Z" fill="#E2001A"/>
<path d="M17.3217 5.16044C17.3057 5.20063 17.2896 5.29708 17.2413 5.36942C17.0726 5.62663 16.8234 5.60252 16.5662 5.53018C16.2848 5.4498 15.9472 5.41765 15.9151 5.02379C15.9071 4.92734 15.9312 4.82284 15.9794 4.73443C16.116 4.47721 16.3331 4.4531 16.8716 4.59778C17.1369 4.67816 17.3298 4.80677 17.3217 5.16044Z" fill="#E2001A"/>
<path d="M7.00884 1.95331C7.32232 2.04976 7.56346 2.08995 7.77244 2.19444C7.97339 2.2909 8.06181 2.49185 7.98946 2.72495C7.91712 2.95001 7.7644 3.09469 7.52327 3.06254C7.29821 3.03842 7.07314 2.97412 6.86416 2.8857C6.64714 2.78925 6.55068 2.57223 6.6391 2.36324C6.71948 2.20248 6.89631 2.08191 7.00884 1.95331Z" fill="#E2001A"/>
<path d="M5.31327 16.3974C5.31327 16.7189 5.32131 17.0083 5.31327 17.2976C5.30523 17.6513 5.1284 17.8362 4.77473 17.8442C4.17189 17.8523 3.56905 17.8523 2.96621 17.8442C2.6045 17.8442 2.42767 17.6594 2.41963 17.3057C2.41159 17.0163 2.41963 16.727 2.41963 16.3974C2.12223 16.3974 1.84894 16.3974 1.56761 16.3974C1.14964 16.3974 0.972811 16.2286 0.972811 15.8187C0.972811 15.2399 0.964773 14.6532 0.972811 14.0745C0.972811 13.6806 1.14964 13.5118 1.5435 13.5038C1.81679 13.4957 2.08204 13.4957 2.35533 13.4957C2.36337 13.4957 2.3714 13.4877 2.41159 13.4555C2.41159 13.1903 2.41159 12.9009 2.41159 12.6196C2.41963 12.2418 2.58843 12.065 2.96621 12.065C3.56101 12.0569 4.14778 12.0569 4.74258 12.065C5.1284 12.065 5.2972 12.2499 5.30523 12.6437C5.30523 12.925 5.30523 13.1983 5.30523 13.5118C5.61871 13.5118 5.90808 13.5038 6.19744 13.5118C6.56718 13.5198 6.74402 13.6967 6.75205 14.0745C6.76009 14.6693 6.76009 15.256 6.75205 15.8508C6.75205 16.2206 6.56718 16.3974 6.1894 16.4054C5.91611 16.3974 5.63479 16.3974 5.31327 16.3974ZM4.34069 14.4763C4.34069 13.97 4.34069 13.5038 4.34069 13.0376C4.01113 13.0376 3.71373 13.0376 3.38418 13.0376C3.38418 13.5198 3.38418 13.986 3.38418 14.4763C2.88583 14.4763 2.41963 14.4763 1.95343 14.4763C1.95343 14.8059 1.95343 15.1033 1.95343 15.4329C2.43571 15.4329 2.9019 15.4329 3.39222 15.4329C3.39222 15.9312 3.39222 16.3974 3.39222 16.8636C3.72177 16.8636 4.01917 16.8636 4.34872 16.8636C4.34872 16.3813 4.34872 15.9151 4.34872 15.4248C4.84707 15.4248 5.31327 15.4248 5.77947 15.4248C5.77947 15.0953 5.77947 14.7979 5.77947 14.4763C5.31327 14.4763 4.84707 14.4763 4.34069 14.4763Z" fill="white"/>
<path d="M3.85826 19.7733C3.09466 19.7733 2.33106 19.7733 1.56746 19.7733C1.18968 19.7733 0.972656 19.5885 0.972656 19.283C0.980694 18.9856 1.19772 18.8088 1.5755 18.8088C3.1027 18.8088 4.6299 18.8088 6.1571 18.8088C6.53488 18.8088 6.7519 18.9937 6.7519 19.2991C6.74386 19.5965 6.52684 19.7733 6.14102 19.7733C5.38546 19.7733 4.62186 19.7733 3.85826 19.7733Z" fill="white"/>
<path d="M3.89845 20.7379C4.65401 20.7379 5.40153 20.7379 6.1571 20.7379C6.53488 20.7379 6.75994 20.9227 6.75994 21.2202C6.75994 21.5176 6.53488 21.7024 6.1571 21.7024C4.6299 21.7024 3.1027 21.7024 1.5755 21.7024C1.19772 21.7024 0.972656 21.5176 0.972656 21.2202C0.972656 20.9227 1.18968 20.7379 1.5755 20.7379C2.34714 20.7379 3.12681 20.7379 3.89845 20.7379Z" fill="white"/>
<path d="M3.89059 22.667C4.17995 22.667 4.46932 22.667 4.76672 22.667C5.10431 22.675 5.3133 22.8599 5.3133 23.1412C5.32134 23.4225 5.10431 23.6235 4.7828 23.6315C4.17192 23.6396 3.56104 23.6396 2.94212 23.6315C2.62864 23.6315 2.4277 23.4306 2.41966 23.1573C2.41162 22.876 2.62061 22.683 2.95016 22.667C2.9582 22.667 2.96623 22.667 2.98231 22.667C3.28775 22.667 3.58515 22.667 3.89059 22.667Z" fill="white"/>
<path d="M4.3406 1.9453C4.3406 2.26682 4.3406 2.55618 4.3406 2.8777C4.02712 2.8777 3.72168 2.8777 3.4082 2.8777C3.4082 2.57226 3.4082 2.26682 3.4082 1.9453C3.71364 1.9453 4.01105 1.9453 4.3406 1.9453Z" fill="white"/>
<path d="M4.34038 14.4764C4.8548 14.4764 5.31296 14.4764 5.77916 14.4764C5.77916 14.7979 5.77916 15.0953 5.77916 15.4248C5.31296 15.4248 4.84676 15.4248 4.34842 15.4248C4.34842 15.9232 4.34842 16.3894 4.34842 16.8636C4.01886 16.8636 3.72146 16.8636 3.39191 16.8636C3.39191 16.3974 3.39191 15.9312 3.39191 15.4329C2.89356 15.4329 2.42736 15.4329 1.95312 15.4329C1.95312 15.1033 1.95312 14.8059 1.95312 14.4764C2.41932 14.4764 2.88552 14.4764 3.38387 14.4764C3.38387 13.978 3.38387 13.5118 3.38387 13.0376C3.71342 13.0376 4.01082 13.0376 4.34038 13.0376C4.34038 13.5038 4.34038 13.97 4.34038 14.4764Z" fill="#E2001A"/>
</svg>
