<svg width="24" height="35" viewBox="0 0 24 35" fill="none" xmlns="http://www.w3.org/2000/svg">
<path d="M11.459 12.7991C11.5214 13.2893 11.6195 13.7884 11.6551 14.2965C11.7264 15.3304 12.1186 16.1772 12.9119 16.8545C13.4556 17.318 13.9547 17.8261 14.4538 18.3341C15.1223 19.0026 15.4877 19.8226 15.6036 20.7585C15.8799 23.067 16.1651 25.3754 16.4504 27.6839C16.5662 28.6198 16.7356 29.5557 16.3969 30.4916C16.1562 31.16 15.9334 31.8374 15.7017 32.5059C15.3184 33.5933 14.436 34.2172 13.2862 34.2172C9.95272 34.2172 6.62815 34.2172 3.29466 34.2172C2.16269 34.2172 1.2803 33.5933 0.897036 32.5326C0.64747 31.8374 0.371164 31.16 0.192902 30.447C0.0592058 29.8855 -0.038838 29.2794 0.0146405 28.7089C0.27312 26.1954 0.620733 23.6909 0.888125 21.1774C1.03073 19.885 1.50312 18.8065 2.48356 17.9419C3.00052 17.4874 3.48183 16.9882 3.98096 16.5158C4.47118 16.0435 4.74749 15.4641 4.83662 14.7867C4.91683 14.1182 5.01488 13.4408 5.10401 12.7991C7.23423 12.7991 9.31989 12.7991 11.459 12.7991ZM5.95966 7.72756C5.51401 6.69364 5.26444 6.51538 4.12357 6.41733C3.36596 6.34603 2.89356 5.59733 3.17878 4.88428C3.84726 3.18189 5.63879 1.90732 7.4838 1.88058C9.40903 1.85384 11.3342 1.87167 13.2595 1.88058C13.4377 1.88058 13.6784 1.90732 13.7853 2.02319C14.0616 2.30841 14.3825 2.26384 14.7123 2.27275C14.9351 2.27275 15.158 2.26384 15.3808 2.27275C15.8086 2.29058 16.0938 2.55797 16.1206 2.97689C16.1384 3.33341 16.1384 3.68993 16.1206 4.04646C16.1027 4.47428 15.8175 4.74168 15.3897 4.7595C15.0421 4.77733 14.7034 4.7595 14.3558 4.76842C14.2666 4.76842 14.1508 4.76842 14.1062 4.82189C13.8032 5.20516 13.3397 5.26755 12.9208 5.3745C12.1275 5.57059 11.5838 6.03407 11.254 6.78277C11.1203 7.09473 11.0134 7.51364 10.7549 7.66517C10.4875 7.8256 10.0686 7.73647 9.71207 7.73647C8.46424 7.72756 7.20749 7.72756 5.95966 7.72756ZM8.29489 12.1128C7.44815 12.1128 6.6014 12.1217 5.75466 12.1039C5.07727 12.095 4.60487 11.6226 4.57814 10.9452C4.56031 10.4906 4.56031 10.036 4.57814 9.57256C4.60487 8.93082 5.05944 8.43169 5.69227 8.42278C7.41249 8.40495 9.14163 8.40495 10.8619 8.42278C11.5125 8.43169 11.9671 8.93974 11.9849 9.5993C11.9938 10.0093 11.9849 10.4193 11.9849 10.8382C11.9849 11.6404 11.5303 12.095 10.7192 12.1039C9.91707 12.1217 9.10598 12.1128 8.29489 12.1128ZM13.8299 5.87364C13.8566 5.90038 13.8745 5.9182 13.8834 5.93603C14.3736 7.37103 15.1134 8.67234 15.9601 9.91126C16.0404 10.0271 16.0849 10.2678 16.0136 10.3569C15.9334 10.4639 15.7106 10.5441 15.568 10.5263C14.4627 10.3837 13.6427 9.81322 13.1347 8.81495C12.8227 8.19104 12.5643 7.52256 11.8066 7.35321C12.0562 6.23907 12.9564 6.07864 13.8299 5.87364ZM21.1475 5.49929C21.5932 5.49929 21.9497 5.73103 21.9408 5.96277C21.9319 6.19451 21.7893 6.3282 21.5575 6.3282C21.201 6.3282 20.8534 6.08755 20.9069 5.85581C20.9336 5.70429 21.0852 5.58842 21.1475 5.49929ZM20.2206 3.86819C19.9532 3.88602 19.7036 3.84146 19.6947 3.52059C19.6858 3.21754 19.9175 3.15515 20.176 3.15515C20.5593 3.15515 20.7554 3.27102 20.7375 3.51167C20.7197 3.83254 20.488 3.88602 20.2206 3.86819ZM20.5236 1.7558C20.4523 1.64884 20.3008 1.53297 20.2651 1.38145C20.2117 1.14971 20.5504 0.926881 20.9158 0.909055C21.1565 0.900142 21.2812 1.02492 21.2991 1.26558C21.308 1.55971 20.9782 1.64884 20.5236 1.7558ZM19.1867 2.19254C19.1065 2.09449 18.9549 1.97862 18.9104 1.8271C18.8569 1.61319 19.2223 1.35471 19.5699 1.3458C19.7838 1.3458 19.9265 1.46166 19.9443 1.68449C19.971 1.98754 19.668 2.08558 19.1867 2.19254ZM21.6378 3.86819C21.3882 3.88602 21.1565 3.84146 21.1208 3.53841C21.1119 3.43146 21.2188 3.23537 21.2902 3.21754C21.5219 3.18189 21.7715 3.18189 21.9943 3.22645C22.0656 3.24428 22.1547 3.44928 22.1369 3.55624C22.1102 3.85037 21.8784 3.88602 21.6378 3.86819ZM17.3417 3.99298C17.1367 3.84145 16.9495 3.74341 16.8514 3.6008C16.8069 3.53841 16.9138 3.26211 16.9762 3.25319C17.2258 3.20863 17.4843 3.20863 17.7338 3.25319C17.7962 3.26211 17.8943 3.54732 17.8497 3.60972C17.7428 3.75233 17.5556 3.84145 17.3417 3.99298ZM18.9728 5.42798C18.4914 5.41907 18.1617 5.20516 18.1795 4.9645C18.1973 4.75059 18.3221 4.59015 18.5449 4.62581C18.9104 4.67928 19.258 4.80407 19.2045 5.08929C19.1778 5.22298 19.0262 5.34777 18.9728 5.42798ZM18.331 1.80927C18.3934 1.88949 18.5449 2.00536 18.5895 2.15689C18.6519 2.37971 18.2954 2.62036 17.9299 2.62036C17.7071 2.62036 17.5734 2.5045 17.5556 2.29058C17.5288 2.04102 17.8408 1.81819 18.331 1.80927ZM23.0282 6.78277C22.5647 6.77386 22.2171 6.55103 22.2349 6.31929C22.2528 6.09646 22.3865 5.97168 22.6093 5.97168C22.9569 5.96277 23.3312 6.21233 23.2778 6.43516C23.2421 6.58668 23.0906 6.70255 23.0282 6.78277ZM23.0371 3.9395C22.8767 3.84146 22.6628 3.77906 22.5825 3.64537C22.4221 3.38689 22.6628 3.15515 23.0639 3.15515C23.4204 3.15515 23.5986 3.27102 23.5808 3.52059C23.5541 3.84146 23.3312 3.88602 23.0371 3.9395ZM17.618 4.98233C17.1634 4.97342 16.8158 4.74168 16.8247 4.50994C16.8425 4.29602 16.9673 4.16233 17.1901 4.15341C17.5377 4.15341 17.9032 4.39407 17.8586 4.61689C17.8319 4.77733 17.6714 4.90211 17.618 4.98233ZM20.3008 5.90038C19.8284 5.80233 19.5075 5.70429 19.5254 5.41016C19.5343 5.18733 19.6591 5.06255 19.8908 5.06255C20.2562 5.06255 20.5949 5.28537 20.5504 5.52603C20.5236 5.67755 20.3721 5.80233 20.3008 5.90038ZM22.4132 0.463401C22.4667 0.543619 22.6093 0.668402 22.636 0.819924C22.6806 1.04275 22.3062 1.2834 21.9675 1.27449C21.7447 1.26558 21.6199 1.14079 21.6199 0.917966C21.611 0.677313 21.9497 0.454488 22.4132 0.463401ZM18.7856 3.86819C18.5538 3.87711 18.3132 3.8682 18.2775 3.57406C18.2597 3.46711 18.3399 3.25319 18.4112 3.24428C18.6519 3.19971 18.9104 3.19971 19.151 3.23537C19.2223 3.24428 19.3115 3.45819 19.2936 3.56515C19.258 3.85928 19.0262 3.88602 18.7856 3.86819Z" fill="white"/>
<path d="M23.4919 0C23.376 0.0534785 23.2245 0.0802171 23.1443 0.169348C23.0552 0.276305 22.9571 0.454566 22.9928 0.561523C23.0284 0.66848 23.2156 0.78435 23.3315 0.793263C23.5008 0.802176 23.6791 0.72196 23.8306 0.641743C24.0623 0.508046 24.0534 0.303045 23.8217 0C23.7147 0 23.5988 0 23.4919 0Z" fill="#E2001A"/>
<path d="M11.4594 12.7992C9.32022 12.7992 7.23456 12.7992 5.11325 12.7992C5.02412 13.4498 4.92607 14.1183 4.84586 14.7868C4.76564 15.4642 4.48933 16.0435 3.9902 16.5159C3.49107 16.9972 3.00977 17.4875 2.49281 17.942C1.50346 18.8066 1.03106 19.8851 0.897364 21.1775C0.629972 23.691 0.282363 26.1955 0.0238835 28.709C-0.038508 29.2794 0.0595358 29.8855 0.202145 30.4471C0.371493 31.1601 0.656709 31.8375 0.906275 32.5327C1.28062 33.5934 2.17193 34.2173 3.30389 34.2173C6.63738 34.2173 9.96196 34.2173 13.2955 34.2173C14.4452 34.2173 15.3187 33.5934 15.7109 32.506C15.9516 31.8375 16.1655 31.1601 16.4061 30.4916C16.7448 29.5558 16.5755 28.6199 16.4596 27.684C16.1833 25.3755 15.8981 23.067 15.6129 20.7586C15.497 19.8227 15.1315 19.0027 14.4631 18.3342C13.9639 17.8262 13.4648 17.3181 12.9211 16.8546C12.1278 16.1772 11.7357 15.3216 11.6644 14.2966C11.6198 13.7885 11.5218 13.2894 11.4594 12.7992ZM8.30413 22.3986C9.29348 22.3986 10.2828 22.3986 11.2811 22.3986C12.2437 22.3986 12.8498 22.9957 12.8498 23.9583C12.8587 25.5092 12.8498 27.0512 12.8498 28.6021C12.8498 29.5914 12.2526 30.1797 11.2633 30.1797C9.28457 30.1886 7.29695 30.1886 5.31825 30.1797C4.33781 30.1797 3.75846 29.5914 3.75846 28.6199C3.74955 27.069 3.74955 25.527 3.75846 23.9762C3.75846 22.9779 4.34672 22.3986 5.33608 22.3986C6.31651 22.3986 7.31478 22.3986 8.30413 22.3986Z" fill="#E2001A"/>
<path d="M5.95988 7.72768C7.20771 7.72768 8.46445 7.72768 9.7212 7.72768C10.0777 7.72768 10.4966 7.81681 10.764 7.65638C11.0136 7.50486 11.1205 7.08594 11.2632 6.77398C11.5929 6.02529 12.1366 5.56181 12.9299 5.36572C13.3577 5.25876 13.8123 5.19637 14.1153 4.81311C14.1599 4.75963 14.2758 4.75963 14.3649 4.75963C14.7125 4.75071 15.0512 4.76854 15.3988 4.75071C15.8267 4.73289 16.103 4.4655 16.1297 4.03767C16.1475 3.68115 16.1475 3.32462 16.1297 2.9681C16.103 2.54027 15.8177 2.28179 15.3899 2.26397C15.1671 2.25505 14.9443 2.26397 14.7214 2.26397C14.3916 2.26397 14.0708 2.29962 13.7945 2.0144C13.6875 1.89853 13.4469 1.87179 13.2686 1.87179C11.3434 1.86288 9.41815 1.85397 7.49293 1.87179C5.64792 1.89853 3.85639 3.1731 3.18791 4.8755C2.91161 5.58855 3.37508 6.34616 4.1327 6.40855C5.26466 6.5155 5.50531 6.68485 5.95988 7.72768Z" fill="#E2001A"/>
<path d="M8.29516 12.1129C9.10625 12.1129 9.91734 12.1218 10.7284 12.1129C11.5395 12.104 11.9852 11.6494 11.9941 10.8472C11.9941 10.4372 12.003 10.0272 11.9941 9.60829C11.9852 8.94873 11.5306 8.44068 10.871 8.43177C9.15082 8.41394 7.42168 8.41394 5.70146 8.43177C5.05971 8.44068 4.60515 8.9309 4.58732 9.58156C4.5695 10.0361 4.5695 10.4907 4.58732 10.9542C4.60515 11.6316 5.07754 12.095 5.76384 12.1129C6.60167 12.1218 7.44842 12.1129 8.29516 12.1129Z" fill="#E2001A"/>
<path d="M13.8303 5.87377C12.9568 6.06986 12.0655 6.23921 11.8159 7.36226C12.5736 7.53161 12.8231 8.20009 13.144 8.824C13.6431 9.82227 14.472 10.3927 15.5773 10.5353C15.7199 10.5531 15.9427 10.4729 16.0229 10.366C16.0853 10.2768 16.0497 10.0362 15.9694 9.92031C15.1227 8.67248 14.3829 7.37117 13.8927 5.94508C13.8749 5.91834 13.857 5.90051 13.8303 5.87377Z" fill="#E2001A"/>
<path d="M21.1476 5.49928C21.0852 5.5795 20.9337 5.70428 20.8981 5.85581C20.8446 6.08755 21.1922 6.3282 21.5487 6.3282C21.7805 6.3282 21.9231 6.1945 21.932 5.96276C21.9498 5.73993 21.5933 5.5082 21.1476 5.49928Z" fill="#E2001A"/>
<path d="M20.2206 3.86819C20.488 3.88602 20.7197 3.83254 20.7465 3.51167C20.7643 3.27102 20.5593 3.15515 20.185 3.15515C19.9265 3.15515 19.6947 3.20863 19.7037 3.52058C19.7037 3.84145 19.9532 3.88602 20.2206 3.86819Z" fill="#E2001A"/>
<path d="M20.5237 1.75591C20.9783 1.64004 21.3081 1.55982 21.2991 1.2746C21.2902 1.03395 21.1565 0.909166 20.9159 0.918079C20.5504 0.926992 20.2117 1.15873 20.2652 1.39047C20.3009 1.53308 20.4524 1.65787 20.5237 1.75591Z" fill="#E2001A"/>
<path d="M19.1868 2.19262C19.6681 2.08566 19.9712 1.98762 19.9534 1.69349C19.9355 1.47066 19.7929 1.35479 19.579 1.35479C19.2225 1.3637 18.866 1.61327 18.9194 1.8361C18.9462 1.9787 19.1066 2.09457 19.1868 2.19262Z" fill="#E2001A"/>
<path d="M21.6378 3.86822C21.8873 3.87714 22.1191 3.8504 22.1458 3.56518C22.1547 3.45822 22.0745 3.25322 22.0032 3.23539C21.7715 3.19083 21.5219 3.18192 21.2991 3.22648C21.2188 3.2354 21.1208 3.44039 21.1297 3.54735C21.1475 3.8504 21.3882 3.88605 21.6378 3.86822Z" fill="#E2001A"/>
<path d="M17.342 3.99306C17.5559 3.84154 17.7431 3.75241 17.8501 3.6098C17.8946 3.54741 17.7966 3.26219 17.7342 3.25328C17.4846 3.20871 17.2262 3.20871 16.9766 3.25328C16.9142 3.26219 16.8072 3.5385 16.8518 3.60089C16.9588 3.7435 17.137 3.83263 17.342 3.99306Z" fill="#E2001A"/>
<path d="M18.9728 5.42803C19.0262 5.34782 19.1778 5.23195 19.2045 5.08042C19.258 4.79521 18.9104 4.67042 18.5449 4.61694C18.3221 4.58129 18.1973 4.74173 18.1795 4.95564C18.1617 5.1963 18.4825 5.41912 18.9728 5.42803Z" fill="#E2001A"/>
<path d="M18.3314 1.80927C17.8412 1.8271 17.5292 2.04101 17.5559 2.29058C17.5738 2.51341 17.7075 2.62928 17.9303 2.62036C18.2868 2.61145 18.6433 2.37971 18.5899 2.15688C18.5453 2.00536 18.3849 1.88058 18.3314 1.80927Z" fill="#E2001A"/>
<path d="M23.0285 6.78292C23.0909 6.7027 23.2424 6.57792 23.2781 6.43531C23.3316 6.21249 22.9572 5.96292 22.6096 5.97183C22.3868 5.97183 22.2531 6.09661 22.2352 6.31944C22.2174 6.55118 22.565 6.78292 23.0285 6.78292Z" fill="#E2001A"/>
<path d="M23.0371 3.9395C23.3402 3.87711 23.563 3.83254 23.5808 3.52058C23.5986 3.27102 23.4204 3.15515 23.0639 3.15515C22.6539 3.15515 22.4132 3.38689 22.5825 3.64537C22.6628 3.78798 22.8767 3.85037 23.0371 3.9395Z" fill="#E2001A"/>
<path d="M17.6179 4.98243C17.6803 4.90221 17.8319 4.77743 17.8586 4.62591C17.9032 4.40308 17.5377 4.15352 17.1901 4.16243C16.9673 4.16243 16.8425 4.29613 16.8247 4.51895C16.8069 4.74178 17.1634 4.98243 17.6179 4.98243Z" fill="#E2001A"/>
<path d="M20.3012 5.90046C20.3725 5.80242 20.5151 5.67763 20.5507 5.52611C20.5953 5.28546 20.2566 5.06263 19.8912 5.06263C19.6683 5.06263 19.5436 5.1785 19.5257 5.41024C19.5168 5.71329 19.8377 5.81133 20.3012 5.90046Z" fill="#E2001A"/>
<path d="M22.4133 0.463401C21.9498 0.454488 21.6111 0.677313 21.6111 0.917966C21.6111 1.14079 21.7359 1.26558 21.9588 1.27449C22.2974 1.2834 22.6718 1.05166 22.6272 0.819924C22.6094 0.668402 22.4668 0.543619 22.4133 0.463401Z" fill="#E2001A"/>
<path d="M18.7859 3.86821C19.0265 3.87713 19.2583 3.85039 19.285 3.56517C19.2939 3.45821 19.2048 3.2443 19.1424 3.23539C18.9018 3.19973 18.6433 3.19973 18.4026 3.2443C18.3402 3.25321 18.26 3.46713 18.2689 3.57408C18.3135 3.86822 18.5542 3.87713 18.7859 3.86821Z" fill="#E2001A"/>
<path d="M8.30401 22.3985C7.31466 22.3985 6.32531 22.3985 5.32704 22.3985C4.33769 22.3985 3.74943 22.9868 3.74943 23.9761C3.74943 25.527 3.74051 27.0689 3.74943 28.6198C3.74943 29.5913 4.33769 30.1796 5.30922 30.1796C7.28792 30.1885 9.27554 30.1885 11.2542 30.1796C12.2436 30.1796 12.8408 29.5914 12.8408 28.602C12.8408 27.0511 12.8497 25.5092 12.8408 23.9583C12.8408 22.9957 12.2347 22.3985 11.2721 22.3985C10.2827 22.3985 9.29336 22.3985 8.30401 22.3985ZM8.28619 23.1294C9.28445 23.1294 10.2916 23.1294 11.2899 23.1294C11.8603 23.1294 12.1277 23.4057 12.1277 23.9672C12.1277 25.527 12.1277 27.0868 12.1277 28.6466C12.1277 29.2081 11.8514 29.4755 11.281 29.4755C9.28445 29.4755 7.29683 29.4755 5.3003 29.4755C4.73878 29.4755 4.45356 29.1992 4.45356 28.6376C4.44465 27.0779 4.44465 25.5181 4.45356 23.9583C4.45356 23.3968 4.73878 23.1294 5.30922 23.1294C6.29857 23.1294 7.29683 23.1294 8.28619 23.1294Z" fill="white"/>
<path d="M8.28627 23.1295C7.29692 23.1295 6.30756 23.1295 5.31821 23.1295C4.75669 23.1295 4.46256 23.4058 4.46256 23.9584C4.45365 25.5182 4.45365 27.078 4.46256 28.6378C4.46256 29.1993 4.74778 29.4756 5.3093 29.4756C7.30583 29.4756 9.29345 29.4756 11.29 29.4756C11.8604 29.4756 12.1367 29.2082 12.1367 28.6467C12.1367 27.0869 12.1367 25.5271 12.1367 23.9673C12.1367 23.4058 11.8604 23.1295 11.2989 23.1295C10.2917 23.1295 9.28454 23.1295 8.28627 23.1295ZM8.30409 25.0013C7.54648 25.0013 6.78887 25.0013 6.03126 25.0013C5.78169 25.0013 5.56778 24.9567 5.54996 24.6626C5.54104 24.3506 5.76387 24.2882 6.02235 24.2882C7.51974 24.2882 9.02605 24.2882 10.5235 24.2882C10.7819 24.2882 11.0226 24.3328 11.0226 24.6447C11.0226 24.9478 10.7908 25.0102 10.5235 25.0013C9.79258 25.0013 9.05279 25.0013 8.30409 25.0013ZM7.40387 27.6039C7.85844 27.6039 8.31301 27.6039 8.77649 27.6039C9.02606 27.6039 9.23997 27.6663 9.24888 27.9515C9.24888 28.2456 9.03497 28.308 8.7854 28.308C7.85844 28.308 6.9404 28.308 6.01344 28.308C5.76387 28.308 5.55887 28.2367 5.56778 27.9426C5.5767 27.6663 5.77278 27.6039 6.01344 27.6039C6.468 27.6039 6.94039 27.6039 7.40387 27.6039ZM9.38258 25.946C9.79258 25.946 10.2026 25.946 10.6126 25.946C10.8532 25.946 11.0404 26.0352 11.0404 26.3026C11.0404 26.561 10.8532 26.6591 10.6126 26.6591C9.79258 26.6591 8.97258 26.6591 8.15258 26.6591C7.91192 26.6591 7.72474 26.57 7.72474 26.3026C7.72474 26.0352 7.91192 25.946 8.15258 25.946C8.55366 25.946 8.96366 25.946 9.38258 25.946ZM6.31648 26.6591C6.18278 26.6591 6.04909 26.668 5.91539 26.6591C5.70148 26.6413 5.54996 26.5254 5.54996 26.3026C5.54996 26.0708 5.69256 25.955 5.91539 25.946C6.18278 25.9371 6.45017 25.9371 6.71757 25.946C6.94039 25.955 7.08301 26.0797 7.08301 26.3026C7.08301 26.5254 6.94039 26.6413 6.71757 26.6591C6.58387 26.668 6.45017 26.6591 6.31648 26.6591ZM10.4165 28.2902C10.3363 28.2902 10.265 28.2902 10.1848 28.2902C9.95302 28.2902 9.79258 28.2011 9.78367 27.9515C9.77475 27.7019 9.93519 27.6039 10.1669 27.595C10.3095 27.595 10.4521 27.595 10.5948 27.595C10.8354 27.5861 11.0315 27.6752 11.0315 27.9337C11.0315 28.21 10.8354 28.2991 10.5769 28.2902C10.5324 28.2902 10.4789 28.2902 10.4165 28.2902Z" fill="#E2001A"/>
<path d="M8.30421 25.0012C9.05291 25.0012 9.7927 25.0012 10.5414 25.0012C10.8088 25.0012 11.0316 24.9388 11.0405 24.6447C11.0405 24.3327 10.7999 24.2881 10.5414 24.2881C9.044 24.2881 7.53769 24.2881 6.04029 24.2881C5.78182 24.2881 5.55008 24.3505 5.5679 24.6625C5.57682 24.9566 5.79964 25.0012 6.04921 25.0012C6.7979 25.0012 7.5466 25.0012 8.30421 25.0012Z" fill="white"/>
<path d="M7.40365 27.6038C6.94017 27.6038 6.46778 27.6038 6.0043 27.6038C5.76365 27.6038 5.56756 27.6662 5.55865 27.9425C5.54973 28.2366 5.75473 28.3079 6.0043 28.3079C6.93126 28.3079 7.84931 28.3079 8.77627 28.3079C9.02584 28.3079 9.23975 28.2455 9.23975 27.9514C9.23975 27.6662 9.02583 27.6038 8.76735 27.6038C8.3217 27.6038 7.85822 27.6038 7.40365 27.6038Z" fill="white"/>
<path d="M9.3827 25.946C8.9727 25.946 8.5627 25.946 8.15269 25.946C7.91204 25.946 7.72486 26.0351 7.72486 26.3025C7.72486 26.5699 7.91204 26.659 8.15269 26.659C8.9727 26.659 9.7927 26.659 10.6127 26.659C10.8534 26.659 11.0405 26.561 11.0405 26.3025C11.0405 26.044 10.8534 25.946 10.6127 25.946C10.2027 25.946 9.7927 25.946 9.3827 25.946Z" fill="white"/>
<path d="M6.31648 26.6589C6.45018 26.6589 6.58387 26.6679 6.71757 26.6589C6.93148 26.6411 7.08301 26.5253 7.08301 26.3024C7.08301 26.0796 6.9404 25.9548 6.71757 25.9459C6.45018 25.937 6.18278 25.937 5.91539 25.9459C5.70148 25.9548 5.54996 26.0707 5.54996 26.3024C5.54996 26.5253 5.69256 26.6411 5.91539 26.6589C6.04909 26.6679 6.18278 26.6589 6.31648 26.6589Z" fill="white"/>
<path d="M10.4166 28.2902C10.4701 28.2902 10.5236 28.2902 10.586 28.2902C10.8444 28.2991 11.0405 28.21 11.0405 27.9337C11.0405 27.6752 10.8444 27.586 10.6038 27.595C10.4612 27.595 10.3186 27.595 10.176 27.595C9.94422 27.6039 9.78378 27.7019 9.7927 27.9515C9.80161 28.2011 9.96205 28.2902 10.1938 28.2902C10.2651 28.2902 10.3453 28.2902 10.4166 28.2902Z" fill="white"/>
</svg>
