<svg width="23" height="27" viewBox="0 0 23 27" fill="none" xmlns="http://www.w3.org/2000/svg">
<path d="M13.7783 9.26729C9.17194 9.26729 4.5928 9.26729 0.00683594 9.26729C0.00683594 13.8805 0.00683594 18.4801 0.00683594 23.1001C0.517901 23.1001 1.01534 23.1001 1.5264 23.1001C1.5264 23.3114 1.5264 23.5022 1.5264 23.6861C1.5264 25.1989 2.48721 26.1665 3.99315 26.1665C7.97264 26.1665 11.9453 26.1665 15.9248 26.1665C17.4171 26.1665 18.3847 25.1989 18.3847 23.7066C18.3847 23.509 18.3847 23.3045 18.3847 23.0865C18.9163 23.0865 19.4069 23.0865 19.9179 23.0865C19.9179 22.9775 19.9179 22.8821 19.9179 22.7935C19.9179 21.1104 19.9111 19.4205 19.9248 17.7373C19.9248 17.4034 20.027 17.0627 20.0815 16.7288C20.1087 16.7288 20.1428 16.7288 20.1701 16.722C20.5517 17.1036 20.9333 17.4716 21.3012 17.86C21.383 17.9486 21.4443 18.0917 21.4443 18.2075C21.4579 19.2297 21.4511 20.2518 21.4511 21.2739C21.4511 21.3625 21.4511 21.4579 21.4511 21.5465C21.9758 21.5465 22.4733 21.5465 22.9843 21.5465C22.9843 20.3813 22.9571 19.2297 22.998 18.0849C23.0184 17.567 22.8889 17.1854 22.4869 16.8515C22.044 16.4835 21.6624 16.0474 21.2467 15.6318C21.8055 15.3047 22.4051 15.4137 22.9707 15.3796C22.9707 14.8549 22.9707 14.3643 22.9707 13.8464C21.4375 13.8464 19.9179 13.8464 18.3847 13.8464C18.3847 13.7647 18.3847 13.717 18.3847 13.6693C18.3847 10.0509 18.3847 6.43258 18.3916 2.80742C18.3916 2.70521 18.4461 2.57574 18.521 2.50078C18.9026 2.10556 19.2978 1.71715 19.659 1.36281C19.2842 0.988031 18.9367 0.640506 18.5619 0.272539C18.0713 0.769976 17.5534 1.29467 17.0355 1.80574C16.9061 1.93521 16.8515 2.06468 16.8515 2.24866C16.8584 6.0101 16.8584 9.77835 16.8584 13.5398C16.8584 13.642 16.8584 13.7374 16.8584 13.8669C16.3337 13.8669 15.8362 13.8669 15.3388 13.8669C15.3388 16.9605 15.3388 20.0201 15.3388 23.1138C15.8499 23.1138 16.3473 23.1138 16.8584 23.1138C16.8584 23.325 16.8584 23.5158 16.8584 23.6998C16.8584 24.3676 16.579 24.6469 15.9112 24.6469C11.9453 24.6469 7.97264 24.6469 4.00677 24.6469C3.93863 24.6469 3.87049 24.6469 3.80235 24.6469C3.4412 24.6265 3.12774 24.388 3.08686 24.0337C3.04597 23.7338 3.08004 23.4272 3.08004 23.1069C6.6575 23.1069 10.2145 23.1069 13.7852 23.1069C13.7783 18.4801 13.7783 13.8805 13.7783 9.26729ZM1.53322 7.70002C3.58429 7.70002 5.60811 7.70002 7.63193 7.70002C7.63193 7.18896 7.63193 6.69152 7.63193 6.19408C5.58767 6.19408 3.56385 6.19408 1.53322 6.19408C1.53322 6.69833 1.53322 7.18896 1.53322 7.70002Z" fill="#E2001A"/>
<path d="M13.792 0C13.792 0.504251 13.792 1.00169 13.792 1.5332C12.763 1.5332 11.7545 1.5332 10.7324 1.5332C10.7324 3.60471 10.7324 5.64216 10.7324 7.70005C10.2145 7.70005 9.7239 7.70005 9.1992 7.70005C9.1992 5.65579 9.1992 3.60471 9.1992 1.54001C8.17026 1.54001 7.16857 1.54001 6.13281 1.54001C6.13281 1.01532 6.13281 0.511065 6.13281 0C8.68132 0 11.2367 0 13.792 0Z" fill="#E2001A"/>
<path d="M1.5332 7.70004C1.5332 7.18898 1.5332 6.69836 1.5332 6.1941C3.57065 6.1941 5.58765 6.1941 7.63192 6.1941C7.63192 6.68473 7.63192 7.18216 7.63192 7.70004C5.61491 7.70004 3.58428 7.70004 1.5332 7.70004Z" fill="#E2001A"/>
</svg>
