<svg width="28" height="28" viewBox="0 0 28 28" fill="none" xmlns="http://www.w3.org/2000/svg">
<path d="M11.4655 21.4431C10.6778 21.4431 9.90466 21.4577 9.13884 21.4358C8.78875 21.4285 8.42407 21.3993 8.08127 21.3264C6.15577 20.9033 4.82105 19.1091 4.92316 17.0961C5.01068 15.1925 6.52774 13.5077 8.42407 13.2962C9.32847 13.194 10.2402 13.2524 11.1519 13.2378C11.254 13.2378 11.3634 13.2378 11.4655 13.2378C11.4655 12.6762 11.4655 12.1511 11.4655 11.6113C7.63636 11.6113 3.82912 11.6113 0.00729401 11.6113C0.00729401 15.4405 0.00729401 19.255 0.00729401 23.0622C3.83642 23.0622 7.65095 23.0622 11.4655 23.0622C11.4655 22.5225 11.4655 21.9974 11.4655 21.4431ZM11.4655 24.7471C7.62907 24.7471 3.81453 24.7471 0 24.7471C0 25.8411 0 26.9132 0 27.9927C3.82912 27.9927 7.63636 27.9927 11.4655 27.9927C11.4655 26.906 11.4655 25.8338 11.4655 24.7471ZM11.4655 14.8789C10.6121 14.8789 9.77338 14.8643 8.94191 14.8789C7.826 14.9007 6.84866 15.7249 6.61526 16.7971C6.37457 17.9203 6.90701 19.0362 7.9281 19.5322C8.13232 19.627 8.35113 19.7364 8.56994 19.7437C9.53269 19.7656 10.4881 19.751 11.4655 19.751C11.4655 18.1537 11.4655 16.5345 11.4655 14.8789ZM8.18338 3.41338C6.53503 3.41338 4.91586 3.41338 3.29669 3.41338C3.29669 4.50741 3.29669 5.58686 3.29669 6.65901C4.93774 6.65901 6.55691 6.65901 8.18338 6.65901C8.18338 5.57227 8.18338 4.50012 8.18338 3.41338ZM10.9768 9.94112C10.4298 9.3941 9.91925 8.87626 9.40141 8.373C9.35035 8.32924 9.24824 8.32195 9.1753 8.32195C6.87783 8.32195 4.58036 8.32195 2.28289 8.32195C2.20266 8.32195 2.10784 8.32924 2.05678 8.38029C1.53894 8.89084 1.02839 9.40139 0.488668 9.94841C4.00417 9.94112 7.46132 9.94112 10.9768 9.94112Z" fill="white"/>
<path d="M27.9999 6.18494C27.9562 6.33811 27.9197 6.49857 27.8686 6.65173C27.6352 7.43214 27.1757 8.0448 26.4974 8.497C26.3953 8.56265 26.2932 8.68664 26.2713 8.80333C25.8264 11.0425 23.4487 12.1073 21.567 11.1227C21.4941 11.0789 21.3555 11.0935 21.2753 11.13C19.3862 12.0417 17.22 11.0935 16.622 9.09508C16.5855 8.97109 16.4615 8.8398 16.3375 8.77416C14.5068 7.78953 12.6761 6.81948 10.8455 5.84215C10.7579 5.79839 10.6777 5.74733 10.5537 5.67439C11.1737 5.39724 11.7571 5.13467 12.3479 4.8721C13.6681 4.28862 14.9955 3.70513 16.3156 3.10706C16.4177 3.0633 16.5271 2.93201 16.549 2.82261C16.8189 1.31284 17.8035 0.320917 19.3133 0.0437618C19.3498 0.0364683 19.3789 0.0145871 19.4154 0C19.6925 0 19.9624 0 20.2396 0C20.6188 0.138578 20.9981 0.277156 21.3774 0.40844C21.4138 0.423027 21.4649 0.423027 21.5014 0.40844C21.8806 0.277156 22.2599 0.131284 22.6391 0C22.9163 0 23.1862 0 23.4633 0C23.5071 0.0145871 23.5436 0.0364683 23.5873 0.0437618C25.0169 0.291743 26.038 1.30555 26.3151 2.72779C26.337 2.8299 26.4391 2.9466 26.5339 3.00495C27.1976 3.45715 27.6425 4.06981 27.8759 4.83563C27.9197 4.9888 27.9635 5.14926 27.9999 5.30242C27.9999 5.60146 27.9999 5.8932 27.9999 6.18494Z" fill="#E2001A"/>
<path d="M11.4655 21.4431C11.4655 21.9974 11.4655 22.5225 11.4655 23.0623C7.65098 23.0623 3.83645 23.0623 0.00732422 23.0623C0.00732422 19.2477 0.00732422 15.4405 0.00732422 11.6114C3.82915 11.6114 7.63639 11.6114 11.4655 11.6114C11.4655 12.1511 11.4655 12.6762 11.4655 13.2378C11.3561 13.2378 11.254 13.2378 11.1519 13.2378C10.2402 13.2524 9.32121 13.2014 8.4241 13.2962C6.52777 13.5077 5.018 15.1925 4.92319 17.0961C4.82837 19.1092 6.1558 20.9034 8.0813 21.3264C8.4241 21.3993 8.78148 21.4285 9.13887 21.4358C9.91198 21.4577 10.6778 21.4431 11.4655 21.4431Z" fill="#E2001A"/>
<path d="M11.4655 24.7471C11.4655 25.8338 11.4655 26.906 11.4655 27.9927C7.64366 27.9927 3.82912 27.9927 0 27.9927C0 26.906 0 25.8338 0 24.7471C3.82183 24.7471 7.62907 24.7471 11.4655 24.7471Z" fill="#E2001A"/>
<path d="M11.4656 14.8789C11.4656 16.5345 11.4656 18.1537 11.4656 19.751C10.4956 19.751 9.53285 19.7656 8.5701 19.7437C8.3513 19.7364 8.13249 19.6343 7.92827 19.5322C6.90717 19.0435 6.37474 17.9203 6.61543 16.7971C6.84153 15.7176 7.82616 14.9008 8.94207 14.8789C9.77354 14.8716 10.6123 14.8789 11.4656 14.8789Z" fill="#E2001A"/>
<path d="M8.18356 3.41338C8.18356 4.50741 8.18356 5.57956 8.18356 6.65901C6.54981 6.65901 4.93793 6.65901 3.29688 6.65901C3.29688 5.58686 3.29688 4.50741 3.29688 3.41338C4.91605 3.41338 6.54251 3.41338 8.18356 3.41338Z" fill="#E2001A"/>
<path d="M10.9769 9.94113C7.46142 9.94113 3.99697 9.94113 0.48877 9.94113C1.03579 9.39411 1.53904 8.87627 2.05689 8.37301C2.10794 8.32925 2.20276 8.31467 2.28299 8.31467C4.58046 8.31467 6.87793 8.31467 9.17541 8.31467C9.25564 8.31467 9.35775 8.32196 9.40151 8.36572C9.92664 8.87627 10.4372 9.39411 10.9769 9.94113Z" fill="#E2001A"/>
</svg>
