<svg width="20" height="18" viewBox="0 0 20 18" fill="none" xmlns="http://www.w3.org/2000/svg">
<path d="M19.9951 0C19.9951 4.6875 19.9951 9.375 19.9951 14.0625C17.4219 14.0625 14.8535 14.0625 12.2803 14.0576C12.1436 14.0576 12.0508 14.0967 11.958 14.1943C11.6748 14.4922 11.377 14.7754 11.0889 15.0684C10.9326 15.2295 10.7764 15.3906 10.5908 15.5859C10.5908 10.3516 10.5908 5.18555 10.5908 0C13.7354 0 16.8652 0 19.9951 0ZM11.7627 4.67285C13.7305 4.67285 15.6885 4.67285 17.6367 4.67285C17.6367 4.27735 17.6367 3.90137 17.6367 3.52539C15.6689 3.52539 13.7207 3.52539 11.7627 3.52539C11.7627 3.91113 11.7627 4.28711 11.7627 4.67285ZM11.7578 8.18848C13.7305 8.18848 15.6836 8.18848 17.6367 8.18848C17.6367 7.79785 17.6367 7.41699 17.6367 7.0459C15.6689 7.0459 13.7158 7.0459 11.7578 7.0459C11.7578 7.43164 11.7578 7.80274 11.7578 8.18848ZM17.6416 10.5615C15.6738 10.5615 13.7158 10.5615 11.7676 10.5615C11.7676 10.957 11.7676 11.333 11.7676 11.709C13.7354 11.709 15.6836 11.709 17.6416 11.709C17.6416 11.3232 17.6416 10.9473 17.6416 10.5615Z" fill="#E2001A"/>
<path d="M19.9952 17.5781C16.8653 17.5781 13.7403 17.5781 10.6007 17.5781C10.5665 17.3877 10.5665 17.2363 10.7276 17.085C11.3136 16.5186 11.8849 15.9424 12.4561 15.3613C12.5489 15.2637 12.6466 15.2295 12.7784 15.2295C15.1856 15.2344 17.5929 15.2344 20.0001 15.2344C19.9952 16.0156 19.9952 16.7969 19.9952 17.5781Z" fill="#E2001A"/>
<path d="M0 14.0625C0 9.36524 0 4.69238 0 0.00976562C3.13477 0.00976562 6.25977 0.00976562 9.39453 0.00976562C9.39453 5.18555 9.39453 10.3516 9.39453 15.5859C9.2041 15.3857 9.05274 15.2246 8.89649 15.0635C8.6084 14.7705 8.31543 14.4873 8.02735 14.1895C7.93457 14.0918 7.8418 14.0527 7.70508 14.0527C5.21973 14.0576 2.73438 14.0576 0.249024 14.0576C0.175782 14.0625 0.0976563 14.0625 0 14.0625ZM2.35352 4.69727C2.35352 6.65527 2.35352 8.59863 2.35352 10.5322C4.32129 10.5322 6.2793 10.5322 8.22754 10.5322C8.22754 8.5791 8.22754 6.64063 8.22754 4.69727C6.26465 4.69727 4.31641 4.69727 2.35352 4.69727Z" fill="#E2001A"/>
<path d="M0.00488281 17.5635C0.00488281 16.7822 0.00488281 16.0205 0.00488281 15.2344C0.078125 15.2344 0.141602 15.2344 0.200195 15.2344C2.54395 15.2344 4.88281 15.2344 7.22656 15.2295C7.35352 15.2295 7.44141 15.2637 7.53418 15.3564C8.09082 15.9229 8.64746 16.4893 9.21875 17.0361C9.375 17.1875 9.44824 17.3389 9.38965 17.5635C6.27441 17.5635 3.14453 17.5635 0.00488281 17.5635Z" fill="#E2001A"/>
<path d="M3.52539 5.86914C4.70703 5.86914 5.87891 5.86914 7.05567 5.86914C7.05567 7.03125 7.05567 8.18848 7.05567 9.36035C5.88379 9.36035 4.71191 9.36035 3.52539 9.36035C3.52539 8.20313 3.52539 7.0459 3.52539 5.86914Z" fill="#E2001A"/>
</svg>
