<svg version="1.2" xmlns="http://www.w3.org/2000/svg" viewBox="0 0 21 21" width="21" height="21">
	<title>icon</title>
	<style>
		.s0 { fill: #e2001a } 
	</style>
	<g id="icon">
		<path id="Vector" fill-rule="evenodd" class="s0" d="m6.6 12.4q0.5 0.3 0.8 0.8 0.3 0.6 0.3 1.1 0 0.6-0.3 1.2l-3.1-3.1q0.5-0.3 1.1-0.3 0.6 0 1.2 0.3zm-3.4 2.2c0.1 0.5 0.3 1 0.7 1.3 0.3 0.4 0.8 0.6 1.3 0.6 0.5 0.1 0.9 0 1.4-0.3l-3.1-3c-0.2 0.4-0.3 0.9-0.3 1.4z"/>
		<path id="Vector" fill-rule="evenodd" class="s0" d="m7.1 1q0.2 0 0.4 0.2 0.2 0.1 0.2 0.4v1.8q0 0.2-0.2 0.4-0.2 0.2-0.4 0.2h-1.1v0.9h1.9q0.2 0 0.4 0.1 0.1 0 0.2 0.1 0.2 0.1 0.2 0.3 0.1 0.2 0.1 0.3 0 0.2-0.1 0.3 0 0.2-0.2 0.3-0.1 0.1-0.2 0.2-0.2 0.1-0.3 0.1 0 0 0 0l1.8 4.2q0.1 0.2 0.1 0.4v9.2q0 0.3-0.2 0.4-0.1 0.2-0.4 0.2h-7.7q-0.3 0-0.4-0.2-0.2-0.1-0.2-0.4v-9.2q0-0.2 0.1-0.4l1.8-4.2q0 0 0 0-0.3-0.1-0.6-0.3-0.2-0.2-0.2-0.6 0-0.3 0.3-0.6 0.2-0.2 0.5-0.2h2v-0.9h-1.1q-0.3 0-0.4-0.2-0.2-0.2-0.2-0.4v-1.8q0-0.3 0.2-0.4 0.1-0.2 0.4-0.2zm-1.2 2q0.2-0.2 0.3-0.5-0.1-0.3-0.3-0.5-0.2-0.3-0.5-0.3-0.3 0-0.5 0.3-0.2 0.2-0.2 0.5 0 0.3 0.2 0.5 0.2 0.2 0.5 0.2 0.3 0 0.5-0.2zm-0.5 8c-0.9 0-1.7 0.4-2.3 1-0.7 0.6-1 1.4-1 2.3 0 0.9 0.3 1.8 1 2.4 0.6 0.6 1.4 1 2.3 1 0.9 0 1.7-0.4 2.4-1 0.6-0.6 0.9-1.5 0.9-2.4 0-0.9-0.3-1.7-0.9-2.3-0.7-0.6-1.5-1-2.4-1z"/>
		<path id="Vector" class="s0" d="m21 19.9c0 0.6-0.3 1.1-2.8 1.1-1.9 0-2.5-0.3-2.7-0.8-0.2 0.3-0.6 0.6-1 0.7-0.4 0.1-0.8 0-1.1-0.1-0.5 0.3-1 0.3-1.6 0-0.5-0.4-0.8-1.1-0.8-2q0-0.3 0.2-0.4 0.1-0.2 0.4-0.2 0.2 0 0.3 0.2 0.2 0.1 0.2 0.4c0 0.7 0.2 1 0.4 1 0.1 0.1 0.2 0.1 0.4 0 0.2-0.4 0.6-0.7 1.2-0.8 0.7-0.1 1.4 0.1 1.5 0.6q0.2-0.2 0.6-0.4l-1.2-1.3h-0.6q-0.2 0-0.4-0.1-0.1-0.1-0.2-0.2l-1.1-1.9q-0.1-0.2 0-0.4 0.1-0.2 0.3-0.3 0.2-0.1 0.4-0.1 0.2 0.1 0.3 0.3l0.9 1.6h0.5c0.3 0 0.5 0.1 0.7 0.3l1.2 1.4q0.2 0.2 0.1 0.4 0.2 0 0.3 0l0.1-1.3-0.8-0.4q-0.3-0.2-0.4-0.5-0.1-0.3 0-0.6l0.8-1.4q0-0.1 0.1-0.2 0.1-0.1 0.2-0.1 0.1-0.1 0.2-0.1 0.1 0 0.2 0.1 0.1 0 0.2 0.1 0.1 0.1 0.1 0.2 0 0.1 0 0.2 0 0.2-0.1 0.3l-0.6 1.1 0.8 0.4q0.2 0.2 0.3 0.4 0.1 0.2 0.1 0.4l-0.1 1.3h0.1l1-1-0.5-0.8q-0.1-0.2-0.1-0.4 0-0.2 0.1-0.3l0.8-1.4q0-0.1 0.1-0.2 0.1-0.1 0.2-0.1 0.1 0 0.2 0 0.2 0 0.2 0 0.1 0.1 0.2 0.2 0.1 0.1 0.1 0.2 0 0.1 0 0.2 0 0.1 0 0.2l-0.7 1.2 0.5 0.9q0.2 0.2 0.1 0.5 0 0.3-0.2 0.5l-0.7 0.6c0.7 0.2 1.1 0.6 1.1 0.8z"/>
		<path id="Vector" fill-rule="evenodd" class="s0" d="m21 9.6v2.5h-5.6v-2.5c0-0.4 0.3-0.7 0.6-0.9v-4.3c-0.3-0.1-0.6-0.5-0.6-0.9v-2.5h5.6v2.5c0 0.4-0.2 0.8-0.6 0.9v4.3c0.4 0.2 0.6 0.5 0.6 0.9zm-3.9-5.2v4.3c0 0.4-0.2 0.7-0.5 0.9v0.4h3.3v-0.4c-0.4-0.2-0.6-0.5-0.6-0.9v-4.3c0-0.4 0.2-0.7 0.6-0.9v-0.4h-3.3v0.4c0.3 0.2 0.5 0.5 0.5 0.9z"/>
	</g>
</svg>