<svg width="25" height="26" viewBox="0 0 25 26" fill="none" xmlns="http://www.w3.org/2000/svg">
<path d="M14.6331 18.1536C17.1795 18.1469 19.2287 16.091 19.2287 13.5514C19.222 11.0117 17.1661 8.96255 14.6264 8.96255C12.0868 8.96255 10.0309 11.0252 10.0309 13.5648C10.0309 16.1044 12.0935 18.1603 14.6331 18.1536ZM19.6251 17.1257C19.6587 17.166 19.699 17.2063 19.7326 17.2466C19.2556 17.7169 18.7718 18.1939 18.2948 18.6642C18.2276 18.6038 18.2545 18.6374 18.2881 18.6642C19.9207 20.2969 21.5533 21.9295 23.186 23.5621C23.233 23.6092 23.28 23.6562 23.3338 23.6965C23.6697 23.9518 24.0392 24.0123 24.4222 23.8241C24.8051 23.636 24.9933 23.3202 25 22.897C25 22.561 24.8387 22.3125 24.6103 22.084C23.0046 20.485 21.4055 18.8792 19.7998 17.2802C19.7393 17.2265 19.6788 17.1727 19.6251 17.1257ZM3.06367 0.806134C2.27759 1.62581 1.5251 2.40517 0.745744 3.21812C1.5587 3.21812 2.30447 3.21812 3.06367 3.21812C3.06367 2.42532 3.06367 1.64596 3.06367 0.806134Z" fill="white"/>
<path d="M18.4359 0C18.4292 0.107498 18.409 0.214995 18.409 0.322493C18.409 3.01666 18.409 5.71083 18.409 8.41172C18.409 8.50578 18.409 8.60656 18.409 8.75437C17.4348 8.01532 16.3867 7.59877 15.211 7.47783C15.211 7.15534 15.211 6.84628 15.211 6.52379C11.2 6.52379 7.2158 6.52379 3.2115 6.52379C3.2115 7.01425 3.2115 7.49799 3.2115 8.01532C6.11395 8.01532 9.0164 8.01532 11.9121 8.01532C11.9188 8.02876 11.9188 8.0422 11.9256 8.06235C11.8718 8.09595 11.8248 8.12954 11.771 8.15641C10.911 8.61328 10.1989 9.23811 9.64123 10.0376C9.54717 10.172 9.44639 10.2123 9.28514 10.2123C7.30986 10.2056 5.34131 10.2123 3.36603 10.2123C3.26525 10.2123 3.16447 10.2123 3.03682 10.2123C3.03682 10.6893 3.0301 11.1462 3.04354 11.5963C3.04354 11.6434 3.17791 11.724 3.25181 11.724C3.89008 11.7374 4.52835 11.7307 5.16662 11.7307C6.26848 11.7307 7.36362 11.7307 8.46547 11.7307C8.55953 11.7307 8.64687 11.7307 8.7275 11.7307C8.63344 12.4563 8.54609 13.1618 8.45203 13.9008C6.68503 13.9008 4.87772 13.9008 3.05026 13.9008C3.05026 14.4182 3.05026 14.9086 3.05026 15.4192C3.15775 15.4192 3.2451 15.4192 3.33916 15.4192C5.086 15.4192 6.83284 15.4192 8.57969 15.4125C8.75437 15.4125 8.82156 15.4663 8.87531 15.6275C9.10374 16.2859 9.43967 16.8772 9.8831 17.4147C9.91669 17.455 9.95029 17.502 10.0108 17.5826C7.67267 17.5826 5.38162 17.5826 3.05698 17.5826C3.05698 18.0933 3.05698 18.5837 3.05698 19.1078C3.15104 19.1078 3.25181 19.1078 3.34588 19.1078C6.1677 19.1078 8.98952 19.1078 11.8113 19.1145C11.9592 19.1145 12.1137 19.1481 12.2481 19.2018C13.659 19.7729 15.0833 19.8334 16.5278 19.3698C16.7025 19.3161 16.81 19.3362 16.9377 19.4706C17.3744 19.9274 17.8312 20.3642 18.2679 20.8143C18.3351 20.8815 18.3956 20.9957 18.3956 21.0898C18.4023 22.6149 18.4023 24.1467 18.4023 25.6719C18.4023 25.7055 18.3956 25.7391 18.3889 25.7861C12.2615 25.7861 6.13411 25.7861 0 25.7861C0 18.7786 0 11.7845 0 4.75679C1.53185 4.75679 3.04354 4.75679 4.57539 4.75679C4.5821 4.66273 4.58882 4.60226 4.58882 4.53507C4.58882 3.09057 4.58882 1.64606 4.58882 0.201559C4.58882 0.134373 4.57538 0.0671863 4.56867 0C9.1978 0 13.8202 0 18.4359 0ZM3.20478 21.3048C3.20478 21.8087 3.20478 22.2991 3.20478 22.7896C7.2158 22.7896 11.2 22.7896 15.1908 22.7896C15.1908 22.2857 15.1908 21.8019 15.1908 21.3048C11.1932 21.3048 7.20908 21.3048 3.20478 21.3048ZM15.0766 2.62698C12.2749 2.62698 9.4867 2.62698 6.70519 2.62698C6.70519 3.13088 6.70519 3.62134 6.70519 4.1118C9.50686 4.1118 12.2816 4.1118 15.0766 4.1118C15.0766 3.61462 15.0766 3.13088 15.0766 2.62698Z" fill="#E2001A"/>
<path d="M14.6331 18.1536C12.0935 18.1603 10.0309 16.1044 10.0309 13.5648C10.0242 11.0252 12.0868 8.96255 14.6264 8.96255C17.1728 8.96255 19.222 11.005 19.2287 13.5514C19.2287 16.091 17.1795 18.1469 14.6331 18.1536Z" fill="#E2001A"/>
<path d="M19.6251 17.1257C19.6788 17.1794 19.7326 17.2268 19.7863 17.2805C21.3921 18.8796 22.9911 20.4853 24.5969 22.0843C24.8253 22.3128 24.9933 22.5614 24.9866 22.8973C24.9798 23.3206 24.7917 23.6431 24.4088 23.8245C24.0258 24.0126 23.6563 23.9521 23.3203 23.6968C23.2666 23.6565 23.2196 23.6095 23.1725 23.5624C21.5399 21.9298 19.9073 20.2972 18.2747 18.6646C18.2478 18.6377 18.2142 18.6041 18.2814 18.6646C18.7584 18.1943 19.2421 17.7172 19.7192 17.2469C19.699 17.2066 19.6587 17.166 19.6251 17.1257Z" fill="#E2001A"/>
<path d="M3.06367 0.806134C3.06367 1.64596 3.06367 2.42532 3.06367 3.21812C2.30447 3.21812 1.55198 3.21812 0.745744 3.21812C1.5251 2.41188 2.27759 1.62581 3.06367 0.806134Z" fill="#E2001A"/>
</svg>
