<svg version="1.2" xmlns="http://www.w3.org/2000/svg" viewBox="0 0 25 26" width="25" height="26">
	<title>Vector</title>
	<style>
		.s0 { fill: #d9dadb } 
	</style>
	<path id="Vector" class="s0" d="m24.6 22.8c0.3 0.3 0.4 0.6 0.4 1 0 0.4-0.1 0.7-0.4 1l-0.8 0.8c-0.3 0.3-0.6 0.4-1 0.4-0.4 0-0.7-0.1-1-0.4l-9.3-9.3-9.3 9.3c-0.3 0.3-0.6 0.4-1 0.4-0.4 0-0.7-0.1-1-0.4l-0.8-0.8c-0.3-0.3-0.4-0.6-0.4-1 0-0.4 0.1-0.7 0.4-1l9.3-9.3-9.3-9.3c-0.5-0.6-0.5-1.4 0-2l0.8-0.8c0.3-0.3 0.6-0.4 1-0.4 0.4 0 0.7 0.1 1 0.4l9.3 9.3 9.3-9.3c0.3-0.3 0.6-0.4 1-0.4 0.4 0 0.7 0.1 1 0.4l0.8 0.8c0.3 0.3 0.4 0.6 0.4 1 0 0.4-0.1 0.7-0.4 1l-9.3 9.3z"/>
</svg>