<svg version="1.2" xmlns="http://www.w3.org/2000/svg" viewBox="0 0 29 29" width="29" height="29">
	<title>1</title>
	<style>
		.s0 { fill: #e2001a } 
		.s1 { fill: #ffffff } 
	</style>
	<g id="1">
		<path id="Vector" fill-rule="evenodd" class="s0" d="m29 15.9c-0.1 0.5-0.1 1-0.2 1.5q-1 5.2-5 8.5-2.8 2.3-6.4 2.9c-3.8 0.6-7.2-0.1-10.3-2.3-3.1-2.1-5.1-5.1-5.8-8.9-0.8-4 0.1-7.8 2.6-11 2.1-2.9 5-4.7 8.5-5.3 0.5-0.1 1-0.2 1.5-0.2q0.1-0.1 0.2-0.1 0.9 0 1.8 0 0.7 0.1 1.4 0.2 4 0.7 7 3.3 3.6 3.3 4.5 8.1 0.1 0.7 0.2 1.5 0 0.9 0 1.8zm-13.7 12.1c0.4 0 1.2-0.1 1.9-0.2 5.8-1 10.3-5.8 10.8-11.7q0.4-5.3-3-9.4c-0.3-0.4-0.6-0.4-1 0q-8.7 8.7-17.3 17.3c-0.4 0.4-0.4 0.7 0 1 2.4 2 5.2 3 8.6 3zm-13.3-13q0 1.5 0.4 3 0.7 3 2.6 5.3 0.5 0.5 0.9 0.1 0.1-0.1 0.1-0.2 8.3-8.2 16.6-16.5 0.4-0.4 0.8-0.8 0.4-0.5 0-0.9c-3.6-2.8-7.7-3.7-12.1-2.5-5.5 1.6-9.3 6.7-9.3 12.5z"/>
		<path id="Vector" fill-rule="evenodd" class="s1" d="m15.3 28c-3.4 0-6.2-1-8.6-3-0.4-0.3-0.4-0.6 0-1q8.6-8.6 17.3-17.3c0.4-0.4 0.7-0.4 1 0q3.4 4.1 2.9 9.4c-0.4 5.9-4.9 10.7-10.7 11.7-0.7 0.1-1.5 0.2-1.9 0.2zm1.4-11.4q0 0.1 0 0.1c0.2 1.9 0.4 3.8 0.3 5.8-0.1 0.7-0.2 1.4-0.5 2q-0.4 1-1.5 1c-0.7 0-1.2-0.3-1.5-1q-0.3-0.5-0.3-1.1c-0.3-1.3-0.2-2.6-0.1-4q0-0.1 0-0.3c-0.1 0.1-0.2 0.1-0.3 0.2-0.5 0.5-1 1.1-1.6 1.6-0.3 0.2-0.3 0.5-0.3 0.9q0.2 1.4 0.3 2.8c0 0.2-0.1 0.4-0.1 0.6-0.2 0.3-0.4 0.6-0.7 0.9 2.4 1.2 7.5 1.2 9.1 0q-0.3-0.5-0.6-0.9-0.2-0.3-0.1-0.7 0.1-1.1 0.2-2.3c0.1-0.6 0.1-1.1-0.2-1.7q-0.5-1.2-0.9-2.4c-0.2-0.6-0.7-1-1.2-1.5zm3.2-4.3c0.6-0.1 1.3-0.2 1.9-0.4 0.8-0.1 1.6-0.3 2.5-0.5 1.1-0.2 1.8 0.4 1.7 1.6q0 0.4-0.1 0.8c-0.4 1.4-1.3 2.1-2.6 2.6-0.5 0.1-1.1 0.2-1.6 0.4q0.1 0.1 0.3 0.3 0.4 0.3 0.5 0.9 0.2 1 0.5 2 0.1 0.1 0.2 0.2 0.8 0.8 1.7 1.5c3.1-4.4 2.5-10.5-0.4-14-1.5 1.5-3.1 3-4.6 4.6zm4.4 10.2q-1-0.8-1.9-1.6-0.2-0.2-0.3-0.4-0.2-0.7-0.3-1.3c-0.2-0.9-0.5-1.6-1.2-2.1q-0.1-0.1-0.2-0.2c-0.1-0.1-0.1-0.1-0.2-0.1q-1-0.1-1.9-0.1c0.1 0.2 0.3 0.4 0.3 0.6q0.8 1.8 1.4 3.6c0.1 0.2 0.1 0.4 0.1 0.6q-0.1 1.5-0.3 2.9c0 0.1 0 0.2 0 0.3q0.4 0.5 0.7 1 2.2-1.2 3.8-3.2zm-7.5-7.2c0.2 0.1 0.4 0.2 0.5 0.2q0.6 0.1 1.2 0.2c1.3 0.1 2.5 0.1 3.8-0.1 0.8-0.2 1.5-0.4 2.1-1 0.5-0.5 0.7-1.1 0.7-1.8 0-0.3-0.2-0.4-0.5-0.4q-0.3 0-0.5 0.1c-1.8 0.4-3.5 0.7-5.3 1q-0.1 0-0.2 0.1c-0.6 0.5-1.2 1.1-1.8 1.7zm-1.1 1.1c-0.5 0.5-1 1-1.4 1.5q-0.1 0.1-0.1 0.2-0.1 2.1-0.1 4.3c0 0.4 0.1 0.9 0.2 1.4 0.1 0.5 0.3 0.7 0.7 0.7 0.4 0 0.6-0.2 0.8-0.7q0-0.2 0-0.3c0.1-0.6 0.2-1.2 0.2-1.7q0-1.8-0.1-3.5c-0.1-0.6-0.2-1.2-0.2-1.9zm-8 8.1q0.9 0.6 1.8 1.2 0.3-0.5 0.6-0.9 0.1-0.2 0.1-0.4-0.1-0.6-0.1-1.3-0.1-0.5-0.1-0.9-1.2 1.2-2.3 2.3z"/>
		<path id="Vector" fill-rule="evenodd" class="s1" d="m2 15c0.1-5.8 3.8-10.9 9.3-12.5 4.4-1.2 8.5-0.3 12.1 2.5q0.4 0.4 0 0.9-0.4 0.4-0.8 0.8-8.3 8.3-16.6 16.6 0 0-0.1 0.1-0.5 0.4-0.9-0.1-1.9-2.3-2.6-5.2-0.4-1.6-0.4-3.1zm20.3-9.5c-4.8-3.8-12-3.2-16 1.3q0.1 0 0.2 0.1 1.3 0.4 2.6 0.8c0.2 0.1 0.4 0.3 0.5 0.5q0.6 1.3 1.1 2.5c0 0.1 0.1 0.2 0.1 0.2q1 0.7 2 1.5c-0.8-1.4 0.3-2.7 1.7-2.3q0-0.2 0-0.3 0-1.4 0-2.8c0-0.3 0.2-0.5 0.5-0.5 0.3 0 0.5 0.2 0.5 0.6q0 1 0 2.1 0 0.4 0 0.9 1.1-0.3 1.7 0.5 2.6-2.5 5.1-5.1zm-11.2 6.9q0 0 0 0c-0.3-0.2-0.6-0.4-0.9-0.7q-0.2-0.2-0.4-0.5-0.5-1.1-1-2.3c0-0.2-0.1-0.3-0.3-0.3q-1.4-0.5-2.7-0.9c-0.2-0.1-0.3 0-0.4 0.1-2.9 3.9-3.2 9.2-0.7 13.3 0.2 0.4 0.5 0.8 0.8 1.3q0.7-0.7 1.3-1.3c0-0.1 0-0.2 0.1-0.2q0.3-1.5 0.7-3c0-0.3 0.1-0.5 0.4-0.7q0.2-0.3 0.3-0.4c-0.6-0.2-1.2-0.3-1.8-0.5-1.6-0.6-2.5-1.9-2.5-3.6 0-0.8 0.5-1.3 1.3-1.3q0.4 0 0.8 0.1c1 0.2 2 0.4 3 0.6 0.7 0.1 1.3 0.2 2 0.3zm1.3 1.2c0 0-0.2 0-0.3 0q-2.5-0.5-5-0.9c-0.6-0.1-1.1-0.2-1.6-0.3-0.4-0.1-0.5 0.1-0.5 0.4q0 0.3 0 0.7c0.2 0.9 0.9 1.5 1.8 1.8 1.8 0.7 3.6 0.5 5.4 0.3 0.2 0 0.5-0.4 0.5-0.5q-0.1-0.7-0.3-1.5zm-1.3 3.1c-0.2 0-0.4 0.1-0.6 0-0.5 0-0.9 0.2-1.3 0.6-0.4 0.5-0.7 0.9-0.8 1.5 0 0.3-0.1 0.6-0.2 0.8q1.4-1.4 2.9-2.9zm2.4-2.4q0.9-0.9 1.8-1.8c-0.5-0.1-1 0.1-1.3 0.5q-0.6 0.5-0.5 1.3zm0.2-2.4q0.4-0.2 0.7-0.3 0.2-0.1 0.1-0.2-0.1-0.4-0.4-0.4-0.4 0-0.5 0.3-0.2 0.3 0.1 0.6zm2.4-0.1q0.1-0.1 0.2-0.2c0.2-0.2 0.2-0.5-0.2-0.6-0.2 0-0.4 0.1-0.5 0.3-0.1 0.1-0.2 0.3 0.1 0.3 0.1 0 0.3 0.1 0.4 0.2z"/>
		<path id="Vector" class="s0" d="m16.7 16.6c0.5 0.5 1 0.9 1.2 1.5q0.4 1.2 0.9 2.4c0.3 0.6 0.3 1.1 0.2 1.7-0.1 0.8-0.1 1.6-0.2 2.3q-0.1 0.4 0.1 0.7 0.4 0.4 0.7 0.9c-1.7 1.2-6.8 1.2-9.1 0q0.3-0.5 0.6-0.9c0.1-0.2 0.1-0.4 0.1-0.6q-0.1-1.4-0.3-2.8c0-0.4 0.1-0.7 0.4-0.9 0.5-0.5 1-1.1 1.6-1.6 0-0.1 0.1-0.2 0.2-0.3q0 0.3 0 0.4c-0.1 1.4-0.2 2.7 0.1 4q0.1 0.6 0.3 1.1c0.3 0.7 0.8 1 1.5 1q1.1 0 1.6-1c0.3-0.6 0.4-1.3 0.4-2 0.1-2-0.1-3.9-0.3-5.8q0 0 0-0.1z"/>
		<path id="Vector" class="s0" d="m19.9 12.3c1.5-1.6 3.1-3.1 4.6-4.6 2.9 3.5 3.5 9.6 0.4 14q-0.9-0.7-1.7-1.5c-0.1 0-0.1-0.1-0.2-0.2q-0.3-1-0.5-2.1c-0.1-0.3-0.3-0.6-0.5-0.8q-0.2-0.2-0.3-0.4c0.5-0.1 1.1-0.2 1.6-0.4 1.3-0.4 2.2-1.1 2.6-2.5q0.1-0.4 0.1-0.8c0.1-1.2-0.6-1.8-1.7-1.6-0.9 0.2-1.7 0.4-2.5 0.5-0.6 0.2-1.3 0.3-1.9 0.4z"/>
		<path id="Vector" class="s0" d="m24.3 22.5q-1.6 2-3.8 3.2-0.3-0.5-0.7-1c0-0.1 0-0.2 0-0.3q0.2-1.4 0.3-2.9 0-0.3-0.1-0.6-0.6-1.8-1.4-3.6c0-0.2-0.2-0.4-0.3-0.6q0.9 0 1.9 0.1c0.1 0 0.1 0 0.2 0.1q0.1 0.1 0.2 0.2c0.7 0.5 1 1.2 1.2 2.1q0.1 0.6 0.3 1.3c0.1 0.1 0.2 0.3 0.3 0.4q1 0.8 1.9 1.6z"/>
		<path id="Vector" class="s0" d="m16.8 15.3c0.6-0.6 1.2-1.2 1.8-1.8q0.1 0 0.2 0c1.8-0.3 3.5-0.6 5.3-1q0.2-0.1 0.5-0.1c0.3 0 0.4 0.1 0.4 0.4 0 0.7-0.1 1.3-0.6 1.8-0.6 0.6-1.3 0.8-2.1 1-1.3 0.2-2.5 0.2-3.8 0.1q-0.6-0.1-1.2-0.2c-0.1 0-0.3-0.1-0.5-0.2z"/>
		<path id="Vector" class="s0" d="m15.7 16.4c0 0.7 0.1 1.3 0.2 1.9q0.1 1.7 0.1 3.5c0 0.5-0.1 1.1-0.2 1.7q0 0.1 0 0.3c-0.2 0.5-0.4 0.7-0.8 0.7-0.4 0-0.6-0.2-0.7-0.7-0.2-0.5-0.3-1-0.3-1.4 0-1.5 0.1-2.9 0.2-4.3q0-0.1 0-0.2c0.5-0.5 1-1 1.5-1.5z"/>
		<path id="Vector" class="s0" d="m7.7 24.5q1.1-1.1 2.3-2.3 0 0.4 0.1 0.9 0 0.6 0.1 1.3c0 0.1 0 0.3-0.1 0.4q-0.3 0.4-0.6 0.9-0.9-0.6-1.8-1.2z"/>
		<path id="Vector" class="s0" d="m22.3 5.5q-2.5 2.6-5.1 5.1-0.6-0.8-1.7-0.5 0-0.5 0-0.9 0-1.1 0-2.2c0-0.3-0.2-0.5-0.5-0.5-0.3 0-0.5 0.2-0.5 0.5q0 1.4 0 2.7 0 0.2 0 0.3c-1.4-0.3-2.5 1-1.7 2.4q-1-0.8-2-1.5-0.1-0.1-0.1-0.2-0.5-1.2-1.1-2.5c-0.1-0.2-0.2-0.4-0.5-0.5q-1.3-0.4-2.6-0.8-0.1-0.1-0.2-0.1c4-4.5 11.2-5.1 16-1.3z"/>
		<path id="Vector" class="s0" d="m11.1 12.4c-0.7-0.1-1.3-0.2-2-0.3-1-0.2-2-0.4-3-0.6q-0.4-0.1-0.8-0.1c-0.8 0-1.3 0.6-1.3 1.4 0 1.6 0.9 2.9 2.5 3.5 0.6 0.2 1.2 0.3 1.8 0.5q-0.1 0.2-0.3 0.4c-0.3 0.2-0.4 0.4-0.4 0.7q-0.4 1.5-0.7 3-0.1 0.1-0.1 0.2-0.6 0.6-1.3 1.3c-0.3-0.4-0.6-0.8-0.8-1.3-2.5-4.1-2.2-9.4 0.7-13.3 0.1-0.1 0.2-0.2 0.4-0.1q1.3 0.5 2.7 0.9c0.2 0.1 0.3 0.1 0.3 0.3q0.5 1.2 1 2.3 0.2 0.3 0.4 0.5c0.3 0.3 0.6 0.5 0.9 0.7q0 0 0 0z"/>
		<path id="Vector" class="s0" d="m12.4 13.6q0.2 0.8 0.3 1.5c0 0.1-0.3 0.5-0.5 0.5-1.8 0.2-3.7 0.4-5.4-0.3-0.9-0.3-1.6-0.9-1.8-1.8q0-0.4 0-0.7c0-0.3 0.1-0.5 0.5-0.4 0.5 0.1 1 0.2 1.6 0.3q2.5 0.4 5 0.9 0.2 0 0.3 0z"/>
		<path id="Vector" class="s0" d="m11.1 16.7q-1.5 1.5-2.9 2.9c0.1-0.3 0.1-0.5 0.2-0.8 0-0.6 0.4-1 0.8-1.5 0.4-0.4 0.7-0.6 1.3-0.6 0.2 0.1 0.4 0 0.6 0z"/>
		<path id="Vector" class="s0" d="m13.5 14.3q-0.1-0.8 0.5-1.3c0.3-0.4 0.8-0.6 1.3-0.5q-0.9 0.9-1.8 1.8z"/>
		<path id="Vector" class="s0" d="m13.7 11.9q-0.3-0.3-0.1-0.6 0.1-0.3 0.5-0.3 0.3 0 0.4 0.4 0.1 0.1-0.1 0.2-0.4 0.1-0.7 0.3z"/>
		<path id="Vector" class="s0" d="m16.1 11.8c-0.1-0.1-0.2-0.2-0.4-0.2-0.3 0-0.2-0.2-0.1-0.3 0.1-0.2 0.3-0.4 0.5-0.3 0.4 0.1 0.4 0.4 0.2 0.6q-0.1 0.1-0.2 0.2z"/>
	</g>
</svg>