<svg version="1.2" xmlns="http://www.w3.org/2000/svg" viewBox="0 0 28 30" width="28" height="30">
	<title>2</title>
	<style>
		.s0 { fill: #ffffff } 
		.s1 { fill: #999587 } 
	</style>
	<g id="2">
		<path id="Vector" fill-rule="evenodd" class="s0" d="m11.8 9.3q2.9 0.1 4.8 2.4c0.4 0.4 1.1 0.5 1.4 0 0.1-0.2 0.1-0.5 0.1-0.7 0-0.7 0.3-1.2 0.9-1.6 0.7-0.3 1.6-0.1 2.1 0.6 0.4 0.6 0.4 1.5-0.2 2.1q-0.1 0-0.2 0.1c-0.4 0.4-0.4 1 0.1 1.3 0.6 0.5 1 1 1.4 1.6q0.6 1.1 0.8 2.4-0.2 0-0.3 0-2.4 0-4.8 0c-0.2 0-0.3-0.1-0.4-0.2q-3.9-3.8-7.7-7.6 0-0.1-0.1-0.2 1.1-0.3 2.1-0.2zm-3.8 1q1.1 1.1 2.3 2.2-0.1 0-0.2 0-0.5 0-1 0c-0.5 0-0.9 0.4-0.9 0.9 0 0.4 0.4 0.8 0.9 0.8q1.1 0 2.1 0c0.8 0 1.4 0.4 1.6 1.1 0.4 0.9-0.2 1.9-1.2 2.1q-0.2 0.1-0.5 0.1-2.8 0-5.7 0-0.1 0-0.3 0c-0.7-2.6 0.7-5.9 2.9-7.2zm6.1 7.2q0.2-0.5 0.3-0.8 0.4 0.4 0.8 0.8-0.5 0-1.1 0z"/>
		<path id="Vector" class="s1" d="m13.2 29q-0.8-0.1-1.6-0.2-5.5-1-8.8-5.5-2.4-3.1-2.7-6.9c-0.4-3.6 0.6-6.8 2.7-9.7q0.4-0.5 0.7-0.9 1.7 1.7 3.3 3.3c-1 0.7-1.8 1.6-2.4 2.8-1.2 2.2-1.5 4.5-0.6 6.8 0.8 2.3 2.5 3.6 4.9 3.7 2.3 0.1 4.6 0 6.9 0 0.5 0 0.9-0.4 0.9-0.8 0-0.5-0.4-0.8-0.9-0.8q-3.2 0-6.4 0c-0.9 0-1.7-0.2-2.4-0.7-0.4-0.3-0.7-0.6-1-0.9q0 0 0-0.1 0.2 0 0.3 0 5.3 0 10.6 0c0.1 0 0.3 0.1 0.4 0.2q3 3 6 6 0.1 0.1 0.1 0.1-1.9 1.8-4.4 2.7-1.8 0.7-3.8 0.9-0.1 0-0.2 0-0.8 0-1.6 0z"/>
		<path id="Vector" class="s1" d="m28 15.8q-0.1 0.8-0.2 1.6c-0.5 2.6-1.6 4.9-3.4 6.8q-2.5-2.5-5.1-5.1 0.2 0 0.3 0 2 0 4.1 0 1 0 1-1c-0.1-1.7-0.5-3.3-1.7-4.7q-0.1-0.2-0.4-0.4c-0.1-0.2-0.1-0.3 0-0.5 0.5-0.9 0.6-2 0.1-3-0.6-1.2-1.5-1.8-2.8-1.9-1.3 0-2.3 0.6-3 1.7q-0.1 0.1-0.1 0.2c-0.3-0.2-0.6-0.5-1-0.6q-3.4-2.1-7.2-0.7c-0.1 0-0.2 0-0.3-0.1q-1.8-1.7-3.5-3.4 0-0.1 0-0.1 1.4-1.3 3.2-2.2c2-1 4.2-1.5 6.6-1.4q5.9 0.3 9.9 4.7c2 2.3 3.1 4.9 3.4 7.9q0.1 0.3 0.1 0.6 0 0.8 0 1.6z"/>
		<path id="Vector" fill-rule="evenodd" class="s1" d="m9.7 9.5q1.1-0.3 2.1-0.2 2.9 0.1 4.8 2.3c0.4 0.5 1.1 0.6 1.4 0.1 0.1-0.2 0.1-0.5 0.1-0.7 0-0.7 0.3-1.2 0.9-1.6 0.7-0.3 1.6-0.1 2.1 0.6 0.4 0.6 0.4 1.5-0.2 2.1q-0.1 0-0.2 0.1c-0.4 0.4-0.4 1 0.1 1.3 0.5 0.5 1 1 1.4 1.6q0.6 1.1 0.8 2.4-0.2 0-0.3 0-2.4 0-4.9 0c-0.1 0-0.2-0.1-0.3-0.2q-3.9-3.8-7.7-7.6 0-0.1-0.1-0.2zm10.9 6c0-0.4-0.4-0.8-0.9-0.8-0.4 0-0.8 0.4-0.8 0.8 0 0.4 0.4 0.8 0.8 0.8 0.5 0 0.9-0.4 0.9-0.8z"/>
		<path id="Vector" class="s1" d="m5.1 17.5c-0.7-2.6 0.7-5.9 2.9-7.2q1.2 1.1 2.3 2.2-0.1 0-0.2 0-0.5 0-1 0c-0.5 0-0.8 0.4-0.8 0.8 0 0.5 0.3 0.9 0.8 0.9q1.1 0 2.2 0c0.7 0 1.3 0.4 1.5 1.1 0.4 0.9-0.2 1.9-1.2 2.1q-0.2 0.1-0.5 0.1-2.8 0-5.7 0-0.1 0-0.3 0z"/>
		<path id="Vector" class="s1" d="m15.2 17.5q-0.5 0-1.1 0 0.2-0.5 0.3-0.8 0.4 0.4 0.8 0.8z"/>
		<path id="Vector" class="s0" d="m20.6 15.5c0 0.4-0.4 0.8-0.9 0.8-0.4 0-0.8-0.4-0.8-0.8 0-0.4 0.4-0.8 0.8-0.8 0.5 0 0.9 0.3 0.9 0.8z"/>
	</g>
</svg>