<svg version="1.2" xmlns="http://www.w3.org/2000/svg" viewBox="0 0 28 26" width="28" height="26">
	<title>Vector</title>
	<style>
		.s0 { fill: #cccccc } 
	</style>
	<path id="Vector" class="s0" d="m21.8 10l2-2c2.5 1.5 4.2 3.4 4.2 5.6 0 4.4-6.7 7.9-13.5 7.9q-2.1 0-4.1-0.4l2.3-2.3q0.9 0.1 1.8 0.1-0.8 0-1.6-0.2l2.7-2.7c0.6-0.2 1.1-0.7 1.4-1.3l2.7-2.6c0.2 0.7 0.3 1.6 0.1 2.4-0.1 0.8-0.4 1.6-0.9 2.2-0.5 0.7-1.2 1.2-1.9 1.6-0.8 0.4-1.6 0.6-2.5 0.6 5.8 0 10.8-2.9 10.8-5.3 0-1.2-1.4-2.6-3.5-3.6zm-12.6 4.8q-0.2-1.2 0-2.4 0.3-1.1 1.1-2.1 0.8-0.9 1.9-1.4 1.1-0.5 2.3-0.5c-5.7-0.1-10.8 2.8-10.8 5.2 0 1.2 1.2 2.5 3.1 3.5l-1.9 1.9c-2.4-1.4-3.9-3.3-3.9-5.4 0-4.3 6.7-7.9 13.5-7.9q1.9 0 3.7 0.4l-2.4 2.3q-0.6 0-1.2 0 0.5 0 1.1 0.1l-6.5 6.3zm17.6-13.4c0.2 0.2 0.4 0.6 0.4 0.9 0 0.4-0.2 0.7-0.4 0.9l-22.9 22.4q-0.2 0.2-0.5 0.3-0.2 0.1-0.5 0.1-0.3 0-0.5-0.1-0.3-0.1-0.5-0.3-0.2-0.2-0.3-0.4-0.1-0.3-0.1-0.5 0-0.3 0.2-0.5 0.1-0.3 0.3-0.5l22.9-22.3q0.2-0.2 0.4-0.3 0.2-0.1 0.5-0.1 0.3 0 0.5 0.1 0.3 0.1 0.5 0.3z"/>
</svg>