<svg version="1.2" xmlns="http://www.w3.org/2000/svg" viewBox="0 0 85 52" width="85" height="52">
	<title>_x38_08</title>
	<style>
		.s0 { fill: #df0022 } 
	</style>
	<g id="_x38_08">
		<path id="_x38_" fill-rule="evenodd" class="s0" d="m73.7 1q0.3 0 0.6 0.1c2.5 0.2 4.8 1 6.7 2.6 2 1.6 3.3 3.7 3.6 6.3q0.1 0.1 0.1 0.3c0 0.3 0 0.5-0.2 0.8q-4 5.5-8.1 11-0.1 0.1-0.1 0.1c-0.5-0.2-1-0.4-1.5-0.6-3.3-1.1-6.9 0.6-8.1 3.9-0.8 2.2-0.3 4.3 1.2 6.1q0.2 0.2 0.4 0.4 0.2 0.2 0.5 0.4c-1.1 1.6-2.3 3.1-3.4 4.7-0.5-0.3-0.9-0.6-1.3-0.9-2.1-1.5-3.4-3.6-3.8-6.1-0.3-1.6-0.4-3.2 0-4.8 0.7-2.8 2.3-4.8 4.8-6.2q0.2-0.1 0.5-0.3c-0.1 0-0.1-0.1-0.2-0.1-0.9-0.6-1.9-1.2-2.6-2-1-1.1-1.6-2.4-1.8-3.9-0.2-1.5-0.2-3 0.3-4.5 0.8-2.4 2.3-4.2 4.4-5.5 1.7-1 3.6-1.5 5.6-1.7q0.2 0 0.5 0 0.7 0 1.3 0 0.1-0.1 0.1-0.1 0.3 0 0.5 0zm-0.9 4.9q-0.4 0-0.7 0c-2.2 0.2-4 1.6-4.6 3.7-0.6 2-0.2 3.8 1.3 5.2 1.9 1.7 4.6 2.1 6.9 0.8 1.8-1 2.9-2.5 2.7-4.7-0.1-1.4-0.7-2.6-1.7-3.5-1.1-1.1-2.4-1.5-3.9-1.5z"/>
		<path id="_x38__1_" fill-rule="evenodd" class="s0" d="m13.6 1q0.4 0 0.7 0.1c2.9 0.3 5.5 1.4 7.6 3.4q2.5 2.6 2.7 6.2c0 0 0 0.2-0.1 0.2q-3.7 5.2-7.5 10.3-0.4 0.5-0.7 1c-0.5-0.2-1-0.4-1.4-0.6-3.4-1.1-7 0.6-8.2 3.8-0.9 2.3-0.2 5 1.6 6.6q0.2 0.2 0.5 0.4-1.7 2.3-3.4 4.6-3-1.5-4.4-4.5c-0.5-1.2-0.8-2.5-0.9-3.8q-0.1-0.1-0.1-0.2 0-0.9 0-1.9 0.1-0.2 0.1-0.4c0.3-2.4 1.5-4.4 3.4-6q1-0.8 2.1-1.4-0.1-0.1-0.2-0.1-0.5-0.3-1-0.7c-1.1-0.7-2-1.5-2.6-2.7-0.9-1.8-1.1-3.7-0.8-5.6 0.3-2.3 1.3-4.1 3-5.6 2-1.8 4.4-2.7 7.1-3q0.4-0.1 0.7-0.1 0.9 0 1.8 0zm-1.1 15.4c0.9-0.1 1.6-0.1 2.2-0.4 1.6-0.6 2.8-1.6 3.4-3.2 0.7-2.1-0.2-4.6-2-5.9-1.3-0.9-2.7-1.1-4.1-1-2.1 0.2-3.9 1.6-4.5 3.6-0.5 1.5-0.5 2.9 0.4 4.3 1.1 1.7 2.8 2.5 4.6 2.6z"/>
		<path id="_x30_" class="s0" d="m39.1 31.3c-1.2 1.6-2.3 3.1-3.5 4.8-0.5-0.5-1-0.9-1.4-1.4-1.4-1.6-2.3-3.4-2.9-5.4-0.6-1.8-1-3.6-1.2-5.5q-0.3-2.4-0.2-4.8c0.1-2.9 0.4-5.8 1.3-8.6 0.7-2 1.6-3.9 3-5.5 1.9-2.1 4.2-3.3 6.9-3.7 2.1-0.3 4-0.2 6 0.5q2.3 0.7 4.1 2.4c1.7 1.6 2.8 3.5 3.5 5.6 0.1 0.1 0 0.2-0.1 0.3q-1.9 2.7-3.9 5.5c-0.1 0.1-0.2 0.2-0.3 0.4q-0.2-0.8-0.4-1.5c-0.5-2.1-1.3-4.1-2.6-5.9-0.7-1.1-1.7-2-3-2.4-1.8-0.5-3.4-0.1-4.7 1.2-1.1 1-1.7 2.3-2.2 3.7q-0.9 2.6-1.1 5.3c-0.1 1.3-0.2 2.6-0.2 3.9 0 2 0.2 4 0.6 6 0.4 1.8 1.3 3.5 2.3 5.1z"/>
		<g id="Biozide">
			<path id="Vector" fill-rule="evenodd" class="s0" d="m11.2 47.3c0.1-0.6 0.1-1.3 0.2-1.9 0.4-1.8 1.7-2.5 3.4-2.4 1.4 0.2 2.3 1 2.6 2.4 0.3 1.3 0.3 2.6 0 3.8-0.3 1.2-1 2-2.2 2.3-0.8 0.1-1.6 0.1-2.4-0.3-0.9-0.4-1.3-1.2-1.4-2.2-0.1-0.5-0.1-1-0.2-1.7zm4.8 0q0 0 0 0 0-0.3 0-0.7c-0.1-0.4-0.1-0.9-0.3-1.3-0.1-0.5-0.4-0.7-0.9-0.9-0.9-0.2-1.6 0.2-1.9 1.2-0.2 0.9-0.1 1.8-0.1 2.7q0.1 0.4 0.2 0.8c0.1 0.5 0.4 0.9 0.9 1 0.9 0.2 1.7-0.1 1.9-1.1 0.2-0.6 0.2-1.1 0.2-1.7z"/>
			<path id="Vector" class="s0" d="m36.1 43.1q2.6 0 5.1 0 0 0.7 0 1.4-1.7 0-3.6 0 0 1 0 1.9 1.6 0 3.3 0 0 0.7 0 1.4-1.6 0-3.3 0 0 1.1 0 2.3 1.8 0 3.6 0 0 0.7 0 1.3-2.5 0-5.1 0 0-4.1 0-8.3z"/>
			<path id="Vector" class="s0" d="m21.9 44.5c-1.2 0-2.3 0-3.5 0q0-0.7 0-1.4 2.8 0 5.5 0c0 0.4 0.1 0.7 0 1 0 0.1 0 0.2-0.1 0.3q-1.6 2.7-3.2 5.4-0.1 0.1-0.2 0.3 1.9 0 3.6 0 0 0.7 0 1.3-2.8 0-5.6 0c0-0.4-0.1-0.9 0.2-1.4 1.1-1.7 2.1-3.5 3.2-5.3q0-0.1 0.1-0.2z"/>
			<path id="Vector" class="s0" d="m9.8 51.4q-0.8 0-1.6 0 0-4.1 0-8.3 0.8 0 1.6 0 0 4.2 0 8.3z"/>
			<path id="Vector" class="s0" d="m26.8 51.4q-0.7 0-1.5 0 0-4.1 0-8.3 0.8 0 1.5 0 0 4.2 0 8.3z"/>
			<path id="Vector" fill-rule="evenodd" class="s0" d="m5.6 47.1c1 0.5 1.3 1.3 1.2 2.2-0.1 1-0.7 1.7-1.7 2q-0.6 0.1-1.1 0.1-1.5 0.1-3 0-0.1 0-0.1 0 0-4.1 0-8.3 0 0 0 0c1.2 0 2.4 0 3.6 0.1 0.5 0 1 0.2 1.3 0.5 1 0.8 1 2.5 0 3.3q-0.1 0-0.2 0.1zm-3.2 0.7q0 1.2 0 2.3 0.9 0 1.7 0 0.3-0.1 0.5-0.2 0.5-0.2 0.6-0.7c0.2-0.7-0.1-1.2-0.8-1.3-0.7-0.1-1.3-0.1-2-0.1zm0-1.4q0.7 0 1.3 0 0.1 0 0.2 0c0.2 0 0.4 0 0.6-0.1 0.4-0.2 0.6-0.6 0.5-1 0-0.4-0.2-0.7-0.7-0.7-0.6-0.1-1.2-0.1-1.9-0.1 0 0.7 0 1.3 0 1.9z"/>
			<path id="Vector" fill-rule="evenodd" class="s0" d="m28.7 51.4q0-4.1 0-8.2 0-0.1 0-0.1c1.1 0 2.1 0 3.1 0 1.6 0.1 2.5 0.9 2.7 2.4 0.3 1.3 0.3 2.6 0 3.9-0.4 1.2-1.2 1.9-2.5 2-1.1 0.1-2.2 0-3.3 0zm1.6-1.3c0.4 0 0.9 0 1.4 0q0.9-0.1 1.2-0.9 0.2-0.3 0.2-0.6c0-0.8 0-1.6 0-2.4 0-0.3-0.1-0.6-0.2-0.9-0.1-0.4-0.5-0.7-0.9-0.7-0.6-0.1-1.1 0-1.7 0q0 2.7 0 5.5z"/>
		</g>
	</g>
</svg>