<svg version="1.2" baseProfile="tiny-ps" xmlns="http://www.w3.org/2000/svg" viewBox="0 0 26 26" width="26" height="26">
	<title>support icon</title>
	<style>
		tspan { white-space:pre }
		.shp0 { fill: #e2001a } 
	</style>
	<g id="support icon">
		<path id="Vector" fill-rule="evenodd" class="shp0" d="M1 11.19C1 10.75 1 10.31 1 9.87C1.08 9.38 1.12 8.87 1.25 8.39C2.25 4.61 4.65 2.22 8.45 1.24C8.92 1.12 9.41 1.08 9.89 1C10.33 1 10.77 1 11.21 1C11.27 1.01 11.33 1.03 11.39 1.04C12.52 1.13 13.61 1.4 14.62 1.92C17.86 3.55 19.69 6.18 20.05 9.8C20.08 10.04 20.16 10.14 20.38 10.21C23.1 11.14 24.87 12.99 25.7 15.73C25.85 16.23 25.9 16.76 26 17.28C26 17.68 26 18.09 26 18.5C25.99 18.56 25.97 18.62 25.96 18.68C25.85 19.79 25.53 20.82 24.98 21.79C24.9 21.94 24.89 22.07 24.94 22.23C25.26 23.36 25.57 24.5 25.89 25.64C25.91 25.73 25.93 25.81 25.95 25.91C25.88 25.89 25.85 25.89 25.82 25.88C24.66 25.56 23.5 25.24 22.33 24.91C22.12 24.85 21.96 24.89 21.76 24.97C21.13 25.24 20.49 25.5 19.84 25.71C19.42 25.84 18.96 25.87 18.53 25.95C18.12 25.95 17.71 25.95 17.31 25.95C17.25 25.94 17.19 25.91 17.12 25.91C13.91 25.6 11.17 23.37 10.21 20.28C10.16 20.1 10.08 20.04 9.9 20.02C8.45 19.93 7.09 19.52 5.82 18.8C5.75 18.76 5.62 18.76 5.53 18.78C4.66 19.01 3.79 19.25 2.92 19.49C2.31 19.66 1.69 19.83 1.05 20C1.07 19.89 1.09 19.81 1.11 19.74C1.48 18.38 1.85 17.02 2.24 15.66C2.3 15.45 2.29 15.29 2.18 15.1C1.74 14.32 1.41 13.49 1.24 12.61C1.14 12.15 1.08 11.67 1 11.19ZM3.14 17.92C3.21 17.9 3.25 17.9 3.29 17.89C4.08 17.67 4.87 17.46 5.66 17.23C5.85 17.18 6 17.2 6.16 17.3C8 18.47 10 18.85 12.14 18.44C16.56 17.59 19.46 13.16 18.42 8.76C17.7 5.7 15.78 3.65 12.76 2.79C9.75 1.93 7.05 2.66 4.83 4.85C2.11 7.54 1.7 11.65 3.77 14.92C3.87 15.07 3.9 15.21 3.85 15.39C3.6 16.22 3.38 17.05 3.14 17.92ZM20.03 11.63C19.75 13.84 18.84 15.72 17.28 17.27C15.73 18.81 13.85 19.72 11.66 20C11.68 20.08 11.7 20.13 11.71 20.18C12.59 22.64 15.08 24.43 17.7 24.49C19.12 24.53 20.41 24.16 21.6 23.38C21.73 23.29 21.86 23.26 22.03 23.31C22.48 23.46 22.95 23.58 23.41 23.7C23.55 23.74 23.7 23.78 23.86 23.82C23.7 23.22 23.56 22.67 23.38 22.11C23.3 21.87 23.34 21.68 23.48 21.46C25.19 18.77 24.79 15.34 22.49 13.12C21.8 12.45 20.99 11.95 20.03 11.63Z" />
		<path id="Vector" class="shp0" d="M9.07 8.3C8.58 8.3 8.12 8.3 7.64 8.3C7.61 7.81 7.73 7.35 7.97 6.93C8.59 5.87 9.53 5.32 10.76 5.41C11.96 5.49 12.84 6.14 13.27 7.27C13.71 8.43 13.47 9.48 12.62 10.37C12.28 10.73 11.92 11.05 11.54 11.36C11.35 11.53 11.25 11.71 11.27 11.97C11.3 12.22 11.28 12.47 11.28 12.73C10.79 12.73 10.32 12.73 9.81 12.73C9.81 12.5 9.81 12.26 9.81 12.02C9.82 11.67 9.73 11.28 9.85 10.99C9.98 10.7 10.33 10.5 10.59 10.26C10.92 9.95 11.27 9.65 11.59 9.33C12.03 8.89 12.13 8.23 11.87 7.68C11.61 7.13 11.02 6.8 10.41 6.85C9.81 6.91 9.3 7.34 9.13 7.93C9.11 8.05 9.09 8.17 9.07 8.3Z" />
		<path id="Vector" class="shp0" d="M11.26 15.67C10.78 15.67 10.32 15.67 9.83 15.67C9.83 15.19 9.83 14.72 9.83 14.23C10.3 14.23 10.77 14.23 11.26 14.23C11.26 14.7 11.26 15.17 11.26 15.67Z" />
	</g>
</svg>