<svg width="37" height="45" viewBox="0 0 37 45" fill="none" xmlns="http://www.w3.org/2000/svg">
<path d="M5.41845 13.1803L18.5 0L31.5815 13.1803C34.1688 15.7871 35.9307 19.1083 36.6445 22.7241C37.3583 26.3398 36.992 30.0876 35.5917 33.4935C34.1915 36.8994 31.8203 39.8105 28.778 41.8587C25.7357 43.9068 22.1589 45 18.5 45C14.8411 45 11.2643 43.9068 8.22198 41.8587C5.17968 39.8105 2.80849 36.8994 1.40826 33.4935C0.00803074 30.0876 -0.358344 26.3398 0.355464 22.7241C1.06927 19.1083 2.8312 15.7871 5.41845 13.1803V13.1803ZM8.325 16.1088C6.31198 18.1368 4.94123 20.7208 4.38621 23.534C3.83119 26.3471 4.11683 29.2629 5.207 31.9125C6.29716 34.562 8.14286 36.8262 10.5105 38.4186C12.8782 40.0109 15.6615 40.8599 18.5082 40.858L18.5 5.85698L8.325 16.1088Z" fill="#E2001A"/>
</svg>
