<svg width="22" height="26" viewBox="0 0 22 26" fill="none" xmlns="http://www.w3.org/2000/svg">
<path d="M11 0.75C5.225 0.75 0.5 5.3875 0.5 11.1625V14.225C0.5 14.3125 0.5 14.3125 0.5 14.4C0.5 14.4875 0.5 14.6625 0.5 14.75C0.5 17.2 2.425 19.125 4.875 19.125C5.4 19.125 5.75 18.775 5.75 18.25V11.25C5.75 10.725 5.4 10.375 4.875 10.375C3.9125 10.375 2.95 10.725 2.25 11.25V11.075C2.25 6.35 6.1875 2.5 11 2.5C15.8125 2.5 19.75 6.35 19.75 11.1625V11.25C19.05 10.725 18.0875 10.375 17.125 10.375C16.6 10.375 16.25 10.725 16.25 11.25V18.25C16.25 18.775 16.6 19.125 17.125 19.125C17.7375 19.125 18.35 18.95 18.875 18.775C18 20.6125 16.425 22.0125 14.5 22.8C14.5 22.7125 14.5 22.7125 14.5 22.625C14.5 22.1 14.15 21.75 13.625 21.75H11C10.475 21.75 10.125 22.1 10.125 22.625V24.375C10.125 24.9 10.475 25.25 11 25.25C16.775 25.25 21.5 20.7 21.5 15.1V14.225V12.125V11.1625C21.5 5.3875 16.775 0.75 11 0.75Z" fill="#252525"/>
</svg>
