<svg width="55" height="50" viewBox="0 0 55 50" fill="none" xmlns="http://www.w3.org/2000/svg">
<path d="M39.2425 15.7328L27.5 4.24877L15.7575 15.7328L13.75 13.4852L27.5 0L41.25 13.4852L39.2425 15.7328ZM38.5 20.5049L27.3625 31.0653L16.5 20.3818V18.1034L27.5 7.32759L38.5 18.1034V20.5049ZM30.25 24.4458V19.2118H24.75V24.4458H30.25ZM25.4925 36.8534L13.75 25.3695L2.0075 36.8534L0 34.6059L13.75 21.1207L27.5 34.6059L25.4925 36.8534ZM52.9925 36.8534L41.25 25.3695L29.5075 36.8534L27.5 34.6059L41.25 21.1207L55 34.6059L52.9925 36.8534ZM13.75 28.4483L24.75 39.2241V50H2.75V39.2241L13.75 28.4483ZM41.25 28.4483L52.25 39.2241V50H30.25V39.2241L41.25 28.4483ZM16.5 46.9212V40.7635H11V46.9212H16.5ZM44 46.9212V40.7635H38.5V46.9212H44Z" fill="#E2001A"/>
</svg>
