<svg width="24" height="16" viewBox="0 0 24 16" fill="none" xmlns="http://www.w3.org/2000/svg">
<path d="M24 14V2C24 0.893333 23.0547 0 21.8836 0H2.1164C0.945326 0 0 0.893333 0 2V14C0 15.1067 0.945326 16 2.1164 16H21.8836C23.0547 16 24 15.1067 24 14ZM22.1517 1.85333C22.6173 2.29333 22.3633 2.74667 22.1093 2.97333L16.381 7.93333L21.8836 13.3467C22.0529 13.5333 22.1658 13.8267 21.9683 14.0267C21.7848 14.24 21.3616 14.2267 21.1781 14.0933L15.0123 9.12L11.9929 11.72L8.98765 9.12L2.82187 14.0933C2.63845 14.2267 2.21517 14.24 2.03175 14.0267C1.83422 13.8267 1.94709 13.5333 2.1164 13.3467L7.61905 7.93333L1.89065 2.97333C1.63668 2.74667 1.38272 2.29333 1.84832 1.85333C2.31393 1.41333 2.79365 1.62667 3.18871 1.94667L11.9929 8.66667L20.8113 1.94667C21.2063 1.62667 21.6861 1.41333 22.1517 1.85333V1.85333Z" fill="#999587"/>
</svg>
