<svg width="21" height="13" viewBox="0 0 21 13" fill="none" xmlns="http://www.w3.org/2000/svg">
<path d="M10.3929 0.319018H8.69732C8.60893 0.319018 8.53661 0.390798 8.53661 0.478528V9.5227H8.38393L2.07321 0.388139C2.04375 0.345603 1.99286 0.319018 1.94196 0.319018H0.160714C0.0723214 0.319018 0 0.390798 0 0.478528V12.8139C0 12.9016 0.0723214 12.9734 0.160714 12.9734H1.84018C1.92857 12.9734 2.00089 12.9016 2.00089 12.8139V3.64479H2.15357L8.53393 12.9043C8.56339 12.9468 8.61429 12.9734 8.66786 12.9734H10.3929C10.4813 12.9734 10.5536 12.9016 10.5536 12.8139V0.478528C10.5536 0.390798 10.4813 0.319018 10.3929 0.319018ZM20.5179 11.2986H12.375C12.2571 11.2986 12.1607 11.3943 12.1607 11.5112V12.7873C12.1607 12.9043 12.2571 13 12.375 13H20.5179C20.6357 13 20.7321 12.9043 20.7321 12.7873V11.5112C20.7321 11.3943 20.6357 11.2986 20.5179 11.2986ZM16.4411 9.62372C17.858 9.62372 18.9911 9.16646 19.8214 8.24928C20.6089 7.37464 21 6.23415 21 4.82515C21 3.4135 20.6089 2.25971 19.8214 1.38773C18.9938 0.462577 17.8607 0 16.4411 0C15.0027 0 13.8723 0.465235 13.058 1.40368C12.2759 2.28364 11.8955 3.42147 11.8955 4.82515C11.8955 6.2182 12.2786 7.35603 13.0607 8.23599C13.8804 9.15849 15.0161 9.62372 16.4411 9.62372V9.62372ZM14.5259 2.61329C14.9786 2.06564 15.6054 1.79182 16.4384 1.79182C17.2821 1.79182 17.9063 2.04703 18.3402 2.56544C18.7795 3.10511 19.0071 3.85746 19.0071 4.82249C19.0071 5.78753 18.7821 6.52658 18.3429 7.05296C17.9009 7.56871 17.2714 7.82924 16.4384 7.82924C15.6027 7.82924 14.9652 7.55542 14.5259 7.02106C14.0893 6.48671 13.8696 5.7636 13.8696 4.82515C13.8723 3.87342 14.0893 3.15031 14.5259 2.61329V2.61329Z" fill="#999587"/>
</svg>
