<svg width="20" height="24" viewBox="0 0 20 24" fill="none" xmlns="http://www.w3.org/2000/svg">
<path d="M16.6667 8H18.8889C19.1836 8 19.4662 8.12041 19.6746 8.33474C19.8829 8.54906 20 8.83975 20 9.14286V22.8571C20 23.1602 19.8829 23.4509 19.6746 23.6653C19.4662 23.8796 19.1836 24 18.8889 24H1.11111C0.816426 24 0.533811 23.8796 0.325437 23.6653C0.117063 23.4509 0 23.1602 0 22.8571V9.14286C0 8.83975 0.117063 8.54906 0.325437 8.33474C0.533811 8.12041 0.816426 8 1.11111 8H3.33333V6.85714C3.33333 5.03852 4.03571 3.29437 5.28596 2.00841C6.5362 0.722447 8.23189 0 10 0C11.7681 0 13.4638 0.722447 14.714 2.00841C15.9643 3.29437 16.6667 5.03852 16.6667 6.85714V8ZM14.4444 8V6.85714C14.4444 5.64472 13.9762 4.48196 13.1427 3.62465C12.3092 2.76735 11.1787 2.28571 10 2.28571C8.82126 2.28571 7.6908 2.76735 6.8573 3.62465C6.02381 4.48196 5.55556 5.64472 5.55556 6.85714V8H14.4444ZM8.88889 14.8571V17.1429H11.1111V14.8571H8.88889ZM4.44444 14.8571V17.1429H6.66667V14.8571H4.44444ZM13.3333 14.8571V17.1429H15.5556V14.8571H13.3333Z" fill="#999587"/>
</svg>
