<svg width="23" height="23" viewBox="0 0 23 23" fill="none" xmlns="http://www.w3.org/2000/svg">
<path d="M14.3342 6.62707L14.0617 6.36796C13.3871 5.66837 13.5038 5.34448 14.1655 4.68376L17.6943 1.12101C18.7452 0.058666 18.9398 -0.446596 19.9387 0.499151L20.2112 0.75826L14.3342 6.62707ZM15.0218 7.21007L20.7301 1.50967C21.6383 2.72749 23.7659 6.00521 22.7151 8.42788C21.768 10.5914 21.301 10.6951 20.1204 12.3145C17.7203 15.0481 14.6974 17.976 12.3362 20.1785C10.7016 21.3574 10.6367 21.9015 8.44416 22.7695C6.10892 23.6894 2.73579 21.6165 1.46438 20.7485L7.17275 15.0481L8.70363 17.1469C9.14473 17.7428 10.2605 17.0692 11.0389 16.2918C12.3881 14.9315 15.1645 12.172 16.2283 11.019C16.9937 10.2546 17.6813 9.14043 17.0846 8.68699L15.0218 7.21007ZM0.724891 20.2303L0.452446 19.9582C-0.429756 18.9995 0.0762124 18.7922 1.12707 17.7558L4.68183 14.2319C5.34348 13.5971 5.65484 13.4546 6.32947 14.0894L6.58894 14.3615L0.724891 20.2303Z" fill="#999587"/>
</svg>
