<svg width="24" height="26" viewBox="0 0 24 26" fill="none" xmlns="http://www.w3.org/2000/svg">
<path fill-rule="evenodd" clip-rule="evenodd" d="M2 0C1.73478 0 1.48043 0.105357 1.29289 0.292893C1.10536 0.480429 1 0.734784 1 1C1 1.26522 1.10536 1.51957 1.29289 1.70711C1.48043 1.89464 1.73478 2 2 2V24H1C0.734784 24 0.480429 24.1054 0.292893 24.2929C0.105357 24.4804 0 24.7348 0 25C0 25.2652 0.105357 25.5196 0.292893 25.7071C0.480429 25.8946 0.734784 26 1 26H23C23.2652 26 23.5196 25.8946 23.7071 25.7071C23.8946 25.5196 24 25.2652 24 25C24 24.7348 23.8946 24.4804 23.7071 24.2929C23.5196 24.1054 23.2652 24 23 24H22V2C22.2652 2 22.5196 1.89464 22.7071 1.70711C22.8946 1.51957 23 1.26522 23 1C23 0.734784 22.8946 0.480429 22.7071 0.292893C22.5196 0.105357 22.2652 0 22 0H2ZM8 5C7.73478 5 7.48043 5.10536 7.29289 5.29289C7.10536 5.48043 7 5.73478 7 6C7 6.26522 7.10536 6.51957 7.29289 6.70711C7.48043 6.89464 7.73478 7 8 7H10C10.2652 7 10.5196 6.89464 10.7071 6.70711C10.8946 6.51957 11 6.26522 11 6C11 5.73478 10.8946 5.48043 10.7071 5.29289C10.5196 5.10536 10.2652 5 10 5H8ZM7 10C7 9.73478 7.10536 9.48043 7.29289 9.29289C7.48043 9.10536 7.73478 9 8 9H10C10.2652 9 10.5196 9.10536 10.7071 9.29289C10.8946 9.48043 11 9.73478 11 10C11 10.2652 10.8946 10.5196 10.7071 10.7071C10.5196 10.8946 10.2652 11 10 11H8C7.73478 11 7.48043 10.8946 7.29289 10.7071C7.10536 10.5196 7 10.2652 7 10ZM8 13C7.73478 13 7.48043 13.1054 7.29289 13.2929C7.10536 13.4804 7 13.7348 7 14C7 14.2652 7.10536 14.5196 7.29289 14.7071C7.48043 14.8946 7.73478 15 8 15H10C10.2652 15 10.5196 14.8946 10.7071 14.7071C10.8946 14.5196 11 14.2652 11 14C11 13.7348 10.8946 13.4804 10.7071 13.2929C10.5196 13.1054 10.2652 13 10 13H8ZM13 6C13 5.73478 13.1054 5.48043 13.2929 5.29289C13.4804 5.10536 13.7348 5 14 5H16C16.2652 5 16.5196 5.10536 16.7071 5.29289C16.8946 5.48043 17 5.73478 17 6C17 6.26522 16.8946 6.51957 16.7071 6.70711C16.5196 6.89464 16.2652 7 16 7H14C13.7348 7 13.4804 6.89464 13.2929 6.70711C13.1054 6.51957 13 6.26522 13 6ZM14 9C13.7348 9 13.4804 9.10536 13.2929 9.29289C13.1054 9.48043 13 9.73478 13 10C13 10.2652 13.1054 10.5196 13.2929 10.7071C13.4804 10.8946 13.7348 11 14 11H16C16.2652 11 16.5196 10.8946 16.7071 10.7071C16.8946 10.5196 17 10.2652 17 10C17 9.73478 16.8946 9.48043 16.7071 9.29289C16.5196 9.10536 16.2652 9 16 9H14ZM13 14C13 13.7348 13.1054 13.4804 13.2929 13.2929C13.4804 13.1054 13.7348 13 14 13H16C16.2652 13 16.5196 13.1054 16.7071 13.2929C16.8946 13.4804 17 13.7348 17 14C17 14.2652 16.8946 14.5196 16.7071 14.7071C16.5196 14.8946 16.2652 15 16 15H14C13.7348 15 13.4804 14.8946 13.2929 14.7071C13.1054 14.5196 13 14.2652 13 14ZM8 23V20C8 19.7348 8.10536 19.4804 8.29289 19.2929C8.48043 19.1054 8.73478 19 9 19H15C15.2652 19 15.5196 19.1054 15.7071 19.2929C15.8946 19.4804 16 19.7348 16 20V23C16 23.2652 15.8946 23.5196 15.7071 23.7071C15.5196 23.8946 15.2652 24 15 24H9C8.73478 24 8.48043 23.8946 8.29289 23.7071C8.10536 23.5196 8 23.2652 8 23Z" fill="#999587"/>
</svg>
