<svg width="10" height="11" viewBox="0 0 10 11" fill="none" xmlns="http://www.w3.org/2000/svg">
<g clip-path="url(#clip0_1510_4)">
<path d="M9.79998 9.7C9.93331 9.83333 9.99998 9.96667 9.99998 10.1C9.99998 10.3 9.93331 10.4333 9.79998 10.5L9.49998 10.8C9.43331 10.9333 9.29998 11 9.09998 11C8.96664 11 8.83331 10.9333 8.69998 10.8L4.99998 7.1L1.29998 10.8C1.16664 10.9333 1.03331 11 0.899976 11C0.699976 11 0.566642 10.9333 0.499976 10.8L0.199976 10.5C0.0666423 10.4333 -2.44081e-05 10.3 -2.44081e-05 10.1C-2.44081e-05 9.96667 0.0666423 9.83333 0.199976 9.7L3.89998 6L0.199976 2.3C-0.100024 2 -0.100024 1.7 0.199976 1.5L0.499976 1.2C0.566642 1.06667 0.699976 1 0.899976 1C1.03331 1 1.16664 1.06667 1.29998 1.2L4.99998 4.9L8.69998 1.2C8.83331 1.06667 8.96664 1 9.09998 1C9.29998 1 9.43331 1.06667 9.49998 1.2L9.79998 1.5C9.93331 1.56667 9.99998 1.7 9.99998 1.9C9.99998 2.03333 9.93331 2.16667 9.79998 2.3L6.09998 6L9.79998 9.7Z" fill="white"/>
</g>
<defs>
<clipPath id="clip0_1510_4">
<rect width="10" height="11" fill="white"/>
</clipPath>
</defs>
</svg>
