<svg version="1.2" xmlns="http://www.w3.org/2000/svg" viewBox="0 0 20 19" width="20" height="19">
	<title>download icon</title>
	<style>
		.s0 { fill: #e2001a } 
	</style>
	<g id="download icon">
		<path id="Vector" fill-rule="evenodd" class="s0" d="m19 18.2q0 0.3-0.2 0.6-0.3 0.2-0.6 0.2h-16.4q-0.3 0-0.6-0.2-0.2-0.3-0.2-0.6v-13.1q0-0.1 0-0.1 0-0.1 0-0.1l0.8-3.3q0.1-0.3 0.3-0.4 0.3-0.2 0.5-0.2h13.9q0.3 0 0.5 0.1 0.2 0.2 0.3 0.4l1.7 3.3q0 0 0 0 0 0.2 0 0.3zm-16.1-13.9h14l-0.9-1.7h-12.7zm14.5 1.7h-14.8v11.4h14.8z"/>
		<path id="Vector" class="s0" d="m7.1 13.9q-0.2-0.2-0.3-0.5 0-0.3 0.1-0.6 0.2-0.2 0.5-0.3 0.3-0.1 0.6 0.1l1.2 0.8v-5q0-0.4 0.2-0.6 0.3-0.2 0.6-0.3 0.3 0.1 0.6 0.3 0.2 0.2 0.2 0.6v5l1.2-0.8q0.1-0.1 0.3-0.2 0.2 0 0.3 0 0.2 0 0.4 0.1 0.1 0.1 0.2 0.3 0.1 0.1 0.1 0.3 0.1 0.2 0 0.3 0 0.2-0.1 0.3-0.1 0.2-0.3 0.3l-2.4 1.6q-0.3 0.1-0.5 0.1-0.2 0-0.4-0.1z"/>
	</g>
</svg>