<?xml version="1.0" encoding="utf-8"?>
<!-- Generator: Adobe Illustrator 24.0.1, SVG Export Plug-In . SVG Version: 6.00 Build 0)  -->
<svg version="1.1" id="_x38_08_1_" xmlns="http://www.w3.org/2000/svg" xmlns:xlink="http://www.w3.org/1999/xlink" x="0px" y="0px"
	 width="466.4px" height="278.5px" viewBox="0 0 466.4 278.5" style="enable-background:new 0 0 466.4 278.5;" xml:space="preserve"
	>
<style type="text/css">
	.st0{fill:#FFFFFF;}
</style>
<g id="_x38_08">
	<path id="_x38_" class="st0" d="M405.6,0c1.2,0.2,2.4,0.3,3.6,0.4c13.7,1.2,26.2,5.8,37,14.5c11,8.9,17.8,20.3,19.8,34.4
		c0.1,0.7,0.1,1.4,0.2,2c0.3,1.6-0.1,2.9-1.1,4.3c-14.8,20.1-29.5,40.2-44.3,60.4c-0.3,0.3-0.5,0.7-0.7,0.9c-2.7-1.2-5.3-2.5-8-3.4
		c-18.4-6.2-38.5,3.3-44.8,21.4c-4.3,12.2-1.8,23.5,6.4,33.5c0.7,0.9,1.6,1.7,2.4,2.5c0.8,0.8,1.8,1.5,2.7,2.2
		c-6.2,8.5-12.4,16.9-18.7,25.6c-2.5-1.6-5-3-7.4-4.8c-11.4-8.5-18.3-19.8-20.9-33.6c-1.7-8.8-2-17.7,0.1-26.5
		c3.7-15.2,12.8-26.3,26.4-34c1-0.5,2-1,3.1-1.6c-0.5-0.3-0.8-0.5-1.2-0.8c-5.2-3.1-10.3-6.5-14.4-11c-5.6-6-8.8-13.2-10-21.2
		c-1.2-8.5-1.1-17,1.7-25.2c4.3-13.1,12.7-22.9,24.5-29.9c9.3-5.6,19.5-8.7,30.3-9.6c1-0.1,2.1-0.1,3.1-0.2c2.4,0,4.9,0,7.3,0
		c0.2,0,0.4-0.1,0.6-0.2C404.2,0,404.9,0,405.6,0z M400.6,26.8c-1.3,0.1-2.5,0.2-3.8,0.3c-12.1,1.1-21.6,8.7-25.1,20.3
		c-3.3,11-1.2,20.8,7.3,28.7c10.2,9.5,25.4,11.3,37.8,4.4c10.1-5.7,15.8-14.1,15-26.1c-0.5-7.6-3.8-14.1-9.4-19.4
		C416.3,29.3,408.9,26.8,400.6,26.8z"/>
	<path id="_x38__1_" class="st0" d="M75.1,0c1.3,0.2,2.6,0.3,3.8,0.5c16,1.7,30.1,7.5,41.6,19c9.3,9.3,14.3,20.6,15.2,33.7
		c0,0.5-0.3,1.1-0.6,1.5c-13.8,18.8-27.6,37.7-41.4,56.5c-1.4,2-2.9,3.9-4.2,5.8c-2.6-1.2-5.1-2.5-7.7-3.4
		c-18.3-6.2-38.2,3-44.9,20.8C32.1,147,35.8,162,45.8,171c0.8,0.7,1.7,1.3,2.6,2.1c-6.2,8.5-12.4,17-18.6,25.4
		c-10.9-5.7-18.9-14-24.1-24.9c-3.2-6.7-4.8-13.8-5.4-21.2c0-0.3-0.1-0.6-0.2-0.9c0-3.5,0-7,0-10.6c0.1-0.6,0.3-1.3,0.4-1.9
		c1.8-13.6,8.1-24.6,18.6-33.4c3.6-3,7.6-5.4,11.9-7.5c-0.4-0.3-0.7-0.5-1.1-0.7c-2-1.2-3.9-2.4-5.8-3.7
		c-5.8-3.9-10.8-8.6-14.1-14.9c-5.3-9.8-6.2-20.3-4.7-31.1c1.7-12.2,7.5-22.3,16.5-30.5C32.9,7.1,46.4,2,61.3,0.5
		C62.5,0.3,63.8,0.2,65,0C68.4,0,71.7,0,75.1,0z M68.7,84.6c5.1-0.1,8.8-0.6,12.4-1.9c8.8-3.2,15.4-8.8,18.6-17.7
		c4.1-11.3-0.9-25.5-11.3-32.6c-6.8-4.7-14.4-6-22.5-5.3c-11.5,1-21.3,8.7-24.8,19.7C38.6,55,38.8,63,43.6,70.5
		C49.8,80,58.9,84.2,68.7,84.6z"/>
	<path id="_x30_" class="st0" d="M215.3,166.9c-6.4,8.7-12.9,17.3-19.5,26.3c-2.6-2.6-5.2-5-7.5-7.7c-7.6-8.7-12.6-18.8-16.2-29.7
		c-3.3-9.8-5.2-20-6.4-30.3c-1-8.8-1.3-17.7-1.1-26.5c0.4-16.1,2.3-32,7.4-47.4c3.6-11,8.8-21.2,16.5-30
		c10.1-11.5,22.7-18.5,38-20.5c11.1-1.5,22.1-0.9,32.8,2.6c8.6,2.8,16.1,7.4,22.7,13.6c9.1,8.6,15.1,19.2,19.3,30.8
		c0.2,0.4-0.1,1.1-0.4,1.6c-7.3,10-14.6,20-21.9,30c-0.5,0.7-1,1.3-1.6,2.2c-0.7-2.8-1.3-5.5-2-8.1c-3-11.7-7.4-22.7-14.3-32.7
		c-4.2-6.1-9.4-10.9-16.7-13c-9.8-2.8-18.5-0.3-25.8,6.7c-5.9,5.6-9.4,12.7-12.1,20.3c-3.3,9.4-5.3,19.2-6,29.1
		c-0.5,7.2-0.9,14.3-0.9,21.5c0,11.1,0.8,22.2,3.2,33.1C205.1,148.9,209.7,158.1,215.3,166.9z"/>
	<g id="Biozide">
		<path class="st0" d="M61.7,255.2c0.3-3.3,0.4-7.1,1.1-10.8c2.1-10,9.5-13.9,18.7-12.9c7.9,0.8,12.8,5.2,14.3,13.2
			c1.4,7,1.4,14.1-0.2,21c-1.5,6.5-5.3,10.9-12.1,12.3c-4.4,0.9-8.7,0.7-12.8-1.4c-4.9-2.5-7.2-6.9-8.1-12
			C62.1,261.7,62.1,258.7,61.7,255.2z M88.3,254.9c-0.1,0-0.2,0-0.3,0c0-1.2,0.1-2.4,0-3.6c-0.3-2.5-0.6-5-1.3-7.4
			c-0.7-2.4-2.5-4-5-4.6c-5.2-1.3-9.2,1-10.5,6.3c-1.2,4.9-0.8,9.8-0.6,14.8c0.1,1.6,0.4,3.2,0.8,4.7c0.8,2.7,2.4,4.7,5.2,5.4
			c5.1,1.1,9.2-0.7,10.5-6.1C87.9,261.3,88,258.1,88.3,254.9z"/>
		<path class="st0" d="M198.7,232.1c9.5,0,18.9,0,28.4,0c0,2.5,0,5,0,7.5c-6.6,0-13.2,0-19.9,0c0,3.6,0,7.1,0,10.7
			c5.9,0,11.9,0,17.9,0c0,2.5,0,5,0,7.5c-5.9,0-11.9,0-17.9,0c0,4.2,0,8.3,0,12.4c6.6,0,13.2,0,19.8,0c0,2.6,0,5,0,7.5
			c-9.4,0-18.9,0-28.4,0C198.7,262.6,198.7,247.4,198.7,232.1z"/>
		<path class="st0" d="M120.7,239.6c-6.6,0-12.9,0-19.3,0c0-2.5,0-5,0-7.5c10.1,0,20.2,0,30.4,0c0,1.9,0.1,3.6,0,5.4
			c0,0.5-0.4,1-0.7,1.5c-5.9,10-11.9,19.9-17.8,29.9c-0.2,0.4-0.5,0.8-0.8,1.4c6.7,0,13.3,0,19.9,0c0,2.6,0,5,0,7.5
			c-10.3,0-20.6,0-31.1,0c0.2-2.6-0.4-5.1,1.2-7.7c6-9.7,11.7-19.5,17.5-29.2C120.1,240.5,120.3,240.1,120.7,239.6z"/>
		<path class="st0" d="M53.7,277.8c-2.8,0-5.6,0-8.4,0c0-15.3,0-30.5,0-45.8c2.8,0,5.6,0,8.4,0C53.7,247.3,53.7,262.5,53.7,277.8z"
			/>
		<path class="st0" d="M147.8,277.8c-2.8,0-5.6,0-8.4,0c0-15.3,0-30.5,0-45.7c2.8,0,5.6,0,8.4,0
			C147.8,247.3,147.8,262.5,147.8,277.8z"/>
		<path class="st0" d="M30.7,253.8c5.9,2.6,7.2,7.2,6.8,12c-0.5,5.6-3.7,9.5-9.4,11.1c-2,0.6-4.2,0.9-6.3,0.9c-5.5,0.1-11,0-16.4,0
			c-0.2,0-0.4,0-0.6-0.1c0-15.3,0-30.5,0-45.7C4.9,232.1,5,232,5,232c6.6,0.1,13.3,0.1,19.9,0.4c2.6,0.1,5.2,1.1,7.3,2.8
			c5.5,4.3,5.3,13.7-0.4,17.9C31.4,253.3,31.1,253.5,30.7,253.8z M13.4,257.6c0,4.4,0,8.5,0,12.6c3.2,0,6.3,0.1,9.4,0
			c0.9,0,1.9-0.3,2.8-0.7c1.8-0.7,2.9-2,3.3-3.9c0.8-3.9-0.9-6.7-4.8-7.2C20.6,257.8,17,257.8,13.4,257.6z M13.4,250.3
			c2.4,0,4.6,0,6.9,0c0.3,0,0.7,0,1,0c1.2-0.3,2.5-0.5,3.7-1c2-0.9,2.9-3.1,2.6-5.4c-0.2-2.1-1.3-3.5-3.7-3.8
			c-3.5-0.4-7-0.5-10.5-0.7C13.4,243.2,13.4,246.6,13.4,250.3z"/>
		<path class="st0" d="M158,277.7c0-15.2,0-30.3,0-45.5c0.1-0.1,0.2-0.2,0.3-0.2c5.7,0,11.4-0.2,17,0.1c8.6,0.5,13.4,4.7,14.9,13.1
			c1.3,7.1,1.4,14.4-0.5,21.5c-1.8,6.6-6.6,10.6-13.4,10.9C170.3,277.9,164.2,277.7,158,277.7z M166.6,270.3c2.7,0,5.3,0.1,8,0
			c3.3-0.1,5.6-1.8,6.8-5c0.4-1,0.7-2.1,0.7-3.1c0.1-4.3,0.3-8.7,0.2-13c0-1.7-0.6-3.4-1.1-5c-0.8-2.3-2.6-4-5-4.2
			c-3.1-0.3-6.3-0.1-9.5-0.1C166.6,249.8,166.6,260,166.6,270.3z"/>
	</g>
</g>
</svg>
