<svg width="25" height="25" viewBox="0 0 25 25" fill="none" xmlns="http://www.w3.org/2000/svg">
<path d="M19.835 0H5.87891V25H24.9992V5.25727L19.8341 0" fill="#F4F4F4"/>
<path d="M18.4061 7.3501H0V1.23438H18.4061V7.3501Z" fill="#DD2025"/>
<path d="M6.10252 2.26844H4.9043V6.5652H5.84674V5.11594L6.05485 5.12758C6.25707 5.12418 6.45738 5.08881 6.64801 5.02284C6.81514 4.96671 6.96889 4.8781 7.09998 4.76235C7.23337 4.65208 7.33853 4.51292 7.4071 4.35595C7.49904 4.09501 7.53189 3.81769 7.50336 3.54314C7.49763 3.34702 7.46242 3.15278 7.39884 2.96666C7.34097 2.8323 7.25509 2.71118 7.14665 2.61101C7.03822 2.51083 6.90961 2.4338 6.76902 2.38481C6.64746 2.34184 6.52187 2.31066 6.39406 2.29171C6.29727 2.27713 6.19954 2.26935 6.10161 2.26844M5.92834 4.32193H5.84674V2.9971H6.02368C6.10177 2.9916 6.18013 3.0033 6.25297 3.03135C6.3258 3.05939 6.39125 3.10306 6.44448 3.15912C6.55479 3.30325 6.61371 3.47869 6.61225 3.65862C6.61225 3.87883 6.61225 4.07845 6.40873 4.21899C6.2621 4.29773 6.09521 4.33318 5.92834 4.32104M9.29382 2.2568C9.19206 2.2568 9.09305 2.26396 9.02337 2.26665L8.80518 2.27202H8.09009V6.56878H8.93169C9.25332 6.57739 9.57355 6.52416 9.87414 6.41213C10.1161 6.31842 10.3303 6.16737 10.4975 5.97261C10.6602 5.77608 10.7769 5.54726 10.8395 5.30213C10.9115 5.02451 10.9467 4.739 10.944 4.45263C10.9618 4.1144 10.935 3.77534 10.8643 3.44378C10.7971 3.19973 10.6714 2.9748 10.4975 2.78763C10.3611 2.63649 10.1941 2.51458 10.0071 2.42957C9.84644 2.35698 9.67746 2.30349 9.50376 2.27023C9.43469 2.25909 9.36474 2.25399 9.29474 2.25501M9.12789 5.77925H9.03621V3.03648H9.04813C9.23713 3.01525 9.42836 3.04855 9.59819 3.13227C9.72256 3.22924 9.82391 3.3514 9.89523 3.49033C9.9722 3.63654 10.0166 3.79702 10.0254 3.96118C10.0337 4.15812 10.0254 4.31925 10.0254 4.45263C10.0291 4.60627 10.019 4.75993 9.99516 4.91184C9.9669 5.0678 9.91466 5.2187 9.84022 5.35942C9.75596 5.49025 9.64212 5.60049 9.50743 5.68168C9.39432 5.75311 9.26038 5.78644 9.12605 5.77657M13.7833 2.27202H11.5555V6.56878H12.498V4.8644H13.6898V4.06592H12.498V3.0705H13.7814V2.27202" fill="#464648"/>
<path d="M17.7719 16.3412C17.7719 16.3412 20.6946 15.8238 20.6946 16.7986C20.6946 17.7735 18.884 17.3769 17.7719 16.3412ZM15.6111 16.4155C15.1467 16.5157 14.6942 16.6624 14.2607 16.8533L14.6274 16.0476C14.9941 15.242 15.3746 14.1436 15.3746 14.1436C15.8122 14.8627 16.3213 15.5379 16.8946 16.1595C16.4623 16.2224 16.0338 16.3085 15.6111 16.4173V16.4155ZM14.4541 10.597C14.4541 9.74748 14.7356 9.51563 14.9547 9.51563C15.1738 9.51563 15.4204 9.61858 15.4287 10.3562C15.3573 11.0979 15.1982 11.829 14.9547 12.535C14.6211 11.9423 14.4485 11.276 14.4532 10.5997L14.4541 10.597ZM10.192 20.0105C9.29543 19.4868 12.0723 17.8746 12.5757 17.8227C12.5729 17.8236 11.1308 20.5583 10.192 20.0105V20.0105ZM21.5481 16.9141C21.539 16.8246 21.4565 15.8337 19.6504 15.8757C18.8976 15.8639 18.1452 15.9157 17.4016 16.0306C16.6812 15.322 16.0609 14.5227 15.557 13.654C15.8745 12.7583 16.0666 11.8248 16.1282 10.879C16.1016 9.80477 15.8385 9.1889 14.995 9.19785C14.1516 9.2068 14.0287 9.92741 14.1397 10.9998C14.2483 11.7205 14.4533 12.4241 14.7493 13.0927C14.7493 13.0927 14.3597 14.277 13.8445 15.455C13.3292 16.633 12.9772 17.2507 12.9772 17.2507C12.0813 17.5355 11.2378 17.9586 10.479 18.5039C9.72357 19.1905 9.41645 19.7178 9.81433 20.245C10.1572 20.6997 11.3573 20.8027 12.4299 19.4304C12.9998 18.7216 13.5205 17.9764 13.9884 17.1997C13.9884 17.1997 15.6239 16.7619 16.1327 16.642C16.6416 16.522 17.2567 16.4272 17.2567 16.4272C17.2567 16.4272 18.7501 17.8943 20.1904 17.8424C21.6307 17.7905 21.561 17.0018 21.5518 16.9159" fill="#DD2025"/>
<path d="M19.8359 0V5.25727H25.0001L19.8359 0Z" fill="#F4F4F4"/>
<path d="M6.03221 2.19959H4.83398V6.49635H5.7801V5.04799L5.98912 5.05962C6.19134 5.05623 6.39165 5.02086 6.58228 4.95489C6.7494 4.89874 6.90314 4.81013 7.03425 4.6944C7.16664 4.58384 7.27084 4.4447 7.33862 4.288C7.43056 4.02705 7.46341 3.74974 7.43488 3.47519C7.42915 3.27907 7.39394 3.08483 7.33037 2.89871C7.27249 2.76435 7.18661 2.64323 7.07817 2.54306C6.96974 2.44288 6.84113 2.36585 6.70054 2.31686C6.57842 2.27347 6.45221 2.24198 6.32375 2.22286C6.22696 2.20828 6.12922 2.2005 6.03129 2.19959M5.85802 4.25308H5.77643V2.92825H5.95428C6.03238 2.92275 6.11073 2.93446 6.18357 2.9625C6.25641 2.99054 6.32186 3.03421 6.37508 3.09027C6.48539 3.23441 6.54432 3.40985 6.54285 3.58977C6.54285 3.80998 6.54286 4.0096 6.33933 4.15014C6.19271 4.22888 6.02581 4.26434 5.85894 4.25219M9.22351 2.18795C9.12175 2.18795 9.02273 2.19511 8.95306 2.1978L8.73762 2.20317H8.02253V6.49993H8.86413C9.18576 6.50854 9.50598 6.45531 9.80658 6.34328C10.0485 6.24958 10.2628 6.09853 10.43 5.90376C10.5926 5.70723 10.7093 5.47841 10.7719 5.23328C10.844 4.95567 10.8791 4.67015 10.8765 4.38378C10.8942 4.04555 10.8674 3.70649 10.7967 3.37493C10.7296 3.13088 10.6039 2.90595 10.43 2.71878C10.2936 2.56765 10.1266 2.44573 9.93951 2.36072C9.77887 2.28814 9.60989 2.23464 9.4362 2.20138C9.36713 2.19024 9.29718 2.18515 9.22718 2.18616M9.06032 5.7104H8.96865V2.96764H8.98056C9.16956 2.9464 9.3608 2.9797 9.53063 3.06342C9.655 3.16039 9.75634 3.28255 9.82766 3.42148C9.90463 3.56769 9.949 3.72817 9.95785 3.89234C9.9661 4.08927 9.95785 4.2504 9.95785 4.38378C9.96158 4.53742 9.95146 4.69108 9.92759 4.84299C9.89934 4.99896 9.8471 5.14985 9.77266 5.29057C9.6884 5.42141 9.57455 5.53165 9.43987 5.61283C9.32676 5.68426 9.19281 5.71759 9.05849 5.70772M13.713 2.20317H11.4852V6.49993H12.4276V4.79555H13.6194V3.99707H12.4276V3.00165H13.7111V2.20317" fill="white"/>
</svg>
