<svg width="51" height="44" viewBox="0 0 51 44" fill="none" xmlns="http://www.w3.org/2000/svg">
<path d="M50.7333 41.0691L27.5203 0.892807C27.1743 0.295742 26.5773 0 25.9746 0C25.372 0 24.7693 0.295742 24.4289 0.892807L1.21597 41.0691C0.52962 42.2632 1.38895 43.7475 2.76164 43.7475H49.1876C50.5603 43.7475 51.4196 42.2632 50.7333 41.0691ZM24.189 16.5169C24.189 16.2714 24.3899 16.0705 24.6354 16.0705H27.3138C27.5593 16.0705 27.7602 16.2714 27.7602 16.5169V26.7842C27.7602 27.0297 27.5593 27.2306 27.3138 27.2306H24.6354C24.3899 27.2306 24.189 27.0297 24.189 26.7842V16.5169ZM25.9746 36.1587C25.2737 36.1444 24.6064 35.8559 24.1157 35.3551C23.6251 34.8544 23.3503 34.1813 23.3503 33.4803C23.3503 32.7792 23.6251 32.1061 24.1157 31.6054C24.6064 31.1046 25.2737 30.8161 25.9746 30.8018C26.6755 30.8161 27.3429 31.1046 27.8335 31.6054C28.3241 32.1061 28.5989 32.7792 28.5989 33.4803C28.5989 34.1813 28.3241 34.8544 27.8335 35.3551C27.3429 35.8559 26.6755 36.1444 25.9746 36.1587V36.1587Z" fill="#E2001A"/>
</svg>
