<svg width="22" height="19" viewBox="0 0 22 19" fill="none" xmlns="http://www.w3.org/2000/svg">
<path d="M2.44444 0H19.5556C20.2889 0 20.7778 0.488889 20.7778 1.22222V13.4444C20.7778 14.1778 20.2889 14.6667 19.5556 14.6667H2.44444C1.71111 14.6667 1.22222 14.1778 1.22222 13.4444V1.22222C1.22222 0.488889 1.71111 0 2.44444 0ZM18.3333 2.44444H3.66667V12.2222H18.3333V2.44444ZM14.6667 3.66667H4.88889V8.55556L14.6667 3.66667ZM22 17.1111V15.8889H0V17.1111C0 17.8444 0.611111 18.3333 1.34444 18.3333H20.6556C21.3889 18.3333 22 17.8444 22 17.1111V17.1111Z" fill="white"/>
</svg>
