<svg width="28" height="28" viewBox="0 0 28 28" fill="none" xmlns="http://www.w3.org/2000/svg">
<circle cx="14" cy="14" r="14" fill="#999587"/>
<path d="M8.9669 3.65234L8.11986 3.93573C6.93344 4.33362 6.14344 4.85746 5.68142 5.51011C5.21654 6.16276 5.14239 6.91847 5.26218 7.52246C5.37055 8.0692 5.61867 8.50143 5.84683 8.85066C5.63864 8.97375 5.59015 8.93081 5.37055 9.15122C4.77734 9.74663 4.29536 10.8601 4.73741 12.1912C5.07109 13.1988 5.84683 13.7427 6.47427 13.966C6.65109 14.0289 6.65394 13.9917 6.8108 14.0204C6.76517 14.2751 6.71384 14.3066 6.71954 14.6616C6.7338 15.4774 7.02185 16.5823 8.04571 17.2464C8.58473 17.5956 9.1865 17.7731 9.77686 17.8676L5.73561 23.2748L6.61972 23.6298C10.6125 25.2357 15.1528 23.647 15.1528 23.647L15.6519 23.4781V20.6585C16.2166 20.5755 17.0095 20.4209 17.9877 20.0087C19.5335 19.3589 21.2789 18.0307 21.4899 15.6892C21.5727 14.7818 21.3616 13.8257 21.1506 13.05C21.0964 12.8467 21.0907 12.8639 21.0365 12.6921H23.435L22.8675 11.6158C22.8675 11.6158 22.4853 10.863 22.2856 10.4508C22.856 9.17413 22.4425 7.78294 21.3901 7.19613C21.0992 7.03297 20.7712 6.93278 20.4233 6.90415C19.388 6.81542 18.1902 7.34498 17.2605 8.58731C17.1663 8.71326 16.7756 9.17699 16.5532 9.44606C16.4847 9.31153 16.4106 9.1455 16.3279 8.9394C16.0027 8.11786 15.6519 6.74958 15.6519 4.63132V3.89852H14.9218C14.0691 3.89852 13.3818 4.1218 12.8912 4.51682C12.4007 4.91185 12.1412 5.44141 12.0242 5.91945C11.8588 6.57497 11.9672 6.84977 12.0242 7.17037C11.7675 7.28773 11.585 7.31063 11.2114 7.68562C10.989 7.9089 10.7836 8.20373 10.6353 8.55296C9.88809 7.49383 9.27777 6.17135 9.07528 4.53972L8.9669 3.65234ZM14.2687 5.53874C14.36 7.27628 14.6338 8.63025 14.976 9.48328C15.1814 9.99853 15.4038 10.3792 15.5778 10.634C15.073 11.238 14.9361 11.4097 14.5454 11.8677C14.0263 11.6158 12.9796 11.029 11.9101 10.0186C11.7533 9.34015 11.9586 9.0081 12.2438 8.72185C12.5632 8.40125 12.9625 8.25812 12.9625 8.25812L13.6042 8.04343L13.4388 7.38506C13.4388 7.38506 13.3133 6.78393 13.4388 6.2744C13.5044 6.01964 13.6099 5.8164 13.8039 5.66183C13.8837 5.59599 14.1318 5.59026 14.2687 5.53874ZM7.87174 5.75915C8.35943 7.86596 9.43177 9.47755 10.564 10.6655C10.5697 10.6855 10.5726 10.7056 10.5783 10.7256L10.6096 10.7142C11.8987 12.0538 13.2192 12.8238 13.8894 13.1673L14.7479 13.9001C14.7479 13.9001 17.7225 10.405 18.4241 9.46896H18.4269C19.3766 8.19801 20.2123 8.21805 20.6828 8.47853C21.1506 8.73902 21.4272 9.26859 20.8853 10.0873L20.6686 10.4136L20.8197 10.7743C20.8796 10.9231 20.9452 11.0262 21.045 11.2265H18.9602L19.351 12.2256C19.351 12.2256 19.5535 12.7437 19.7445 13.4364C19.9328 14.1291 20.0868 15.0051 20.0354 15.5575C19.8814 17.2464 18.7064 18.1166 17.423 18.6576C16.1396 19.1986 14.8734 19.2874 14.8734 19.2874L14.1917 19.3332V22.356C13.5614 22.5392 10.9177 23.1718 8.15123 22.4848L11.5451 17.9477C12.3009 17.9105 12.8684 17.8103 12.8684 17.8103L12.5946 16.3676C12.5946 16.3676 11.9643 16.4907 11.1487 16.4964C10.3359 16.505 9.38044 16.3676 8.83856 16.0155C8.31094 15.672 8.18831 15.1739 8.17975 14.6387C8.1712 14.1005 8.3138 13.6568 8.3138 13.6568L8.65318 12.6349L7.58084 12.6921C7.58084 12.6921 7.30134 12.7065 6.96481 12.5862C6.62542 12.4631 6.306 12.2742 6.12348 11.7275C5.83543 10.8601 6.08355 10.5081 6.40297 10.1875C6.72239 9.86685 7.12167 9.72373 7.12167 9.72373L8.2425 9.34874L7.40687 8.51002C7.40687 8.51002 6.81651 7.85737 6.69387 7.23621C6.63113 6.92419 6.64824 6.67229 6.86784 6.36314C6.99903 6.1828 7.50954 5.96811 7.87174 5.75915Z" fill="white"/>
<line x1="3.75008" y1="4.46672" x2="23.5327" y2="24.2493" stroke="white" stroke-width="2"/>
</svg>
