<svg width="28" height="23" viewBox="0 0 28 23" fill="none" xmlns="http://www.w3.org/2000/svg">
<path d="M16.8862 19.1088C16.8498 19.1015 16.8206 19.0942 16.7915 19.0942C14.9622 19.0942 13.133 19.0942 11.2964 19.087C11.1507 19.087 11.0924 19.1525 11.0486 19.2764C10.8154 19.874 10.4656 20.4061 10.0429 20.8871C9.83885 21.1203 9.6275 21.2733 9.29955 21.2223C9.0882 21.1932 8.86228 21.215 8.64364 21.2223C8.21366 21.2369 7.85655 21.4992 7.7108 21.9001C7.53589 22.3665 7.65978 22.5414 8.15536 22.5414C12.0544 22.5414 15.9534 22.5414 19.8524 22.5414C19.918 22.5414 19.9763 22.5414 20.0419 22.5414C20.2751 22.5414 20.3625 22.4175 20.3552 22.1916C20.3407 21.6887 19.9107 21.2442 19.3933 21.2223C19.1017 21.2077 18.8102 21.2369 18.5187 21.2077C18.3875 21.2004 18.2345 21.1421 18.1397 21.0547C17.5713 20.5081 17.1705 19.8449 16.8862 19.1088Z" fill="white"/>
<path d="M28 17.5055C27.9708 17.5638 27.949 17.6148 27.9198 17.6731C27.7231 18.1832 27.2858 18.4893 26.7392 18.4893C25.6387 18.4966 24.5383 18.4893 23.4305 18.4893C16.0916 18.4893 8.75273 18.4893 1.40656 18.4893C0.670485 18.4893 0.167623 18.1104 0.0291533 17.4617C0.00728965 17.3451 0 17.2285 0 17.1119C0 11.8647 0 6.61739 0 1.37741C0 0.524729 0.510151 0.00728832 1.35554 0.00728832C9.78032 0.00728832 18.2051 0.00728787 26.6299 0C27.3441 0 27.7595 0.364394 27.9854 0.998439C28 6.50078 28 12.0031 28 17.5055ZM26.4987 15.4649C26.4987 10.7933 26.4987 6.15096 26.4987 1.50859C18.1614 1.50859 9.83863 1.50859 1.52317 1.50859C1.52317 6.17283 1.52317 10.8079 1.52317 15.4649C9.8532 15.4649 18.1614 15.4649 26.4987 15.4649ZM13.1182 16.9953C13.1255 17.3014 13.3732 17.5492 13.6793 17.5419C13.9781 17.5346 14.2332 17.2868 14.2332 16.9807C14.2332 16.6674 13.9636 16.405 13.6575 16.4196C13.3514 16.4341 13.1109 16.6892 13.1182 16.9953Z" fill="#999587"/>
<path d="M16.8858 19.1088C17.17 19.8449 17.5708 20.5081 18.1466 21.0619C18.2413 21.1494 18.3944 21.2077 18.5255 21.215C18.8171 21.2369 19.1086 21.215 19.4001 21.2296C19.9175 21.2514 20.3475 21.696 20.3621 22.1989C20.3694 22.4248 20.2819 22.5487 20.0487 22.5487C19.9831 22.5487 19.9248 22.5487 19.8592 22.5487C15.9602 22.5487 12.0612 22.5487 8.16219 22.5487C7.66662 22.5487 7.54272 22.3738 7.71763 21.9073C7.86339 21.5065 8.22778 21.2441 8.65048 21.2296C8.86911 21.2223 9.08775 21.2004 9.30639 21.2296C9.63434 21.2733 9.84569 21.1275 10.0498 20.8943C10.4724 20.406 10.815 19.8813 11.0555 19.2837C11.1065 19.1598 11.1575 19.0942 11.3033 19.0942C13.1325 19.1015 14.9618 19.1015 16.7983 19.1015C16.8202 19.0942 16.8493 19.1015 16.8858 19.1088Z" fill="#999587"/>
<path d="M14.0073 13.4243C12.4477 13.4243 11.0484 12.8996 9.72932 12.1198C8.41751 11.34 7.2806 10.3488 6.25301 9.23376C5.85946 8.80378 5.81574 8.22075 6.18013 7.81992C7.63042 6.21658 9.27747 4.86833 11.3108 4.05937C13.5117 3.18483 15.6398 3.42533 17.7023 4.51122C19.2691 5.33475 20.6028 6.45708 21.7835 7.76161C22.1551 8.16973 22.177 8.75276 21.8053 9.16088C20.2457 10.8662 18.4821 12.2947 16.2593 13.0526C15.5378 13.3004 14.7798 13.4316 14.0073 13.4243ZM14 4.59139C11.8428 4.59139 10.1156 6.31861 10.1156 8.47582C10.1156 10.6403 11.8501 12.3748 14.0219 12.3675C16.1718 12.3603 17.899 10.6185 17.8917 8.46854C17.8917 6.31133 16.1572 4.5841 14 4.59139Z" fill="#999587"/>
<path d="M14.0002 4.59136C16.1574 4.59136 17.8846 6.31859 17.8919 8.46851C17.8992 10.6257 16.1719 12.3675 14.022 12.3675C11.8502 12.3748 10.1157 10.6403 10.1157 8.4758C10.123 6.31859 11.8502 4.59136 14.0002 4.59136ZM14.6779 6.43519C13.7086 6.11453 12.6738 6.50078 12.1563 7.36075C11.6316 8.2353 11.7846 9.35763 12.5353 10.0573C13.2714 10.7423 14.3937 10.8298 15.2245 10.2686C16.0262 9.72931 16.376 8.67986 16.048 7.83446C15.3849 8.35919 14.882 8.39563 14.4812 7.94378C14.0876 7.49922 14.1532 6.9745 14.6779 6.43519Z" fill="white"/>
<path d="M14.6777 6.43519C14.1529 6.98178 14.0873 7.50651 14.4809 7.9365C14.889 8.38834 15.3919 8.35919 16.0478 7.82718C16.3757 8.67257 16.0259 9.72202 15.2243 10.2613C14.3934 10.8298 13.2638 10.735 12.535 10.05C11.7917 9.35034 11.6313 8.22801 12.1561 7.35347C12.6735 6.50079 13.7084 6.11453 14.6777 6.43519Z" fill="#999587"/>
</svg>
