<svg width="28" height="28" viewBox="0 0 28 28" fill="none" xmlns="http://www.w3.org/2000/svg">
<path d="M11.1932 8.72801C11.1568 8.83738 11.1276 8.9103 11.1057 8.9905C10.7558 10.2665 10.136 11.3967 9.261 12.3956C8.49539 13.2633 7.60583 13.9779 6.6871 14.6706C6.07462 15.1372 6.13295 15.8664 6.81106 16.2164C7.47458 16.5591 8.1454 16.8799 8.80893 17.2226C8.96934 17.3101 9.10788 17.2955 9.26829 17.2226C9.92453 16.9091 10.5151 16.508 11.0401 16.0122C12.0901 15.0206 12.8849 13.8612 13.4026 12.5123C13.5338 12.1769 13.7817 12.0456 14.0588 12.155C14.3213 12.2571 14.438 12.5123 14.3213 12.8112C13.5484 14.7872 12.3599 16.4351 10.5953 17.6455C10.486 17.7184 10.3693 17.784 10.187 17.9007C11.0693 18.207 11.8786 18.5059 12.7026 18.7611C13.6505 19.0528 13.738 19.009 14.4088 18.2653C14.438 18.2288 14.4671 18.1924 14.4963 18.1632C15.1598 17.3976 15.6484 16.5299 16.0713 15.6185C16.5087 14.6633 16.8587 13.6862 17.0264 12.6508C17.0775 12.3227 17.3108 12.1623 17.6025 12.2133C17.8723 12.2644 18.0181 12.5123 17.9743 12.8185C17.9598 12.8915 17.9452 12.9644 17.9306 13.03C17.4712 15.2904 16.5817 17.3466 15.014 19.0746C14.9848 19.1038 14.9702 19.1403 14.9046 19.2496C15.5754 19.2132 16.1952 19.2351 16.7931 19.1403C18.8347 18.8121 20.2785 17.7403 20.9128 15.7133C21.0586 15.2539 21.1607 14.78 21.2263 14.306C21.3503 13.4675 21.4451 12.629 21.5472 11.7759C18.091 10.7478 14.6494 9.74153 11.1932 8.72801ZM18.7618 7.19679C18.791 7.10201 18.8202 7.01451 18.8493 6.92701C19.3743 5.41767 19.8993 3.90104 20.4243 2.3917C20.5482 2.03441 20.6212 1.66984 20.5264 1.29068C20.3441 0.546949 19.6222 0.0146685 18.791 8.55063e-05C17.9962 -0.00720599 17.3837 0.452159 17.1796 1.25422C16.9608 2.10004 16.7712 2.95314 16.5671 3.79896C16.3629 4.64477 16.1588 5.49058 15.94 6.38015C15.0942 6.08849 14.263 5.86245 13.388 6.14682C12.5276 6.4239 11.8786 6.95617 11.4703 7.7947C14.9046 8.80092 18.317 9.79986 21.7295 10.8061C21.9628 9.4207 21.0878 7.97698 19.7389 7.49575C19.4181 7.38637 19.0899 7.29888 18.7618 7.19679Z" fill="white"/>
<path d="M27.9927 17.3976C27.9125 17.6455 27.8542 17.908 27.7375 18.1413C27.3073 19.0236 26.5563 19.4975 25.6157 19.6944C25.4917 19.7236 25.3678 19.7382 25.2219 19.76C25.3605 20.9486 24.9813 21.9256 23.997 22.611C23.0126 23.2964 21.9626 23.311 20.9054 22.7641C19.9794 23.8141 18.7908 23.6391 18.069 22.9318C17.1503 23.661 16.1513 23.9454 15.0066 23.3912C14.8097 24.7401 14.2847 25.8849 13.1253 26.6432C12.2868 27.1901 11.3535 27.3869 10.3619 27.3286C8.60462 27.2192 6.59217 26.1547 6.35155 23.9599C5.38178 23.9672 4.47763 23.7339 3.74848 23.0558C2.99746 22.3631 2.74225 21.5027 2.94642 20.4819C2.90267 20.46 2.85892 20.4309 2.80788 20.4163C0.948547 19.8767 0.102734 17.9153 0.846467 16.1216C0.933965 15.9101 0.904797 15.7862 0.788133 15.6112C0.0662751 14.5466 -0.196217 13.3946 0.153774 12.1331C0.197523 11.9873 0.161065 11.8123 0.146482 11.6519C0.000652502 10.354 0.438142 9.30403 1.56103 8.62592C2.72038 7.92593 3.92348 7.87489 5.09012 8.6405C5.68802 9.03424 6.00884 9.63214 6.17655 10.3175C6.20572 10.4196 6.2203 10.529 6.24946 10.6384C7.46714 10.3248 8.32025 10.5655 8.8817 11.4259C8.33483 11.9508 7.78797 12.4977 7.21923 13.0081C6.84008 13.3508 6.41717 13.6425 6.01614 13.956C4.98804 14.7726 5.08283 16.3476 6.24217 16.9674C8.20359 18.0247 10.2087 19.009 12.3597 19.6434C13.6066 20.0152 14.8753 20.2486 16.1805 20.1684C18.12 20.0444 19.7971 19.359 20.9856 17.7403C21.7147 16.7559 22.0283 15.6039 22.2033 14.4154C22.3928 13.1248 22.5605 11.8269 22.7428 10.4925C23.297 10.8498 23.6251 11.3165 23.8366 11.7977C24.223 11.7977 24.573 11.7686 24.9157 11.805C26.0532 11.929 26.6948 12.8623 26.4105 13.9779C26.3594 14.1747 26.3813 14.2695 26.5563 14.3935C27.3073 14.9039 27.774 15.6039 27.949 16.5007C27.9563 16.5445 27.9781 16.5809 28 16.6247C27.9927 16.8872 27.9927 17.1424 27.9927 17.3976ZM11.0983 24.3391C11.1494 24.3391 11.2514 24.3318 11.3462 24.3245C11.4264 24.3172 11.5066 24.3099 11.5868 24.2881C11.842 24.2297 11.9952 24.0183 11.966 23.7704C11.9441 23.5297 11.7618 23.362 11.5066 23.3547C11.3827 23.3475 11.2514 23.362 11.1275 23.3693C10.216 23.4131 9.27544 22.91 9.14419 21.8235C9.11502 21.5683 8.95461 21.4298 8.69941 21.3787C8.31296 21.2912 8.20359 21.0944 8.28379 20.7006C8.34942 20.3871 8.22546 20.1538 7.95568 20.0736C7.68589 20.0007 7.45985 20.1392 7.35777 20.4454C7.13174 21.109 7.4161 21.8162 8.04317 22.1735C8.13796 22.2246 8.24734 22.3121 8.2765 22.4068C8.58274 23.5006 9.63272 24.3172 11.0983 24.3391ZM21.547 18.9215C21.6126 19.184 21.6564 19.4538 21.7439 19.709C21.8387 19.9934 22.0866 20.11 22.3491 20.0225C22.6116 19.935 22.721 19.6871 22.648 19.3809C22.6043 19.1986 22.546 19.0017 22.5605 18.8194C22.6116 18.1122 23.1584 17.7476 23.9022 17.8934C24.2157 17.959 24.4126 17.8788 24.522 17.609C24.6313 17.3465 24.8063 17.157 25.0542 17.0111C25.3021 16.8726 25.3678 16.6028 25.2438 16.3768C25.1271 16.1507 24.8501 16.0341 24.6167 16.1799C24.3615 16.333 24.1501 16.5518 23.9168 16.7268C23.8293 16.7924 23.7126 16.8799 23.6105 16.8799C22.4366 16.9018 21.5762 17.7549 21.547 18.9215ZM5.35261 13.2706C5.35261 13.0008 5.14116 12.7967 4.86408 12.7967C4.60159 12.7967 4.39742 13.0008 4.39013 13.256C4.38284 13.5258 4.59429 13.7373 4.86408 13.7445C5.14116 13.7518 5.35261 13.5404 5.35261 13.2706ZM2.786 12.3081C2.786 12.0383 2.56726 11.8196 2.30477 11.8269C2.03498 11.8342 1.83082 12.0529 1.83811 12.3227C1.8454 12.5779 2.05686 12.7894 2.30477 12.7894C2.56726 12.7967 2.786 12.5706 2.786 12.3081Z" fill="#999587"/>
<path d="M11.1933 8.72801C14.6495 9.74153 18.091 10.755 21.5545 11.7686C21.4451 12.629 21.3576 13.4675 21.2337 14.2987C21.1608 14.7727 21.0587 15.2466 20.9201 15.706C20.2858 17.7257 18.8348 18.8049 16.8004 19.133C16.2025 19.2278 15.5901 19.2059 14.9119 19.2423C14.9776 19.133 14.9921 19.0965 15.0213 19.0674C16.589 17.3393 17.4785 15.2831 17.9379 13.0227C17.9525 12.9498 17.9671 12.8769 17.9817 12.8113C18.0327 12.505 17.8796 12.2571 17.6098 12.2061C17.3181 12.1477 17.0848 12.3154 17.0338 12.6435C16.8661 13.6862 16.5161 14.6633 16.0786 15.6112C15.663 16.5226 15.1671 17.3903 14.5036 18.1559C14.4745 18.1924 14.4453 18.2288 14.4161 18.258C13.7453 19.0017 13.6505 19.0455 12.7099 18.7538C11.886 18.4986 11.0766 18.1924 10.1943 17.8934C10.3766 17.7768 10.4933 17.7111 10.6027 17.6382C12.3672 16.4278 13.5557 14.7727 14.3286 12.804C14.4453 12.5123 14.3286 12.2498 14.0661 12.1477C13.7891 12.0384 13.5411 12.1696 13.4099 12.505C12.8922 13.8539 12.0974 15.0206 11.0475 16.0049C10.5225 16.5007 9.93185 16.9091 9.27562 17.2153C9.1152 17.2955 8.97667 17.3028 8.81625 17.2153C8.15273 16.8726 7.48191 16.5445 6.81838 16.2091C6.14027 15.8591 6.08194 15.1299 6.69443 14.6633C7.61315 13.9706 8.51001 13.256 9.26833 12.3883C10.1433 11.3967 10.7558 10.2592 11.1131 8.98321C11.1277 8.9103 11.1568 8.83738 11.1933 8.72801Z" fill="#999587"/>
<path d="M18.7617 7.19679C19.0971 7.29888 19.4179 7.38637 19.7388 7.50304C21.0877 7.98427 21.97 9.42799 21.7294 10.8134C18.3169 9.81444 14.9045 8.80821 11.4702 7.80199C11.8785 6.96347 12.5202 6.43119 13.3879 6.15411C14.2629 5.86974 15.0941 6.09578 15.9399 6.38744C16.1514 5.50517 16.3555 4.65935 16.567 3.80625C16.7711 2.96043 16.9607 2.10733 17.1795 1.26152C17.3836 0.466743 17.9961 8.6403e-05 18.7909 0.0073779C19.6148 0.0146694 20.3367 0.54695 20.5263 1.29797C20.621 1.67713 20.5481 2.03441 20.4242 2.39899C19.8992 3.90833 19.3742 5.42496 18.8492 6.9343C18.8128 7.01451 18.7909 7.10201 18.7617 7.19679Z" fill="#999587"/>
<path d="M11.0983 24.3391C9.62542 24.3172 8.58274 23.5006 8.2765 22.3996C8.25462 22.3048 8.13796 22.2173 8.04317 22.1663C7.4161 21.8163 7.13173 21.1017 7.35777 20.4382C7.45985 20.1319 7.68588 19.9934 7.95567 20.0663C8.22546 20.1392 8.34941 20.3798 8.28379 20.6934C8.19629 21.0944 8.30566 21.2913 8.6994 21.3715C8.9546 21.4298 9.10773 21.5611 9.14418 21.8163C9.27543 22.9027 10.216 23.4058 11.1275 23.3621C11.2514 23.3548 11.3827 23.3402 11.5066 23.3475C11.7618 23.3548 11.9368 23.5298 11.966 23.7631C11.9952 24.0183 11.842 24.2297 11.5868 24.2808C11.5066 24.2954 11.4264 24.31 11.3462 24.3172C11.2514 24.3318 11.1493 24.3318 11.0983 24.3391Z" fill="white"/>
<path d="M21.5469 18.9215C21.576 17.7549 22.4364 16.9018 23.6031 16.8872C23.7052 16.8872 23.8218 16.7997 23.9093 16.734C24.1499 16.5591 24.3614 16.3403 24.6093 16.1872C24.8426 16.0486 25.1197 16.158 25.2364 16.3841C25.3603 16.6174 25.2947 16.8799 25.0468 17.0184C24.7989 17.1642 24.6239 17.3465 24.5145 17.6163C24.3979 17.8934 24.2083 17.9663 23.8947 17.9007C23.151 17.7476 22.6041 18.1194 22.5531 18.8267C22.5385 19.009 22.5969 19.2059 22.6406 19.3882C22.7135 19.6944 22.6114 19.9423 22.3417 20.0298C22.0792 20.1173 21.8312 20.0006 21.7365 19.7163C21.649 19.4611 21.6052 19.184 21.5469 18.9215Z" fill="white"/>
<path d="M5.3528 13.2706C5.3528 13.5404 5.14134 13.7518 4.86427 13.7445C4.59448 13.7445 4.38303 13.5258 4.39032 13.256C4.39761 13.0008 4.60177 12.7966 4.86427 12.7966C5.14134 12.7966 5.3528 13.0008 5.3528 13.2706Z" fill="white"/>
<path d="M2.78597 12.3081C2.78597 12.5779 2.56723 12.7967 2.30474 12.7894C2.04954 12.7894 1.84537 12.5779 1.83808 12.3227C1.83079 12.0529 2.03495 11.8342 2.30474 11.8269C2.56723 11.8196 2.78597 12.0384 2.78597 12.3081Z" fill="white"/>
</svg>
