<svg width="25" height="25" viewBox="0 0 25 25" fill="none" xmlns="http://www.w3.org/2000/svg">
<rect width="25" height="25" fill="white"/>
<path d="M23.9944 2C23.9944 7.39063 23.9944 12.7813 23.9944 18.1719C21.0352 18.1719 18.0815 18.1719 15.1223 18.1663C14.9651 18.1663 14.8584 18.2112 14.7517 18.3235C14.426 18.666 14.0835 18.9917 13.7522 19.3286C13.5725 19.5139 13.3928 19.6992 13.1794 19.9238C13.1794 13.9043 13.1794 7.96338 13.1794 2C16.7957 2 20.395 2 23.9944 2ZM14.5271 7.37378C16.79 7.37378 19.0417 7.37378 21.2822 7.37378C21.2822 6.91895 21.2822 6.48657 21.2822 6.0542C19.0193 6.0542 16.7788 6.0542 14.5271 6.0542C14.5271 6.4978 14.5271 6.93018 14.5271 7.37378ZM14.5215 11.4168C16.79 11.4168 19.0361 11.4168 21.2822 11.4168C21.2822 10.9675 21.2822 10.5295 21.2822 10.1028C19.0193 10.1028 16.7732 10.1028 14.5215 10.1028C14.5215 10.5464 14.5215 10.9731 14.5215 11.4168ZM21.2878 14.1458C19.0249 14.1458 16.7732 14.1458 14.5327 14.1458C14.5327 14.6006 14.5327 15.033 14.5327 15.4653C16.7957 15.4653 19.0361 15.4653 21.2878 15.4653C21.2878 15.0217 21.2878 14.5894 21.2878 14.1458Z" fill="#999587"/>
<path d="M23.9945 22.2148C20.3951 22.2148 16.8014 22.2148 13.1908 22.2148C13.1515 21.9958 13.1515 21.8218 13.3368 21.6477C14.0106 20.9963 14.6676 20.3337 15.3246 19.6655C15.4313 19.5532 15.5436 19.5139 15.6952 19.5139C18.4635 19.5195 21.2318 19.5195 24.0001 19.5195C23.9945 20.418 23.9945 21.3164 23.9945 22.2148Z" fill="#999587"/>
<path d="M1 18.1719C1 12.77 1 7.39624 1 2.01123C4.60498 2.01123 8.19873 2.01123 11.8037 2.01123C11.8037 7.96338 11.8037 13.9043 11.8037 19.9238C11.5847 19.6936 11.4106 19.5083 11.231 19.323C10.8997 18.9861 10.5627 18.6604 10.2314 18.3179C10.1248 18.2056 10.0181 18.1606 9.86084 18.1606C7.00269 18.1663 4.14453 18.1663 1.28638 18.1663C1.20215 18.1719 1.1123 18.1719 1 18.1719ZM3.70654 7.40186C3.70654 9.65357 3.70654 11.8884 3.70654 14.1121C5.96948 14.1121 8.22119 14.1121 10.4617 14.1121C10.4617 11.866 10.4617 9.63672 10.4617 7.40186C8.20435 7.40186 5.96387 7.40186 3.70654 7.40186Z" fill="#999587"/>
<path d="M1.00562 22.198C1.00562 21.2996 1.00562 20.4236 1.00562 19.5195C1.08984 19.5195 1.16284 19.5195 1.23022 19.5195C3.92554 19.5195 6.61524 19.5195 9.31055 19.5139C9.45654 19.5139 9.55762 19.5532 9.66431 19.6599C10.3044 20.3113 10.9446 20.9626 11.6016 21.5916C11.7813 21.7656 11.8655 21.9397 11.7981 22.198C8.21558 22.198 4.61621 22.198 1.00562 22.198Z" fill="#999587"/>
<path d="M5.0542 8.74951C6.41309 8.74951 7.76074 8.74951 9.11402 8.74951C9.11402 10.0859 9.11402 11.4167 9.11402 12.7644C7.76636 12.7644 6.4187 12.7644 5.0542 12.7644C5.0542 11.4336 5.0542 10.1028 5.0542 8.74951Z" fill="#999587"/>
</svg>
