<svg width="21" height="21" viewBox="0 0 21 21" fill="none" xmlns="http://www.w3.org/2000/svg">
<g clip-path="url(#clip0_567_6)">
<path fill-rule="evenodd" clip-rule="evenodd" d="M6.6002 12.4C6.93353 12.6 7.2002 12.8667 7.4002 13.2C7.6002 13.6 7.7002 13.9667 7.7002 14.3C7.7002 14.7 7.6002 15.1 7.4002 15.5L4.3002 12.4C4.63353 12.2 5.0002 12.1 5.4002 12.1C5.8002 12.1 6.2002 12.2 6.6002 12.4V12.4ZM3.2002 14.6C3.3002 15.1 3.5002 15.6 3.9002 15.9C4.2002 16.3 4.7002 16.5 5.2002 16.5C5.7002 16.6 6.1002 16.5 6.6002 16.2L3.5002 13.2C3.3002 13.6 3.2002 14.1 3.2002 14.6V14.6Z" fill="#999587"/>
<path fill-rule="evenodd" clip-rule="evenodd" d="M7.1 1C7.23333 1 7.36667 1.06667 7.5 1.2C7.63333 1.26667 7.7 1.4 7.7 1.6V3.4C7.7 3.53333 7.63333 3.66667 7.5 3.8C7.36667 3.93333 7.23333 4 7.1 4H6V4.9H7.9C8.03333 4.9 8.16667 4.93333 8.3 5C8.36667 5 8.43333 5.03333 8.5 5.1C8.63333 5.16667 8.7 5.26667 8.7 5.4C8.76667 5.53333 8.8 5.63333 8.8 5.7C8.8 5.83333 8.76667 5.93333 8.7 6C8.7 6.13333 8.63333 6.23333 8.5 6.3C8.43333 6.36667 8.36667 6.43333 8.3 6.5C8.16667 6.56667 8.06667 6.6 8 6.6L9.8 10.8C9.86667 10.9333 9.9 11.0667 9.9 11.2V20.4C9.9 20.6 9.83333 20.7333 9.7 20.8C9.63333 20.9333 9.5 21 9.3 21H1.6C1.4 21 1.26667 20.9333 1.2 20.8C1.06667 20.7333 1 20.6 1 20.4V11.2C1 11.0667 1.03333 10.9333 1.1 10.8L2.9 6.6C2.7 6.53333 2.5 6.43333 2.3 6.3C2.16667 6.16667 2.1 5.96667 2.1 5.7C2.1 5.5 2.2 5.3 2.4 5.1C2.53333 4.96667 2.7 4.9 2.9 4.9H4.9V4H3.8C3.6 4 3.46667 3.93333 3.4 3.8C3.26667 3.66667 3.2 3.53333 3.2 3.4V1.6C3.2 1.4 3.26667 1.26667 3.4 1.2C3.46667 1.06667 3.6 1 3.8 1H7.1ZM5.9 3C6.03333 2.86667 6.13333 2.7 6.2 2.5C6.13333 2.3 6.03333 2.13333 5.9 2C5.76667 1.8 5.6 1.7 5.4 1.7C5.2 1.7 5.03333 1.8 4.9 2C4.76667 2.13333 4.7 2.3 4.7 2.5C4.7 2.7 4.76667 2.86667 4.9 3C5.03333 3.13333 5.2 3.2 5.4 3.2C5.6 3.2 5.76667 3.13333 5.9 3ZM5.4 11C4.5 11 3.7 11.4 3.1 12C2.4 12.6 2.1 13.4 2.1 14.3C2.1 15.2 2.4 16.1 3.1 16.7C3.7 17.3 4.5 17.7 5.4 17.7C6.3 17.7 7.1 17.3 7.8 16.7C8.4 16.1 8.7 15.2 8.7 14.3C8.7 13.4 8.4 12.6 7.8 12C7.1 11.4 6.3 11 5.4 11V11Z" fill="#999587"/>
<path d="M21 19.9C21 20.5 20.7 21 18.2 21C16.3 21 15.7 20.7 15.5 20.2C15.3 20.5 14.9 20.8 14.5 20.9C14.1 21 13.7 20.9 13.4 20.8C12.9 21.1 12.4 21.1 11.8 20.8C11.3 20.4 11 19.7 11 18.8C11 18.6 11.0667 18.4667 11.2 18.4C11.2667 18.2667 11.4 18.2 11.6 18.2C11.7333 18.2 11.8333 18.2667 11.9 18.4C12.0333 18.4667 12.1 18.6 12.1 18.8C12.1 19.5 12.3 19.8 12.5 19.8C12.6 19.9 12.7 19.9 12.9 19.8C13.1 19.4 13.5 19.1 14.1 19C14.8 18.9 15.5 19.1 15.6 19.6C15.7333 19.4667 15.9333 19.3333 16.2 19.2L15 17.9H14.4C14.2667 17.9 14.1333 17.8667 14 17.8C13.9333 17.7333 13.8667 17.6667 13.8 17.6L12.7 15.7C12.6333 15.5667 12.6333 15.4333 12.7 15.3C12.7667 15.1667 12.8667 15.0667 13 15C13.1333 14.9333 13.2667 14.9 13.4 14.9C13.5333 14.9667 13.6333 15.0667 13.7 15.2L14.6 16.8H15.1C15.4 16.8 15.6 16.9 15.8 17.1L17 18.5C17.1333 18.6333 17.1667 18.7667 17.1 18.9C17.2333 18.9 17.3333 18.9 17.4 18.9L17.5 17.6L16.7 17.2C16.5 17.0667 16.3667 16.9 16.3 16.7C16.2333 16.5 16.2333 16.3 16.3 16.1L17.1 14.7C17.1 14.6333 17.1333 14.5667 17.2 14.5C17.2667 14.4333 17.3333 14.4 17.4 14.4C17.4667 14.3333 17.5333 14.3 17.6 14.3C17.6667 14.3 17.7333 14.3333 17.8 14.4C17.8667 14.4 17.9333 14.4333 18 14.5C18.0667 14.5667 18.1 14.6333 18.1 14.7C18.1 14.7667 18.1 14.8333 18.1 14.9C18.1 15.0333 18.0667 15.1333 18 15.2L17.4 16.3L18.2 16.7C18.3333 16.8333 18.4333 16.9667 18.5 17.1C18.5667 17.2333 18.6 17.3667 18.6 17.5L18.5 18.8H18.6L19.6 17.8L19.1 17C19.0333 16.8667 19 16.7333 19 16.6C19 16.4667 19.0333 16.3667 19.1 16.3L19.9 14.9C19.9 14.8333 19.9333 14.7667 20 14.7C20.0667 14.6333 20.1333 14.6 20.2 14.6C20.2667 14.6 20.3333 14.6 20.4 14.6C20.5333 14.6 20.6 14.6 20.6 14.6C20.6667 14.6667 20.7333 14.7333 20.8 14.8C20.8667 14.8667 20.9 14.9333 20.9 15C20.9 15.0667 20.9 15.1333 20.9 15.2C20.9 15.2667 20.9 15.3333 20.9 15.4L20.2 16.6L20.7 17.5C20.8333 17.6333 20.8667 17.8 20.8 18C20.8 18.2 20.7333 18.3667 20.6 18.5L19.9 19.1C20.6 19.3 21 19.7 21 19.9V19.9Z" fill="#999587"/>
<path fill-rule="evenodd" clip-rule="evenodd" d="M20.9999 9.6V12.1H15.3999V9.6C15.3999 9.2 15.6999 8.9 15.9999 8.7V4.4C15.6999 4.3 15.3999 3.9 15.3999 3.5V1H20.9999V3.5C20.9999 3.9 20.7999 4.3 20.3999 4.4V8.7C20.7999 8.9 20.9999 9.2 20.9999 9.6ZM17.0999 4.4V8.7C17.0999 9.1 16.8999 9.4 16.5999 9.6V10H19.8999V9.6C19.4999 9.4 19.2999 9.1 19.2999 8.7V4.4C19.2999 4 19.4999 3.7 19.8999 3.5V3.1H16.5999V3.5C16.8999 3.7 17.0999 4 17.0999 4.4Z" fill="#999587"/>
</g>
<defs>
<clipPath id="clip0_567_6">
<rect width="21" height="21" fill="white"/>
</clipPath>
</defs>
</svg>
