<svg version="1.2" xmlns="http://www.w3.org/2000/svg" viewBox="0 0 71 43" width="71" height="43">
	<title>_x38_08</title>
	<style>
		.s0 { fill: #df0022 } 
	</style>
	<g id="_x38_08">
		<path id="_x38_" fill-rule="evenodd" class="s0" d="m61.9 1q0.3 0 0.5 0.1c2.1 0.1 4 0.8 5.6 2.1 1.6 1.4 2.7 3.1 3 5.2q0 0.2 0 0.3 0 0.4-0.2 0.7-3.3 4.5-6.6 9.1-0.1 0.1-0.1 0.1c-0.4-0.2-0.8-0.3-1.2-0.5-2.8-0.9-5.8 0.5-6.8 3.2-0.6 1.9-0.2 3.6 1 5.1q0.2 0.2 0.4 0.4 0.1 0.1 0.4 0.3-1.4 1.9-2.8 3.9c-0.4-0.3-0.8-0.5-1.2-0.8q-2.5-1.9-3.1-5c-0.3-1.4-0.3-2.7 0-4 0.6-2.3 1.9-4 4-5.1q0.2-0.2 0.4-0.3-0.1-0.1-0.1-0.1c-0.8-0.5-1.6-1-2.2-1.7-0.8-0.9-1.3-2-1.5-3.2-0.2-1.2-0.2-2.5 0.3-3.8 0.6-1.9 1.9-3.4 3.6-4.5 1.4-0.8 3-1.3 4.6-1.4q0.2 0 0.5-0.1 0.5 0 1.1 0 0 0 0 0 0.2 0 0.4 0zm-0.8 4q-0.2 0.1-0.5 0.1c-1.9 0.2-3.3 1.3-3.8 3-0.5 1.7-0.2 3.2 1.1 4.4 1.5 1.4 3.8 1.7 5.7 0.6 1.5-0.8 2.3-2.1 2.2-3.9-0.1-1.1-0.6-2.1-1.4-2.9-0.9-0.9-2-1.3-3.3-1.3z"/>
		<path id="_x38__1_" fill-rule="evenodd" class="s0" d="m12.3 1q0.3 0 0.5 0.1c2.4 0.2 4.6 1.1 6.3 2.8q2.1 2.2 2.3 5.1c0 0.1-0.1 0.2-0.1 0.2q-3.1 4.3-6.2 8.6-0.4 0.4-0.7 0.8c-0.4-0.1-0.7-0.3-1.1-0.5-2.8-0.9-5.8 0.5-6.8 3.2-0.7 1.9-0.1 4.1 1.4 5.5q0.1 0.1 0.4 0.3-1.4 1.9-2.8 3.8-2.5-1.3-3.7-3.7c-0.4-1-0.7-2.1-0.8-3.2q0-0.1 0-0.2 0-0.7 0-1.6 0-0.1 0.1-0.2c0.2-2.1 1.2-3.7 2.8-5.1q0.8-0.6 1.7-1.1 0-0.1-0.1-0.1-0.5-0.3-0.9-0.6c-0.9-0.6-1.6-1.3-2.1-2.2-0.8-1.5-0.9-3.1-0.7-4.7 0.2-1.8 1.1-3.4 2.5-4.6 1.6-1.5 3.7-2.3 5.9-2.5q0.3-0.1 0.5-0.1 0.8 0 1.6 0zm-1 12.8c0.8-0.1 1.3-0.1 1.9-0.3 1.3-0.5 2.3-1.4 2.8-2.7 0.6-1.7-0.2-3.8-1.7-4.9-1.1-0.7-2.2-0.9-3.4-0.8-1.7 0.1-3.2 1.3-3.7 3-0.4 1.2-0.4 2.4 0.3 3.5 1 1.5 2.3 2.1 3.8 2.2z"/>
		<path id="_x30_" class="s0" d="m33.3 26.2c-0.9 1.3-1.9 2.6-2.9 3.9-0.4-0.4-0.8-0.7-1.1-1.1-1.2-1.3-1.9-2.9-2.5-4.5-0.5-1.5-0.8-3-0.9-4.6q-0.3-2-0.2-4c0.1-2.4 0.3-4.8 1.1-7.1 0.6-1.7 1.3-3.2 2.5-4.5 1.5-1.8 3.4-2.8 5.7-3.1 1.7-0.3 3.3-0.2 4.9 0.4q1.9 0.6 3.4 2c1.4 1.3 2.3 2.9 2.9 4.7 0.1 0 0 0.1 0 0.2q-1.7 2.3-3.3 4.5-0.1 0.2-0.3 0.3-0.1-0.6-0.3-1.2c-0.4-1.7-1.1-3.4-2.1-4.9-0.6-0.9-1.4-1.6-2.5-2-1.5-0.4-2.8 0-3.9 1-0.9 0.9-1.4 2-1.8 3.1q-0.8 2.1-0.9 4.4-0.1 1.6-0.1 3.2c0 1.7 0.1 3.4 0.4 5 0.4 1.6 1.1 2.9 1.9 4.3z"/>
		<g id="Biozide">
			<path id="Vector" fill-rule="evenodd" class="s0" d="m10.2 39.5c0.1-0.5 0.1-1.1 0.2-1.6 0.3-1.6 1.4-2.1 2.8-2q1.8 0.2 2.2 2 0.3 1.6-0.1 3.2c-0.2 0.9-0.8 1.6-1.8 1.8-0.6 0.2-1.3 0.1-1.9-0.2-0.7-0.4-1.1-1-1.2-1.8-0.1-0.4-0.1-0.9-0.2-1.4zm4-0.1q0 0 0 0 0-0.2 0-0.5-0.1-0.6-0.2-1.1c-0.1-0.4-0.4-0.6-0.7-0.7-0.8-0.2-1.4 0.1-1.6 0.9-0.2 0.8-0.1 1.5-0.1 2.3q0 0.3 0.1 0.7c0.1 0.4 0.4 0.7 0.8 0.8 0.8 0.2 1.4-0.1 1.6-0.9 0.1-0.5 0.1-1 0.1-1.5z"/>
			<path id="Vector" class="s0" d="m30.8 36q2.2 0 4.3 0 0 0.6 0 1.1-1.5 0-3 0 0 0.8 0 1.6 1.3 0 2.7 0 0 0.6 0 1.2-1.3 0-2.7 0 0 0.9 0 1.8 1.5 0 3 0 0 0.6 0 1.2-2.2 0-4.3 0 0-3.4 0-6.9z"/>
			<path id="Vector" class="s0" d="m19.1 37.1q-1.5 0-2.9 0 0-0.5 0-1.1 2.3 0 4.6 0c0 0.3 0 0.5 0 0.8 0 0.1-0.1 0.2-0.1 0.2q-1.4 2.3-2.7 4.6-0.1 0-0.1 0.2 1.5 0 3 0 0 0.5 0 1.1-2.3 0-4.7 0c0-0.4-0.1-0.8 0.2-1.2 0.9-1.4 1.7-2.9 2.6-4.4q0-0.1 0.1-0.2z"/>
			<path id="Vector" class="s0" d="m9 42.9q-0.6 0-1.2 0 0-3.5 0-6.9 0.6 0 1.2 0 0 3.4 0 6.9z"/>
			<path id="Vector" class="s0" d="m23.2 42.9q-0.7 0-1.3 0 0-3.5 0-6.9 0.6 0 1.3 0 0 3.4 0 6.9z"/>
			<path id="Vector" fill-rule="evenodd" class="s0" d="m5.6 39.3c0.9 0.4 1.1 1.1 1 1.8-0.1 0.8-0.5 1.4-1.4 1.7q-0.5 0.1-0.9 0.1-1.3 0-2.5 0 0 0-0.1 0 0-3.5 0-6.9 0 0 0 0c1 0 2 0 3 0 0.4 0.1 0.8 0.2 1.1 0.5 0.8 0.6 0.8 2 0 2.7q-0.1 0-0.2 0.1zm-2.6 0.5q0 1 0 1.9 0.7 0.1 1.4 0 0.2 0 0.4-0.1 0.4-0.1 0.5-0.5c0.1-0.6-0.1-1.1-0.7-1.1-0.5-0.1-1.1-0.1-1.6-0.2zm0-1.1q0.5 0 1 0 0.1 0 0.2 0c0.2 0 0.4 0 0.5-0.1 0.3-0.1 0.5-0.5 0.4-0.8 0-0.3-0.2-0.5-0.5-0.6q-0.8-0.1-1.6-0.1c0 0.6 0 1.1 0 1.6z"/>
			<path id="Vector" fill-rule="evenodd" class="s0" d="m24.7 42.9q0-3.5 0-6.9 0 0 0.1 0c0.8 0 1.7 0 2.5 0 1.3 0.1 2 0.7 2.2 2 0.2 1 0.3 2.1 0 3.2-0.3 1-1 1.6-2 1.7-0.9 0-1.9 0-2.8 0zm1.3-1.1q0.6 0 1.2 0 0.7-0.1 1-0.8 0.1-0.2 0.1-0.5c0-0.6 0.1-1.3 0.1-1.9 0-0.3-0.1-0.5-0.2-0.8-0.1-0.3-0.4-0.6-0.8-0.6-0.4-0.1-0.9 0-1.4 0q0 2.2 0 4.6z"/>
		</g>
	</g>
</svg>