<svg version="1.2" xmlns="http://www.w3.org/2000/svg" viewBox="0 0 36 35" width="36" height="35">
	<title>aktuelles</title>
	<style>
		.s0 { fill: #e2001a } 
	</style>
	<g id="aktuelles">
		<path id="Vector" class="s0" d="m13.2 34.1c-3.6-1.2-6.4-3.4-8.6-6.7 5.3 0 10.6 0 15.9 0 0.3 2.8 1.9 4.7 3.9 6.5q-5.6 2.1-11.2 0.2zm18.8-26.5q-5.4 0-10.7 0c-0.2 0-0.5-0.1-0.6-0.2-1.6-0.9-2.5-2.4-3.2-4.1-0.4-1-0.7-2.1-0.7-3.2 2.7-0.3 5.3 0 7.8 1 3.2 1.3 6.8 4.3 7.8 6.5q-0.2 0-0.4 0zm-27.4 0c2.4-3.7 5.7-6.1 9.8-7.1 0.3 2.6 1.2 5 2.9 7.1-4.3 0-8.5 0-12.7 0zm27.8 19.8c-0.5 0.6-0.8 1.1-1.2 1.5q-1.8 2.2-4.2 3.7c-0.1 0-0.2 0.1-0.3 0-1.6-1.1-3-2.4-3.7-4.4q0-0.3-0.1-0.6 0-0.1 0-0.2c3.1 0 6.2 0 9.5 0z"/>
		<path id="Vector" fill-rule="evenodd" class="s0" d="m36 24.3c-0.3 0.6-0.7 0.7-1.3 0.7q-16.2 0-32.5 0c-0.9 0-1.2-0.3-1.2-1.3q0-6.2 0-12.4c0-0.9 0.3-1.3 1.2-1.3q16.3 0 32.6 0c0.6 0 1 0.2 1.2 0.7q0 6.8 0 13.6zm-12.2-7.4q-0.1 0-0.1 0-0.2-0.3-0.4-0.6c-0.6-0.7-1.4-0.7-2 0q-0.2 0.4-0.5 0.7c0-0.9 0-1.7 0-2.6 0-0.8-0.5-1.3-1.2-1.3-0.6 0-1.2 0.5-1.2 1.3q0 0.9 0 1.8 0 2.2 0 4.4c0 0.8 0.5 1.3 1.2 1.3 0.4 0 0.8-0.2 1-0.5q0.8-1.2 1.7-2.4 0.8 1.2 1.6 2.4c0.4 0.5 0.9 0.7 1.4 0.5 0.5-0.2 0.8-0.7 0.8-1.3q0-3.1 0-6.2c0-0.8-0.5-1.3-1.2-1.3-0.7 0-1.2 0.6-1.2 1.3q0.1 1.2 0.1 2.5zm-16 0.1c-0.2-0.2-0.2-0.3-0.3-0.3q-1.1-1.6-2.2-3.1c-0.3-0.5-0.8-0.6-1.3-0.5-0.5 0.2-0.8 0.6-0.8 1.2q0 3.2 0 6.4c0 0.5 0.4 1 0.9 1.1 0.7 0.2 1.4-0.3 1.4-1.1 0-0.9 0-1.8 0-2.8 0.1 0.2 0.2 0.3 0.3 0.4q1.1 1.5 2.2 3.1c0.3 0.4 0.8 0.6 1.3 0.4 0.5-0.1 0.8-0.6 0.8-1.1q0-3.2 0-6.4c0-0.3-0.2-0.6-0.3-0.8-0.3-0.4-0.8-0.5-1.3-0.4-0.4 0.2-0.7 0.6-0.7 1.2 0 0.8 0 1.7 0 2.7zm22.4 4.9q0 0 0 0c0.4 0 0.8 0 1.2 0 1.4-0.1 2.5-1.2 2.6-2.7 0.1-1.3-0.8-2.7-2.1-3-0.5-0.1-0.9-0.1-1.4-0.1-0.2 0-0.4 0-0.4-0.3 0-0.3 0.2-0.3 0.4-0.3q0.8 0 1.6 0c0.6 0 1.1-0.5 1.1-1.2 0-0.5-0.4-1.1-1-1.2-0.7 0-1.5-0.1-2.3 0-1.3 0.2-2.3 1.5-2.2 2.9 0.1 1.4 1.2 2.5 2.6 2.5 0.3 0 0.6 0 0.9 0 0.4 0 0.6 0.4 0.4 0.7-0.1 0.2-0.3 0.3-0.5 0.3-0.7 0-1.4 0-2.1 0-0.7 0-1.2 0.5-1.2 1.2 0 0.7 0.5 1.2 1.2 1.2q0.6 0 1.2 0zm-16.1-6.4q0.8 0 1.5 0c0.7 0 1.2-0.6 1.2-1.3 0-0.6-0.5-1.1-1.2-1.1q-1.3 0-2.6 0c-0.8 0-1.2 0.5-1.3 1.3q0 3.1 0 6.2c0 0.8 0.5 1.2 1.3 1.3q1.3 0 2.5 0 0.2 0 0.3-0.1c0.6-0.1 1-0.5 1-1.1 0-0.5-0.3-1-0.8-1.2-0.2 0-0.5 0-0.7 0q-0.6-0.1-1.2 0c0-0.3 0-0.5 0-0.7q0.4 0 0.7 0c0.4-0.1 0.7 0 1.1-0.1 0.6-0.1 0.9-0.7 0.9-1.3-0.1-0.6-0.5-1-1.1-1.1q-0.5 0-1.1 0-0.2 0-0.5 0c0-0.3 0-0.5 0-0.8z"/>
		<path id="Vector" class="s0" d="m24.4 33.9q-5.6 2.1-11.2 0.2c-3.6-1.2-6.4-3.4-8.6-6.7 5.4 0 10.6 0 15.9 0 0.3 2.8 1.9 4.8 3.9 6.5z"/>
		<path id="Vector" class="s0" d="m32.4 7.6q-0.2 0-0.4 0-5.3 0-10.7 0c-0.2 0-0.4 0-0.6-0.2-1.6-0.9-2.5-2.4-3.2-4.1-0.4-1-0.7-2-0.7-3.2 2.7-0.3 5.3 0.1 7.8 1.1 3.2 1.2 6.8 4.3 7.8 6.4z"/>
		<path id="Vector" class="s0" d="m17.3 7.6c-4.3 0-8.5 0-12.7 0 2.4-3.7 5.7-6.1 9.8-7.1 0.3 2.6 1.2 5 2.9 7.1z"/>
		<path id="Vector" class="s0" d="m22.9 27.4c3.1 0 6.2 0 9.5 0-0.4 0.6-0.8 1.1-1.2 1.5q-1.8 2.2-4.2 3.7c-0.1 0-0.2 0.1-0.3 0-1.6-1.1-3-2.4-3.6-4.4q-0.1-0.3-0.2-0.6 0-0.1 0-0.2z"/>
	</g>
</svg>