<svg width="22" height="22" viewBox="0 0 22 22" fill="none" xmlns="http://www.w3.org/2000/svg">
<path d="M15.125 14.63L16.7338 6.4625C17.82 5.87125 18.5625 4.74375 18.5625 3.4375C18.5625 2.52582 18.2003 1.65148 17.5557 1.00682C16.911 0.362164 16.0367 0 15.125 0C14.2133 0 13.339 0.362164 12.6943 1.00682C12.0497 1.65148 11.6875 2.52582 11.6875 3.4375C11.6875 4.74375 12.43 5.87125 13.5162 6.4625L15.125 14.63ZM15.125 1.375C16.2662 1.375 17.1875 2.29625 17.1875 3.4375C17.1875 4.57875 16.2662 5.5 15.125 5.5C13.9838 5.5 13.0625 4.57875 13.0625 3.4375C13.0625 2.29625 13.9838 1.375 15.125 1.375ZM17.49 7.975L22 6.14625V18.5213L15.29 21.3125L6.875 18.5213L0 21.2712V8.89625L6.875 6.14625L12.7463 8.085L15.125 18.1225L17.49 7.975Z" fill="#E2001A"/>
</svg>
