<svg version="1.2" xmlns="http://www.w3.org/2000/svg" viewBox="0 0 26 25" width="26" height="25">
	<title>aktuelles</title>
	<style>
		.s0 { fill: #ffffff } 
	</style>
	<g id="aktuelles">
		<path id="Vector" class="s0" d="m9.7 23.6q-3.8-1.2-6.1-4.6 5.7 0 11.3 0c0.3 1.9 1.4 3.2 2.8 4.4q-4 1.5-8 0.2zm13.4-18.2q-3.8 0-7.6-0.1-0.2 0-0.5-0.1c-1-0.7-1.7-1.6-2.2-2.8-0.3-0.7-0.5-1.4-0.5-2.2 1.9-0.2 3.8 0 5.6 0.7 2.2 0.9 4.8 3 5.5 4.5q-0.1 0-0.3 0zm-19.6-0.1c1.8-2.5 4.1-4.1 7.1-4.9q0.3 2.8 2 4.9c-3 0-6 0-9.1 0zm19.9 13.7c-0.3 0.4-0.6 0.7-0.8 1q-1.3 1.5-3 2.5c-0.1 0.1-0.2 0.1-0.3 0.1-1.1-0.8-2.1-1.7-2.6-3.1q0-0.2-0.1-0.4 0 0 0-0.1 3.4 0 6.8 0z"/>
		<path id="Vector" fill-rule="evenodd" class="s0" d="m26 16.8c-0.2 0.4-0.5 0.5-0.9 0.5q-11.6 0-23.2 0c-0.7 0-0.9-0.2-0.9-0.9q0-4.3 0-8.5c0-0.7 0.2-0.9 0.9-0.9q11.6 0 23.2 0c0.4 0 0.7 0.1 0.9 0.5q0 4.7 0 9.3zm-8.7-5.1q-0.1 0-0.1 0.1-0.1-0.2-0.3-0.4c-0.4-0.6-1-0.6-1.4 0q-0.2 0.2-0.3 0.4-0.1-0.9-0.1-1.8c0-0.5-0.3-0.9-0.8-0.9-0.5 0-0.8 0.4-0.8 0.9q-0.1 0.6 0 1.3 0 1.5 0 3c0 0.5 0.3 0.9 0.8 0.9 0.3 0 0.5-0.1 0.7-0.4q0.6-0.8 1.2-1.6 0.6 0.8 1.2 1.6c0.2 0.4 0.6 0.5 0.9 0.4 0.4-0.2 0.6-0.5 0.6-0.9q0-2.1 0-4.3c0-0.5-0.4-0.9-0.8-0.9-0.5 0-0.9 0.4-0.9 0.9q0.1 0.9 0.1 1.7zm-11.5 0.1q-0.1-0.2-0.2-0.2-0.7-1.1-1.5-2.1c-0.3-0.4-0.6-0.5-1-0.4-0.3 0.2-0.5 0.5-0.5 0.8q0 2.2 0 4.5c0 0.3 0.2 0.7 0.6 0.7 0.5 0.2 1-0.2 1-0.8q0-0.9 0-1.8 0.1 0.1 0.2 0.2 0.8 1.1 1.6 2.1c0.2 0.3 0.6 0.4 0.9 0.3 0.4-0.1 0.6-0.4 0.6-0.8q0-2.2 0-4.4c0-0.2-0.1-0.4-0.2-0.5-0.2-0.3-0.6-0.4-0.9-0.2-0.4 0.1-0.6 0.4-0.6 0.7q0 0.9 0 1.9zm16 3.4q0 0 0 0c0.3 0 0.6 0 0.9 0 1-0.1 1.8-0.9 1.9-1.8 0.1-1-0.6-1.9-1.5-2.1-0.4-0.1-0.7-0.1-1-0.1-0.2 0-0.3 0-0.3-0.2 0-0.2 0.1-0.2 0.3-0.2q0.5 0 1.1 0c0.4 0 0.8-0.4 0.8-0.8 0-0.4-0.3-0.8-0.7-0.9-0.5 0-1.1 0-1.6 0-1 0.2-1.7 1-1.6 2 0.1 1 0.8 1.7 1.8 1.7q0.3 0 0.7 0c0.2 0.1 0.4 0.3 0.3 0.5-0.1 0.1-0.3 0.2-0.4 0.2-0.5 0-1 0-1.5 0-0.5 0-0.9 0.4-0.9 0.9 0 0.4 0.4 0.8 0.9 0.8q0.4 0 0.8 0zm-11.5-4.4q0.6 0 1.1 0c0.5-0.1 0.9-0.4 0.9-0.9 0-0.5-0.4-0.8-0.9-0.8q-0.9 0-1.8 0c-0.6 0-0.9 0.3-0.9 0.9q0 2.1 0 4.3c0 0.5 0.3 0.8 0.9 0.9q0.9 0 1.8 0 0.1 0 0.2-0.1c0.4 0 0.7-0.4 0.7-0.7 0-0.4-0.2-0.8-0.6-0.9q-0.2 0-0.5 0-0.4 0-0.8 0 0-0.3 0-0.5 0.2 0 0.5 0c0.2 0 0.5 0 0.7 0 0.5-0.1 0.7-0.5 0.7-0.9-0.1-0.4-0.4-0.7-0.8-0.7q-0.4-0.1-0.8 0-0.2 0-0.4 0c0-0.3 0-0.4 0-0.6z"/>
		<path id="Vector" class="s0" d="m17.7 23.4q-4 1.5-8 0.2c-2.6-0.8-4.6-2.4-6.1-4.6 3.8 0 7.6 0 11.3 0 0.3 1.9 1.4 3.2 2.8 4.4z"/>
		<path id="Vector" class="s0" d="m23.4 5.4q-0.1 0-0.3 0-3.8 0-7.6 0c-0.1 0-0.3-0.1-0.5-0.2-1-0.6-1.7-1.6-2.2-2.8q-0.5-1-0.5-2.2c1.9-0.2 3.8 0 5.6 0.7 2.2 0.9 4.8 3 5.5 4.5z"/>
		<path id="Vector" class="s0" d="m12.6 5.3c-3 0-6 0-9.1 0 1.8-2.5 4.1-4.1 7.1-4.9q0.3 2.8 2 4.9z"/>
		<path id="Vector" class="s0" d="m16.6 19c2.3 0 4.5 0 6.8 0q-0.4 0.5-0.8 1-1.3 1.5-3 2.5c-0.1 0.1-0.2 0.1-0.3 0.1-1.1-0.8-2.1-1.7-2.5-3.1q-0.1-0.2-0.2-0.4 0 0 0-0.1z"/>
	</g>
</svg>