<svg width="25" height="25" viewBox="0 0 25 25" fill="none" xmlns="http://www.w3.org/2000/svg">
<rect width="25" height="25" fill="white"/>
<path d="M23.9947 2C23.9947 7.39063 23.9947 12.7813 23.9947 18.1719C21.0355 18.1719 18.0818 18.1719 15.1226 18.1663C14.9654 18.1663 14.8587 18.2112 14.752 18.3235C14.4263 18.666 14.0838 18.9917 13.7525 19.3286C13.5728 19.5139 13.3931 19.6992 13.1797 19.9238C13.1797 13.9043 13.1797 7.96338 13.1797 2C16.796 2 20.3953 2 23.9947 2ZM14.5274 7.37378C16.7903 7.37378 19.042 7.37378 21.2825 7.37378C21.2825 6.91895 21.2825 6.48657 21.2825 6.0542C19.0196 6.0542 16.7791 6.0542 14.5274 6.0542C14.5274 6.4978 14.5274 6.93018 14.5274 7.37378ZM14.5218 11.4168C16.7903 11.4168 19.0364 11.4168 21.2825 11.4168C21.2825 10.9675 21.2825 10.5295 21.2825 10.1028C19.0196 10.1028 16.7735 10.1028 14.5218 10.1028C14.5218 10.5464 14.5218 10.9731 14.5218 11.4168ZM21.2881 14.1458C19.0252 14.1458 16.7735 14.1458 14.533 14.1458C14.533 14.6006 14.533 15.033 14.533 15.4653C16.796 15.4653 19.0364 15.4653 21.2881 15.4653C21.2881 15.0217 21.2881 14.5894 21.2881 14.1458Z" fill="#E2001A"/>
<path d="M23.9945 22.2146C20.3951 22.2146 16.8014 22.2146 13.1908 22.2146C13.1515 21.9956 13.1515 21.8216 13.3368 21.6475C14.0106 20.9961 14.6676 20.3335 15.3246 19.6653C15.4313 19.553 15.5436 19.5137 15.6952 19.5137C18.4635 19.5193 21.2318 19.5193 24.0001 19.5193C23.9945 20.4178 23.9945 21.3162 23.9945 22.2146Z" fill="#E2001A"/>
<path d="M1 18.1719C1 12.77 1 7.39624 1 2.01123C4.60498 2.01123 8.19873 2.01123 11.8037 2.01123C11.8037 7.96338 11.8037 13.9043 11.8037 19.9238C11.5847 19.6936 11.4106 19.5083 11.231 19.323C10.8997 18.9861 10.5627 18.6604 10.2314 18.3179C10.1248 18.2056 10.0181 18.1606 9.86084 18.1606C7.00269 18.1663 4.14453 18.1663 1.28638 18.1663C1.20215 18.1719 1.1123 18.1719 1 18.1719ZM3.70654 7.40186C3.70654 9.65357 3.70654 11.8884 3.70654 14.1121C5.96948 14.1121 8.22119 14.1121 10.4617 14.1121C10.4617 11.866 10.4617 9.63672 10.4617 7.40186C8.20435 7.40186 5.96387 7.40186 3.70654 7.40186Z" fill="#E2001A"/>
<path d="M1.00586 22.1978C1.00586 21.2994 1.00586 20.4234 1.00586 19.5193C1.09008 19.5193 1.16308 19.5193 1.23046 19.5193C3.92578 19.5193 6.61548 19.5193 9.31079 19.5137C9.45678 19.5137 9.55786 19.553 9.66455 19.6597C10.3046 20.3111 10.9448 20.9624 11.6018 21.5914C11.7815 21.7654 11.8657 21.9395 11.7983 22.1978C8.21582 22.1978 4.61645 22.1978 1.00586 22.1978Z" fill="#E2001A"/>
<path d="M5.05469 8.74951C6.41358 8.74951 7.76123 8.74951 9.11451 8.74951C9.11451 10.0859 9.11451 11.4167 9.11451 12.7644C7.76685 12.7644 6.41919 12.7644 5.05469 12.7644C5.05469 11.4336 5.05469 10.1028 5.05469 8.74951Z" fill="#E2001A"/>
</svg>
