<svg width="25" height="25" viewBox="0 0 25 25" fill="none" xmlns="http://www.w3.org/2000/svg">
<rect width="25" height="25" fill="#E2001A"/>
<path d="M23.9944 2C23.9944 7.60002 23.9944 13.2001 23.9944 18.8001C21.0352 18.8001 18.0815 18.8001 15.1223 18.7942C14.9651 18.7942 14.8584 18.8409 14.7517 18.9576C14.426 19.3134 14.0835 19.6517 13.7522 20.0017C13.5725 20.1942 13.3928 20.3867 13.1794 20.62C13.1794 14.3667 13.1794 8.19501 13.1794 2C16.7957 2 20.395 2 23.9944 2ZM14.5271 7.58251C16.79 7.58251 19.0417 7.58251 21.2822 7.58251C21.2822 7.11002 21.2822 6.66084 21.2822 6.21168C19.0193 6.21168 16.7788 6.21168 14.5271 6.21168C14.5271 6.67251 14.5271 7.12168 14.5271 7.58251ZM14.5215 11.7826C16.79 11.7826 19.0361 11.7826 21.2822 11.7826C21.2822 11.3158 21.2822 10.8608 21.2822 10.4175C19.0193 10.4175 16.7732 10.4175 14.5215 10.4175C14.5215 10.8784 14.5215 11.3216 14.5215 11.7826ZM21.2878 14.6176C19.0249 14.6176 16.7732 14.6176 14.5327 14.6176C14.5327 15.09 14.5327 15.5392 14.5327 15.9883C16.7957 15.9883 19.0361 15.9883 21.2878 15.9883C21.2878 15.5275 21.2878 15.0784 21.2878 14.6176Z" fill="white"/>
<path d="M23.9945 23C20.3951 23 16.8014 23 13.1908 23C13.1515 22.7725 13.1515 22.5917 13.3368 22.4109C14.0106 21.7342 14.6676 21.0458 15.3246 20.3517C15.4313 20.235 15.5436 20.1942 15.6952 20.1942C18.4635 20.2 21.2318 20.2 24.0001 20.2C23.9945 21.1334 23.9945 22.0667 23.9945 23Z" fill="white"/>
<path d="M1 18.8001C1 13.1883 1 7.60584 1 2.01167C4.60498 2.01167 8.19873 2.01167 11.8037 2.01167C11.8037 8.19501 11.8037 14.3667 11.8037 20.62C11.5847 20.3809 11.4106 20.1884 11.231 19.9959C10.8997 19.6459 10.5627 19.3075 10.2314 18.9517C10.1248 18.8351 10.0181 18.7883 9.86084 18.7883C7.00269 18.7942 4.14453 18.7942 1.28638 18.7942C1.20215 18.8001 1.1123 18.8001 1 18.8001ZM3.70654 7.61168C3.70654 9.95086 3.70654 12.2725 3.70654 14.5826C5.96948 14.5826 8.22119 14.5826 10.4617 14.5826C10.4617 12.2492 10.4617 9.93335 10.4617 7.61168C8.20435 7.61168 5.96387 7.61168 3.70654 7.61168Z" fill="white"/>
<path d="M1.00562 22.9825C1.00562 22.0493 1.00562 21.1392 1.00562 20.2C1.08984 20.2 1.16284 20.2 1.23022 20.2C3.92554 20.2 6.61524 20.2 9.31055 20.1942C9.45654 20.1942 9.55762 20.235 9.66431 20.3459C10.3044 21.0226 10.9446 21.6992 11.6016 22.3526C11.7813 22.5334 11.8655 22.7142 11.7981 22.9825C8.21558 22.9825 4.61621 22.9825 1.00562 22.9825Z" fill="white"/>
<path d="M5.0542 9.01168C6.41309 9.01168 7.76074 9.01168 9.11402 9.01168C9.11402 10.4 9.11402 11.7825 9.11402 13.1825C7.76636 13.1825 6.4187 13.1825 5.0542 13.1825C5.0542 11.8 5.0542 10.4175 5.0542 9.01168Z" fill="white"/>
</svg>
