<svg width="23" height="21" viewBox="0 0 23 21" fill="none" xmlns="http://www.w3.org/2000/svg">
<path d="M22.9944 0C22.9944 5.60002 22.9944 11.2001 22.9944 16.8001C20.0352 16.8001 17.0815 16.8001 14.1223 16.7942C13.9651 16.7942 13.8584 16.8409 13.7517 16.9576C13.426 17.3134 13.0835 17.6517 12.7522 18.0017C12.5725 18.1942 12.3928 18.3867 12.1794 18.62C12.1794 12.3667 12.1794 6.19501 12.1794 0C15.7957 0 19.395 0 22.9944 0ZM13.5271 5.58251C15.79 5.58251 18.0417 5.58251 20.2822 5.58251C20.2822 5.11002 20.2822 4.66084 20.2822 4.21168C18.0193 4.21168 15.7788 4.21168 13.5271 4.21168C13.5271 4.67251 13.5271 5.12168 13.5271 5.58251ZM13.5215 9.78257C15.79 9.78257 18.0361 9.78257 20.2822 9.78257C20.2822 9.31582 20.2822 8.86081 20.2822 8.41754C18.0193 8.41754 15.7732 8.41754 13.5215 8.41754C13.5215 8.87837 13.5215 9.32164 13.5215 9.78257ZM20.2878 12.6176C18.0249 12.6176 15.7732 12.6176 13.5327 12.6176C13.5327 13.09 13.5327 13.5392 13.5327 13.9883C15.7957 13.9883 18.0361 13.9883 20.2878 13.9883C20.2878 13.5275 20.2878 13.0784 20.2878 12.6176Z" fill="white"/>
<path d="M22.9945 21C19.3951 21 15.8014 21 12.1908 21C12.1515 20.7725 12.1515 20.5917 12.3368 20.4109C13.0106 19.7342 13.6676 19.0458 14.3246 18.3517C14.4313 18.235 14.5436 18.1942 14.6952 18.1942C17.4635 18.2 20.2318 18.2 23.0001 18.2C22.9945 19.1334 22.9945 20.0667 22.9945 21Z" fill="white"/>
<path d="M0 16.8001C0 11.1883 0 5.60584 0 0.0116662C3.60498 0.0116662 7.19873 0.0116662 10.8037 0.0116662C10.8037 6.19501 10.8037 12.3667 10.8037 18.62C10.5847 18.3809 10.4106 18.1884 10.231 17.9959C9.8997 17.6459 9.5627 17.3075 9.2314 16.9517C9.1248 16.8351 9.0181 16.7883 8.86084 16.7883C6.00269 16.7942 3.14453 16.7942 0.28638 16.7942C0.20215 16.8001 0.1123 16.8001 0 16.8001ZM2.70654 5.61168C2.70654 7.95086 2.70654 10.2725 2.70654 12.5826C4.96948 12.5826 7.22119 12.5826 9.4617 12.5826C9.4617 10.2492 9.4617 7.93335 9.4617 5.61168C7.20435 5.61168 4.96387 5.61168 2.70654 5.61168Z" fill="white"/>
<path d="M0.00562 20.9825C0.00562 20.0493 0.00562 19.1392 0.00562 18.2C0.08984 18.2 0.16284 18.2 0.23022 18.2C2.92554 18.2 5.61524 18.2 8.31055 18.1942C8.45654 18.1942 8.55762 18.235 8.66431 18.3459C9.3044 19.0226 9.9446 19.6992 10.6016 20.3526C10.7813 20.5334 10.8655 20.7142 10.7981 20.9825C7.21558 20.9825 3.61621 20.9825 0.00562 20.9825Z" fill="white"/>
<path d="M4.0542 7.01168C5.41309 7.01168 6.76074 7.01168 8.11402 7.01168C8.11402 8.39998 8.11402 9.78247 8.11402 11.1825C6.76636 11.1825 5.4187 11.1825 4.0542 11.1825C4.0542 9.80003 4.0542 8.41754 4.0542 7.01168Z" fill="white"/>
</svg>
