<svg version="1.2" xmlns="http://www.w3.org/2000/svg" viewBox="0 0 106 103" width="106" height="103">
	<title>Frame</title>
	<style>
		.s0 { fill: #000000 } 
	</style>
	<g id="Frame">
		<g id="Group">
			<path id="Vector" fill-rule="evenodd" class="s0" d="m71 2.1c2.4 4.2 4.1 8.6 4.9 13.2 0.4 2.1 0.5 4.3 0.5 6.4-0.1 7.1-2.8 13.3-8.1 18.5-3.6 3.6-8.1 5.7-13.4 6.4-1.1 0.2-2.5 0.2-3.8 0.2-0.9 0-1.7 0-2.4 0q-0.9 2-1.2 4c-0.2 1.4-0.9 2.3-2.3 2.7-0.5 0.2-1.3 0.4-1.8 0.8l-1.4 0.7-1.1-0.7h-0.2l-1.3-0.6 0.2-1.5c0.5-2.5 0.9-4.6 1.7-6.5-0.8-0.4-1.2-1.1-1.3-1.3-1.6-2.7-2.5-5.5-3.1-8.8-0.5-3.6-0.2-7.2 1-10.6 1.3-3.6 3.4-6.9 6.6-9.7 3-2.7 6.4-4.8 11-6.9 0.9-0.4 1.8-0.7 2.6-1.1 0.8-0.4 1.5-0.6 2.3-1 2.1-0.9 4.1-2.3 6.4-4.3 0.4-0.4 1.1-1 2.1-1 1.5 0 2.3 1.1 2.1 1.1zm-2.5 1.8c-2.1 1.9-4.3 3.6-7 4.7-1.7 0.6-3.4 1.1-4.9 1.9-3.6 1.7-7.2 3.6-10.2 6.5-2.7 2.4-4.9 5.3-6.1 8.7-1.1 3.1-1.5 6.3-0.9 9.5 0.4 2.7 1.3 5.4 2.6 7.8 0.2 0.2 0.2 0.4 0.4 0.4 0.2 0 0.2-0.2 0.4-0.4 1.1-1.9 2.4-3.4 4.1-4.7 3.1-2.3 5.9-4.8 8.4-7.6 3.4-3.8 6.2-8 8.3-12.6 0.2-0.2 0.2-0.6 0.4-0.7-1 2.6-2.1 5.1-3.4 7.6-3.3 5.7-7.4 10.6-12.7 14.4-1.1 0.6-1.9 1.5-2.5 2.5-1.9 3-3 6.7-3.6 10.3 0.2 0.2 0.2 0.2 0.2 0.2 0.8-0.4 1.7-0.8 2.5-1 0.6-0.2 0.7-0.4 0.7-0.8 0.4-2 1.2-4 2.1-5.7 0.2-0.2 0.4-0.3 0.6-0.3 0.2 0 0.2 0 0.2 0 0.9 0.1 2.1 0.1 3.2 0.1 1.1 0 2.3 0 3.4-0.1 4.7-0.6 8.7-2.5 12.1-5.7 4.7-4.6 7.2-10.1 7.4-16.8 0.2-2.1 0-4-0.4-6.1-0.8-4.3-2.3-8.3-4.5-12.1-0.2-0.2-0.2-0.4-0.4-0.4 0 0-0.2 0-0.4 0.4z"/>
			<path id="Vector" fill-rule="evenodd" class="s0" d="m105.2 23.8v35.8c-0.8 5.3-3.2 9.7-6.1 14.2-1.3 2.1-2.4 4.4-3.7 6.5-1 1.7-1.9 3.4-2.9 5-0.2 0.3-0.5 0.9-0.2 1.7 0.4 0.7 1.2 0.7 1.5 0.7 1.7 0 1.9 0.2 1.9 1.9 0 2.9 0 7.6 0 10.5 0 1.3-0.2 1.5-1.5 1.5-11.3 0-22.5 0-33.8 0-1.5 0-1.7-0.2-1.7-1.5 0-3.6 0-7 0-10.7 0-1.3 0.2-1.5 1.5-1.5 0.9 0 2.1-0.4 2.1-2.1q0-1.7 0-3.4c-0.2-2.1-0.2-4.4 0-6.5 0.2-6 2.4-11.6 6.6-15.9 2.8-3.1 5.7-5.9 8.9-9 1.5-1.3 3.2-2.1 5.1-2.1q0.3 0 0.5 0c2.1 0 4 1.2 5.3 2.9 0.2 0.2 0.8 0.9 1.6 0.7 0.7 0 0.9-0.7 1.1-1.1 0.9-2.7 1.5-4.9 1.5-7.2 0-3.3 0-6.5 0-9.5 0-2.9 0-5.9 0-9 0-2.1 0.9-4 2.5-5.1 1.5-1.2 3.4-1.5 5.3-1 1.7 0.6 3 1.8 3.9 3.7 0.2 0.1 0.2 0.3 0.6 0.5zm-14.4 66.4q-5.1 0-10.2 0c-1.1 0-6 0-7.2 0-3.4 0-7 0-10.4 0-0.5 0-1.1 0-1.7 0.6-0.5 0.5-0.5 1.5-0.5 1.7 0 1.7 0 3.4 0 4.9 0 0.4 0.1 1 0.5 1.6 0.4 0.5 1.2 0.5 1.5 0.5q13.9 0 28.4 0c0.4 0 0.9 0 1.5-0.5 0.6-0.4 0.6-1.2 0.6-1.6 0-1.7 0-3.4 0-4.9 0-0.6 0-1.2-0.6-1.7-0.4-0.4-1.1-0.6-1.9-0.6zm12.1-63.9c0-2.5-1.3-4-3.2-4.2-1.1-0.2-2.3 0-3 0.8-1 0.7-1.3 1.7-1.3 3q0 3.2 0 6.3c0 3.6 0 7.4 0 11.2-0.2 6.3-2.1 11.8-6.1 16.6-1.3 1.7-2.8 3.2-4.2 4.9l-1.8 2.3q-1.7 2-3.4 4c-0.6 0.6-1.2 0.6-1.8 0.2-0.5-0.4-0.5-1.2-0.1-1.7 0.1-0.2 0.3-0.6 0.5-0.8l0.4-0.2c0.8-0.9 1.7-1.9 2.5-2.8 1.7-2.1 3.6-4.4 5.3-6.5 1.7-1.9 1.5-5-0.4-6.7-1.7-1.9-4.7-1.9-6.6 0q-0.9 0.9-1.7 1.7c-2.5 2.3-5 4.6-7.2 7.1-3.4 3.6-5.3 8.2-5.9 13.3-0.2 2.1-0.2 4.4-0.2 6.5 0 1.5 0 2.8 0 4.3 0 0.6 0 1.2 0.6 1.8 0.4 0.5 1.1 0.5 1.7 0.5 7 0 13.4 0 19.5 0 1.3 0 2-0.5 2.8-1.7l1-1.7c2.8-5.1 5.8-10.3 8.8-15.4 2.5-4.2 3.6-8.6 3.6-13.5 0-3.2 0-6.7 0-9.9 0-1.1 0-9.1 0-10.3 0-0.7 0-1.7 0-2.6 0-2.3 0-4.6 0.2-6.5z"/>
			<path id="Vector" fill-rule="evenodd" class="s0" d="m47.3 89.6c0 3.5 0 6.9 0 11.3 0 0.9-0.4 1.3-1.5 1.3-4 0-17.8 0-21.7 0-4.2 0-8.2 0-12.1 0-1.5 0-1.7-0.2-1.7-1.7 0-3.6 0-7.1 0-10.7 0-1.5 0.3-1.7 1.7-1.7 0.9 0 1.5 0 1.9-0.6 0.3-0.5 0-1.1-0.4-1.9q-1.4-2.5-2.9-5.1c-2.2-3.8-4.5-7.6-6.6-11.4-2.1-3.6-3-7.6-3-11.8 0-5.1 0-10.1 0-15.2 0-5.3 0-10.9 0-16.4 0-3.6 2.6-6.3 6.1-6.1 3.4 0 6 2.7 6 6.1 0 3.5 0 7.1 0 10.5q0 4 0 8c0 2.3 0.6 4.7 1.5 7.4 0.2 0.4 0.4 1.1 1.1 1.3 0.8 0.2 1.4-0.5 1.6-0.7 1.5-1.9 3.4-2.9 5.4-3.1 2.1-0.2 4.2 0.8 5.7 2.3 1 0.8 1.9 1.7 2.9 2.7 2.6 2.2 5.1 4.7 7.3 7.6 3.2 4 4.9 8.7 5.3 14.1 0.2 2.2 0.2 4.5 0.2 6.8 0 0.9 0 2.1 0 3 0 0.8 0 1.4 0.6 1.9 0.5 0.6 1.1 0.6 1.7 0.6 0.4 0 0.7 0 0.9 0.2 0.2 0.2 0.2 0.8 0 1.3zm-30.6-3.2c0.6 1 1.1 1.3 2.3 1.3 6.8 0 13.6 0 20 0 0.4 0 1.1 0 1.5-0.5 0.6-0.4 0.6-1.2 0.6-1.6 0-1.5 0-3.2 0-4.7 0-1.2 0-2.5 0-3.6 0-6.7-2.3-12.2-6.8-16.8-2.5-2.6-4.9-4.9-7-7-0.2-0.2-0.2-0.2-0.4-0.4-0.8-0.7-1.7-1.7-3-1.9-2.1-0.4-4.2 0.4-5.1 2.1-1 1.9-0.8 4.2 0.5 5.9 1.4 1.5 2.5 3 3.8 4.6 1.5 1.7 3 3.6 4.6 5.3 0.3 0.4 0.9 1.3 0.2 2.1-0.8 0.6-1.6-0.2-1.9-0.6-1-0.9-1.9-2.1-2.9-3.2-2.2-2.7-4.5-5.3-6.6-8-3.2-4-5.3-8.8-5.7-14.1-0.2-2.3-0.2-4.7-0.2-7 0-1.2 0-2.1 0-3.3 0-1.5 0-3.2 0-4.7q0-2.6 0-5.1c0-1.8-1.3-3.3-3-3.5-2.1-0.2-3.6 0.8-4.1 2.7-0.2 0.8-0.2 1.5-0.2 2.1 0 3.8 0 11 0 14.8q0 2.3 0 4.6c0 3.4 0 7 0 10.4 0 4.4 1.1 8.6 3.2 12.2 3.8 6.5 7.5 12.8 10.2 17.9zm28 4.4c-0.6-0.6-1.2-0.6-1.7-0.6q-5.1 0-10.2 0c-1.2 0-6.1 0-7.2 0q-5.4 0-10.8 0c-0.4 0-1.1 0-1.5 0.6-0.6 0.5-0.6 1.3-0.6 1.5 0 1.9 0 3.8 0 5.3 0 0.4 0.2 1.2 0.6 1.5 0.4 0.6 1.1 0.6 1.3 0.6 9.5 0 19.1 0 28.6 0 0.3 0 0.9 0 1.5-0.6 0.5-0.3 0.5-1.1 0.5-1.5q0-2.5 0-5.1c0-0.6 0-1.2-0.5-1.7z"/>
		</g>
	</g>
</svg>