<svg version="1.2" xmlns="http://www.w3.org/2000/svg" viewBox="0 0 86 115" width="86" height="115">
	<title>Frame</title>
	<style>
		.s0 { fill: #000000 } 
		.s1 { fill: none;stroke: #000000;stroke-width: .2 } 
	</style>
	<g id="Frame">
		<g id="Group">
			<path id="Vector" class="s0" d="m84.6 52.9c0.6 1.4 0.4 2.5-0.3 3.5-0.4 0.6-1.1 1.1-1.8 1.1-0.4 0-0.6 0-1.1 0q-1.3 0-2.7 0c-1.1-0.2-1.8 0.2-2.5 1.1-1.8 2.6-3.8 4.8-5.8 6.9-1.3 1.4-3.1 1.8-4.9 2.1h-0.5c-0.4 0-0.9 0.2-1.3 0.2-0.3 0-0.7 0.2-1.2 0.2-0.6 0.3-0.9 0.5-0.9 0.7 0 0.2 0 0.7 0.5 1.2q0.7 1 1.3 1.3c1.2 0.9 1.8 1.9 1.8 3 0.3 3 1.6 5.5 4.5 7.8 1.4 1.1 2.7 2.5 4.1 3.9 0.2 0.2 0.6 0.7 1.1 1.1 0.7 0.9 1.1 1.8 1.1 2.8q0 1.3-1.3 2.7c-2.1 1.8-4.1 3.7-5.9 5.3-0.6 0.4-1.1 1.1-0.6 2.2 0.2 1 0.4 2.1 0.6 3.2 0 0.3 0.3 0.7 0.3 1 0.4 1.3 0 2.5-0.9 3.4-0.9 0.7-2.3 1.1-3.4 0.7-0.9-0.2-1.8-0.7-2.5-0.9-1.1-0.5-1.8-0.5-2.9 0-0.9 0.4-1.6 0.9-2.5 1.1-0.9 0.2-1.8 0.7-2.7 1.2-1.1 0.6-2.4 0.9-3.8 0.4-0.2-0.2-0.4-0.2-0.7-0.2-0.4 0-0.6-0.2-0.9-0.2-0.6-0.3-1.3-0.5-2-0.3-0.9 0.3-1.1 0.9-1.3 1.6 0 0.3 0 0.5-0.3 0.7-0.2 0.5-0.4 0.7-0.9 0.9-0.2 0.3-0.2 0.3-0.4 0.5h-1.3l-2.5-1.2c-2.9-1.6-5.6-2.9-8.6-4.5-0.4-0.3-0.9-0.5-1.5-0.5h-0.5c-0.6 0-1.3 0-1.8 0-0.4 0-1.1-0.2-1.1-1.1 0-0.7 0.5-1.2 1.1-1.2h0.3c1.5 0 3.3 0 4.9 0.9 1.8 1 3.6 1.9 5.2 2.8 1.1 0.4 2.4 1.1 3.6 1.8 0.2 0.2 0.6 0.5 1.1 0.2 0.4-0.2 0.4-0.6 0.6-0.9q0.4-0.7 0.7-1.3c0.5-1 1.4-1.4 2.5-1.2h0.2c0 0.2 0.2 0.2 0.5 0.2 3.1 1.2 6 1 9-0.9 0.2 0 0.2 0 0.2 0 0.6-0.2 1.3-0.4 1.8-0.7 2.2-0.9 2.2-0.9 4.2-0.2q0.7 0.4 2.1 0.7h0.2c0.4 0 1.1 0.2 1.6-0.2 0.4-0.5 0.4-1 0.2-1.4v-0.2c-0.5-1.4-0.7-3-1.1-4.6-0.3-1.2 0-2.1 0.9-3 0.9-0.9 2-1.8 2.9-2.7 1.1-0.9 2.2-2.1 3.3-3 0.3-0.2 0.7-0.7 0.7-1.1 0-0.5-0.4-1-0.7-1.2-0.4-0.7-1.1-1.1-1.5-1.6-1.8-1.6-3.6-3.4-5.4-5q-2.7-2.1-2.7-4.8c0-1.6-0.7-2.1-2.3-2.1-1.8 0-3.3 0-5.1 0-0.7 0-1.1 0-1.8 0-0.5 0-1.6 0-1.6-1.1 0-0.5 0.2-0.7 0.5-0.9 0.2-0.3 0.6-0.5 1.1-0.5 1.1 0 2.5 0 3.6 0h2 0.2 0.2v-0.2c0-0.5-0.2-0.7-0.4-0.9-0.2-0.3-0.2-0.3-0.2-0.3-0.7-0.9-0.7-2-0.3-3.2 0.5-0.9 1.4-1.6 2.5-1.8 0.7-0.2 1.6-0.2 2.5-0.5 0.9 0 1.6-0.2 2.2-0.2 0.7 0 1.4-0.5 2.1-0.9 2-1.6 3.8-3.7 5.6-6.6 1.1-1.6 2.4-2.6 4.5-2.3 0.4 0 1.1 0 1.5 0 0.5 0 0.7 0 1.2 0 0.2 0 0.6-0.3 0.9-0.5 0.2-0.4 0.2-0.9 0-1.1q-0.4-1.1-0.7-2.1-0.7-1.7-1.4-3.4c-0.6-1.6-0.9-3.5-0.6-5.7 0.2-0.3 0.2-0.5 0.2-0.7 0.2-0.9 0.2-1.9-0.2-2.5-0.5-0.7-1.4-0.5-2.3-0.5-0.4 0-0.7 0-0.9 0q-18.2 0-36.4 0h-8.7-0.3q-0.3 0-0.6 0c-0.7 0-1.1-0.5-1.1-1.1 0-0.7 0.4-1.2 1.1-1.2q0.3 0 0.6 0h49l-0.7-0.7c-0.4-0.4-0.9-0.7-1.1-1.1q-1-1-2-2.1c-0.7-0.7-0.9-1.3-0.9-2.3q0-2.4 0-4.8c0-1.6 0-2.9 0-4.5 0-1-0.2-1.6-0.9-2.1-0.5-0.5-0.9-0.9-1.6-1.6-0.4-0.5-0.4-1.1 0-1.6 0.5-0.5 1.1-0.5 1.8 0 0.7 0.7 1.6 1.4 2.3 2.1l0.2 0.2q0.7 0.7 0.7 2c0 1.4 0 2.6 0 3.9q0 2.8 0 5.5c0 0.9 0.2 1.4 0.9 1.9 0.6 0.6 1.1 1.1 1.5 1.6 0.5 0.4 0.7 0.6 1.2 1.1 0.9 0.9 1.1 1.8 1.1 3.2 0 1.1-0.2 2.5-0.2 3.7 0 1.1-0.3 2.2-0.3 3.4-0.2 0.7 0 1.4 0.3 2q1 2.8 2 5.5z"/>
			<path id="Vector" class="s1" d="m84.6 52.9c0.6 1.4 0.4 2.5-0.3 3.5-0.4 0.6-1.1 1.1-1.8 1.1-0.4 0-0.6 0-1.1 0q-1.3 0-2.7 0c-1.1-0.2-1.8 0.2-2.5 1.1-1.8 2.6-3.8 4.8-5.8 6.9-1.3 1.4-3.1 1.8-4.9 2.1h-0.5c-0.4 0-0.9 0.2-1.3 0.2-0.3 0-0.7 0.2-1.2 0.2-0.6 0.3-0.9 0.5-0.9 0.7 0 0.2 0 0.7 0.5 1.2q0.7 1 1.3 1.3c1.2 0.9 1.8 1.9 1.8 3 0.3 3 1.6 5.5 4.5 7.8 1.4 1.1 2.7 2.5 4.1 3.9 0.2 0.2 0.6 0.7 1.1 1.1 0.7 0.9 1.1 1.8 1.1 2.8q0 1.3-1.3 2.7c-2.1 1.8-4.1 3.7-5.9 5.3-0.6 0.4-1.1 1.1-0.6 2.2 0.2 1 0.4 2.1 0.6 3.2 0 0.3 0.3 0.7 0.3 1 0.4 1.3 0 2.5-0.9 3.4-0.9 0.7-2.3 1.1-3.4 0.7-0.9-0.2-1.8-0.7-2.5-0.9-1.1-0.5-1.8-0.5-2.9 0-0.9 0.4-1.6 0.9-2.5 1.1-0.9 0.2-1.8 0.7-2.7 1.2-1.1 0.6-2.4 0.9-3.8 0.4-0.2-0.2-0.4-0.2-0.7-0.2-0.4 0-0.6-0.2-0.9-0.2-0.6-0.3-1.3-0.5-2-0.3-0.9 0.3-1.1 0.9-1.3 1.6 0 0.3 0 0.5-0.3 0.7-0.2 0.5-0.4 0.7-0.9 0.9-0.2 0.3-0.2 0.3-0.4 0.5h-1.3l-2.5-1.2c-2.9-1.6-5.6-2.9-8.6-4.5-0.4-0.3-0.9-0.5-1.5-0.5h-0.5c-0.6 0-1.3 0-1.8 0-0.4 0-1.1-0.2-1.1-1.1 0-0.7 0.5-1.2 1.1-1.2h0.3c1.5 0 3.3 0 4.9 0.9 1.8 1 3.6 1.9 5.2 2.8 1.1 0.4 2.4 1.1 3.6 1.8 0.2 0.2 0.6 0.5 1.1 0.2 0.4-0.2 0.4-0.6 0.6-0.9q0.4-0.7 0.7-1.3c0.5-1 1.4-1.4 2.5-1.2h0.2c0 0.2 0.2 0.2 0.5 0.2 3.1 1.2 6 1 9-0.9 0.2 0 0.2 0 0.2 0 0.6-0.2 1.3-0.4 1.8-0.7 2.2-0.9 2.2-0.9 4.2-0.2q0.7 0.4 2.1 0.7h0.2c0.4 0 1.1 0.2 1.6-0.2 0.4-0.5 0.4-1 0.2-1.4v-0.2c-0.5-1.4-0.7-3-1.1-4.6-0.3-1.2 0-2.1 0.9-3 0.9-0.9 2-1.8 2.9-2.7 1.1-0.9 2.2-2.1 3.3-3 0.3-0.2 0.7-0.7 0.7-1.1 0-0.5-0.4-1-0.7-1.2-0.4-0.7-1.1-1.1-1.5-1.6-1.8-1.6-3.6-3.4-5.4-5q-2.7-2.1-2.7-4.8c0-1.6-0.7-2.1-2.3-2.1-1.8 0-3.3 0-5.1 0-0.7 0-1.1 0-1.8 0-0.5 0-1.6 0-1.6-1.1 0-0.5 0.2-0.7 0.5-0.9 0.2-0.3 0.6-0.5 1.1-0.5 1.1 0 2.5 0 3.6 0h2 0.2 0.2v-0.2c0-0.5-0.2-0.7-0.4-0.9-0.2-0.3-0.2-0.3-0.2-0.3-0.7-0.9-0.7-2-0.3-3.2 0.5-0.9 1.4-1.6 2.5-1.8 0.7-0.2 1.6-0.2 2.5-0.5 0.9 0 1.6-0.2 2.2-0.2 0.7 0 1.4-0.5 2.1-0.9 2-1.6 3.8-3.7 5.6-6.6 1.1-1.6 2.4-2.6 4.5-2.3 0.4 0 1.1 0 1.5 0 0.5 0 0.7 0 1.2 0 0.2 0 0.6-0.3 0.9-0.5 0.2-0.4 0.2-0.9 0-1.1q-0.4-1.1-0.7-2.1-0.7-1.7-1.4-3.4c-0.6-1.6-0.9-3.5-0.6-5.7 0.2-0.3 0.2-0.5 0.2-0.7 0.2-0.9 0.2-1.9-0.2-2.5-0.5-0.7-1.4-0.5-2.3-0.5-0.4 0-0.7 0-0.9 0q-18.2 0-36.4 0h-8.7-0.3q-0.3 0-0.6 0c-0.7 0-1.1-0.5-1.1-1.1 0-0.7 0.4-1.2 1.1-1.2q0.3 0 0.6 0h49l-0.7-0.7c-0.4-0.4-0.9-0.7-1.1-1.1q-1-1-2-2.1c-0.7-0.7-0.9-1.3-0.9-2.3q0-2.4 0-4.8c0-1.6 0-2.9 0-4.5 0-1-0.2-1.6-0.9-2.1-0.5-0.5-0.9-0.9-1.6-1.6-0.4-0.5-0.4-1.1 0-1.6 0.5-0.5 1.1-0.5 1.8 0 0.7 0.7 1.6 1.4 2.3 2.1l0.2 0.2q0.7 0.7 0.7 2c0 1.4 0 2.6 0 3.9q0 2.8 0 5.5c0 0.9 0.2 1.4 0.9 1.9 0.6 0.6 1.1 1.1 1.5 1.6 0.5 0.4 0.7 0.6 1.2 1.1 0.9 0.9 1.1 1.8 1.1 3.2 0 1.1-0.2 2.5-0.2 3.7 0 1.1-0.3 2.2-0.3 3.4-0.2 0.7 0 1.4 0.3 2q1 2.8 2 5.5z"/>
			<path id="Vector" class="s0" d="m84.1 57c-0.4 0.7-1.1 1.2-1.8 1.2-0.4 0-0.7 0-1.1 0q-1.4 0-2.7 0c-1.1 0-1.8 0.4-2.5 1.1-1.8 2.5-3.6 4.8-5.8 6.9-1.6 1.4-3.2 1.6-5 2.1h-0.4c-0.5 0-0.9 0.2-1.4 0.2-0.4 0-0.9 0.2-1.1 0.2-0.7 0-0.9 0.5-0.9 0.7 0 0.2 0 0.7 0.5 1.1q0.6 0.7 1.3 1.4c1.1 0.9 1.8 1.8 1.8 3 0 3.2 1.6 5.5 4.5 7.8 1.4 1.1 2.7 2.5 4 3.9 0.5 0.4 0.9 0.9 1.2 1.1 0.9 0.9 1.3 1.8 1.1 2.7q0 1.4-1.4 2.8c-2 1.8-3.8 3.6-5.8 5.2-0.7 0.7-1.1 1.2-0.7 2.3 0.3 1.2 0.5 2.1 0.7 3.2 0 0.3 0.2 0.7 0.2 1 0.3 1.3 0 2.5-0.9 3.4-0.9 0.9-2.2 1.1-3.3 0.7-0.9-0.3-1.6-0.5-2.5-0.9-0.9-0.5-1.8-0.5-2.9 0-0.9 0.4-1.6 0.6-2.5 1.1-0.9 0.5-1.8 0.7-2.7 1.1-1.3 0.7-2.7 0.7-3.8 0.5-0.2 0-0.5-0.2-0.7-0.2-0.2 0-0.4-0.3-0.9-0.3-0.7-0.2-1.3-0.4-2-0.2-0.9 0.2-1.1 0.9-1.4 1.6 0 0.2-0.2 0.5-0.2 0.7-0.2 0.5-0.4 0.7-0.9 0.9-0.2 0-0.2 0.2-0.4 0.5h-1.4l-2.4-1.2c-3-1.6-5.7-2.9-8.6-4.5-0.4-0.3-1.1-0.5-1.6-0.5h-0.4c-0.7 0-1.1 0-1.8 0-0.4 0-1.1-0.2-1.1-1.1 0-0.7 0.4-1.2 1.1-1.2h0.2c1.8 0 3.4 0 5 0.9 1.5 0.9 3.3 1.9 5.1 2.8 1.2 0.7 2.5 1.1 3.6 1.8 0.5 0.2 0.7 0.5 1.2 0.2 0.4-0.2 0.6-0.4 0.6-0.9q0.4-0.7 0.7-1.4c0.4-0.9 1.3-1.3 2.5-1.1h0.2c0.2 0 0.4 0 0.4 0.2 3.2 1.2 6.1 0.9 9-0.9 0 0 0 0 0.3 0 0.6-0.2 1.3-0.7 1.7-0.7 2.3-0.9 2.3-0.9 4.3-0.2q0.7 0.3 2 0.7h0.3c0.4 0.2 0.9 0.4 1.5-0.2 0.5-0.5 0.3-1.2 0.3-1.4v-0.2c-0.3-1.4-0.7-3-1.2-4.6-0.2-1.2 0-2.1 0.9-3 0.9-0.9 2.1-1.8 3-2.7 1.1-1 2.2-2.1 3.3-3 0.2-0.2 0.7-0.7 0.7-1.2 0-0.4-0.5-0.9-0.7-1.1-0.4-0.5-1.1-0.9-1.5-1.6-1.8-1.6-3.6-3.4-5.4-5-1.8-1.4-2.5-3-2.7-4.8 0-1.4-0.7-2.1-2.3-2.1-1.8 0-3.4 0-5.1 0-0.7 0-1.2 0-1.8 0-0.5 0-1.6-0.2-1.6-1.1 0-0.5 0.2-0.7 0.4-1 0.3-0.2 0.7-0.2 1.2-0.4 1.1 0 2.4 0 3.5 0h2.1 0.2 0.2v-0.2c0-0.5-0.2-1-0.4-1l-0.3-0.2c-0.6-0.9-0.6-2.3-0.2-3.2 0.5-1.1 1.4-1.8 2.5-1.8 0.9-0.3 1.8-0.3 2.5-0.5 0.6 0 1.3-0.2 2.2-0.2 0.7 0 1.4-0.5 2-0.9 2.1-1.6 3.8-3.9 5.6-6.7 1.2-1.6 2.5-2.5 4.5-2.2 0.5 0 1.2 0 1.6 0 0.5 0 0.7 0 1.1 0 0.3 0 0.7 0 0.9-0.5 0.3-0.2 0-0.7 0-1.1q-0.3-1.1-0.6-2.1-0.7-1.7-1.4-3.4c-0.7-1.6-0.9-3.5-0.7-5.8 0-0.2 0-0.4 0.3-0.6 0.2-1 0.2-1.9-0.3-2.6-0.4-0.6-1.3-0.4-2.2-0.4-0.2 0-0.7 0-0.9 0q-18.2 0-36.4 0h-8.8-0.2q-0.3 0-0.7 0c-0.6 0-1.1-0.7-1.1-1.2 0-0.6 0.5-1.1 1.1-1.1q0.4 0 0.7 0h49l-0.7-0.7c-0.4-0.4-0.7-0.7-1.1-1.1q-1-1.1-2-2.1c-0.7-0.7-0.9-1.4-0.9-2.3q0-2.4 0-4.8c0-1.6 0-3 0-4.6 0-0.9-0.3-1.3-0.9-2-0.5-0.5-0.9-0.9-1.6-1.6-0.5-0.5-0.5-1.2 0-1.6 0.4-0.5 1.1-0.5 1.8 0 0.7 0.7 1.6 1.4 2.2 2l0.3 0.3c0.6-0.3 0.9 0.4 0.9 1.3 0 1.4 0 2.6 0 3.9q0 2.8 0 5.5c0 0.9 0.2 1.6 0.9 2.1 0.4 0.4 0.9 0.9 1.5 1.6 0.5 0.4 0.7 0.7 1.2 1.1 0.9 0.9 1.3 2.1 1.1 3.2 0 1.2-0.2 2.5-0.2 3.7 0 1.1-0.3 2.3-0.3 3.4 0 0.7 0 1.4 0.3 2.1q1 2.7 2 5.5l0.4 1.3c0.7 1.2 0.5 2.1-0.2 3.2z"/>
			<path id="Vector" class="s1" d="m84.1 57c-0.4 0.7-1.1 1.2-1.8 1.2-0.4 0-0.7 0-1.1 0q-1.4 0-2.7 0c-1.1 0-1.8 0.4-2.5 1.1-1.8 2.5-3.6 4.8-5.8 6.9-1.6 1.4-3.2 1.6-5 2.1h-0.4c-0.5 0-0.9 0.2-1.4 0.2-0.4 0-0.9 0.2-1.1 0.2-0.7 0-0.9 0.5-0.9 0.7 0 0.2 0 0.7 0.5 1.1q0.6 0.7 1.3 1.4c1.1 0.9 1.8 1.8 1.8 3 0 3.2 1.6 5.5 4.5 7.8 1.4 1.1 2.7 2.5 4 3.9 0.5 0.4 0.9 0.9 1.2 1.1 0.9 0.9 1.3 1.8 1.1 2.7q0 1.4-1.4 2.8c-2 1.8-3.8 3.6-5.8 5.2-0.7 0.7-1.1 1.2-0.7 2.3 0.3 1.2 0.5 2.1 0.7 3.2 0 0.3 0.2 0.7 0.2 1 0.3 1.3 0 2.5-0.9 3.4-0.9 0.9-2.2 1.1-3.3 0.7-0.9-0.3-1.6-0.5-2.5-0.9-0.9-0.5-1.8-0.5-2.9 0-0.9 0.4-1.6 0.6-2.5 1.1-0.9 0.5-1.8 0.7-2.7 1.1-1.3 0.7-2.7 0.7-3.8 0.5-0.2 0-0.5-0.2-0.7-0.2-0.2 0-0.4-0.3-0.9-0.3-0.7-0.2-1.3-0.4-2-0.2-0.9 0.2-1.1 0.9-1.4 1.6 0 0.2-0.2 0.5-0.2 0.7-0.2 0.5-0.4 0.7-0.9 0.9-0.2 0-0.2 0.2-0.4 0.5h-1.4l-2.4-1.2c-3-1.6-5.7-2.9-8.6-4.5-0.4-0.3-1.1-0.5-1.6-0.5h-0.4c-0.7 0-1.1 0-1.8 0-0.4 0-1.1-0.2-1.1-1.1 0-0.7 0.4-1.2 1.1-1.2h0.2c1.8 0 3.4 0 5 0.9 1.5 0.9 3.3 1.9 5.1 2.8 1.2 0.7 2.5 1.1 3.6 1.8 0.5 0.2 0.7 0.5 1.2 0.2 0.4-0.2 0.6-0.4 0.6-0.9q0.4-0.7 0.7-1.4c0.4-0.9 1.3-1.3 2.5-1.1h0.2c0.2 0 0.4 0 0.4 0.2 3.2 1.2 6.1 0.9 9-0.9 0 0 0 0 0.3 0 0.6-0.2 1.3-0.7 1.7-0.7 2.3-0.9 2.3-0.9 4.3-0.2q0.7 0.3 2 0.7h0.3c0.4 0.2 0.9 0.4 1.5-0.2 0.5-0.5 0.3-1.2 0.3-1.4v-0.2c-0.3-1.4-0.7-3-1.2-4.6-0.2-1.2 0-2.1 0.9-3 0.9-0.9 2.1-1.8 3-2.7 1.1-1 2.2-2.1 3.3-3 0.2-0.2 0.7-0.7 0.7-1.2 0-0.4-0.5-0.9-0.7-1.1-0.4-0.5-1.1-0.9-1.5-1.6-1.8-1.6-3.6-3.4-5.4-5-1.8-1.4-2.5-3-2.7-4.8 0-1.4-0.7-2.1-2.3-2.1-1.8 0-3.4 0-5.1 0-0.7 0-1.2 0-1.8 0-0.5 0-1.6-0.2-1.6-1.1 0-0.5 0.2-0.7 0.4-1 0.3-0.2 0.7-0.2 1.2-0.4 1.1 0 2.4 0 3.5 0h2.1 0.2 0.2v-0.2c0-0.5-0.2-1-0.4-1l-0.3-0.2c-0.6-0.9-0.6-2.3-0.2-3.2 0.5-1.1 1.4-1.8 2.5-1.8 0.9-0.3 1.8-0.3 2.5-0.5 0.6 0 1.3-0.2 2.2-0.2 0.7 0 1.4-0.5 2-0.9 2.1-1.6 3.8-3.9 5.6-6.7 1.2-1.6 2.5-2.5 4.5-2.2 0.5 0 1.2 0 1.6 0 0.5 0 0.7 0 1.1 0 0.3 0 0.7 0 0.9-0.5 0.3-0.2 0-0.7 0-1.1q-0.3-1.1-0.6-2.1-0.7-1.7-1.4-3.4c-0.7-1.6-0.9-3.5-0.7-5.8 0-0.2 0-0.4 0.3-0.6 0.2-1 0.2-1.9-0.3-2.6-0.4-0.6-1.3-0.4-2.2-0.4-0.2 0-0.7 0-0.9 0q-18.2 0-36.4 0h-8.8-0.2q-0.3 0-0.7 0c-0.6 0-1.1-0.7-1.1-1.2 0-0.6 0.5-1.1 1.1-1.1q0.4 0 0.7 0h49l-0.7-0.7c-0.4-0.4-0.7-0.7-1.1-1.1q-1-1.1-2-2.1c-0.7-0.7-0.9-1.4-0.9-2.3q0-2.4 0-4.8c0-1.6 0-3 0-4.6 0-0.9-0.3-1.3-0.9-2-0.5-0.5-0.9-0.9-1.6-1.6-0.5-0.5-0.5-1.2 0-1.6 0.4-0.5 1.1-0.5 1.8 0 0.7 0.7 1.6 1.4 2.2 2l0.3 0.3c0.6-0.3 0.9 0.4 0.9 1.3 0 1.4 0 2.6 0 3.9q0 2.8 0 5.5c0 0.9 0.2 1.6 0.9 2.1 0.4 0.4 0.9 0.9 1.5 1.6 0.5 0.4 0.7 0.7 1.2 1.1 0.9 0.9 1.3 2.1 1.1 3.2 0 1.2-0.2 2.5-0.2 3.7 0 1.1-0.3 2.3-0.3 3.4 0 0.7 0 1.4 0.3 2.1q1 2.7 2 5.5l0.4 1.3c0.7 1.2 0.5 2.1-0.2 3.2z"/>
			<path id="Vector" class="s0" d="m21.9 87.5c0.4 1.1 0.2 2.3-0.5 3.6-0.4 0.7-0.9 1.6-1.3 2.5-0.9 1.9-2 3.9-2.9 5.8-0.7 1.3-0.5 2.5-0.3 3.6 0.3 0.5 0.3 0.9 0.3 1.4 0 0.4 0.2 0.7 0.9 0.7 0.2 0 0.2 0 0.2 0q0.3 0 0.7 0c0.4 0 0.6 0 1.1 0 0.7 0.2 1.1 0.7 1.1 1.4 0 0.6-0.4 1.1-1.1 1.1-0.9 0-2 0-2.9 0-1.4 0-2.1-0.9-2.3-2.1 0-0.9-0.2-1.6-0.2-2.5 0-0.7-0.2-1.4-0.2-2 0-1 0-1.6 0.2-2.3 1.3-2.5 2.7-5.1 3.8-7.3l0.7-1.4c0.4-0.7 0.7-1.2 0.4-1.6 0-0.5-0.6-0.5-1.3-0.9l-1.8-0.5c-2-0.7-4.3-1.1-6.5-1.8-0.9-0.3-1.6-0.7-2-1.6-2.3-3.7-4.3-7.3-6.3-10.8-0.7-1.1-0.7-2 0.2-3.2 0.4-0.4 0.9-1.1 1.3-1.6 0.3-0.7 0.7-1.1 1.4-1.8 0.4-0.5 0.4-0.9 0-1.6-0.5-0.7-0.7-1.4-1.1-2.1-0.3-0.4-0.7-0.9-0.9-1.3-0.5-1-0.5-1.6-0.3-2.6 0.3-0.6 0.5-1.6 0.7-2.5 0.2-1.1 0.7-2.5 1.1-3.9 0.3-0.6 0.3-1.1 0-1.8-0.4-0.7-0.6-1.6-0.9-2.5-0.4-1.2-0.2-2.3 0.3-3 0.4-0.9 1.3-1.6 2.4-1.8h0.5c0.9-0.2 2-0.5 2.9-0.7 0.9-0.2 1.4-0.7 1.4-1.6 0.2-3 0.6-5.7 0.9-8.7 0.2-3.2 0.6-6.4 0.9-9.6 0.2-2.7 1.3-3.7 3.8-4.1 1.3 0 2.7-0.2 4-0.5 0.9 0 1.8-0.2 3.4-0.4 0.4 0 0.9-0.3 1.1-0.5 0.2-0.2 0.7-0.4 1.1-0.7q1.7-1 3.4-2c0.7-0.5 0.9-0.9 0.9-1.6 0-2.3-0.2-4.8-0.2-7.6-0.3-1.4 0.4-2.5 1.3-3.2 0.5-0.2 1.1-0.4 1.8-0.4 0.5 0 0.9 0.2 1.6 0.4 0.4 0.2 1.1 0.5 1.6 0.7 0.9 0.2 2 0.7 2.9 1.1 1.3 0.5 2.2 1.4 2.2 2.8 0 0.2 0 0.9 0.5 1.1 0.4 0.5 0.9 0.3 1.3 0.3 1.1-0.3 2.5-0.3 3.6-0.5 0.5 0 1.1-0.2 1.6-0.2 0.9 0 1.8 0.2 2.2 1.1 0.5 0.7 0.5 1.6 0 2.5-0.2 0.5-0.4 1-0.9 1.6l-1.3 1.4h0.7c2 0.2 3.3-0.2 4.7-0.9 2-1.1 4.2-2.3 6.3-3.4 0.9-0.5 1.5-1 2.4-1.4 1.8-0.9 2.5-0.9 3.9 0.4l0.4 0.5q0.7 0.7 1.4 1.4c0.6 0.7 0.6 1.4 0.2 1.8-0.7 0.7-1.4 0.2-1.8 0-2-2.1-2.3-2.1-4.7-0.7-0.7 0.5-1.6 0.7-2.3 1.2-1.8 1.1-3.6 2-5.4 2.9-2 1-4.2 1-6.3 0.7-0.6 0-1.3-0.2-1.5-0.9-0.5-0.7-0.5-1.6 0-2.3 0.4-0.7 0.6-1.1 1.1-1.8 0-0.2 0.2-0.7 0.4-0.9l0.5-0.7h-0.9c-0.5 0-1.1 0.2-1.6 0.2-0.9 0-2 0.2-2.9 0.2-2.7 0.5-3.4 0-3.6-2.5-0.2-0.7-0.4-1.3-1.6-1.8-0.9-0.5-1.5-0.7-2.4-1.1q-0.7-0.4-1.4-0.7c-0.7-0.3-1.1-0.5-1.6-0.3-0.4 0.3-0.4 1-0.4 1.4v0.7c0 2.5 0 5 0.2 7.6 0 1.3-0.4 2-1.6 2.7l-0.4 0.2c-0.7 0.5-1.6 0.9-2.5 1.6-2 1.6-4.2 2.3-6.5 1.9-0.9 0-1.6 0.2-2.2 0.2-0.7 0-1.2 0.2-1.8 0.2-1.2 0.2-1.4 0.9-1.4 1.6-0.4 4.1-0.9 8.5-1.3 12.8 0 0.5 0 1.2 0.2 1.4 0.4 0.5 0.9 0.5 1.3 0.5q2.7 0 5.4 0h1.4c0.7 0 1.1 0.2 1.3 0.4 0.3 0.2 0.3 0.5 0.3 0.9 0 0.9-0.9 1.2-1.6 1.2h-0.9c-2 0-4.3 0-6.3 0-0.5 0-1.1 0-1.3 0.4-0.3 0.3-0.3 0.7-0.3 1.2-0.4 3.2-0.4 3.4-3.6 4.1l-0.6 0.2c-0.9 0-1.6 0.2-2.5 0.5-0.7 0-0.9 0.2-1.1 0.7 0 0.4 0 0.6 0.2 1.1 1.8 3.2 0.9 6.4-0.2 9.4-0.9 2-0.7 3.6 0.6 5.7 2.1 3.2 2.1 3.2-0.2 6.2-0.2 0.2-0.2 0.2-0.4 0.4-0.5 0.5-0.7 0.7-0.9 1.2l-0.3 0.2c-0.2 0.2-0.6 0.9-0.2 1.6 0.2 0.7 0.9 1.2 1.8 1.2 10.8 0 21.6 0 32.1 0h7 0.2c0 0 0.2 0 0.5 0 0.6 0 1.1 0.4 1.1 1.1 0 0.7-0.5 0.9-1.1 1.1-0.5 0-0.7 0-0.9 0h-0.3-36.3q-0.4 0-0.7 0h-0.5c-0.2 0-0.6 0-0.9 0.5 0 0.5 0.3 0.7 0.3 0.9 1.1 1.8 2 3.7 3.1 5.5 0.5 0.5 0.7 0.7 1.1 0.7h0.3c1.3 0.4 2.7 0.7 4 1.1 1.1 0.5 2.5 0.7 3.6 1.2 1.3 0.4 2.2 1.1 2.7 2.3z"/>
			<path id="Vector" class="s1" d="m21.9 87.5c0.4 1.1 0.2 2.3-0.5 3.6-0.4 0.7-0.9 1.6-1.3 2.5-0.9 1.9-2 3.9-2.9 5.8-0.7 1.3-0.5 2.5-0.3 3.6 0.3 0.5 0.3 0.9 0.3 1.4 0 0.4 0.2 0.7 0.9 0.7 0.2 0 0.2 0 0.2 0q0.3 0 0.7 0c0.4 0 0.6 0 1.1 0 0.7 0.2 1.1 0.7 1.1 1.4 0 0.6-0.4 1.1-1.1 1.1-0.9 0-2 0-2.9 0-1.4 0-2.1-0.9-2.3-2.1 0-0.9-0.2-1.6-0.2-2.5 0-0.7-0.2-1.4-0.2-2 0-1 0-1.6 0.2-2.3 1.3-2.5 2.7-5.1 3.8-7.3l0.7-1.4c0.4-0.7 0.7-1.2 0.4-1.6 0-0.5-0.6-0.5-1.3-0.9l-1.8-0.5c-2-0.7-4.3-1.1-6.5-1.8-0.9-0.3-1.6-0.7-2-1.6-2.3-3.7-4.3-7.3-6.3-10.8-0.7-1.1-0.7-2 0.2-3.2 0.4-0.4 0.9-1.1 1.3-1.6 0.3-0.7 0.7-1.1 1.4-1.8 0.4-0.5 0.4-0.9 0-1.6-0.5-0.7-0.7-1.4-1.1-2.1-0.3-0.4-0.7-0.9-0.9-1.3-0.5-1-0.5-1.6-0.3-2.6 0.3-0.6 0.5-1.6 0.7-2.5 0.2-1.1 0.7-2.5 1.1-3.9 0.3-0.6 0.3-1.1 0-1.8-0.4-0.7-0.6-1.6-0.9-2.5-0.4-1.2-0.2-2.3 0.3-3 0.4-0.9 1.3-1.6 2.4-1.8h0.5c0.9-0.2 2-0.5 2.9-0.7 0.9-0.2 1.4-0.7 1.4-1.6 0.2-3 0.6-5.7 0.9-8.7 0.2-3.2 0.6-6.4 0.9-9.6 0.2-2.7 1.3-3.7 3.8-4.1 1.3 0 2.7-0.2 4-0.5 0.9 0 1.8-0.2 3.4-0.4 0.4 0 0.9-0.3 1.1-0.5 0.2-0.2 0.7-0.4 1.1-0.7q1.7-1 3.4-2c0.7-0.5 0.9-0.9 0.9-1.6 0-2.3-0.2-4.8-0.2-7.6-0.3-1.4 0.4-2.5 1.3-3.2 0.5-0.2 1.1-0.4 1.8-0.4 0.5 0 0.9 0.2 1.6 0.4 0.4 0.2 1.1 0.5 1.6 0.7 0.9 0.2 2 0.7 2.9 1.1 1.3 0.5 2.2 1.4 2.2 2.8 0 0.2 0 0.9 0.5 1.1 0.4 0.5 0.9 0.3 1.3 0.3 1.1-0.3 2.5-0.3 3.6-0.5 0.5 0 1.1-0.2 1.6-0.2 0.9 0 1.8 0.2 2.2 1.1 0.5 0.7 0.5 1.6 0 2.5-0.2 0.5-0.4 1-0.9 1.6l-1.3 1.4h0.7c2 0.2 3.3-0.2 4.7-0.9 2-1.1 4.2-2.3 6.3-3.4 0.9-0.5 1.5-1 2.4-1.4 1.8-0.9 2.5-0.9 3.9 0.4l0.4 0.5q0.7 0.7 1.4 1.4c0.6 0.7 0.6 1.4 0.2 1.8-0.7 0.7-1.4 0.2-1.8 0-2-2.1-2.3-2.1-5-0.7-0.6 0.5-1.5 0.7-2.2 1.2-1.8 1.1-3.6 2-5.4 2.9-2 1-4.3 1-6.3 0.7-0.4 0-1.1-0.2-1.3-0.9-0.5-0.7-0.5-1.6 0-2.3 0.4-0.7 0.6-1.1 1.1-1.8 0-0.2 0.2-0.7 0.4-0.9l0.5-0.7h-0.9c-0.5 0-1.1 0.2-1.6 0.2-0.9 0-2 0.2-2.9 0.2-2.7 0.5-3.4 0-3.6-2.5-0.2-0.7-0.4-1.3-1.6-1.8-0.9-0.5-1.5-0.7-2.4-1.1q-0.7-0.4-1.4-0.7c-0.7-0.3-1.1-0.5-1.6-0.3-0.4 0.3-0.4 1-0.4 1.4v0.7c0 2.5 0 5 0.2 7.6 0 1.3-0.4 2-1.6 2.7l-0.4 0.2c-0.7 0.5-1.6 0.9-2.5 1.6-2 1.6-4.2 2.3-6.5 1.9-0.9 0-1.6 0.2-2.2 0.2-0.7 0-1.2 0.2-1.8 0.2-1.2 0.2-1.4 0.9-1.4 1.6-0.4 4.1-0.9 8.5-1.3 12.8 0 0.5 0 1.2 0.2 1.4 0.4 0.5 0.9 0.5 1.3 0.5q2.7 0 5.4 0h1.4c0.7 0 1.1 0.2 1.3 0.4 0.3 0.2 0.3 0.5 0.3 0.9 0 0.9-0.9 1.2-1.6 1.2h-0.9c-2 0-4.3 0-6.3 0-0.5 0-1.1 0-1.3 0.4-0.3 0.3-0.3 0.7-0.3 1.2-0.4 3.2-0.4 3.4-3.6 4.1l-0.6 0.2c-0.9 0-1.6 0.2-2.5 0.5-0.7 0-0.9 0.2-1.1 0.7 0 0.4 0 0.6 0.2 1.1 1.8 3.2 0.9 6.4-0.2 9.4-0.9 2-0.7 3.6 0.6 5.7 2.1 3.2 2.1 3.2-0.2 6.2-0.2 0.2-0.2 0.2-0.4 0.4-0.5 0.5-0.7 0.7-0.9 1.2l-0.3 0.2c-0.2 0.2-0.6 0.9-0.2 1.6 0.2 0.7 0.9 1.2 1.8 1.2 10.8 0 21.6 0 32.1 0h7 0.2c0 0 0.2 0 0.5 0 0.6 0 1.1 0.4 1.1 1.1 0 0.7-0.5 0.9-1.1 1.1-0.5 0-0.7 0-0.9 0h-0.3-36.3q-0.4 0-0.7 0h-0.5c-0.2 0-0.6 0-0.9 0.5 0 0.5 0.3 0.7 0.3 0.9 1.1 1.8 2 3.7 3.1 5.5 0.5 0.5 0.7 0.7 1.1 0.7h0.3c1.3 0.4 2.7 0.7 4 1.1 1.1 0.5 2.5 0.7 3.6 1.2 1.3 0.4 2.2 1.1 2.7 2.3z"/>
		</g>
	</g>
</svg>