<svg version="1.2" xmlns="http://www.w3.org/2000/svg" viewBox="0 0 99 114" width="99" height="114">
	<title>Frame</title>
	<style>
		.s0 { fill: #df0022 } 
	</style>
	<g id="Frame">
		<g id="Group">
			<path id="Vector" fill-rule="evenodd" class="s0" d="m98.8 29.3c0 9.6 0.2 19.9 0 29.7 0 8.5-2.8 16.9-8.1 24.7-5.9 8.9-14.4 16.5-25.7 22.9-4.8 2.7-9.8 5-14.4 6.9h-1.6c-4.4-1.9-9.4-3.9-14.3-6.7-9.8-5.7-17.4-11.9-23.1-19.4-7.2-9.4-10.6-19.7-10.6-31.1 0-10.3 0-20.6 0-30.5 0-4.3 0-9.1 0-13.7 1.6 0 3.4 0 5 0 3.7-0.2 7.6-0.2 11.5 0 7.1 0.5 14-1.3 21.1-5.5 3.7-2 6.5-3.9 9-5.9 0.9-0.7 3.7-0.7 4.6 0q8.6 6.5 17.2 9.6c3 1.1 6 1.6 9.2 1.6 7.1 0 13.7 0 20.4 0 0 5.7 0 11.4-0.2 17.4zm-3.5-9.2c0-0.9-0.2-2.3-1.1-3.2-1.2-1.1-2.8-1.1-3.2-1.1-3.7 0-7.6 0-12.2 0-3.2 0-6.2-0.5-9.2-1.4-5.5-1.6-11-4.6-17-8.7-1.8-1.1-3.4-1.1-5.2 0-2.1 1.4-4.6 3-6.9 4.4-4.6 2.5-10.8 5.5-17.7 5.7-3 0-6.2 0-9.2 0-1.4 0-3 0-4.3 0-1.2 0-2.6 0-3.5 0.9-0.9 0.9-0.9 2.1-0.9 3.4q0 9.3 0 18.6 0 9.2 0 18.5c0 2.5 0.2 5 0.7 7.3 1.8 10.3 7.1 19.2 16.1 27.5 7.1 6.4 15.3 11.8 25.7 16.2q1.3 0.7 2.7 0.7 1.4 0 2.8-0.7c12.6-5.5 22.5-12.1 30-20.6 8.3-9.1 12.4-19.7 12.4-30.9 0-4.1 0-8 0-11.9 0-1.6 0-3.4 0-5 0-1.6 0-3.4 0-5.3 0-4.8 0-9.8 0-14.4z"/>
			<path id="Vector" fill-rule="evenodd" class="s0" d="m73.8 33.4c6.2 6.4 9.6 14.6 9.6 23.6-0.2 8.9-3.7 17.1-9.9 23.3-6.4 6.2-14.7 9.6-23.6 9.6-9 0-17.2-3.7-23.4-9.8-6.2-6.4-9.7-14.7-9.7-23.6 0-8.9 3.7-17.2 10.1-23.6 6.2-5.9 14.3-9.3 22.5-9.3q0.4 0 0.7 0c9 0 17.2 3.4 23.7 9.8zm-3 2.5c-5.5-5.5-13.1-8.7-21.1-8.7-7.8 0-15.4 3.2-20.9 8.7-5.5 5.5-8.5 13.1-8.5 20.8 0.2 8 3.2 15.4 8.7 20.8 5.5 5.5 13.1 8.5 20.9 8.5 7.8 0 15.4-3 20.9-8.5 5.7-5.4 8.7-12.8 8.7-20.8 0.2-7.7-2.8-15.3-8.7-20.8z"/>
			<path id="Vector" class="s0" d="m65 45.3q0.7 0.7 1.4 1.4c-5.5 5.5-11 10.9-16.3 16.2l-6 5.7q-1.3-1.3-2.7-2.7-3.4-3.8-7.6-7.6c0.9-0.9 1.9-1.6 2.5-2.5 0.7 0.9 1.7 1.8 2.3 2.5 1 0.9 5.5 5.1 5.5 5.1 0 0 11.5-11 15.7-15.1 1.3-1.2 2.7-2.6 4.1-3.9 0.2 0.2 0.4 0.7 1.1 0.9z"/>
		</g>
	</g>
</svg>