<svg version="1.2" xmlns="http://www.w3.org/2000/svg" viewBox="0 0 25 17" width="25" height="17">
	<title>Vector</title>
	<style>
		.s0 { fill: #999587 } 
	</style>
	<path id="Vector" fill-rule="evenodd" class="s0" d="m22.9 17h-19.8c-1.2 0-2.1-0.9-2.1-2v-12c0-1.1 0.9-2 2.1-2h19.8c1.2 0 2.1 0.9 2.1 2v12c0 1.1-0.9 2-2.1 2zm0.3-14.1c-0.5-0.5-1-0.3-1.4 0l-8.8 6.8-8.8-6.8c-0.4-0.3-0.9-0.5-1.4 0-0.4 0.4-0.2 0.8 0.1 1.1l5.7 4.9-5.5 5.4c-0.2 0.2-0.3 0.5-0.1 0.7 0.2 0.2 0.6 0.2 0.8 0.1l6.2-5 3 2.6 3-2.6 6.2 5c0.2 0.1 0.6 0.1 0.8-0.1 0.2-0.2 0.1-0.5-0.1-0.7l-5.5-5.4 5.7-4.9c0.3-0.3 0.5-0.7 0.1-1.1z"/>
</svg>