<svg version="1.2" xmlns="http://www.w3.org/2000/svg" viewBox="0 0 27 27" width="27" height="27">
	<title>Kontakt</title>
	<style>
		.s0 { fill: #ffffff } 
	</style>
	<path id="Kontakt" fill-rule="evenodd" class="s0" d="m5.7 22.2c-0.9-0.2-1.8-0.6-2.5-1.2-1.4-1.2-2.2-2.8-2.2-4.6q0-4.7 0-9.5c0-3 2.1-5.4 5.1-5.8q0.5-0.1 0.9-0.1 7 0 14 0c2.9 0 5.3 1.9 5.9 4.7q0.1 0.7 0.1 1.3 0 4.6 0 9.3c0 3-2 5.3-4.8 5.9q-0.7 0.1-1.3 0.1-3.1 0-6.2 0c-0.2 0-0.4 0.1-0.6 0.2-2.1 1.4-4.3 2.8-6.4 4.3-0.8 0.5-1.7 0.2-1.9-0.6q-0.1-0.3-0.1-0.5 0-1.6 0-3.2 0-0.1 0-0.3zm8.3-11.7q2.6 0 5.1 0 1 0 2 0c0.6-0.1 1.1-0.5 1.1-1 0.1-0.6-0.2-1.2-0.7-1.3q-0.3-0.1-0.6-0.1-6.9 0-13.8 0-0.1 0-0.2 0c-0.5 0.1-0.9 0.3-1.1 0.8-0.3 0.8 0.3 1.6 1.2 1.6q3.5 0 7 0zm0 4.7q2 0 4 0 0.4 0 0.8 0c0.8-0.1 1.3-0.8 1-1.6-0.1-0.5-0.6-0.8-1.2-0.8q-4.6 0-9.2 0-0.1 0-0.2 0c-0.5 0.1-1 0.4-1.1 0.9-0.1 0.8 0.4 1.5 1.2 1.5q2.4 0 4.7 0z"/>
</svg>