<svg version="1.2" xmlns="http://www.w3.org/2000/svg" viewBox="0 0 27 20" width="27" height="20">
	<title>Vector</title>
	<style>
		.s0 { fill: #e2001a } 
	</style>
	<path id="Vector" fill-rule="evenodd" class="s0" d="m24.7 20h-21.4c-1.3 0-2.3-1.1-2.3-2.4v-14.2c0-1.3 1-2.4 2.3-2.4h21.4c1.3 0 2.3 1.1 2.3 2.4v14.2c0 1.3-1 2.4-2.3 2.4zm0.3-16.8c-0.5-0.5-1-0.3-1.5 0.1l-9.5 8-9.5-8c-0.5-0.4-1-0.6-1.5-0.1-0.5 0.5-0.2 1.1 0 1.3l6.3 5.9-6 6.4c-0.2 0.3-0.3 0.6-0.1 0.9 0.2 0.2 0.7 0.2 0.9 0l6.6-5.9 3.3 3.1 3.3-3.1 6.6 5.9c0.2 0.2 0.7 0.2 0.9 0 0.2-0.3 0.1-0.6-0.1-0.9l-6-6.4 6.3-5.9c0.2-0.2 0.5-0.8 0-1.3z"/>
</svg>