<svg version="1.2" baseProfile="tiny-ps" xmlns="http://www.w3.org/2000/svg" viewBox="0 0 31 20" width="31" height="20">
	<title>partner icon</title>
	<style>
		tspan { white-space:pre }
		.shp0 { fill: #e2001a } 
	</style>
	<g id="partner icon">
		<path id="Vector" class="shp0" d="M23.72 15.08C23.31 15.72 22.71 16.19 21.93 16.42C21.75 16.46 21.68 16.55 21.62 16.71C21.21 17.94 20.37 18.69 19.07 18.94C18.93 18.97 18.79 19.04 18.68 19.12C16.94 20.41 14.61 20.27 13.07 18.76C9.91 15.64 6.75 12.51 3.58 9.38C3.55 9.35 3.51 9.31 3.48 9.26C3.55 9.19 3.61 9.12 3.68 9.05C5.66 7.08 7.66 5.12 9.64 3.15C10.84 1.95 12.29 1.47 13.98 1.72C14.04 1.72 14.08 1.75 14.14 1.76C14.16 1.79 14.19 1.83 14.22 1.86C14.12 1.92 14.01 1.96 13.94 2.03C12.62 3.32 11.31 4.61 10 5.91C8.8 7.1 8.82 8.71 10.07 9.87C12.37 12.01 15.94 12.22 18.52 10.34C18.61 10.28 18.69 10.21 18.76 10.17C20.41 11.81 22.05 13.43 23.72 15.08ZM24.46 13.23C22.61 11.39 20.74 9.54 18.84 7.67C18.56 7.94 18.31 8.19 18.07 8.43C17.48 9.02 16.8 9.45 15.99 9.67C14.19 10.18 12.6 9.8 11.22 8.55C10.76 8.14 10.76 7.63 11.2 7.19C12.6 5.81 13.98 4.42 15.39 3.05C17.3 1.18 20.3 1.16 22.22 3.02C24.3 5.05 26.35 7.1 28.41 9.14C28.45 9.17 28.48 9.21 28.51 9.24C27.15 10.58 25.81 11.91 24.46 13.23ZM1.34 7.16C0.89 6.7 0.89 6.21 1.34 5.76C2.7 4.41 4.07 3.06 5.44 1.71C5.9 1.25 6.37 0.78 6.84 0.32C7.28 -0.11 7.77 -0.11 8.21 0.32C8.51 0.62 8.82 0.91 9.12 1.2C6.83 3.5 4.55 5.77 2.26 8.08C1.9 7.73 1.62 7.44 1.34 7.16Z" />
		<path id="Vector" class="shp0" d="M31 6.7C30.62 7.14 30.23 7.58 29.82 8.06C27.49 5.77 25.2 3.5 22.93 1.25C23.26 0.91 23.59 0.52 23.98 0.19C24.3 -0.09 24.79 -0.02 25.12 0.3C25.52 0.68 25.92 1.08 26.32 1.48C27.69 2.84 29.07 4.19 30.44 5.56C30.65 5.77 30.81 6.01 31 6.24C31 6.39 31 6.55 31 6.7Z" />
		<path id="Vector" class="shp0" d="M18.76 10.17C20.41 11.81 22.05 13.43 23.71 15.07C23.3 15.71 22.69 16.17 21.92 16.4C21.75 16.46 21.67 16.53 21.62 16.7C21.2 17.93 20.35 18.67 19.06 18.93C18.93 18.95 18.79 19.02 18.67 19.11C16.94 20.4 14.6 20.27 13.06 18.74C9.89 15.62 6.73 12.49 3.58 9.37C3.55 9.34 3.51 9.3 3.47 9.25C3.54 9.17 3.6 9.1 3.67 9.03C5.65 7.06 7.65 5.1 9.63 3.13C10.84 1.93 12.29 1.46 13.98 1.7C14.03 1.71 14.08 1.73 14.13 1.75C14.16 1.78 14.19 1.82 14.21 1.85C14.12 1.9 14.01 1.93 13.93 2.01C12.62 3.3 11.3 4.6 9.99 5.9C8.78 7.09 8.81 8.69 10.06 9.85C12.37 12 15.94 12.2 18.51 10.32C18.62 10.28 18.7 10.22 18.76 10.17Z" />
		<path id="Vector" class="shp0" d="M28.51 9.24C27.15 10.59 25.81 11.91 24.48 13.23C22.62 11.4 20.76 9.54 18.86 7.67C18.58 7.94 18.33 8.19 18.09 8.43C17.5 9.02 16.81 9.45 16.01 9.67C14.21 10.17 12.61 9.8 11.23 8.55C10.77 8.14 10.77 7.63 11.22 7.19C12.61 5.8 14 4.42 15.41 3.05C17.32 1.18 20.32 1.16 22.23 3.02C24.31 5.05 26.37 7.1 28.43 9.14C28.45 9.17 28.48 9.21 28.51 9.24Z" />
		<path id="Vector" class="shp0" d="M2.26 8.08C1.91 7.73 1.62 7.44 1.34 7.16C0.89 6.71 0.88 6.22 1.34 5.77C2.71 4.42 4.08 3.07 5.44 1.72C5.91 1.25 6.37 0.79 6.84 0.33C7.28 -0.1 7.77 -0.1 8.21 0.33C8.51 0.62 8.82 0.92 9.12 1.21C6.83 3.49 4.55 5.77 2.26 8.08Z" />
	</g>
</svg>