<svg version="1.2" xmlns="http://www.w3.org/2000/svg" viewBox="0 0 29 23" width="29" height="23">
	<title>Startseite</title>
	<style>
		.s0 { fill: #ffffff } 
	</style>
	<g id="Startseite">
		<path id="Vector" class="s0" d="m19.7 8.4q2.5 2.1 5.1 4.2c0.2 0.2 0.2 0.3 0.2 0.5q0 4 0 8c0 0.8-0.4 1.3-1.2 1.3q-3.2 0-6.3 0-0.1 0-0.2 0 0-3.4 0-6.7-2.3 0-4.5 0 0 3.3 0 6.7-0.2 0-0.3 0-3.1 0-6.2 0c-0.8 0-1.3-0.5-1.3-1.3q0-4 0-8c0-0.2 0.1-0.3 0.2-0.5q4.8-3.9 9.5-7.9 0.2 0 0.3-0.2 2.3 2 4.7 3.9z"/>
		<path id="Vector" class="s0" d="m1 11.2c0.1-0.1 0.2-0.3 0.4-0.4q6-5.1 12.1-10.2c1-0.8 2-0.8 3 0q1.9 1.6 3.8 3.2 0.1 0.1 0.3 0.2 0-0.2 0-0.3 0-1.5 0-2.9c0-0.6 0.2-0.7 0.7-0.7q1.5 0 3 0c0.5 0 0.7 0.2 0.7 0.7q0 3.3 0 6.7c0 0.2 0.1 0.3 0.2 0.4q1.7 1.4 3.4 2.9c0.5 0.3 0.5 0.6 0.1 1.1q-0.4 0.5-0.8 1c-0.3 0.4-0.6 0.4-1 0.1q-5.8-4.9-11.5-9.7-0.2-0.1-0.4-0.3-0.7 0.5-1.3 1.1-5.3 4.4-10.6 8.8c-0.4 0.4-0.7 0.4-1 0q-0.6-0.7-1.1-1.4 0-0.1 0-0.3z"/>
		<path id="Vector" class="s0" d="m15 4.5q2.3 2 4.6 3.9 2.6 2.1 5.2 4.2c0.2 0.2 0.2 0.3 0.2 0.5q0 4 0 8c0 0.8-0.4 1.3-1.3 1.3q-3.1 0-6.2 0-0.1 0-0.3 0 0-3.3 0-6.7-2.2 0-4.4 0 0 3.3 0 6.7-0.2 0-0.3 0-3.1 0-6.2 0c-0.9 0-1.3-0.5-1.3-1.3q0-4 0-8c0-0.2 0.1-0.3 0.2-0.5q4.8-3.9 9.5-7.9 0.2 0 0.3-0.2z"/>
	</g>
</svg>