<svg version="1.2" xmlns="http://www.w3.org/2000/svg" viewBox="0 0 27 25" width="27" height="25">
	<title>Unternehmen</title>
	<style>
		.s0 { fill: #ffffff } 
	</style>
	<path id="Unternehmen" fill-rule="evenodd" class="s0" d="m1 25q0-1.2 0-2.4 1.2 0 2.4 0 0-0.2 0-0.4 0-9.9 0-19.9c0-0.5 0.1-0.9 0.5-1.1 0.2-0.1 0.5-0.2 0.7-0.2q9.4 0 18.8 0c0.8 0 1.2 0.5 1.2 1.3q0 10 0 19.9 0 0.2 0 0.4 1.2 0 2.4 0 0 1.2 0 2.4-13 0-26 0zm11.8-15.6q0-1.2 0-2.4-1.8 0-3.5 0 0 1.2 0 2.4 1.7 0 3.5 0zm2.4 0q1.8 0 3.5 0 0-1.2 0-2.4-1.8 0-3.5 0 0 1.2 0 2.4zm-5.9 9.6q1.8 0 3.5 0 0-1.2 0-2.4-1.8 0-3.5 0 0 1.2 0 2.4zm5.9 0q1.8 0 3.5 0 0-1.2 0-2.4-1.8 0-3.5 0 0 1.2 0 2.4zm-2.4-7.2q-1.8 0-3.5 0 0 1.2 0 2.4 1.8 0 3.5 0 0-1.2 0-2.4zm2.4 0q0 1.2 0 2.4 1.8 0 3.5 0 0-1.2 0-2.4-1.7 0-3.5 0z"/>
</svg>