<svg width="23" height="27" viewBox="0 0 23 27" fill="none" xmlns="http://www.w3.org/2000/svg">
<g clip-path="url(#clip0_26_42)">
<path d="M14.6505 18.7433V21.9224C14.6505 22.5954 14.4487 22.9319 14.0452 22.9319C13.8072 22.9319 13.5744 22.8214 13.3468 22.6004V18.0653C13.5744 17.8443 13.8072 17.7338 14.0452 17.7338C14.4487 17.7338 14.6505 18.0703 14.6505 18.7433ZM19.8961 18.7584V19.4515H18.4993V18.7584C18.4993 18.0753 18.7321 17.7338 19.1977 17.7338C19.6633 17.7338 19.8961 18.0753 19.8961 18.7584ZM4.90418 15.4738H6.56478V14.0575H1.72267V15.4738H3.35223V24.0469H4.90418V15.4738ZM9.37382 24.0469H10.7551V16.6038H9.37382V22.2991C9.06343 22.721 8.76856 22.9319 8.4892 22.9319C8.30297 22.9319 8.19433 22.8265 8.16329 22.6155C8.15295 22.5854 8.14777 22.4096 8.14777 22.0882V16.6038H6.76653V22.495C6.76653 22.9872 6.80792 23.3538 6.89069 23.5949C7.01484 23.9665 7.31489 24.1523 7.79082 24.1523C8.28745 24.1523 8.81511 23.846 9.37382 23.2333V24.0469ZM16.0317 21.817V18.8488C16.0317 18.1155 15.9852 17.6183 15.892 17.3571C15.7161 16.7946 15.3489 16.5134 14.7901 16.5134C14.2728 16.5134 13.7917 16.7846 13.3468 17.327V14.0575H11.9656V24.0469H13.3468V23.3237C13.8124 23.8761 14.2935 24.1523 14.7901 24.1523C15.3489 24.1523 15.7161 23.8761 15.892 23.3237C15.9852 23.0525 16.0317 22.5502 16.0317 21.817ZM21.2773 21.6663V21.4704H19.865C19.865 21.9827 19.8547 22.2891 19.834 22.3895C19.7616 22.7511 19.5547 22.9319 19.2132 22.9319C18.7373 22.9319 18.4993 22.5854 18.4993 21.8923V20.5815H21.2773V19.0296C21.2773 18.236 21.1377 17.6535 20.8583 17.2818C20.4548 16.7695 19.9064 16.5134 19.2132 16.5134C18.5097 16.5134 17.9561 16.7695 17.5526 17.2818C17.2629 17.6535 17.1181 18.236 17.1181 19.0296V21.6362C17.1181 22.4297 17.2681 23.0123 17.5682 23.3839C17.9717 23.8962 18.5304 24.1523 19.2443 24.1523C19.9892 24.1523 20.5479 23.8862 20.9204 23.3538C21.1066 23.0826 21.2152 22.8114 21.2463 22.5402C21.267 22.4498 21.2773 22.1585 21.2773 21.6663ZM11.8414 7.91016V4.74609C11.8414 4.05301 11.619 3.70647 11.1741 3.70647C10.7292 3.70647 10.5067 4.05301 10.5067 4.74609V7.91016C10.5067 8.61328 10.7292 8.96484 11.1741 8.96484C11.619 8.96484 11.8414 8.61328 11.8414 7.91016ZM23 19.2254C23 21.5759 22.8655 23.3337 22.5965 24.4989C22.4516 25.0915 22.1516 25.5887 21.6964 25.9905C21.2411 26.3923 20.7134 26.6233 20.1134 26.6836C18.2096 26.8945 15.3385 27 11.5 27C7.66149 27 4.79037 26.8945 2.88664 26.6836C2.28655 26.6233 1.7563 26.3923 1.29588 25.9905C0.83547 25.5887 0.538012 25.0915 0.403509 24.4989C0.134503 23.3739 0 21.6161 0 19.2254C0 16.875 0.134503 15.1172 0.403509 13.952C0.548358 13.3594 0.848403 12.8622 1.30364 12.4604C1.75888 12.0586 2.29172 11.8225 2.90216 11.7522C4.79555 11.5513 7.66149 11.4509 11.5 11.4509C15.3385 11.4509 18.2096 11.5513 20.1134 11.7522C20.7134 11.8225 21.2437 12.0586 21.7041 12.4604C22.1645 12.8622 22.462 13.3594 22.5965 13.952C22.8655 15.077 23 16.8348 23 19.2254ZM7.51147 0H9.09447L7.2166 6.01172V10.0949H5.66464V6.01172C5.51979 5.26842 5.20423 4.20368 4.71795 2.81752C4.33513 1.78292 3.99888 0.84375 3.70918 0H5.35425L6.45614 3.96261L7.51147 0ZM13.2537 5.0173V7.65402C13.2537 8.46763 13.1089 9.06027 12.8192 9.43192C12.426 9.9442 11.8776 10.2003 11.1741 10.2003C10.4809 10.2003 9.9377 9.9442 9.54453 9.43192C9.25484 9.05022 9.10999 8.45759 9.10999 7.65402V5.0173C9.10999 4.21373 9.25484 3.62612 9.54453 3.25446C9.9377 2.74219 10.4809 2.48605 11.1741 2.48605C11.8776 2.48605 12.426 2.74219 12.8192 3.25446C13.1089 3.62612 13.2537 4.21373 13.2537 5.0173ZM18.4528 2.57645V10.0949H17.0405V9.26618C16.4921 9.88895 15.9593 10.2003 15.442 10.2003C14.966 10.2003 14.6608 10.0145 14.5263 9.64286C14.4435 9.40179 14.4022 9.02511 14.4022 8.51283V2.57645H15.8144V8.10603C15.8144 8.4375 15.8196 8.61328 15.83 8.63337C15.861 8.85435 15.9696 8.96484 16.1559 8.96484C16.4352 8.96484 16.7301 8.74888 17.0405 8.31696V2.57645H18.4528Z" fill="#E3001B"/>
</g>
<defs>
<clipPath id="clip0_26_42">
<rect width="23" height="27" fill="white"/>
</clipPath>
</defs>
</svg>
